<svg width="152" height="36" viewBox="0 0 152 36" fill="none" xmlns="http://www.w3.org/2000/svg">
<path d="M13.9095 2.74365H32.8289L18.9194 23.3604H0L13.9095 2.74365Z" fill="#10100E"/>
<path d="M14.739 25.2715L9.35156 33.2568H29.1684L43.0779 12.6401H28.4519L19.9298 25.2715H14.739Z" fill="#794AFF"/>
<path d="M60.3574 21.6705H63.937L66.057 24.419L67.5698 26.2088L71.2026 30.875H67.3674L64.8958 27.7429L63.8411 26.2514L60.3574 21.6705ZM71.7246 18.0909C71.7246 20.4418 71.2843 22.4553 70.4036 24.1314C69.53 25.8004 68.3368 27.0788 66.8241 27.9666C65.3184 28.8544 63.6103 29.2983 61.6998 29.2983C59.7893 29.2983 58.0776 28.8544 56.5648 27.9666C55.0591 27.0717 53.866 25.7898 52.9853 24.1207C52.1117 22.4446 51.6749 20.4347 51.6749 18.0909C51.6749 15.7401 52.1117 13.7301 52.9853 12.0611C53.866 10.3849 55.0591 9.10298 56.5648 8.2152C58.0776 7.32741 59.7893 6.88352 61.6998 6.88352C63.6103 6.88352 65.3184 7.32741 66.8241 8.2152C68.3368 9.10298 69.53 10.3849 70.4036 12.0611C71.2843 13.7301 71.7246 15.7401 71.7246 18.0909ZM67.7509 18.0909C67.7509 16.4361 67.4917 15.0405 66.9732 13.9041C66.4618 12.7607 65.7516 11.8977 64.8425 11.3153C63.9334 10.7259 62.8859 10.4311 61.6998 10.4311C60.5137 10.4311 59.4661 10.7259 58.557 11.3153C57.6479 11.8977 56.9341 12.7607 56.4157 13.9041C55.9043 15.0405 55.6486 16.4361 55.6486 18.0909C55.6486 19.7457 55.9043 21.1449 56.4157 22.2884C56.9341 23.4247 57.6479 24.2876 58.557 24.8771C59.4661 25.4595 60.5137 25.7507 61.6998 25.7507C62.8859 25.7507 63.9334 25.4595 64.8425 24.8771C65.7516 24.2876 66.4618 23.4247 66.9732 22.2884C67.4917 21.1449 67.7509 19.7457 67.7509 18.0909ZM85.1498 22.1179V12.6364H89.0064V29H85.267V26.0916H85.0966C84.7273 27.0078 84.12 27.7571 83.2748 28.3395C82.4368 28.9219 81.4034 29.2131 80.1747 29.2131C79.1023 29.2131 78.1541 28.9751 77.3302 28.4993C76.5135 28.0163 75.8743 27.3168 75.4126 26.4006C74.951 25.4773 74.7202 24.3622 74.7202 23.0554V12.6364H78.5767V22.4588C78.5767 23.4957 78.8608 24.3196 79.429 24.9304C79.9971 25.5412 80.7429 25.8466 81.6662 25.8466C82.2344 25.8466 82.7848 25.7081 83.3175 25.4311C83.8501 25.1541 84.2869 24.7422 84.6278 24.1953C84.9758 23.6413 85.1498 22.9489 85.1498 22.1179ZM96.2286 7.18182V29H92.3721V7.18182H96.2286ZM104.303 29.3303C103.266 29.3303 102.332 29.1456 101.501 28.7763C100.677 28.3999 100.024 27.8459 99.5411 27.1143C99.0653 26.3828 98.8273 25.4808 98.8273 24.4084C98.8273 23.4851 98.9978 22.7216 99.3387 22.1179C99.6796 21.5142 100.145 21.0312 100.734 20.669C101.324 20.3068 101.988 20.0334 102.726 19.8487C103.472 19.657 104.243 19.5185 105.038 19.4332C105.997 19.3338 106.775 19.245 107.371 19.1669C107.968 19.0817 108.401 18.9538 108.671 18.7834C108.948 18.6058 109.087 18.3324 109.087 17.9631V17.8991C109.087 17.0966 108.849 16.4751 108.373 16.0348C107.897 15.5945 107.212 15.3743 106.317 15.3743C105.372 15.3743 104.623 15.5803 104.069 15.9922C103.522 16.4041 103.153 16.8906 102.961 17.4517L99.36 16.9403C99.6441 15.946 100.113 15.1151 100.766 14.4474C101.42 13.7727 102.219 13.2685 103.163 12.9347C104.108 12.5938 105.152 12.4233 106.295 12.4233C107.084 12.4233 107.869 12.5156 108.65 12.7003C109.431 12.8849 110.145 13.1903 110.791 13.6165C111.437 14.0355 111.956 14.6072 112.347 15.3317C112.744 16.0561 112.943 16.9616 112.943 18.0483V29H109.236V26.7521H109.108C108.873 27.2067 108.543 27.6328 108.117 28.0305C107.698 28.4212 107.169 28.7372 106.53 28.9787C105.898 29.2131 105.155 29.3303 104.303 29.3303ZM105.305 26.4964C106.079 26.4964 106.75 26.3437 107.318 26.0384C107.886 25.7259 108.323 25.3139 108.628 24.8026C108.941 24.2912 109.097 23.7337 109.097 23.13V21.2017C108.976 21.3011 108.771 21.3935 108.479 21.4787C108.195 21.5639 107.876 21.6385 107.521 21.7024C107.165 21.7663 106.814 21.8232 106.466 21.8729C106.118 21.9226 105.816 21.9652 105.56 22.0007C104.985 22.0788 104.47 22.2067 104.016 22.3842C103.561 22.5618 103.202 22.8104 102.94 23.13C102.677 23.4425 102.545 23.8473 102.545 24.3445C102.545 25.0547 102.805 25.5909 103.323 25.9531C103.842 26.3153 104.502 26.4964 105.305 26.4964ZM120.077 19.4119V29H116.221V12.6364H119.907V15.4169H120.099C120.475 14.5007 121.075 13.7727 121.899 13.233C122.73 12.6932 123.756 12.4233 124.978 12.4233C126.107 12.4233 127.091 12.6648 127.929 13.1477C128.774 13.6307 129.428 14.3303 129.889 15.2464C130.358 16.1626 130.589 17.2741 130.582 18.581V29H126.725V19.1776C126.725 18.0838 126.441 17.228 125.873 16.6101C125.312 15.9922 124.534 15.6832 123.54 15.6832C122.865 15.6832 122.265 15.8324 121.739 16.1307C121.221 16.4219 120.813 16.8445 120.514 17.3984C120.223 17.9524 120.077 18.6236 120.077 19.4119ZM139.975 29.2876C138.689 29.2876 137.539 28.9574 136.523 28.2969C135.507 27.6364 134.705 26.6776 134.115 25.4205C133.526 24.1634 133.231 22.6364 133.231 20.8395C133.231 19.0213 133.529 17.4872 134.126 16.2372C134.73 14.9801 135.543 14.032 136.566 13.3928C137.588 12.7464 138.728 12.4233 139.985 12.4233C140.944 12.4233 141.732 12.5866 142.35 12.9134C142.968 13.233 143.458 13.62 143.821 14.0746C144.183 14.522 144.463 14.9446 144.662 15.3423H144.822V7.18182H148.689V29H144.897V26.4219H144.662C144.463 26.8196 144.176 27.2422 143.799 27.6896C143.423 28.13 142.926 28.5064 142.308 28.8189C141.69 29.1314 140.912 29.2876 139.975 29.2876ZM141.051 26.1236C141.867 26.1236 142.563 25.9034 143.139 25.4631C143.714 25.0156 144.151 24.3942 144.449 23.5987C144.747 22.8033 144.897 21.8764 144.897 20.8182C144.897 19.7599 144.747 18.8402 144.449 18.0589C144.158 17.2777 143.725 16.6705 143.149 16.2372C142.581 15.804 141.882 15.5874 141.051 15.5874C140.191 15.5874 139.474 15.8111 138.899 16.2585C138.323 16.706 137.89 17.3239 137.599 18.1122C137.308 18.9006 137.162 19.8026 137.162 20.8182C137.162 21.8409 137.308 22.7536 137.599 23.5561C137.897 24.3516 138.334 24.9801 138.909 25.4418C139.492 25.8963 140.205 26.1236 141.051 26.1236Z" fill="#101828"/>
</svg>
