<svg width="138" height="150" viewBox="0 0 138 150" fill="none" xmlns="http://www.w3.org/2000/svg">
<path d="M61.799 32.1879C68.2742 14.411 87.9345 5.24919 105.711 11.7244V11.7244C123.488 18.1996 132.65 37.8598 126.175 55.6368L109.039 102.681C102.564 120.458 82.9038 129.619 65.1269 123.144V123.144C47.35 116.669 38.1882 97.0087 44.6634 79.2318L61.799 32.1879Z" fill="url(#paint0_linear_125_9)"/>
<path d="M28.8596 46.6811C35.3348 28.9042 54.995 19.7424 72.7719 26.2176V26.2176C90.5488 32.6928 99.7107 52.353 93.2355 70.1299L76.0998 117.174C69.6246 134.951 49.9644 144.113 32.1875 137.637V137.637C14.4105 131.162 5.24871 111.502 11.7239 93.725L28.8596 46.6811Z" fill="url(#paint1_linear_125_9)"/>
<defs>
<linearGradient id="paint0_linear_125_9" x1="105.711" y1="11.7244" x2="65.1269" y2="123.144" gradientUnits="userSpaceOnUse">
<stop stop-color="white" stop-opacity="0.1"/>
<stop offset="1" stop-color="white" stop-opacity="0"/>
</linearGradient>
<linearGradient id="paint1_linear_125_9" x1="72.7719" y1="26.2176" x2="32.1875" y2="137.637" gradientUnits="userSpaceOnUse">
<stop stop-color="white" stop-opacity="0.1"/>
<stop offset="1" stop-color="white" stop-opacity="0"/>
</linearGradient>
</defs>
</svg>
