<svg width="513" height="146" viewBox="0 0 513 146" fill="none" xmlns="http://www.w3.org/2000/svg">
<mask id="mask0_460_29621" style="mask-type:alpha" maskUnits="userSpaceOnUse" x="-7" y="0" width="520" height="201">
<path d="M-7 15C-7 6.71573 -0.284271 0 8 0H498C506.284 0 513 6.71573 513 15V186C513 194.284 506.284 201 498 201H8C-0.284276 201 -7 194.284 -7 186V15Z" fill="#F3F4F9"/>
<path d="M-6.4 15C-6.4 7.0471 0.0471001 0.6 8 0.6H498C505.953 0.6 512.4 7.0471 512.4 15V186C512.4 193.953 505.953 200.4 498 200.4H8C0.0470958 200.4 -6.4 193.953 -6.4 186V15Z" stroke="#794AFF" stroke-opacity="0.1" stroke-width="1.2"/>
</mask>
<g mask="url(#mask0_460_29621)">
<mask id="mask1_460_29621" style="mask-type:alpha" maskUnits="userSpaceOnUse" x="-5" y="-5" width="510" height="298">
<path d="M-5 15C-5 3.95431 3.95431 -5 15 -5H485C496.046 -5 505 3.9543 505 15V272.785C505 283.831 496.046 292.785 485 292.785H15C3.9543 292.785 -5 283.831 -5 272.785V15Z" fill="#F3F4F9"/>
</mask>
<g mask="url(#mask1_460_29621)">
<g opacity="0.15">
<path d="M6.67712 10.7834C7.45505 10.7834 8.08569 10.1528 8.08569 9.37488C8.08569 8.59695 7.45505 7.96631 6.67712 7.96631C5.89919 7.96631 5.26855 8.59695 5.26855 9.37488C5.26855 10.1528 5.89919 10.7834 6.67712 10.7834Z" fill="white"/>
<path d="M24.2845 10.7834C25.0625 10.7834 25.6931 10.1528 25.6931 9.37488C25.6931 8.59695 25.0625 7.96631 24.2845 7.96631C23.5066 7.96631 22.876 8.59695 22.876 9.37488C22.876 10.1528 23.5066 10.7834 24.2845 10.7834Z" fill="white"/>
<path d="M41.891 10.7834C42.6689 10.7834 43.2996 10.1528 43.2996 9.37488C43.2996 8.59695 42.6689 7.96631 41.891 7.96631C41.1131 7.96631 40.4824 8.59695 40.4824 9.37488C40.4824 10.1528 41.1131 10.7834 41.891 10.7834Z" fill="white"/>
<path d="M59.4984 10.7834C60.2763 10.7834 60.907 10.1528 60.907 9.37488C60.907 8.59695 60.2763 7.96631 59.4984 7.96631C58.7205 7.96631 58.0898 8.59695 58.0898 9.37488C58.0898 10.1528 58.7205 10.7834 59.4984 10.7834Z" fill="white"/>
<path d="M77.1058 10.7834C77.8838 10.7834 78.5144 10.1528 78.5144 9.37488C78.5144 8.59695 77.8838 7.96631 77.1058 7.96631C76.3279 7.96631 75.6973 8.59695 75.6973 9.37488C75.6973 10.1528 76.3279 10.7834 77.1058 10.7834Z" fill="white"/>
<path d="M94.7123 10.7834C95.4902 10.7834 96.1208 10.1528 96.1208 9.37488C96.1208 8.59695 95.4902 7.96631 94.7123 7.96631C93.9343 7.96631 93.3037 8.59695 93.3037 9.37488C93.3037 10.1528 93.9343 10.7834 94.7123 10.7834Z" fill="white"/>
<path d="M112.32 10.7834C113.098 10.7834 113.728 10.1528 113.728 9.37488C113.728 8.59695 113.098 7.96631 112.32 7.96631C111.542 7.96631 110.911 8.59695 110.911 9.37488C110.911 10.1528 111.542 10.7834 112.32 10.7834Z" fill="white"/>
<path d="M129.927 10.7834C130.705 10.7834 131.336 10.1528 131.336 9.37488C131.336 8.59695 130.705 7.96631 129.927 7.96631C129.149 7.96631 128.519 8.59695 128.519 9.37488C128.519 10.1528 129.149 10.7834 129.927 10.7834Z" fill="white"/>
<path d="M147.534 10.7834C148.311 10.7834 148.942 10.1528 148.942 9.37488C148.942 8.59695 148.311 7.96631 147.534 7.96631C146.756 7.96631 146.125 8.59695 146.125 9.37488C146.125 10.1528 146.756 10.7834 147.534 10.7834Z" fill="white"/>
<path d="M165.141 10.7834C165.919 10.7834 166.55 10.1528 166.55 9.37488C166.55 8.59695 165.919 7.96631 165.141 7.96631C164.363 7.96631 163.732 8.59695 163.732 9.37488C163.732 10.1528 164.363 10.7834 165.141 10.7834Z" fill="white"/>
<path d="M182.748 10.7834C183.526 10.7834 184.157 10.1528 184.157 9.37488C184.157 8.59695 183.526 7.96631 182.748 7.96631C181.97 7.96631 181.34 8.59695 181.34 9.37488C181.34 10.1528 181.97 10.7834 182.748 10.7834Z" fill="white"/>
<path d="M200.355 10.7834C201.133 10.7834 201.763 10.1528 201.763 9.37488C201.763 8.59695 201.133 7.96631 200.355 7.96631C199.577 7.96631 198.946 8.59695 198.946 9.37488C198.946 10.1528 199.577 10.7834 200.355 10.7834Z" fill="white"/>
<path d="M217.962 10.7834C218.74 10.7834 219.371 10.1528 219.371 9.37488C219.371 8.59695 218.74 7.96631 217.962 7.96631C217.184 7.96631 216.554 8.59695 216.554 9.37488C216.554 10.1528 217.184 10.7834 217.962 10.7834Z" fill="white"/>
<path d="M235.57 10.7834C236.348 10.7834 236.978 10.1528 236.978 9.37488C236.978 8.59695 236.348 7.96631 235.57 7.96631C234.792 7.96631 234.161 8.59695 234.161 9.37488C234.161 10.1528 234.792 10.7834 235.57 10.7834Z" fill="white"/>
<path d="M253.176 10.7834C253.954 10.7834 254.585 10.1528 254.585 9.37488C254.585 8.59695 253.954 7.96631 253.176 7.96631C252.398 7.96631 251.768 8.59695 251.768 9.37488C251.768 10.1528 252.398 10.7834 253.176 10.7834Z" fill="white"/>
<path d="M270.784 10.7834C271.561 10.7834 272.192 10.1528 272.192 9.37488C272.192 8.59695 271.561 7.96631 270.784 7.96631C270.006 7.96631 269.375 8.59695 269.375 9.37488C269.375 10.1528 270.006 10.7834 270.784 10.7834Z" fill="white"/>
<path d="M288.391 10.7834C289.169 10.7834 289.8 10.1528 289.8 9.37488C289.8 8.59695 289.169 7.96631 288.391 7.96631C287.613 7.96631 286.982 8.59695 286.982 9.37488C286.982 10.1528 287.613 10.7834 288.391 10.7834Z" fill="white"/>
<path d="M305.997 10.7834C306.775 10.7834 307.406 10.1528 307.406 9.37488C307.406 8.59695 306.775 7.96631 305.997 7.96631C305.22 7.96631 304.589 8.59695 304.589 9.37488C304.589 10.1528 305.22 10.7834 305.997 10.7834Z" fill="white"/>
<path d="M323.604 10.7834C324.382 10.7834 325.012 10.1528 325.012 9.37488C325.012 8.59695 324.382 7.96631 323.604 7.96631C322.826 7.96631 322.195 8.59695 322.195 9.37488C322.195 10.1528 322.826 10.7834 323.604 10.7834Z" fill="white"/>
<path d="M341.213 10.7834C341.991 10.7834 342.622 10.1528 342.622 9.37488C342.622 8.59695 341.991 7.96631 341.213 7.96631C340.435 7.96631 339.805 8.59695 339.805 9.37488C339.805 10.1528 340.435 10.7834 341.213 10.7834Z" fill="white"/>
<path d="M358.819 10.7834C359.597 10.7834 360.227 10.1528 360.227 9.37488C360.227 8.59695 359.597 7.96631 358.819 7.96631C358.041 7.96631 357.41 8.59695 357.41 9.37488C357.41 10.1528 358.041 10.7834 358.819 10.7834Z" fill="white"/>
<path d="M376.426 10.7834C377.204 10.7834 377.835 10.1528 377.835 9.37488C377.835 8.59695 377.204 7.96631 376.426 7.96631C375.648 7.96631 375.018 8.59695 375.018 9.37488C375.018 10.1528 375.648 10.7834 376.426 10.7834Z" fill="white"/>
<path d="M394.034 10.7834C394.811 10.7834 395.442 10.1528 395.442 9.37488C395.442 8.59695 394.811 7.96631 394.034 7.96631C393.256 7.96631 392.625 8.59695 392.625 9.37488C392.625 10.1528 393.256 10.7834 394.034 10.7834Z" fill="white"/>
<path d="M411.641 10.7834C412.419 10.7834 413.05 10.1528 413.05 9.37488C413.05 8.59695 412.419 7.96631 411.641 7.96631C410.863 7.96631 410.232 8.59695 410.232 9.37488C410.232 10.1528 410.863 10.7834 411.641 10.7834Z" fill="white"/>
<path d="M429.246 10.7834C430.024 10.7834 430.655 10.1528 430.655 9.37488C430.655 8.59695 430.024 7.96631 429.246 7.96631C428.469 7.96631 427.838 8.59695 427.838 9.37488C427.838 10.1528 428.469 10.7834 429.246 10.7834Z" fill="white"/>
<path d="M446.854 10.7834C447.632 10.7834 448.262 10.1528 448.262 9.37488C448.262 8.59695 447.632 7.96631 446.854 7.96631C446.076 7.96631 445.445 8.59695 445.445 9.37488C445.445 10.1528 446.076 10.7834 446.854 10.7834Z" fill="white"/>
<path d="M464.461 10.7834C465.239 10.7834 465.87 10.1528 465.87 9.37488C465.87 8.59695 465.239 7.96631 464.461 7.96631C463.683 7.96631 463.053 8.59695 463.053 9.37488C463.053 10.1528 463.683 10.7834 464.461 10.7834Z" fill="white"/>
<path d="M482.069 10.7834C482.847 10.7834 483.477 10.1528 483.477 9.37488C483.477 8.59695 482.847 7.96631 482.069 7.96631C481.291 7.96631 480.66 8.59695 480.66 9.37488C480.66 10.1528 481.291 10.7834 482.069 10.7834Z" fill="white"/>
<path d="M499.676 10.7834C500.454 10.7834 501.085 10.1528 501.085 9.37488C501.085 8.59695 500.454 7.96631 499.676 7.96631C498.898 7.96631 498.268 8.59695 498.268 9.37488C498.268 10.1528 498.898 10.7834 499.676 10.7834Z" fill="white"/>
<path d="M6.67712 28.3892C7.45505 28.3892 8.08569 27.7585 8.08569 26.9806C8.08569 26.2027 7.45505 25.572 6.67712 25.572C5.89919 25.572 5.26855 26.2027 5.26855 26.9806C5.26855 27.7585 5.89919 28.3892 6.67712 28.3892Z" fill="white"/>
<path d="M24.2845 28.3894C25.0625 28.3894 25.6931 27.7588 25.6931 26.9808C25.6931 26.2029 25.0625 25.5723 24.2845 25.5723C23.5066 25.5723 22.876 26.2029 22.876 26.9808C22.876 27.7588 23.5066 28.3894 24.2845 28.3894Z" fill="white"/>
<path d="M41.891 28.3894C42.6689 28.3894 43.2996 27.7588 43.2996 26.9808C43.2996 26.2029 42.6689 25.5723 41.891 25.5723C41.1131 25.5723 40.4824 26.2029 40.4824 26.9808C40.4824 27.7588 41.1131 28.3894 41.891 28.3894Z" fill="white"/>
<path d="M59.4984 28.3892C60.2763 28.3892 60.907 27.7585 60.907 26.9806C60.907 26.2027 60.2763 25.572 59.4984 25.572C58.7205 25.572 58.0898 26.2027 58.0898 26.9806C58.0898 27.7585 58.7205 28.3892 59.4984 28.3892Z" fill="white"/>
<path d="M77.1058 28.3894C77.8838 28.3894 78.5144 27.7588 78.5144 26.9808C78.5144 26.2029 77.8838 25.5723 77.1058 25.5723C76.3279 25.5723 75.6973 26.2029 75.6973 26.9808C75.6973 27.7588 76.3279 28.3894 77.1058 28.3894Z" fill="white"/>
<path d="M94.7123 28.3894C95.4902 28.3894 96.1208 27.7588 96.1208 26.9808C96.1208 26.2029 95.4902 25.5723 94.7123 25.5723C93.9343 25.5723 93.3037 26.2029 93.3037 26.9808C93.3037 27.7588 93.9343 28.3894 94.7123 28.3894Z" fill="white"/>
<path d="M112.32 28.3892C113.098 28.3892 113.728 27.7585 113.728 26.9806C113.728 26.2027 113.098 25.572 112.32 25.572C111.542 25.572 110.911 26.2027 110.911 26.9806C110.911 27.7585 111.542 28.3892 112.32 28.3892Z" fill="white"/>
<path d="M129.927 28.3894C130.705 28.3894 131.336 27.7588 131.336 26.9808C131.336 26.2029 130.705 25.5723 129.927 25.5723C129.149 25.5723 128.519 26.2029 128.519 26.9808C128.519 27.7588 129.149 28.3894 129.927 28.3894Z" fill="white"/>
<path d="M147.534 28.3894C148.311 28.3894 148.942 27.7588 148.942 26.9808C148.942 26.2029 148.311 25.5723 147.534 25.5723C146.756 25.5723 146.125 26.2029 146.125 26.9808C146.125 27.7588 146.756 28.3894 147.534 28.3894Z" fill="white"/>
<path d="M165.141 28.3892C165.919 28.3892 166.55 27.7585 166.55 26.9806C166.55 26.2027 165.919 25.572 165.141 25.572C164.363 25.572 163.732 26.2027 163.732 26.9806C163.732 27.7585 164.363 28.3892 165.141 28.3892Z" fill="white"/>
<path d="M182.748 28.3892C183.526 28.3892 184.157 27.7585 184.157 26.9806C184.157 26.2027 183.526 25.572 182.748 25.572C181.97 25.572 181.34 26.2027 181.34 26.9806C181.34 27.7585 181.97 28.3892 182.748 28.3892Z" fill="white"/>
<path d="M200.355 28.3892C201.133 28.3892 201.763 27.7585 201.763 26.9806C201.763 26.2027 201.133 25.572 200.355 25.572C199.577 25.572 198.946 26.2027 198.946 26.9806C198.946 27.7585 199.577 28.3892 200.355 28.3892Z" fill="white"/>
<path d="M217.962 28.3892C218.74 28.3892 219.371 27.7585 219.371 26.9806C219.371 26.2027 218.74 25.572 217.962 25.572C217.184 25.572 216.554 26.2027 216.554 26.9806C216.554 27.7585 217.184 28.3892 217.962 28.3892Z" fill="white"/>
<path d="M235.57 28.3894C236.348 28.3894 236.978 27.7588 236.978 26.9808C236.978 26.2029 236.348 25.5723 235.57 25.5723C234.792 25.5723 234.161 26.2029 234.161 26.9808C234.161 27.7588 234.792 28.3894 235.57 28.3894Z" fill="white"/>
<path d="M253.176 28.3892C253.954 28.3892 254.585 27.7585 254.585 26.9806C254.585 26.2027 253.954 25.572 253.176 25.572C252.398 25.572 251.768 26.2027 251.768 26.9806C251.768 27.7585 252.398 28.3892 253.176 28.3892Z" fill="white"/>
<path d="M270.784 28.3892C271.561 28.3892 272.192 27.7585 272.192 26.9806C272.192 26.2027 271.561 25.572 270.784 25.572C270.006 25.572 269.375 26.2027 269.375 26.9806C269.375 27.7585 270.006 28.3892 270.784 28.3892Z" fill="white"/>
<path d="M288.391 28.3894C289.169 28.3894 289.8 27.7588 289.8 26.9808C289.8 26.2029 289.169 25.5723 288.391 25.5723C287.613 25.5723 286.982 26.2029 286.982 26.9808C286.982 27.7588 287.613 28.3894 288.391 28.3894Z" fill="white"/>
<path d="M305.997 28.3894C306.775 28.3894 307.406 27.7588 307.406 26.9808C307.406 26.2029 306.775 25.5723 305.997 25.5723C305.22 25.5723 304.589 26.2029 304.589 26.9808C304.589 27.7588 305.22 28.3894 305.997 28.3894Z" fill="white"/>
<path d="M323.604 28.3894C324.382 28.3894 325.012 27.7588 325.012 26.9808C325.012 26.2029 324.382 25.5723 323.604 25.5723C322.826 25.5723 322.195 26.2029 322.195 26.9808C322.195 27.7588 322.826 28.3894 323.604 28.3894Z" fill="white"/>
<path d="M341.213 28.3894C341.991 28.3894 342.622 27.7588 342.622 26.9808C342.622 26.2029 341.991 25.5723 341.213 25.5723C340.435 25.5723 339.805 26.2029 339.805 26.9808C339.805 27.7588 340.435 28.3894 341.213 28.3894Z" fill="white"/>
<path d="M358.819 28.3894C359.597 28.3894 360.227 27.7588 360.227 26.9808C360.227 26.2029 359.597 25.5723 358.819 25.5723C358.041 25.5723 357.41 26.2029 357.41 26.9808C357.41 27.7588 358.041 28.3894 358.819 28.3894Z" fill="white"/>
<path d="M376.426 28.3892C377.204 28.3892 377.835 27.7585 377.835 26.9806C377.835 26.2027 377.204 25.572 376.426 25.572C375.648 25.572 375.018 26.2027 375.018 26.9806C375.018 27.7585 375.648 28.3892 376.426 28.3892Z" fill="white"/>
<path d="M394.034 28.3894C394.811 28.3894 395.442 27.7588 395.442 26.9808C395.442 26.2029 394.811 25.5723 394.034 25.5723C393.256 25.5723 392.625 26.2029 392.625 26.9808C392.625 27.7588 393.256 28.3894 394.034 28.3894Z" fill="white"/>
<path d="M411.641 28.3894C412.419 28.3894 413.05 27.7588 413.05 26.9808C413.05 26.2029 412.419 25.5723 411.641 25.5723C410.863 25.5723 410.232 26.2029 410.232 26.9808C410.232 27.7588 410.863 28.3894 411.641 28.3894Z" fill="white"/>
<path d="M429.246 28.3894C430.024 28.3894 430.655 27.7588 430.655 26.9808C430.655 26.2029 430.024 25.5723 429.246 25.5723C428.469 25.5723 427.838 26.2029 427.838 26.9808C427.838 27.7588 428.469 28.3894 429.246 28.3894Z" fill="white"/>
<path d="M446.854 28.3894C447.632 28.3894 448.262 27.7588 448.262 26.9808C448.262 26.2029 447.632 25.5723 446.854 25.5723C446.076 25.5723 445.445 26.2029 445.445 26.9808C445.445 27.7588 446.076 28.3894 446.854 28.3894Z" fill="white"/>
<path d="M464.461 28.3892C465.239 28.3892 465.87 27.7585 465.87 26.9806C465.87 26.2027 465.239 25.572 464.461 25.572C463.683 25.572 463.053 26.2027 463.053 26.9806C463.053 27.7585 463.683 28.3892 464.461 28.3892Z" fill="white"/>
<path d="M482.069 28.3892C482.847 28.3892 483.477 27.7585 483.477 26.9806C483.477 26.2027 482.847 25.572 482.069 25.572C481.291 25.572 480.66 26.2027 480.66 26.9806C480.66 27.7585 481.291 28.3892 482.069 28.3892Z" fill="white"/>
<path d="M499.676 28.3894C500.454 28.3894 501.085 27.7588 501.085 26.9808C501.085 26.2029 500.454 25.5723 499.676 25.5723C498.898 25.5723 498.268 26.2029 498.268 26.9808C498.268 27.7588 498.898 28.3894 499.676 28.3894Z" fill="white"/>
<path d="M6.67712 45.9973C7.45505 45.9973 8.08569 45.3667 8.08569 44.5887C8.08569 43.8108 7.45505 43.1802 6.67712 43.1802C5.89919 43.1802 5.26855 43.8108 5.26855 44.5887C5.26855 45.3667 5.89919 45.9973 6.67712 45.9973Z" fill="white"/>
<path d="M24.2845 45.9973C25.0625 45.9973 25.6931 45.3667 25.6931 44.5887C25.6931 43.8108 25.0625 43.1802 24.2845 43.1802C23.5066 43.1802 22.876 43.8108 22.876 44.5887C22.876 45.3667 23.5066 45.9973 24.2845 45.9973Z" fill="white"/>
<path d="M41.891 45.9973C42.6689 45.9973 43.2996 45.3667 43.2996 44.5887C43.2996 43.8108 42.6689 43.1802 41.891 43.1802C41.1131 43.1802 40.4824 43.8108 40.4824 44.5887C40.4824 45.3667 41.1131 45.9973 41.891 45.9973Z" fill="white"/>
<path d="M59.4984 45.9973C60.2763 45.9973 60.907 45.3667 60.907 44.5887C60.907 43.8108 60.2763 43.1802 59.4984 43.1802C58.7205 43.1802 58.0898 43.8108 58.0898 44.5887C58.0898 45.3667 58.7205 45.9973 59.4984 45.9973Z" fill="white"/>
<path d="M77.1058 45.9973C77.8838 45.9973 78.5144 45.3667 78.5144 44.5887C78.5144 43.8108 77.8838 43.1802 77.1058 43.1802C76.3279 43.1802 75.6973 43.8108 75.6973 44.5887C75.6973 45.3667 76.3279 45.9973 77.1058 45.9973Z" fill="white"/>
<path d="M94.7123 45.9973C95.4902 45.9973 96.1208 45.3667 96.1208 44.5887C96.1208 43.8108 95.4902 43.1802 94.7123 43.1802C93.9343 43.1802 93.3037 43.8108 93.3037 44.5887C93.3037 45.3667 93.9343 45.9973 94.7123 45.9973Z" fill="white"/>
<path d="M112.32 45.9973C113.098 45.9973 113.728 45.3667 113.728 44.5887C113.728 43.8108 113.098 43.1802 112.32 43.1802C111.542 43.1802 110.911 43.8108 110.911 44.5887C110.911 45.3667 111.542 45.9973 112.32 45.9973Z" fill="white"/>
<path d="M129.927 45.9973C130.705 45.9973 131.336 45.3667 131.336 44.5887C131.336 43.8108 130.705 43.1802 129.927 43.1802C129.149 43.1802 128.519 43.8108 128.519 44.5887C128.519 45.3667 129.149 45.9973 129.927 45.9973Z" fill="white"/>
<path d="M147.534 45.9973C148.311 45.9973 148.942 45.3667 148.942 44.5887C148.942 43.8108 148.311 43.1802 147.534 43.1802C146.756 43.1802 146.125 43.8108 146.125 44.5887C146.125 45.3667 146.756 45.9973 147.534 45.9973Z" fill="white"/>
<path d="M165.141 45.9973C165.919 45.9973 166.55 45.3667 166.55 44.5887C166.55 43.8108 165.919 43.1802 165.141 43.1802C164.363 43.1802 163.732 43.8108 163.732 44.5887C163.732 45.3667 164.363 45.9973 165.141 45.9973Z" fill="white"/>
<path d="M182.748 45.9973C183.526 45.9973 184.157 45.3667 184.157 44.5887C184.157 43.8108 183.526 43.1802 182.748 43.1802C181.97 43.1802 181.34 43.8108 181.34 44.5887C181.34 45.3667 181.97 45.9973 182.748 45.9973Z" fill="white"/>
<path d="M200.355 45.9973C201.133 45.9973 201.763 45.3667 201.763 44.5887C201.763 43.8108 201.133 43.1802 200.355 43.1802C199.577 43.1802 198.946 43.8108 198.946 44.5887C198.946 45.3667 199.577 45.9973 200.355 45.9973Z" fill="white"/>
<path d="M217.962 45.9973C218.74 45.9973 219.371 45.3667 219.371 44.5887C219.371 43.8108 218.74 43.1802 217.962 43.1802C217.184 43.1802 216.554 43.8108 216.554 44.5887C216.554 45.3667 217.184 45.9973 217.962 45.9973Z" fill="white"/>
<path d="M235.57 45.9973C236.348 45.9973 236.978 45.3667 236.978 44.5887C236.978 43.8108 236.348 43.1802 235.57 43.1802C234.792 43.1802 234.161 43.8108 234.161 44.5887C234.161 45.3667 234.792 45.9973 235.57 45.9973Z" fill="white"/>
<path d="M253.176 45.9973C253.954 45.9973 254.585 45.3667 254.585 44.5887C254.585 43.8108 253.954 43.1802 253.176 43.1802C252.398 43.1802 251.768 43.8108 251.768 44.5887C251.768 45.3667 252.398 45.9973 253.176 45.9973Z" fill="white"/>
<path d="M270.784 45.9973C271.561 45.9973 272.192 45.3667 272.192 44.5887C272.192 43.8108 271.561 43.1802 270.784 43.1802C270.006 43.1802 269.375 43.8108 269.375 44.5887C269.375 45.3667 270.006 45.9973 270.784 45.9973Z" fill="white"/>
<path d="M288.391 45.9973C289.169 45.9973 289.8 45.3667 289.8 44.5887C289.8 43.8108 289.169 43.1802 288.391 43.1802C287.613 43.1802 286.982 43.8108 286.982 44.5887C286.982 45.3667 287.613 45.9973 288.391 45.9973Z" fill="white"/>
<path d="M305.997 45.9973C306.775 45.9973 307.406 45.3667 307.406 44.5887C307.406 43.8108 306.775 43.1802 305.997 43.1802C305.22 43.1802 304.589 43.8108 304.589 44.5887C304.589 45.3667 305.22 45.9973 305.997 45.9973Z" fill="white"/>
<path d="M323.604 45.9973C324.382 45.9973 325.012 45.3667 325.012 44.5887C325.012 43.8108 324.382 43.1802 323.604 43.1802C322.826 43.1802 322.195 43.8108 322.195 44.5887C322.195 45.3667 322.826 45.9973 323.604 45.9973Z" fill="white"/>
<path d="M341.213 45.9973C341.991 45.9973 342.622 45.3667 342.622 44.5887C342.622 43.8108 341.991 43.1802 341.213 43.1802C340.435 43.1802 339.805 43.8108 339.805 44.5887C339.805 45.3667 340.435 45.9973 341.213 45.9973Z" fill="white"/>
<path d="M358.819 45.9973C359.597 45.9973 360.227 45.3667 360.227 44.5887C360.227 43.8108 359.597 43.1802 358.819 43.1802C358.041 43.1802 357.41 43.8108 357.41 44.5887C357.41 45.3667 358.041 45.9973 358.819 45.9973Z" fill="white"/>
<path d="M376.426 45.9973C377.204 45.9973 377.835 45.3667 377.835 44.5887C377.835 43.8108 377.204 43.1802 376.426 43.1802C375.648 43.1802 375.018 43.8108 375.018 44.5887C375.018 45.3667 375.648 45.9973 376.426 45.9973Z" fill="white"/>
<path d="M394.034 45.9973C394.811 45.9973 395.442 45.3667 395.442 44.5887C395.442 43.8108 394.811 43.1802 394.034 43.1802C393.256 43.1802 392.625 43.8108 392.625 44.5887C392.625 45.3667 393.256 45.9973 394.034 45.9973Z" fill="white"/>
<path d="M411.641 45.9973C412.419 45.9973 413.05 45.3667 413.05 44.5887C413.05 43.8108 412.419 43.1802 411.641 43.1802C410.863 43.1802 410.232 43.8108 410.232 44.5887C410.232 45.3667 410.863 45.9973 411.641 45.9973Z" fill="white"/>
<path d="M429.246 45.9973C430.024 45.9973 430.655 45.3667 430.655 44.5887C430.655 43.8108 430.024 43.1802 429.246 43.1802C428.469 43.1802 427.838 43.8108 427.838 44.5887C427.838 45.3667 428.469 45.9973 429.246 45.9973Z" fill="white"/>
<path d="M446.854 45.9973C447.632 45.9973 448.262 45.3667 448.262 44.5887C448.262 43.8108 447.632 43.1802 446.854 43.1802C446.076 43.1802 445.445 43.8108 445.445 44.5887C445.445 45.3667 446.076 45.9973 446.854 45.9973Z" fill="white"/>
<path d="M464.461 45.9973C465.239 45.9973 465.87 45.3667 465.87 44.5887C465.87 43.8108 465.239 43.1802 464.461 43.1802C463.683 43.1802 463.053 43.8108 463.053 44.5887C463.053 45.3667 463.683 45.9973 464.461 45.9973Z" fill="white"/>
<path d="M482.069 45.9973C482.847 45.9973 483.477 45.3667 483.477 44.5887C483.477 43.8108 482.847 43.1802 482.069 43.1802C481.291 43.1802 480.66 43.8108 480.66 44.5887C480.66 45.3667 481.291 45.9973 482.069 45.9973Z" fill="white"/>
<path d="M499.676 45.9973C500.454 45.9973 501.085 45.3667 501.085 44.5887C501.085 43.8108 500.454 43.1802 499.676 43.1802C498.898 43.1802 498.268 43.8108 498.268 44.5887C498.268 45.3667 498.898 45.9973 499.676 45.9973Z" fill="white"/>
<path d="M6.67712 63.6052C7.45505 63.6052 8.08569 62.9746 8.08569 62.1967C8.08569 61.4187 7.45505 60.7881 6.67712 60.7881C5.89919 60.7881 5.26855 61.4187 5.26855 62.1967C5.26855 62.9746 5.89919 63.6052 6.67712 63.6052Z" fill="white"/>
<path d="M24.2845 63.6052C25.0625 63.6052 25.6931 62.9746 25.6931 62.1967C25.6931 61.4187 25.0625 60.7881 24.2845 60.7881C23.5066 60.7881 22.876 61.4187 22.876 62.1967C22.876 62.9746 23.5066 63.6052 24.2845 63.6052Z" fill="white"/>
<path d="M41.891 63.6052C42.6689 63.6052 43.2996 62.9746 43.2996 62.1967C43.2996 61.4187 42.6689 60.7881 41.891 60.7881C41.1131 60.7881 40.4824 61.4187 40.4824 62.1967C40.4824 62.9746 41.1131 63.6052 41.891 63.6052Z" fill="white"/>
<path d="M59.4984 63.6052C60.2763 63.6052 60.907 62.9746 60.907 62.1967C60.907 61.4187 60.2763 60.7881 59.4984 60.7881C58.7205 60.7881 58.0898 61.4187 58.0898 62.1967C58.0898 62.9746 58.7205 63.6052 59.4984 63.6052Z" fill="white"/>
<path d="M77.1058 63.6052C77.8838 63.6052 78.5144 62.9746 78.5144 62.1967C78.5144 61.4187 77.8838 60.7881 77.1058 60.7881C76.3279 60.7881 75.6973 61.4187 75.6973 62.1967C75.6973 62.9746 76.3279 63.6052 77.1058 63.6052Z" fill="white"/>
<path d="M94.7123 63.6052C95.4902 63.6052 96.1208 62.9746 96.1208 62.1967C96.1208 61.4187 95.4902 60.7881 94.7123 60.7881C93.9343 60.7881 93.3037 61.4187 93.3037 62.1967C93.3037 62.9746 93.9343 63.6052 94.7123 63.6052Z" fill="white"/>
<path d="M112.32 63.6052C113.098 63.6052 113.728 62.9746 113.728 62.1967C113.728 61.4187 113.098 60.7881 112.32 60.7881C111.542 60.7881 110.911 61.4187 110.911 62.1967C110.911 62.9746 111.542 63.6052 112.32 63.6052Z" fill="white"/>
<path d="M129.927 63.6052C130.705 63.6052 131.336 62.9746 131.336 62.1967C131.336 61.4187 130.705 60.7881 129.927 60.7881C129.149 60.7881 128.519 61.4187 128.519 62.1967C128.519 62.9746 129.149 63.6052 129.927 63.6052Z" fill="white"/>
<path d="M147.534 63.6052C148.311 63.6052 148.942 62.9746 148.942 62.1967C148.942 61.4187 148.311 60.7881 147.534 60.7881C146.756 60.7881 146.125 61.4187 146.125 62.1967C146.125 62.9746 146.756 63.6052 147.534 63.6052Z" fill="white"/>
<path d="M165.141 63.6052C165.919 63.6052 166.55 62.9746 166.55 62.1967C166.55 61.4187 165.919 60.7881 165.141 60.7881C164.363 60.7881 163.732 61.4187 163.732 62.1967C163.732 62.9746 164.363 63.6052 165.141 63.6052Z" fill="white"/>
<path d="M182.748 63.6052C183.526 63.6052 184.157 62.9746 184.157 62.1967C184.157 61.4187 183.526 60.7881 182.748 60.7881C181.97 60.7881 181.34 61.4187 181.34 62.1967C181.34 62.9746 181.97 63.6052 182.748 63.6052Z" fill="white"/>
<path d="M200.355 63.6052C201.133 63.6052 201.763 62.9746 201.763 62.1967C201.763 61.4187 201.133 60.7881 200.355 60.7881C199.577 60.7881 198.946 61.4187 198.946 62.1967C198.946 62.9746 199.577 63.6052 200.355 63.6052Z" fill="white"/>
<path d="M217.962 63.6052C218.74 63.6052 219.371 62.9746 219.371 62.1967C219.371 61.4187 218.74 60.7881 217.962 60.7881C217.184 60.7881 216.554 61.4187 216.554 62.1967C216.554 62.9746 217.184 63.6052 217.962 63.6052Z" fill="white"/>
<path d="M235.57 63.6052C236.348 63.6052 236.978 62.9746 236.978 62.1967C236.978 61.4187 236.348 60.7881 235.57 60.7881C234.792 60.7881 234.161 61.4187 234.161 62.1967C234.161 62.9746 234.792 63.6052 235.57 63.6052Z" fill="white"/>
<path d="M253.176 63.6052C253.954 63.6052 254.585 62.9746 254.585 62.1967C254.585 61.4187 253.954 60.7881 253.176 60.7881C252.398 60.7881 251.768 61.4187 251.768 62.1967C251.768 62.9746 252.398 63.6052 253.176 63.6052Z" fill="white"/>
<path d="M270.784 63.6052C271.561 63.6052 272.192 62.9746 272.192 62.1967C272.192 61.4187 271.561 60.7881 270.784 60.7881C270.006 60.7881 269.375 61.4187 269.375 62.1967C269.375 62.9746 270.006 63.6052 270.784 63.6052Z" fill="white"/>
<path d="M288.391 63.6052C289.169 63.6052 289.8 62.9746 289.8 62.1967C289.8 61.4187 289.169 60.7881 288.391 60.7881C287.613 60.7881 286.982 61.4187 286.982 62.1967C286.982 62.9746 287.613 63.6052 288.391 63.6052Z" fill="white"/>
<path d="M305.997 63.6052C306.775 63.6052 307.406 62.9746 307.406 62.1967C307.406 61.4187 306.775 60.7881 305.997 60.7881C305.22 60.7881 304.589 61.4187 304.589 62.1967C304.589 62.9746 305.22 63.6052 305.997 63.6052Z" fill="white"/>
<path d="M323.604 63.6052C324.382 63.6052 325.012 62.9746 325.012 62.1967C325.012 61.4187 324.382 60.7881 323.604 60.7881C322.826 60.7881 322.195 61.4187 322.195 62.1967C322.195 62.9746 322.826 63.6052 323.604 63.6052Z" fill="white"/>
<path d="M341.213 63.6052C341.991 63.6052 342.622 62.9746 342.622 62.1967C342.622 61.4187 341.991 60.7881 341.213 60.7881C340.435 60.7881 339.805 61.4187 339.805 62.1967C339.805 62.9746 340.435 63.6052 341.213 63.6052Z" fill="white"/>
<path d="M358.819 63.6052C359.597 63.6052 360.227 62.9746 360.227 62.1967C360.227 61.4187 359.597 60.7881 358.819 60.7881C358.041 60.7881 357.41 61.4187 357.41 62.1967C357.41 62.9746 358.041 63.6052 358.819 63.6052Z" fill="white"/>
<path d="M376.426 63.6052C377.204 63.6052 377.835 62.9746 377.835 62.1967C377.835 61.4187 377.204 60.7881 376.426 60.7881C375.648 60.7881 375.018 61.4187 375.018 62.1967C375.018 62.9746 375.648 63.6052 376.426 63.6052Z" fill="white"/>
<path d="M394.034 63.6052C394.811 63.6052 395.442 62.9746 395.442 62.1967C395.442 61.4187 394.811 60.7881 394.034 60.7881C393.256 60.7881 392.625 61.4187 392.625 62.1967C392.625 62.9746 393.256 63.6052 394.034 63.6052Z" fill="white"/>
<path d="M411.641 63.6052C412.419 63.6052 413.05 62.9746 413.05 62.1967C413.05 61.4187 412.419 60.7881 411.641 60.7881C410.863 60.7881 410.232 61.4187 410.232 62.1967C410.232 62.9746 410.863 63.6052 411.641 63.6052Z" fill="white"/>
<path d="M429.246 63.6052C430.024 63.6052 430.655 62.9746 430.655 62.1967C430.655 61.4187 430.024 60.7881 429.246 60.7881C428.469 60.7881 427.838 61.4187 427.838 62.1967C427.838 62.9746 428.469 63.6052 429.246 63.6052Z" fill="white"/>
<path d="M446.854 63.6052C447.632 63.6052 448.262 62.9746 448.262 62.1967C448.262 61.4187 447.632 60.7881 446.854 60.7881C446.076 60.7881 445.445 61.4187 445.445 62.1967C445.445 62.9746 446.076 63.6052 446.854 63.6052Z" fill="white"/>
<path d="M464.461 63.6052C465.239 63.6052 465.87 62.9746 465.87 62.1967C465.87 61.4187 465.239 60.7881 464.461 60.7881C463.683 60.7881 463.053 61.4187 463.053 62.1967C463.053 62.9746 463.683 63.6052 464.461 63.6052Z" fill="white"/>
<path d="M482.069 63.6052C482.847 63.6052 483.477 62.9746 483.477 62.1967C483.477 61.4187 482.847 60.7881 482.069 60.7881C481.291 60.7881 480.66 61.4187 480.66 62.1967C480.66 62.9746 481.291 63.6052 482.069 63.6052Z" fill="white"/>
<path d="M499.676 63.6052C500.454 63.6052 501.085 62.9746 501.085 62.1967C501.085 61.4187 500.454 60.7881 499.676 60.7881C498.898 60.7881 498.268 61.4187 498.268 62.1967C498.268 62.9746 498.898 63.6052 499.676 63.6052Z" fill="white"/>
<path d="M6.67712 81.2112C7.45505 81.2112 8.08569 80.5805 8.08569 79.8026C8.08569 79.0247 7.45505 78.394 6.67712 78.394C5.89919 78.394 5.26855 79.0247 5.26855 79.8026C5.26855 80.5805 5.89919 81.2112 6.67712 81.2112Z" fill="white"/>
<path d="M24.2845 81.2112C25.0625 81.2112 25.6931 80.5805 25.6931 79.8026C25.6931 79.0247 25.0625 78.394 24.2845 78.394C23.5066 78.394 22.876 79.0247 22.876 79.8026C22.876 80.5805 23.5066 81.2112 24.2845 81.2112Z" fill="white"/>
<path d="M41.891 81.2112C42.6689 81.2112 43.2996 80.5805 43.2996 79.8026C43.2996 79.0247 42.6689 78.394 41.891 78.394C41.1131 78.394 40.4824 79.0247 40.4824 79.8026C40.4824 80.5805 41.1131 81.2112 41.891 81.2112Z" fill="white"/>
<path d="M59.4984 81.2112C60.2763 81.2112 60.907 80.5805 60.907 79.8026C60.907 79.0247 60.2763 78.394 59.4984 78.394C58.7205 78.394 58.0898 79.0247 58.0898 79.8026C58.0898 80.5805 58.7205 81.2112 59.4984 81.2112Z" fill="white"/>
<path d="M77.1058 81.2112C77.8838 81.2112 78.5144 80.5805 78.5144 79.8026C78.5144 79.0247 77.8838 78.394 77.1058 78.394C76.3279 78.394 75.6973 79.0247 75.6973 79.8026C75.6973 80.5805 76.3279 81.2112 77.1058 81.2112Z" fill="white"/>
<path d="M94.7123 81.2112C95.4902 81.2112 96.1208 80.5805 96.1208 79.8026C96.1208 79.0247 95.4902 78.394 94.7123 78.394C93.9343 78.394 93.3037 79.0247 93.3037 79.8026C93.3037 80.5805 93.9343 81.2112 94.7123 81.2112Z" fill="white"/>
<path d="M112.32 81.2112C113.098 81.2112 113.728 80.5805 113.728 79.8026C113.728 79.0247 113.098 78.394 112.32 78.394C111.542 78.394 110.911 79.0247 110.911 79.8026C110.911 80.5805 111.542 81.2112 112.32 81.2112Z" fill="white"/>
<path d="M129.927 81.2112C130.705 81.2112 131.336 80.5805 131.336 79.8026C131.336 79.0247 130.705 78.394 129.927 78.394C129.149 78.394 128.519 79.0247 128.519 79.8026C128.519 80.5805 129.149 81.2112 129.927 81.2112Z" fill="white"/>
<path d="M147.534 81.2112C148.311 81.2112 148.942 80.5805 148.942 79.8026C148.942 79.0247 148.311 78.394 147.534 78.394C146.756 78.394 146.125 79.0247 146.125 79.8026C146.125 80.5805 146.756 81.2112 147.534 81.2112Z" fill="white"/>
<path d="M165.141 81.2112C165.919 81.2112 166.55 80.5805 166.55 79.8026C166.55 79.0247 165.919 78.394 165.141 78.394C164.363 78.394 163.732 79.0247 163.732 79.8026C163.732 80.5805 164.363 81.2112 165.141 81.2112Z" fill="white"/>
<path d="M182.748 81.2112C183.526 81.2112 184.157 80.5805 184.157 79.8026C184.157 79.0247 183.526 78.394 182.748 78.394C181.97 78.394 181.34 79.0247 181.34 79.8026C181.34 80.5805 181.97 81.2112 182.748 81.2112Z" fill="white"/>
<path d="M200.355 81.2112C201.133 81.2112 201.763 80.5805 201.763 79.8026C201.763 79.0247 201.133 78.394 200.355 78.394C199.577 78.394 198.946 79.0247 198.946 79.8026C198.946 80.5805 199.577 81.2112 200.355 81.2112Z" fill="white"/>
<path d="M217.962 81.2112C218.74 81.2112 219.371 80.5805 219.371 79.8026C219.371 79.0247 218.74 78.394 217.962 78.394C217.184 78.394 216.554 79.0247 216.554 79.8026C216.554 80.5805 217.184 81.2112 217.962 81.2112Z" fill="white"/>
<path d="M235.57 81.2112C236.348 81.2112 236.978 80.5805 236.978 79.8026C236.978 79.0247 236.348 78.394 235.57 78.394C234.792 78.394 234.161 79.0247 234.161 79.8026C234.161 80.5805 234.792 81.2112 235.57 81.2112Z" fill="white"/>
<path d="M253.176 81.2112C253.954 81.2112 254.585 80.5805 254.585 79.8026C254.585 79.0247 253.954 78.394 253.176 78.394C252.398 78.394 251.768 79.0247 251.768 79.8026C251.768 80.5805 252.398 81.2112 253.176 81.2112Z" fill="white"/>
<path d="M270.784 81.2112C271.561 81.2112 272.192 80.5805 272.192 79.8026C272.192 79.0247 271.561 78.394 270.784 78.394C270.006 78.394 269.375 79.0247 269.375 79.8026C269.375 80.5805 270.006 81.2112 270.784 81.2112Z" fill="white"/>
<path d="M288.391 81.2112C289.169 81.2112 289.8 80.5805 289.8 79.8026C289.8 79.0247 289.169 78.394 288.391 78.394C287.613 78.394 286.982 79.0247 286.982 79.8026C286.982 80.5805 287.613 81.2112 288.391 81.2112Z" fill="white"/>
<path d="M305.997 81.2112C306.775 81.2112 307.406 80.5805 307.406 79.8026C307.406 79.0247 306.775 78.394 305.997 78.394C305.22 78.394 304.589 79.0247 304.589 79.8026C304.589 80.5805 305.22 81.2112 305.997 81.2112Z" fill="white"/>
<path d="M323.604 81.2112C324.382 81.2112 325.012 80.5805 325.012 79.8026C325.012 79.0247 324.382 78.394 323.604 78.394C322.826 78.394 322.195 79.0247 322.195 79.8026C322.195 80.5805 322.826 81.2112 323.604 81.2112Z" fill="white"/>
<path d="M341.213 81.2112C341.991 81.2112 342.622 80.5805 342.622 79.8026C342.622 79.0247 341.991 78.394 341.213 78.394C340.435 78.394 339.805 79.0247 339.805 79.8026C339.805 80.5805 340.435 81.2112 341.213 81.2112Z" fill="white"/>
<path d="M358.819 81.2112C359.597 81.2112 360.227 80.5805 360.227 79.8026C360.227 79.0247 359.597 78.394 358.819 78.394C358.041 78.394 357.41 79.0247 357.41 79.8026C357.41 80.5805 358.041 81.2112 358.819 81.2112Z" fill="white"/>
<path d="M376.426 81.2112C377.204 81.2112 377.835 80.5805 377.835 79.8026C377.835 79.0247 377.204 78.394 376.426 78.394C375.648 78.394 375.018 79.0247 375.018 79.8026C375.018 80.5805 375.648 81.2112 376.426 81.2112Z" fill="white"/>
<path d="M394.034 81.2112C394.811 81.2112 395.442 80.5805 395.442 79.8026C395.442 79.0247 394.811 78.394 394.034 78.394C393.256 78.394 392.625 79.0247 392.625 79.8026C392.625 80.5805 393.256 81.2112 394.034 81.2112Z" fill="white"/>
<path d="M411.641 81.2112C412.419 81.2112 413.05 80.5805 413.05 79.8026C413.05 79.0247 412.419 78.394 411.641 78.394C410.863 78.394 410.232 79.0247 410.232 79.8026C410.232 80.5805 410.863 81.2112 411.641 81.2112Z" fill="white"/>
<path d="M429.246 81.2112C430.024 81.2112 430.655 80.5805 430.655 79.8026C430.655 79.0247 430.024 78.394 429.246 78.394C428.469 78.394 427.838 79.0247 427.838 79.8026C427.838 80.5805 428.469 81.2112 429.246 81.2112Z" fill="white"/>
<path d="M446.854 81.2112C447.632 81.2112 448.262 80.5805 448.262 79.8026C448.262 79.0247 447.632 78.394 446.854 78.394C446.076 78.394 445.445 79.0247 445.445 79.8026C445.445 80.5805 446.076 81.2112 446.854 81.2112Z" fill="white"/>
<path d="M464.461 81.2112C465.239 81.2112 465.87 80.5805 465.87 79.8026C465.87 79.0247 465.239 78.394 464.461 78.394C463.683 78.394 463.053 79.0247 463.053 79.8026C463.053 80.5805 463.683 81.2112 464.461 81.2112Z" fill="white"/>
<path d="M482.069 81.2112C482.847 81.2112 483.477 80.5805 483.477 79.8026C483.477 79.0247 482.847 78.394 482.069 78.394C481.291 78.394 480.66 79.0247 480.66 79.8026C480.66 80.5805 481.291 81.2112 482.069 81.2112Z" fill="white"/>
<path d="M499.676 81.2112C500.454 81.2112 501.085 80.5805 501.085 79.8026C501.085 79.0247 500.454 78.394 499.676 78.394C498.898 78.394 498.268 79.0247 498.268 79.8026C498.268 80.5805 498.898 81.2112 499.676 81.2112Z" fill="white"/>
<path d="M6.67712 98.8169C7.45505 98.8169 8.08569 98.1863 8.08569 97.4083C8.08569 96.6304 7.45505 95.9998 6.67712 95.9998C5.89919 95.9998 5.26855 96.6304 5.26855 97.4083C5.26855 98.1863 5.89919 98.8169 6.67712 98.8169Z" fill="white"/>
<path d="M24.2845 98.8166C25.0625 98.8166 25.6931 98.186 25.6931 97.4081C25.6931 96.6301 25.0625 95.9995 24.2845 95.9995C23.5066 95.9995 22.876 96.6301 22.876 97.4081C22.876 98.186 23.5066 98.8166 24.2845 98.8166Z" fill="white"/>
<path d="M41.891 98.8166C42.6689 98.8166 43.2996 98.186 43.2996 97.4081C43.2996 96.6301 42.6689 95.9995 41.891 95.9995C41.1131 95.9995 40.4824 96.6301 40.4824 97.4081C40.4824 98.186 41.1131 98.8166 41.891 98.8166Z" fill="white"/>
<path d="M59.4984 98.8169C60.2763 98.8169 60.907 98.1863 60.907 97.4083C60.907 96.6304 60.2763 95.9998 59.4984 95.9998C58.7205 95.9998 58.0898 96.6304 58.0898 97.4083C58.0898 98.1863 58.7205 98.8169 59.4984 98.8169Z" fill="white"/>
<path d="M77.1058 98.8166C77.8838 98.8166 78.5144 98.186 78.5144 97.4081C78.5144 96.6301 77.8838 95.9995 77.1058 95.9995C76.3279 95.9995 75.6973 96.6301 75.6973 97.4081C75.6973 98.186 76.3279 98.8166 77.1058 98.8166Z" fill="white"/>
<path d="M94.7123 98.8166C95.4902 98.8166 96.1208 98.186 96.1208 97.4081C96.1208 96.6301 95.4902 95.9995 94.7123 95.9995C93.9343 95.9995 93.3037 96.6301 93.3037 97.4081C93.3037 98.186 93.9343 98.8166 94.7123 98.8166Z" fill="white"/>
<path d="M112.32 98.8169C113.098 98.8169 113.728 98.1863 113.728 97.4083C113.728 96.6304 113.098 95.9998 112.32 95.9998C111.542 95.9998 110.911 96.6304 110.911 97.4083C110.911 98.1863 111.542 98.8169 112.32 98.8169Z" fill="white"/>
<path d="M129.927 98.8166C130.705 98.8166 131.336 98.186 131.336 97.4081C131.336 96.6301 130.705 95.9995 129.927 95.9995C129.149 95.9995 128.519 96.6301 128.519 97.4081C128.519 98.186 129.149 98.8166 129.927 98.8166Z" fill="white"/>
<path d="M147.534 98.8166C148.311 98.8166 148.942 98.186 148.942 97.4081C148.942 96.6301 148.311 95.9995 147.534 95.9995C146.756 95.9995 146.125 96.6301 146.125 97.4081C146.125 98.186 146.756 98.8166 147.534 98.8166Z" fill="white"/>
<path d="M165.141 98.8169C165.919 98.8169 166.55 98.1863 166.55 97.4083C166.55 96.6304 165.919 95.9998 165.141 95.9998C164.363 95.9998 163.732 96.6304 163.732 97.4083C163.732 98.1863 164.363 98.8169 165.141 98.8169Z" fill="white"/>
<path d="M182.748 98.8169C183.526 98.8169 184.157 98.1863 184.157 97.4083C184.157 96.6304 183.526 95.9998 182.748 95.9998C181.97 95.9998 181.34 96.6304 181.34 97.4083C181.34 98.1863 181.97 98.8169 182.748 98.8169Z" fill="white"/>
<path d="M200.355 98.8169C201.133 98.8169 201.763 98.1863 201.763 97.4083C201.763 96.6304 201.133 95.9998 200.355 95.9998C199.577 95.9998 198.946 96.6304 198.946 97.4083C198.946 98.1863 199.577 98.8169 200.355 98.8169Z" fill="white"/>
<path d="M217.962 98.8169C218.74 98.8169 219.371 98.1863 219.371 97.4083C219.371 96.6304 218.74 95.9998 217.962 95.9998C217.184 95.9998 216.554 96.6304 216.554 97.4083C216.554 98.1863 217.184 98.8169 217.962 98.8169Z" fill="white"/>
<path d="M235.57 98.8166C236.348 98.8166 236.978 98.186 236.978 97.4081C236.978 96.6301 236.348 95.9995 235.57 95.9995C234.792 95.9995 234.161 96.6301 234.161 97.4081C234.161 98.186 234.792 98.8166 235.57 98.8166Z" fill="white"/>
<path d="M253.176 98.8169C253.954 98.8169 254.585 98.1863 254.585 97.4083C254.585 96.6304 253.954 95.9998 253.176 95.9998C252.398 95.9998 251.768 96.6304 251.768 97.4083C251.768 98.1863 252.398 98.8169 253.176 98.8169Z" fill="white"/>
<path d="M270.784 98.8169C271.561 98.8169 272.192 98.1863 272.192 97.4083C272.192 96.6304 271.561 95.9998 270.784 95.9998C270.006 95.9998 269.375 96.6304 269.375 97.4083C269.375 98.1863 270.006 98.8169 270.784 98.8169Z" fill="white"/>
<path d="M288.391 98.8166C289.169 98.8166 289.8 98.186 289.8 97.4081C289.8 96.6301 289.169 95.9995 288.391 95.9995C287.613 95.9995 286.982 96.6301 286.982 97.4081C286.982 98.186 287.613 98.8166 288.391 98.8166Z" fill="white"/>
<path d="M305.997 98.8166C306.775 98.8166 307.406 98.186 307.406 97.4081C307.406 96.6301 306.775 95.9995 305.997 95.9995C305.22 95.9995 304.589 96.6301 304.589 97.4081C304.589 98.186 305.22 98.8166 305.997 98.8166Z" fill="white"/>
<path d="M323.604 98.8166C324.382 98.8166 325.012 98.186 325.012 97.4081C325.012 96.6301 324.382 95.9995 323.604 95.9995C322.826 95.9995 322.195 96.6301 322.195 97.4081C322.195 98.186 322.826 98.8166 323.604 98.8166Z" fill="white"/>
<path d="M341.213 98.8166C341.991 98.8166 342.622 98.186 342.622 97.4081C342.622 96.6301 341.991 95.9995 341.213 95.9995C340.435 95.9995 339.805 96.6301 339.805 97.4081C339.805 98.186 340.435 98.8166 341.213 98.8166Z" fill="white"/>
<path d="M358.819 98.8166C359.597 98.8166 360.227 98.186 360.227 97.4081C360.227 96.6301 359.597 95.9995 358.819 95.9995C358.041 95.9995 357.41 96.6301 357.41 97.4081C357.41 98.186 358.041 98.8166 358.819 98.8166Z" fill="white"/>
<path d="M376.426 98.8169C377.204 98.8169 377.835 98.1863 377.835 97.4083C377.835 96.6304 377.204 95.9998 376.426 95.9998C375.648 95.9998 375.018 96.6304 375.018 97.4083C375.018 98.1863 375.648 98.8169 376.426 98.8169Z" fill="white"/>
<path d="M394.034 98.8166C394.811 98.8166 395.442 98.186 395.442 97.4081C395.442 96.6301 394.811 95.9995 394.034 95.9995C393.256 95.9995 392.625 96.6301 392.625 97.4081C392.625 98.186 393.256 98.8166 394.034 98.8166Z" fill="white"/>
<path d="M411.641 98.8166C412.419 98.8166 413.05 98.186 413.05 97.4081C413.05 96.6301 412.419 95.9995 411.641 95.9995C410.863 95.9995 410.232 96.6301 410.232 97.4081C410.232 98.186 410.863 98.8166 411.641 98.8166Z" fill="white"/>
<path d="M429.246 98.8166C430.024 98.8166 430.655 98.186 430.655 97.4081C430.655 96.6301 430.024 95.9995 429.246 95.9995C428.469 95.9995 427.838 96.6301 427.838 97.4081C427.838 98.186 428.469 98.8166 429.246 98.8166Z" fill="white"/>
<path d="M446.854 98.8166C447.632 98.8166 448.262 98.186 448.262 97.4081C448.262 96.6301 447.632 95.9995 446.854 95.9995C446.076 95.9995 445.445 96.6301 445.445 97.4081C445.445 98.186 446.076 98.8166 446.854 98.8166Z" fill="white"/>
<path d="M464.461 98.8169C465.239 98.8169 465.87 98.1863 465.87 97.4083C465.87 96.6304 465.239 95.9998 464.461 95.9998C463.683 95.9998 463.053 96.6304 463.053 97.4083C463.053 98.1863 463.683 98.8169 464.461 98.8169Z" fill="white"/>
<path d="M482.069 98.8169C482.847 98.8169 483.477 98.1863 483.477 97.4083C483.477 96.6304 482.847 95.9998 482.069 95.9998C481.291 95.9998 480.66 96.6304 480.66 97.4083C480.66 98.1863 481.291 98.8169 482.069 98.8169Z" fill="white"/>
<path d="M499.676 98.8166C500.454 98.8166 501.085 98.186 501.085 97.4081C501.085 96.6301 500.454 95.9995 499.676 95.9995C498.898 95.9995 498.268 96.6301 498.268 97.4081C498.268 98.186 498.898 98.8166 499.676 98.8166Z" fill="white"/>
<path d="M6.67712 116.427C7.45505 116.427 8.08569 115.797 8.08569 115.019C8.08569 114.241 7.45505 113.61 6.67712 113.61C5.89919 113.61 5.26855 114.241 5.26855 115.019C5.26855 115.797 5.89919 116.427 6.67712 116.427Z" fill="white"/>
<path d="M24.2845 116.427C25.0625 116.427 25.6931 115.797 25.6931 115.019C25.6931 114.241 25.0625 113.61 24.2845 113.61C23.5066 113.61 22.876 114.241 22.876 115.019C22.876 115.797 23.5066 116.427 24.2845 116.427Z" fill="white"/>
<path d="M41.891 116.427C42.6689 116.427 43.2996 115.797 43.2996 115.019C43.2996 114.241 42.6689 113.61 41.891 113.61C41.1131 113.61 40.4824 114.241 40.4824 115.019C40.4824 115.797 41.1131 116.427 41.891 116.427Z" fill="white"/>
<path d="M59.4984 116.427C60.2763 116.427 60.907 115.797 60.907 115.019C60.907 114.241 60.2763 113.61 59.4984 113.61C58.7205 113.61 58.0898 114.241 58.0898 115.019C58.0898 115.797 58.7205 116.427 59.4984 116.427Z" fill="white"/>
<path d="M77.1058 116.427C77.8838 116.427 78.5144 115.797 78.5144 115.019C78.5144 114.241 77.8838 113.61 77.1058 113.61C76.3279 113.61 75.6973 114.241 75.6973 115.019C75.6973 115.797 76.3279 116.427 77.1058 116.427Z" fill="white"/>
<path d="M94.7123 116.427C95.4902 116.427 96.1208 115.797 96.1208 115.019C96.1208 114.241 95.4902 113.61 94.7123 113.61C93.9343 113.61 93.3037 114.241 93.3037 115.019C93.3037 115.797 93.9343 116.427 94.7123 116.427Z" fill="white"/>
<path d="M112.32 116.427C113.098 116.427 113.728 115.797 113.728 115.019C113.728 114.241 113.098 113.61 112.32 113.61C111.542 113.61 110.911 114.241 110.911 115.019C110.911 115.797 111.542 116.427 112.32 116.427Z" fill="white"/>
<path d="M129.927 116.427C130.705 116.427 131.336 115.797 131.336 115.019C131.336 114.241 130.705 113.61 129.927 113.61C129.149 113.61 128.519 114.241 128.519 115.019C128.519 115.797 129.149 116.427 129.927 116.427Z" fill="white"/>
<path d="M147.534 116.427C148.311 116.427 148.942 115.797 148.942 115.019C148.942 114.241 148.311 113.61 147.534 113.61C146.756 113.61 146.125 114.241 146.125 115.019C146.125 115.797 146.756 116.427 147.534 116.427Z" fill="white"/>
<path d="M165.141 116.427C165.919 116.427 166.55 115.797 166.55 115.019C166.55 114.241 165.919 113.61 165.141 113.61C164.363 113.61 163.732 114.241 163.732 115.019C163.732 115.797 164.363 116.427 165.141 116.427Z" fill="white"/>
<path d="M182.748 116.427C183.526 116.427 184.157 115.797 184.157 115.019C184.157 114.241 183.526 113.61 182.748 113.61C181.97 113.61 181.34 114.241 181.34 115.019C181.34 115.797 181.97 116.427 182.748 116.427Z" fill="white"/>
<path d="M200.355 116.427C201.133 116.427 201.763 115.797 201.763 115.019C201.763 114.241 201.133 113.61 200.355 113.61C199.577 113.61 198.946 114.241 198.946 115.019C198.946 115.797 199.577 116.427 200.355 116.427Z" fill="white"/>
<path d="M217.962 116.427C218.74 116.427 219.371 115.797 219.371 115.019C219.371 114.241 218.74 113.61 217.962 113.61C217.184 113.61 216.554 114.241 216.554 115.019C216.554 115.797 217.184 116.427 217.962 116.427Z" fill="white"/>
<path d="M235.57 116.427C236.348 116.427 236.978 115.797 236.978 115.019C236.978 114.241 236.348 113.61 235.57 113.61C234.792 113.61 234.161 114.241 234.161 115.019C234.161 115.797 234.792 116.427 235.57 116.427Z" fill="white"/>
<path d="M253.176 116.427C253.954 116.427 254.585 115.797 254.585 115.019C254.585 114.241 253.954 113.61 253.176 113.61C252.398 113.61 251.768 114.241 251.768 115.019C251.768 115.797 252.398 116.427 253.176 116.427Z" fill="white"/>
<path d="M270.784 116.427C271.561 116.427 272.192 115.797 272.192 115.019C272.192 114.241 271.561 113.61 270.784 113.61C270.006 113.61 269.375 114.241 269.375 115.019C269.375 115.797 270.006 116.427 270.784 116.427Z" fill="white"/>
<path d="M288.391 116.427C289.169 116.427 289.8 115.797 289.8 115.019C289.8 114.241 289.169 113.61 288.391 113.61C287.613 113.61 286.982 114.241 286.982 115.019C286.982 115.797 287.613 116.427 288.391 116.427Z" fill="white"/>
<path d="M305.997 116.427C306.775 116.427 307.406 115.797 307.406 115.019C307.406 114.241 306.775 113.61 305.997 113.61C305.22 113.61 304.589 114.241 304.589 115.019C304.589 115.797 305.22 116.427 305.997 116.427Z" fill="white"/>
<path d="M323.604 116.427C324.382 116.427 325.012 115.797 325.012 115.019C325.012 114.241 324.382 113.61 323.604 113.61C322.826 113.61 322.195 114.241 322.195 115.019C322.195 115.797 322.826 116.427 323.604 116.427Z" fill="white"/>
<path d="M341.213 116.427C341.991 116.427 342.622 115.797 342.622 115.019C342.622 114.241 341.991 113.61 341.213 113.61C340.435 113.61 339.805 114.241 339.805 115.019C339.805 115.797 340.435 116.427 341.213 116.427Z" fill="white"/>
<path d="M358.819 116.427C359.597 116.427 360.227 115.797 360.227 115.019C360.227 114.241 359.597 113.61 358.819 113.61C358.041 113.61 357.41 114.241 357.41 115.019C357.41 115.797 358.041 116.427 358.819 116.427Z" fill="white"/>
<path d="M376.426 116.427C377.204 116.427 377.835 115.797 377.835 115.019C377.835 114.241 377.204 113.61 376.426 113.61C375.648 113.61 375.018 114.241 375.018 115.019C375.018 115.797 375.648 116.427 376.426 116.427Z" fill="white"/>
<path d="M394.034 116.427C394.811 116.427 395.442 115.797 395.442 115.019C395.442 114.241 394.811 113.61 394.034 113.61C393.256 113.61 392.625 114.241 392.625 115.019C392.625 115.797 393.256 116.427 394.034 116.427Z" fill="white"/>
<path d="M411.641 116.427C412.419 116.427 413.05 115.797 413.05 115.019C413.05 114.241 412.419 113.61 411.641 113.61C410.863 113.61 410.232 114.241 410.232 115.019C410.232 115.797 410.863 116.427 411.641 116.427Z" fill="white"/>
<path d="M429.246 116.427C430.024 116.427 430.655 115.797 430.655 115.019C430.655 114.241 430.024 113.61 429.246 113.61C428.469 113.61 427.838 114.241 427.838 115.019C427.838 115.797 428.469 116.427 429.246 116.427Z" fill="white"/>
<path d="M446.854 116.427C447.632 116.427 448.262 115.797 448.262 115.019C448.262 114.241 447.632 113.61 446.854 113.61C446.076 113.61 445.445 114.241 445.445 115.019C445.445 115.797 446.076 116.427 446.854 116.427Z" fill="white"/>
<path d="M464.461 116.427C465.239 116.427 465.87 115.797 465.87 115.019C465.87 114.241 465.239 113.61 464.461 113.61C463.683 113.61 463.053 114.241 463.053 115.019C463.053 115.797 463.683 116.427 464.461 116.427Z" fill="white"/>
<path d="M482.069 116.427C482.847 116.427 483.477 115.797 483.477 115.019C483.477 114.241 482.847 113.61 482.069 113.61C481.291 113.61 480.66 114.241 480.66 115.019C480.66 115.797 481.291 116.427 482.069 116.427Z" fill="white"/>
<path d="M499.676 116.427C500.454 116.427 501.085 115.797 501.085 115.019C501.085 114.241 500.454 113.61 499.676 113.61C498.898 113.61 498.268 114.241 498.268 115.019C498.268 115.797 498.898 116.427 499.676 116.427Z" fill="white"/>
<path d="M6.67712 134.033C7.45505 134.033 8.08569 133.402 8.08569 132.624C8.08569 131.846 7.45505 131.216 6.67712 131.216C5.89919 131.216 5.26855 131.846 5.26855 132.624C5.26855 133.402 5.89919 134.033 6.67712 134.033Z" fill="white"/>
<path d="M24.2845 134.033C25.0625 134.033 25.6931 133.402 25.6931 132.624C25.6931 131.846 25.0625 131.216 24.2845 131.216C23.5066 131.216 22.876 131.846 22.876 132.624C22.876 133.402 23.5066 134.033 24.2845 134.033Z" fill="white"/>
<path d="M41.891 134.033C42.6689 134.033 43.2996 133.402 43.2996 132.624C43.2996 131.846 42.6689 131.216 41.891 131.216C41.1131 131.216 40.4824 131.846 40.4824 132.624C40.4824 133.402 41.1131 134.033 41.891 134.033Z" fill="white"/>
<path d="M59.4984 134.033C60.2763 134.033 60.907 133.402 60.907 132.624C60.907 131.846 60.2763 131.216 59.4984 131.216C58.7205 131.216 58.0898 131.846 58.0898 132.624C58.0898 133.402 58.7205 134.033 59.4984 134.033Z" fill="white"/>
<path d="M77.1058 134.033C77.8838 134.033 78.5144 133.402 78.5144 132.624C78.5144 131.846 77.8838 131.216 77.1058 131.216C76.3279 131.216 75.6973 131.846 75.6973 132.624C75.6973 133.402 76.3279 134.033 77.1058 134.033Z" fill="white"/>
<path d="M94.7123 134.033C95.4902 134.033 96.1208 133.402 96.1208 132.624C96.1208 131.846 95.4902 131.216 94.7123 131.216C93.9343 131.216 93.3037 131.846 93.3037 132.624C93.3037 133.402 93.9343 134.033 94.7123 134.033Z" fill="white"/>
<path d="M112.32 134.033C113.098 134.033 113.728 133.402 113.728 132.624C113.728 131.846 113.098 131.216 112.32 131.216C111.542 131.216 110.911 131.846 110.911 132.624C110.911 133.402 111.542 134.033 112.32 134.033Z" fill="white"/>
<path d="M129.927 134.033C130.705 134.033 131.336 133.402 131.336 132.624C131.336 131.846 130.705 131.216 129.927 131.216C129.149 131.216 128.519 131.846 128.519 132.624C128.519 133.402 129.149 134.033 129.927 134.033Z" fill="white"/>
<path d="M147.534 134.033C148.311 134.033 148.942 133.402 148.942 132.624C148.942 131.846 148.311 131.216 147.534 131.216C146.756 131.216 146.125 131.846 146.125 132.624C146.125 133.402 146.756 134.033 147.534 134.033Z" fill="white"/>
<path d="M165.141 134.033C165.919 134.033 166.55 133.402 166.55 132.624C166.55 131.846 165.919 131.216 165.141 131.216C164.363 131.216 163.732 131.846 163.732 132.624C163.732 133.402 164.363 134.033 165.141 134.033Z" fill="white"/>
<path d="M182.748 134.033C183.526 134.033 184.157 133.402 184.157 132.624C184.157 131.846 183.526 131.216 182.748 131.216C181.97 131.216 181.34 131.846 181.34 132.624C181.34 133.402 181.97 134.033 182.748 134.033Z" fill="white"/>
<path d="M200.355 134.033C201.133 134.033 201.763 133.402 201.763 132.624C201.763 131.846 201.133 131.216 200.355 131.216C199.577 131.216 198.946 131.846 198.946 132.624C198.946 133.402 199.577 134.033 200.355 134.033Z" fill="white"/>
<path d="M217.962 134.033C218.74 134.033 219.371 133.402 219.371 132.624C219.371 131.846 218.74 131.216 217.962 131.216C217.184 131.216 216.554 131.846 216.554 132.624C216.554 133.402 217.184 134.033 217.962 134.033Z" fill="white"/>
<path d="M235.57 134.033C236.348 134.033 236.978 133.402 236.978 132.624C236.978 131.846 236.348 131.216 235.57 131.216C234.792 131.216 234.161 131.846 234.161 132.624C234.161 133.402 234.792 134.033 235.57 134.033Z" fill="white"/>
<path d="M253.176 134.033C253.954 134.033 254.585 133.402 254.585 132.624C254.585 131.846 253.954 131.216 253.176 131.216C252.398 131.216 251.768 131.846 251.768 132.624C251.768 133.402 252.398 134.033 253.176 134.033Z" fill="white"/>
<path d="M270.784 134.033C271.561 134.033 272.192 133.402 272.192 132.624C272.192 131.846 271.561 131.216 270.784 131.216C270.006 131.216 269.375 131.846 269.375 132.624C269.375 133.402 270.006 134.033 270.784 134.033Z" fill="white"/>
<path d="M288.391 134.033C289.169 134.033 289.8 133.402 289.8 132.624C289.8 131.846 289.169 131.216 288.391 131.216C287.613 131.216 286.982 131.846 286.982 132.624C286.982 133.402 287.613 134.033 288.391 134.033Z" fill="white"/>
<path d="M305.997 134.033C306.775 134.033 307.406 133.402 307.406 132.624C307.406 131.846 306.775 131.216 305.997 131.216C305.22 131.216 304.589 131.846 304.589 132.624C304.589 133.402 305.22 134.033 305.997 134.033Z" fill="white"/>
<path d="M323.604 134.033C324.382 134.033 325.012 133.402 325.012 132.624C325.012 131.846 324.382 131.216 323.604 131.216C322.826 131.216 322.195 131.846 322.195 132.624C322.195 133.402 322.826 134.033 323.604 134.033Z" fill="white"/>
<path d="M341.213 134.033C341.991 134.033 342.622 133.402 342.622 132.624C342.622 131.846 341.991 131.216 341.213 131.216C340.435 131.216 339.805 131.846 339.805 132.624C339.805 133.402 340.435 134.033 341.213 134.033Z" fill="white"/>
<path d="M358.819 134.033C359.597 134.033 360.227 133.402 360.227 132.624C360.227 131.846 359.597 131.216 358.819 131.216C358.041 131.216 357.41 131.846 357.41 132.624C357.41 133.402 358.041 134.033 358.819 134.033Z" fill="white"/>
<path d="M376.426 134.033C377.204 134.033 377.835 133.402 377.835 132.624C377.835 131.846 377.204 131.216 376.426 131.216C375.648 131.216 375.018 131.846 375.018 132.624C375.018 133.402 375.648 134.033 376.426 134.033Z" fill="white"/>
<path d="M394.034 134.033C394.811 134.033 395.442 133.402 395.442 132.624C395.442 131.846 394.811 131.216 394.034 131.216C393.256 131.216 392.625 131.846 392.625 132.624C392.625 133.402 393.256 134.033 394.034 134.033Z" fill="white"/>
<path d="M411.641 134.033C412.419 134.033 413.05 133.402 413.05 132.624C413.05 131.846 412.419 131.216 411.641 131.216C410.863 131.216 410.232 131.846 410.232 132.624C410.232 133.402 410.863 134.033 411.641 134.033Z" fill="white"/>
<path d="M429.246 134.033C430.024 134.033 430.655 133.402 430.655 132.624C430.655 131.846 430.024 131.216 429.246 131.216C428.469 131.216 427.838 131.846 427.838 132.624C427.838 133.402 428.469 134.033 429.246 134.033Z" fill="white"/>
<path d="M446.854 134.033C447.632 134.033 448.262 133.402 448.262 132.624C448.262 131.846 447.632 131.216 446.854 131.216C446.076 131.216 445.445 131.846 445.445 132.624C445.445 133.402 446.076 134.033 446.854 134.033Z" fill="white"/>
<path d="M464.461 134.033C465.239 134.033 465.87 133.402 465.87 132.624C465.87 131.846 465.239 131.216 464.461 131.216C463.683 131.216 463.053 131.846 463.053 132.624C463.053 133.402 463.683 134.033 464.461 134.033Z" fill="white"/>
<path d="M482.069 134.033C482.847 134.033 483.477 133.402 483.477 132.624C483.477 131.846 482.847 131.216 482.069 131.216C481.291 131.216 480.66 131.846 480.66 132.624C480.66 133.402 481.291 134.033 482.069 134.033Z" fill="white"/>
<path d="M499.676 134.033C500.454 134.033 501.085 133.402 501.085 132.624C501.085 131.846 500.454 131.216 499.676 131.216C498.898 131.216 498.268 131.846 498.268 132.624C498.268 133.402 498.898 134.033 499.676 134.033Z" fill="white"/>
</g>
</g>
</g>
</svg>
