<svg width="152" height="36" viewBox="0 0 152 36" fill="none" xmlns="http://www.w3.org/2000/svg">
<path d="M14.807 2.74365H33.7264L19.8168 23.3604H0.897461L14.807 2.74365Z" fill="#150D21"/>
<path d="M15.6355 25.271L10.248 33.2564H30.0649L43.9744 12.6396H29.3484L20.8263 25.271H15.6355Z" fill="#5F57FF"/>
<path d="M61.2551 21.6705H64.8347L66.9547 24.419L68.4675 26.2088L72.1003 30.875H68.2651L65.7935 27.7429L64.7388 26.2514L61.2551 21.6705ZM72.6223 18.0909C72.6223 20.4418 72.182 22.4553 71.3013 24.1314C70.4277 25.8004 69.2346 27.0788 67.7218 27.9666C66.2161 28.8544 64.508 29.2983 62.5975 29.2983C60.687 29.2983 58.9753 28.8544 57.4625 27.9666C55.9569 27.0717 54.7637 25.7898 53.883 24.1207C53.0094 22.4446 52.5726 20.4347 52.5726 18.0909C52.5726 15.7401 53.0094 13.7301 53.883 12.0611C54.7637 10.3849 55.9569 9.10298 57.4625 8.2152C58.9753 7.32741 60.687 6.88352 62.5975 6.88352C64.508 6.88352 66.2161 7.32741 67.7218 8.2152C69.2346 9.10298 70.4277 10.3849 71.3013 12.0611C72.182 13.7301 72.6223 15.7401 72.6223 18.0909ZM68.6486 18.0909C68.6486 16.4361 68.3894 15.0405 67.8709 13.9041C67.3596 12.7607 66.6493 11.8977 65.7402 11.3153C64.8311 10.7259 63.7836 10.4311 62.5975 10.4311C61.4114 10.4311 60.3638 10.7259 59.4547 11.3153C58.5456 11.8977 57.8319 12.7607 57.3134 13.9041C56.802 15.0405 56.5463 16.4361 56.5463 18.0909C56.5463 19.7457 56.802 21.1449 57.3134 22.2884C57.8319 23.4247 58.5456 24.2876 59.4547 24.8771C60.3638 25.4595 61.4114 25.7507 62.5975 25.7507C63.7836 25.7507 64.8311 25.4595 65.7402 24.8771C66.6493 24.2876 67.3596 23.4247 67.8709 22.2884C68.3894 21.1449 68.6486 19.7457 68.6486 18.0909ZM86.0475 22.1179V12.6364H89.9041V29H86.1647V26.0916H85.9943C85.625 27.0078 85.0177 27.7571 84.1725 28.3395C83.3345 28.9219 82.3011 29.2131 81.0724 29.2131C80 29.2131 79.0518 28.9751 78.2279 28.4993C77.4112 28.0163 76.772 27.3168 76.3103 26.4006C75.8487 25.4773 75.6179 24.3622 75.6179 23.0554V12.6364H79.4744V22.4588C79.4744 23.4957 79.7585 24.3196 80.3267 24.9304C80.8949 25.5412 81.6406 25.8466 82.5639 25.8466C83.1321 25.8466 83.6825 25.7081 84.2152 25.4311C84.7478 25.1541 85.1846 24.7422 85.5255 24.1953C85.8735 23.6413 86.0475 22.9489 86.0475 22.1179ZM97.1263 7.18182V29H93.2698V7.18182H97.1263ZM105.201 29.3303C104.164 29.3303 103.23 29.1456 102.399 28.7763C101.575 28.3999 100.922 27.8459 100.439 27.1143C99.963 26.3828 99.725 25.4808 99.725 24.4084C99.725 23.4851 99.8955 22.7216 100.236 22.1179C100.577 21.5142 101.043 21.0312 101.632 20.669C102.221 20.3068 102.886 20.0334 103.624 19.8487C104.37 19.657 105.141 19.5185 105.936 19.4332C106.895 19.3338 107.672 19.245 108.269 19.1669C108.866 19.0817 109.299 18.9538 109.569 18.7834C109.846 18.6058 109.984 18.3324 109.984 17.9631V17.8991C109.984 17.0966 109.746 16.4751 109.27 16.0348C108.795 15.5945 108.109 15.3743 107.214 15.3743C106.27 15.3743 105.52 15.5803 104.967 15.9922C104.42 16.4041 104.05 16.8906 103.859 17.4517L100.258 16.9403C100.542 15.946 101.011 15.1151 101.664 14.4474C102.317 13.7727 103.116 13.2685 104.061 12.9347C105.006 12.5938 106.05 12.4233 107.193 12.4233C107.981 12.4233 108.766 12.5156 109.547 12.7003C110.329 12.8849 111.043 13.1903 111.689 13.6165C112.335 14.0355 112.854 14.6072 113.244 15.3317C113.642 16.0561 113.841 16.9616 113.841 18.0483V29H110.133V26.7521H110.006C109.771 27.2067 109.441 27.6328 109.015 28.0305C108.596 28.4212 108.067 28.7372 107.427 28.9787C106.795 29.2131 106.053 29.3303 105.201 29.3303ZM106.202 26.4964C106.976 26.4964 107.648 26.3437 108.216 26.0384C108.784 25.7259 109.221 25.3139 109.526 24.8026C109.839 24.2912 109.995 23.7337 109.995 23.13V21.2017C109.874 21.3011 109.668 21.3935 109.377 21.4787C109.093 21.5639 108.773 21.6385 108.418 21.7024C108.063 21.7663 107.712 21.8232 107.364 21.8729C107.016 21.9226 106.714 21.9652 106.458 22.0007C105.883 22.0788 105.368 22.2067 104.913 22.3842C104.459 22.5618 104.1 22.8104 103.837 23.13C103.574 23.4425 103.443 23.8473 103.443 24.3445C103.443 25.0547 103.702 25.5909 104.221 25.9531C104.739 26.3153 105.4 26.4964 106.202 26.4964ZM120.975 19.4119V29H117.119V12.6364H120.805V15.4169H120.996C121.373 14.5007 121.973 13.7727 122.797 13.233C123.628 12.6932 124.654 12.4233 125.876 12.4233C127.005 12.4233 127.989 12.6648 128.827 13.1477C129.672 13.6307 130.325 14.3303 130.787 15.2464C131.256 16.1626 131.487 17.2741 131.479 18.581V29H127.623V19.1776C127.623 18.0838 127.339 17.228 126.771 16.6101C126.21 15.9922 125.432 15.6832 124.438 15.6832C123.763 15.6832 123.163 15.8324 122.637 16.1307C122.119 16.4219 121.71 16.8445 121.412 17.3984C121.121 17.9524 120.975 18.6236 120.975 19.4119ZM140.872 29.2876C139.587 29.2876 138.436 28.9574 137.421 28.2969C136.405 27.6364 135.602 26.6776 135.013 25.4205C134.423 24.1634 134.129 22.6364 134.129 20.8395C134.129 19.0213 134.427 17.4872 135.024 16.2372C135.627 14.9801 136.441 14.032 137.463 13.3928C138.486 12.7464 139.626 12.4233 140.883 12.4233C141.842 12.4233 142.63 12.5866 143.248 12.9134C143.866 13.233 144.356 13.62 144.718 14.0746C145.08 14.522 145.361 14.9446 145.56 15.3423H145.72V7.18182H149.587V29H145.794V26.4219H145.56C145.361 26.8196 145.073 27.2422 144.697 27.6896C144.32 28.13 143.823 28.5064 143.205 28.8189C142.588 29.1314 141.81 29.2876 140.872 29.2876ZM141.948 26.1236C142.765 26.1236 143.461 25.9034 144.036 25.4631C144.612 25.0156 145.048 24.3942 145.347 23.5987C145.645 22.8033 145.794 21.8764 145.794 20.8182C145.794 19.7599 145.645 18.8402 145.347 18.0589C145.056 17.2777 144.622 16.6705 144.047 16.2372C143.479 15.804 142.779 15.5874 141.948 15.5874C141.089 15.5874 140.372 15.8111 139.796 16.2585C139.221 16.706 138.788 17.3239 138.497 18.1122C138.205 18.9006 138.06 19.8026 138.06 20.8182C138.06 21.8409 138.205 22.7536 138.497 23.5561C138.795 24.3516 139.232 24.9801 139.807 25.4418C140.389 25.8963 141.103 26.1236 141.948 26.1236Z" fill="#101828"/>
</svg>
