<svg width="154" height="30" viewBox="0 0 154 30" fill="none" xmlns="http://www.w3.org/2000/svg">
<g clip-path="url(#clip0_40_142)">
<path d="M18.607 5.63738L9.75957 11.2748L18.607 16.9121L9.75957 22.5495L0.912109 16.8817L9.75957 11.2443L0.912109 5.63738L9.75957 0L18.607 5.63738ZM9.71381 24.3626L18.5613 18.7252L27.4087 24.3626L18.5613 30L9.71381 24.3626ZM18.607 16.8817L27.4545 11.2443L18.607 5.63738L27.4087 0L36.2562 5.63738L27.4087 11.2748L36.2562 16.9121L27.4087 22.5495L18.607 16.8817Z" fill="white"/>
<path d="M43.1968 5.63743H50.3511C54.9121 5.63743 58.6799 8.27329 58.6799 14.2916V15.5562C58.6799 21.6202 55.1562 24.3474 50.4884 24.3474H43.1968V5.63743ZM47.1934 9.03509V20.9345H50.2595C52.8528 20.9345 54.5917 19.2433 54.5917 15.48V14.4896C54.5917 10.7263 52.7612 9.03509 50.1223 9.03509H47.1934ZM60.8002 9.21793H64.0036L64.5223 12.7375C65.1324 10.3454 66.6884 9.06557 69.5104 9.06557H70.5019V13.1031H68.8545C65.6053 13.1031 64.8121 14.2306 64.8121 17.4302V24.3931H60.8612V9.21793H60.8002ZM71.2951 17.1103V16.6836C71.2951 11.61 74.5443 8.83702 78.968 8.83702C83.4833 8.83702 86.6409 11.61 86.6409 16.6836V17.1103C86.6409 22.0925 83.5748 24.774 78.968 24.774C74.0714 24.7283 71.2951 22.1077 71.2951 17.1103ZM82.5985 17.0645V16.6836C82.5985 13.865 81.1799 12.1737 78.9222 12.1737C76.7104 12.1737 75.246 13.7278 75.246 16.6836V17.0645C75.246 19.7918 76.6646 21.3459 78.9222 21.3459C81.1799 21.3002 82.5985 19.7918 82.5985 17.0645ZM88.7155 9.21793H92.0104L92.3917 12.0823C93.185 10.1626 94.8782 8.83702 97.3799 8.83702C101.239 8.83702 103.787 11.61 103.787 16.7446V17.1712C103.787 22.1534 100.965 24.7893 97.3799 24.7893C94.985 24.7893 93.3375 23.7075 92.529 21.9706V29.6344H88.6697L88.7155 9.21793ZM99.7748 17.0645V16.7294C99.7748 13.7126 98.2189 12.2194 96.1443 12.2194C93.9324 12.2194 92.468 13.9107 92.468 16.7294V17.0188C92.468 19.7004 93.8867 21.3916 96.0985 21.3916C98.3714 21.3459 99.7748 19.8985 99.7748 17.0645ZM109.629 21.5897L109.293 24.3627H105.907V4.14429H109.766V11.8995C110.621 9.91879 112.314 8.83702 114.709 8.83702C118.339 8.88273 121.024 11.3815 121.024 16.4094V16.8817C121.024 21.9096 118.476 24.7893 114.617 24.7893C112.07 24.7283 110.422 23.5551 109.629 21.5897ZM116.966 16.8817V16.5008C116.966 13.7278 115.456 12.1737 113.336 12.1737C111.17 12.1737 109.66 13.9107 109.66 16.5465V16.8817C109.66 19.7004 111.124 21.3459 113.29 21.3459C115.609 21.3459 116.966 19.8985 116.966 16.8817ZM122.717 17.1103V16.6836C122.717 11.61 125.966 8.83702 130.39 8.83702C134.905 8.83702 138.063 11.61 138.063 16.6836V17.1103C138.063 22.0925 134.951 24.774 130.39 24.774C125.493 24.7283 122.717 22.1077 122.717 17.1103ZM134.051 17.0645V16.6836C134.051 13.865 132.632 12.1737 130.375 12.1737C128.163 12.1737 126.699 13.7278 126.699 16.6836V17.0645C126.699 19.7918 128.117 21.3459 130.375 21.3459C132.648 21.3002 134.051 19.7918 134.051 17.0645ZM143.234 16.5008L137.91 9.21793H142.471L145.537 13.7735L148.649 9.21793H153.165L147.765 16.4551L153.454 24.3627H148.985L145.507 19.3347L142.121 24.3627H137.453L143.234 16.5008Z" fill="white"/>
</g>
<defs>
<clipPath id="clip0_40_142">
<rect width="152.542" height="30" fill="white" transform="translate(0.912109)"/>
</clipPath>
</defs>
</svg>
