<svg width="113" height="30" viewBox="0 0 113 30" fill="none" xmlns="http://www.w3.org/2000/svg">
<g clip-path="url(#clip0_40_155)">
<path d="M111.439 5.18678C111.041 4.73946 110.512 4.51553 109.796 4.51553C109.079 4.51553 108.533 4.75426 108.15 5.24587C107.771 5.72122 107.573 6.43464 107.573 7.37255V14.1572C106.691 13.2045 105.776 12.5201 104.85 12.0584C104.269 11.7771 103.586 11.5695 102.825 11.4639C102.382 11.4047 101.927 11.374 101.426 11.374C99.096 11.374 97.2111 12.1778 95.7638 13.7843C94.333 15.3919 93.6187 17.6237 93.6187 20.4933C93.6187 21.8491 93.8014 23.1128 94.1646 24.2742C94.5311 25.4345 95.0451 26.4451 95.7486 27.3092C96.4487 28.1721 97.2845 28.8248 98.2438 29.3034C99.2021 29.7633 100.237 29.9998 101.364 29.9998C101.882 29.9998 102.367 29.9571 102.825 29.8685C103.129 29.8213 103.418 29.7479 103.708 29.6582C104.422 29.4216 105.092 29.0799 105.701 28.6485C106.325 28.2007 106.95 27.6214 107.573 26.9215V27.3684C107.573 28.217 107.786 28.8554 108.196 29.3165C108.623 29.7633 109.156 29.9998 109.796 29.9998C110.45 29.9998 110.982 29.7786 111.393 29.3471C111.803 28.9004 112.017 28.2466 112.017 27.3684V7.13493C112.017 6.28628 111.818 5.6314 111.439 5.18678ZM106.705 23.9023C106.293 24.7653 105.747 25.4049 105.079 25.821C104.393 26.2383 103.646 26.4451 102.825 26.4451H102.811C101.988 26.4451 101.242 26.2229 100.556 25.7914C99.8726 25.3458 99.3235 24.6898 98.9285 23.8274C98.5337 22.9491 98.3356 21.8934 98.3356 20.6434C98.3356 19.4683 98.5173 18.4269 98.898 17.5492C99.2644 16.6567 99.7961 15.9712 100.467 15.4954C101.151 15.0037 101.913 14.7814 102.78 14.7814H102.825C103.631 14.7814 104.376 15.0196 105.062 15.4801C105.747 15.941 106.293 16.6124 106.705 17.4895C107.117 18.3672 107.313 19.4234 107.313 20.6434C107.313 21.952 107.117 23.0394 106.705 23.9023Z" fill="white"/>
<path d="M92.1704 24.0957C91.8838 23.8426 91.4867 23.7086 90.9988 23.7086C90.558 23.7086 90.2233 23.8126 89.9793 24.0058C89.3864 24.542 88.9149 24.9712 88.5484 25.2854C88.1841 25.5834 87.7729 25.8812 87.3309 26.1627C86.9065 26.4299 86.4492 26.6402 85.9952 26.7595C85.5216 26.892 85.0184 26.9511 84.4561 26.9511C84.3335 26.9511 84.2111 26.9511 84.106 26.9357C83.4059 26.892 82.7518 26.697 82.1589 26.3401C81.4566 25.9382 80.9096 25.3458 80.483 24.5715C80.0718 23.7677 79.8606 22.8462 79.8453 21.8053H89.021C90.2527 21.8053 91.211 21.6251 91.8838 21.2971C92.5675 20.9407 92.9023 20.1971 92.9023 19.0517C92.9023 17.8016 92.5674 16.5811 91.9133 15.3777C91.2581 14.1862 90.2844 13.2045 88.9609 12.4461C87.6492 11.6884 86.0828 11.3154 84.2428 11.3154H84.106C82.7518 11.3296 81.5025 11.5541 80.3922 11.9703C79.236 12.4166 78.2612 13.0561 77.4539 13.8741C76.6794 14.707 76.0702 15.704 75.66 16.8643C75.2498 18.0261 75.0354 19.2899 75.0354 20.6429C75.0354 23.5306 75.8733 25.7914 77.547 27.4723C79.1277 29.0646 81.321 29.898 84.106 29.9857C84.2582 29.9998 84.4244 29.9998 84.5929 29.9998C85.9012 29.9998 87.0738 29.8377 88.0923 29.4961C89.1129 29.1533 89.9486 28.735 90.6214 28.2313C91.2877 27.7101 91.7908 27.1756 92.1233 26.6236C92.4602 26.074 92.6276 25.5834 92.6276 25.1804C92.6276 24.7203 92.4767 24.3481 92.1704 24.0957ZM81.2149 15.6892C81.9587 14.9008 82.9191 14.5142 84.0897 14.5142H84.106C85.3225 14.5142 86.3124 14.9008 87.0575 15.6739C87.8057 16.4481 88.2444 17.6237 88.3526 19.2001H79.8453C79.9963 17.6533 80.4535 16.4766 81.2149 15.6892Z" fill="white"/>
<path d="M72.2196 23.7086C71.7635 23.7086 71.4276 23.8126 71.1858 24.0058C70.6061 24.542 70.1204 24.9722 69.7539 25.2854C69.3896 25.5834 68.9936 25.8812 68.5517 26.1627C68.1119 26.4299 67.6689 26.6402 67.1974 26.7595C66.7402 26.892 66.2228 26.9511 65.6605 26.9511C65.539 26.9511 65.4176 26.9511 65.3115 26.9357C64.6103 26.892 63.9551 26.697 63.3622 26.3401C62.6785 25.9382 62.114 25.3458 61.7049 24.5715C61.2771 23.7677 61.0639 22.8462 61.0491 21.8053H70.2407C71.4593 21.8053 72.4175 21.6251 73.1024 21.2971C73.7729 20.9407 74.1066 20.1971 74.1066 19.0517C74.1066 17.8016 73.7872 16.5811 73.133 15.3777C72.4778 14.1862 71.4889 13.2045 70.1827 12.4461C68.869 11.6884 67.2893 11.3154 65.4647 11.3154H65.3115C63.9551 11.3296 62.7223 11.5541 61.5977 11.9703C60.4398 12.4166 59.4662 13.0561 58.6748 13.8741C57.8834 14.707 57.274 15.704 56.8649 16.8643C56.4525 18.0261 56.2403 19.2899 56.2403 20.6434C56.2403 23.5306 57.0924 25.7914 58.7683 27.4723C60.3484 29.0646 62.5265 29.898 65.3115 29.9857C65.4778 29.9998 65.6299 29.9998 65.7984 29.9998C67.1208 29.9998 68.2793 29.8377 69.2955 29.4961C70.3162 29.1533 71.1541 28.735 71.8225 28.2313C72.5073 27.7101 72.9941 27.1756 73.3299 26.6236C73.6657 26.074 73.832 25.5834 73.832 25.1804C73.832 24.7203 73.6811 24.3481 73.3923 24.0957C73.0882 23.8426 72.6911 23.7086 72.2196 23.7086ZM62.4198 15.6892C63.1636 14.9008 64.1213 14.5142 65.2952 14.5142H65.3115C66.5279 14.5142 67.5169 14.9008 68.264 15.6739C69.0232 16.4481 69.4498 17.6237 69.5723 19.2001H61.0491C61.2175 17.6533 61.6742 16.4766 62.4198 15.6892Z" fill="white"/>
<path d="M9.77679 26.9511V16.0024C10.0962 16.0303 10.4009 16.0451 10.7203 16.0451C12.2419 16.0451 13.6743 15.6438 14.8903 14.9298V26.9511C14.8903 27.9772 14.6463 28.7361 14.1754 29.2431C13.705 29.7479 13.0793 29.9998 12.3185 29.9998C11.5725 29.9998 10.979 29.7479 10.4911 29.2278C10.0207 28.7219 9.77679 27.9619 9.77679 26.9511Z" fill="white"/>
<path d="M53.9873 5.18678C53.5902 4.73946 53.0443 4.51553 52.3585 4.51553C51.6436 4.51553 51.0945 4.75426 50.7144 5.24587C50.3211 5.72122 50.1362 6.43464 50.1362 7.37255V14.1572C49.2535 13.2045 48.3405 12.5201 47.4118 12.0584C46.82 11.7771 46.1489 11.5695 45.3891 11.4639C44.9483 11.4047 44.4911 11.374 43.9895 11.374C41.6595 11.374 39.7577 12.1778 38.3279 13.7843C36.8971 15.3919 36.1805 17.6237 36.1805 20.4933C36.1805 21.8491 36.3649 23.1128 36.7127 24.2742C37.0793 25.4345 37.6114 26.4451 38.3132 27.3092C39.0117 28.1721 39.849 28.8248 40.8095 29.3034C41.7677 29.7633 42.801 29.9998 43.9272 29.9998C44.4292 29.9998 44.9172 29.9571 45.3891 29.8685C45.6927 29.8213 45.9826 29.7479 46.2719 29.6582C46.9868 29.4216 47.6563 29.0799 48.265 28.6485C48.8886 28.2007 49.4984 27.6214 50.1362 26.9215V27.3684C50.1362 28.217 50.3506 28.8554 50.7609 29.3165C51.1721 29.7633 51.7196 29.9998 52.3585 29.9998C52.9809 29.9998 53.5306 29.7786 53.943 29.3471C54.3533 28.9004 54.5502 28.2466 54.5502 27.3684V7.13493C54.5502 6.28628 54.369 5.6314 53.9873 5.18678ZM49.2681 23.9023C48.8585 24.7653 48.3099 25.4049 47.6268 25.821C46.9562 26.2383 46.1954 26.4451 45.3891 26.4451H45.3728C44.5535 26.4451 43.8058 26.2229 43.1214 25.7914C42.4213 25.3458 41.8886 24.6898 41.492 23.8274C41.0972 22.9491 40.8991 21.8934 40.8991 20.6434C40.8991 19.4683 41.0835 18.4269 41.4472 17.5492C41.8279 16.6567 42.3448 15.9712 43.0296 15.4954C43.7001 15.0037 44.4746 14.7814 45.3284 14.7814H45.3891C46.1954 14.7814 46.9409 15.0196 47.6098 15.4801C48.3099 15.941 48.8585 16.6124 49.2681 17.4895C49.6631 18.3672 49.8786 19.4234 49.8786 20.6434C49.8786 21.952 49.6631 23.0394 49.2681 23.9023Z" fill="white"/>
<path d="M22.393 13.8741V14.4403C23.2297 13.3687 24.1284 12.5951 25.1025 12.0886C26.092 11.5985 27.2176 11.3439 28.4959 11.3439C29.7287 11.3439 30.8396 11.6122 31.8142 12.1334C32.7883 12.6536 33.5032 13.3983 33.9906 14.3659C34.3105 14.9298 34.5086 15.5414 34.5988 16.1952C34.6907 16.8341 34.7355 17.6664 34.7355 18.6793V27.2052C34.7355 28.1272 34.5086 28.8248 34.0808 29.2869C33.6558 29.7633 33.0908 29.9998 32.406 29.9998C31.7076 29.9998 31.1447 29.7633 30.7022 29.2716C30.2603 28.7952 30.0492 28.0977 30.0492 27.2052V19.5708C30.0492 18.0546 29.8353 16.8938 29.4087 16.0905C28.9827 15.2878 28.1147 14.8854 26.838 14.8854C26.0007 14.8854 25.2387 15.1395 24.5534 15.6142C23.8702 16.1059 23.3517 16.7739 23.0312 17.6373C22.8036 18.3224 22.696 19.586 22.696 21.4773V27.2052C22.696 28.1414 22.4706 28.8248 22.0287 29.3034C21.5867 29.7633 21.0244 29.9998 20.3232 29.9998C19.64 29.9998 19.0898 29.7633 18.649 29.2716C18.2081 28.7952 17.9937 28.0977 17.9937 27.2052V13.948C17.9937 13.0715 18.1918 12.4166 18.5883 11.9999C18.9689 11.5695 19.5006 11.3439 20.187 11.3439C20.5978 11.3439 20.962 11.4326 21.2962 11.6286C21.6331 11.8202 21.9056 12.1039 22.1035 12.4905C22.301 12.8759 22.393 13.3386 22.393 13.8741Z" fill="white"/>
<path d="M9.80633 0.70847C12.9721 -0.408526 16.5793 -0.348757 19.2878 1.94209C19.7916 2.4032 20.3686 2.98362 20.5972 3.66799C20.8718 4.53088 19.6395 3.57772 19.4705 3.46042C18.5883 2.89435 17.7049 2.41856 16.7172 2.09056C11.3909 0.484533 6.35117 3.38608 3.21821 7.89398C1.90989 9.88755 1.05611 11.9841 0.356528 14.2898C0.281047 14.5438 0.219789 14.8718 0.0814305 15.0925C-0.0553088 15.3476 0.0212652 14.4108 0.0212652 14.3796C0.126806 13.4285 0.325899 12.5059 0.569841 11.5833C2.0149 6.67292 5.21023 2.58217 9.80633 0.70847Z" fill="white"/>
<path d="M13.9314 12.8918C12.0297 13.844 9.69964 13.1015 8.74085 11.2415C7.7667 9.38094 8.52863 7.10534 10.4304 6.16799C12.3333 5.21583 14.6633 5.95885 15.621 7.81943C16.5952 9.67933 15.8344 11.9549 13.9314 12.8918Z" fill="white"/>
</g>
<defs>
<clipPath id="clip0_40_155">
<rect width="112.017" height="30" fill="white"/>
</clipPath>
</defs>
</svg>
