<svg width="125" height="30" viewBox="0 0 125 30" fill="none" xmlns="http://www.w3.org/2000/svg">
<g clip-path="url(#clip0_40_145)">
<path d="M122.408 28.0634C122.484 28.0642 122.559 28.0494 122.629 28.02C122.699 27.9907 122.762 27.9473 122.815 27.8927C122.867 27.838 122.908 27.7733 122.934 27.7024C122.96 27.6315 122.972 27.556 122.967 27.4807C122.967 27.0674 122.716 26.8699 122.201 26.8699H121.369V29.0338H121.682V28.0905H122.067L122.075 28.102L122.672 29.0338H123.007L122.365 28.0694L122.408 28.0634ZM122.046 27.8467H121.683V27.1151H122.143C122.381 27.1151 122.651 27.1537 122.651 27.4628C122.651 27.8182 122.377 27.8467 122.044 27.8467" fill="white"/>
<path d="M0.454102 4.40259H5.0748V21.1188H13.6291V25.3538H0.454102V4.40259Z" fill="white"/>
<path d="M15.672 11.1483H20.1109V25.346H15.672V11.1483ZM17.8915 4.08984C18.4007 4.08993 18.8986 4.24001 19.322 4.52108C19.7454 4.80216 20.0753 5.20161 20.2702 5.66894C20.465 6.13626 20.5159 6.65048 20.4165 7.14655C20.3171 7.64262 20.0718 8.09828 19.7117 8.4559C19.3515 8.81352 18.8927 9.05706 18.3932 9.1557C17.8937 9.25434 17.3759 9.20367 16.9054 9.01009C16.4349 8.8165 16.0328 8.4887 15.7499 8.06814C15.4669 7.64757 15.3159 7.15313 15.3159 6.64733C15.3159 6.31143 15.3825 5.97883 15.512 5.66851C15.6414 5.3582 15.8311 5.07624 16.0703 4.83875C16.3095 4.60126 16.5934 4.41289 16.9059 4.28439C17.2184 4.15589 17.5533 4.08978 17.8915 4.08984Z" fill="white"/>
<path d="M38.6797 4.39941H43.1187V16.9205L48.1496 11.1419H53.592L47.7658 17.7149L53.4694 25.352H47.8902L43.1779 18.334H43.1197V25.3511H38.6807L38.6797 4.39941Z" fill="white"/>
<path d="M22.5723 11.1497H26.8351V13.0899H26.8956C27.3214 12.3654 27.9374 11.7694 28.6776 11.3655C29.4179 10.9615 30.2548 10.7649 31.0988 10.7965C35.6002 10.7965 36.4288 13.7379 36.4288 17.5592V25.3451H31.9898V18.4423C31.9898 16.7946 31.9593 14.6766 29.6779 14.6766C27.3705 14.6766 27.0145 16.4708 27.0145 18.3225V25.3432H22.5755L22.5723 11.1497Z" fill="white"/>
<path d="M62.9402 16.5958C62.9487 16.2381 62.884 15.8824 62.75 15.5503C62.616 15.2182 62.4156 14.9166 62.1608 14.6637C61.906 14.4108 61.6021 14.2119 61.2676 14.079C60.9331 13.9462 60.575 13.8822 60.2149 13.8909C59.4393 13.8429 58.6758 14.0996 58.089 14.6056C57.5022 15.1116 57.1391 15.8263 57.078 16.5958H62.9402ZM66.7004 22.8873C65.9628 23.7757 65.0354 24.49 63.9855 24.9786C62.9356 25.4671 61.7895 25.7177 60.6301 25.712C56.1911 25.712 52.6371 22.7693 52.6371 18.2123C52.6371 13.6553 56.1907 10.7139 60.6301 10.7139C64.7792 10.7139 67.381 13.653 67.381 18.2123V19.5946H57.078C57.2063 20.3785 57.6155 21.09 58.2302 21.5979C58.845 22.1059 59.6239 22.3761 60.4234 22.3587C61.0552 22.3548 61.676 22.194 62.2293 21.891C62.7826 21.588 63.2508 21.1523 63.5913 20.6237L66.7004 22.8873Z" fill="white"/>
<path d="M76.6336 14.5804C74.4141 14.5804 73.0824 16.0522 73.0824 18.1968C73.0824 20.3415 74.4136 21.8147 76.6336 21.8147C78.8535 21.8147 80.188 20.3451 80.188 18.1968C80.188 16.0485 78.8558 14.5804 76.6336 14.5804ZM84.2746 25.3435H80.188V23.4606H80.1274C79.6147 24.1455 78.9498 24.7035 78.1843 25.0913C77.4188 25.479 76.5736 25.686 75.7143 25.6961C71.4492 25.6961 68.6397 22.639 68.6397 18.3158C68.6397 14.3452 71.126 10.6994 75.2131 10.6994C77.0502 10.6994 78.7661 11.1985 79.7728 12.5822H79.831V4.39819H84.2742L84.2746 25.3435Z" fill="white"/>
<path d="M114.242 25.3516H109.803V18.4474C109.803 16.8011 109.773 14.6817 107.494 14.6817C105.182 14.6817 104.829 16.4755 104.829 18.3276V25.3511H100.389V11.1534H104.651V13.0937H104.711C105.137 12.3695 105.753 11.7737 106.494 11.3698C107.234 10.966 108.071 10.7691 108.915 10.8002C113.414 10.8002 114.244 13.7393 114.244 17.5629L114.242 25.3516ZM95.3809 9.21266C94.8714 9.21275 94.3733 9.0628 93.9496 8.78175C93.5259 8.50071 93.1957 8.1012 93.0007 7.63374C92.8056 7.16629 92.7545 6.65189 92.8538 6.1556C92.9531 5.6593 93.1984 5.20339 93.5586 4.84553C93.9188 4.48767 94.3777 4.24392 94.8774 4.14511C95.3771 4.04631 95.895 4.09688 96.3658 4.29044C96.8365 4.48399 97.2389 4.81183 97.522 5.23251C97.8051 5.65319 97.9563 6.1478 97.9564 6.65381C97.9565 6.98978 97.8899 7.32247 97.7605 7.6329C97.6311 7.94332 97.4414 8.22539 97.2022 8.463C96.9631 8.70061 96.6791 8.88911 96.3666 9.01774C96.0541 9.14637 95.7191 9.2126 95.3809 9.21266ZM97.6003 25.3516H93.1567V11.1534H97.6003V25.3516ZM116.455 0.001783H90.9262C90.3467 -0.00471121 89.7884 0.217529 89.3739 0.619669C88.9593 1.02181 88.7225 1.57094 88.7155 2.14641V27.606C88.7223 28.1817 88.9589 28.7312 89.3735 29.1338C89.788 29.5363 90.3464 29.759 90.9262 29.7529H116.455C117.036 29.7601 117.596 29.5381 118.012 29.1355C118.428 28.733 118.666 28.1828 118.674 27.606V2.14457C118.666 1.56797 118.428 1.01821 118.012 0.616076C117.595 0.213946 117.036 -0.00765944 116.455 -5.46843e-05" fill="white"/>
<path d="M122.084 25.906C121.544 25.9112 121.028 26.1285 120.648 26.5105C120.269 26.8926 120.058 27.4082 120.061 27.9446C120.063 28.481 120.279 28.9945 120.662 29.3729C121.045 29.7513 121.563 29.9637 122.103 29.9637C122.643 29.9637 123.162 29.7513 123.544 29.3729C123.927 28.9945 124.144 28.481 124.146 27.9446C124.149 27.4082 123.937 26.8926 123.558 26.5105C123.179 26.1285 122.663 25.9112 122.123 25.906H122.084ZM122.084 29.7314C121.729 29.7373 121.381 29.6387 121.084 29.4481C120.786 29.2575 120.552 28.9835 120.411 28.6607C120.27 28.3379 120.228 27.9808 120.291 27.6346C120.355 27.2884 120.52 26.9686 120.766 26.7157C121.013 26.4628 121.329 26.2881 121.675 26.2137C122.022 26.1393 122.382 26.1686 122.712 26.2978C123.041 26.4271 123.325 26.6504 123.527 26.9397C123.728 27.229 123.839 27.5711 123.845 27.923C123.845 27.9331 123.845 27.9427 123.845 27.9528C123.855 28.4143 123.68 28.8609 123.358 29.1943C123.037 29.5276 122.595 29.7205 122.13 29.7305H122.084" fill="white"/>
</g>
<defs>
<clipPath id="clip0_40_145">
<rect width="123.692" height="30" fill="white" transform="translate(0.454102)"/>
</clipPath>
</defs>
</svg>
