<svg width="112" height="30" viewBox="0 0 112 30" fill="none" xmlns="http://www.w3.org/2000/svg">
<g clip-path="url(#clip0_40_217)">
<path d="M21.2537 14.1762C21.4726 14.1498 21.6825 14.1492 21.8751 14.1762C21.9866 13.92 22.0058 13.479 21.9056 12.999C21.7563 12.285 21.5548 11.853 21.1379 11.9202C20.7211 11.9874 20.7055 12.5046 20.8549 13.2186C20.9388 13.62 21.0876 13.9638 21.2537 14.1762Z" fill="white"/>
<path d="M17.6737 14.7412C17.9724 14.872 18.1553 14.959 18.2273 14.8834C18.2735 14.836 18.2597 14.746 18.1883 14.6296C18.0414 14.389 17.7379 14.1455 17.417 14.0081C16.7597 13.7249 15.9758 13.8191 15.3712 14.2541C15.1715 14.4004 14.9826 14.6032 15.0096 14.7262C15.0186 14.7658 15.0479 14.7958 15.1181 14.806C15.2824 14.8246 15.8576 14.5342 16.5204 14.4934C16.9882 14.4646 17.3756 14.6104 17.6737 14.7412Z" fill="white"/>
<path d="M17.0733 15.084C16.6847 15.1452 16.4706 15.2736 16.3326 15.393C16.2151 15.4956 16.1425 15.609 16.1431 15.6888L16.1731 15.7596L16.2373 15.7842C16.3248 15.7842 16.5216 15.7056 16.5216 15.7056C17.0626 15.5118 17.4194 15.5352 17.7727 15.5754C17.9682 15.5976 18.0606 15.6096 18.1031 15.5424C18.1157 15.5232 18.1313 15.4818 18.0923 15.4182C18.0012 15.2706 17.6089 15.021 17.0739 15.0846L17.0733 15.084Z" fill="white"/>
<path d="M20.0452 16.3416C20.3091 16.4712 20.5994 16.4202 20.6941 16.2276C20.7889 16.035 20.6515 15.774 20.3876 15.6444C20.1237 15.5148 19.8335 15.5658 19.7387 15.7584C19.6439 15.951 19.7813 16.212 20.0452 16.3416Z" fill="white"/>
<path d="M21.7413 14.8589C21.5272 14.8553 21.3491 15.0905 21.3443 15.3851C21.3395 15.6791 21.5092 15.9203 21.7233 15.9239C21.9374 15.9275 22.1156 15.6923 22.1204 15.3983C22.1252 15.1043 21.9554 14.8631 21.7413 14.8589Z" fill="white"/>
<path d="M7.34277 20.1617C7.28939 20.0951 7.20183 20.1155 7.11726 20.1347C7.05788 20.1485 6.99071 20.1641 6.91754 20.1629C6.7598 20.1599 6.62605 20.0927 6.55108 19.9775C6.45332 19.8275 6.45932 19.6037 6.56668 19.3475L6.61706 19.2329C6.78919 18.8471 7.07648 18.2009 6.7538 17.5859C6.5109 17.1227 6.11385 16.8341 5.63704 16.7735C5.17942 16.7153 4.70801 16.8851 4.40753 17.2169C3.93311 17.7401 3.85934 18.4523 3.95111 18.7043C3.98469 18.7967 4.03747 18.8219 4.07526 18.8273C4.15623 18.8381 4.27498 18.7793 4.34995 18.5783L4.37154 18.5129C4.40513 18.4067 4.4669 18.2087 4.56826 18.0497C4.69061 17.8583 4.88134 17.7263 5.10565 17.6783C5.33356 17.6297 5.56687 17.6729 5.76179 17.8007C6.09406 18.0185 6.22181 18.4253 6.08027 18.8141C6.0071 19.0151 5.88774 19.3991 5.91413 19.7147C5.96751 20.3537 6.36036 20.6105 6.71302 20.6375C7.05608 20.6507 7.29599 20.4575 7.35657 20.3165C7.39255 20.2331 7.36196 20.1827 7.34277 20.1605V20.1617Z" fill="white"/>
<path d="M27.1506 18.9929C27.1374 18.9467 27.0522 18.6353 26.9353 18.2603L26.6972 17.6213C27.1662 16.9187 27.1746 16.2905 27.1122 15.9347C27.0456 15.4937 26.8621 15.1175 26.492 14.7293C26.122 14.3405 25.3657 13.9427 24.3023 13.6445L23.7445 13.4897C23.7415 13.4669 23.7151 12.174 23.6911 11.619C23.6738 11.2176 23.639 10.5918 23.4446 9.97436C23.2131 9.13917 22.8101 8.40897 22.3063 7.94157C23.6959 6.50098 24.5632 4.91338 24.5608 3.55199C24.5566 0.933595 21.3425 0.140998 17.381 1.78199L16.542 2.13839C16.5384 2.13479 15.0246 0.649196 15.0018 0.629396C10.4855 -3.31139 -3.6359 12.3906 0.879121 16.2041L1.86573 17.0405C1.60963 17.7035 1.50947 18.4637 1.59164 19.2809C1.6972 20.3303 2.23819 21.3365 3.11564 22.1141C3.94811 22.8521 5.04328 23.3195 6.10546 23.3183C7.86217 27.3689 11.8764 29.8535 16.5833 29.9933C21.6322 30.1433 25.8707 27.7733 27.6466 23.5157C27.7629 23.2169 28.2559 21.8705 28.2559 20.6819C28.2559 19.4873 27.5812 18.9923 27.1512 18.9923L27.1506 18.9929ZM6.49351 22.1807C6.33997 22.2071 6.18343 22.2173 6.0257 22.2137C4.5005 22.1729 2.85354 20.7995 2.68981 19.1705C2.50868 17.3705 3.42812 15.9845 5.05648 15.6563C5.2508 15.6173 5.48651 15.5945 5.74021 15.6077C6.65245 15.6575 7.99652 16.3583 8.3036 18.3461C8.57529 20.1065 8.14346 21.8993 6.49351 22.1807ZM4.79078 14.5793C3.77718 14.7767 2.88413 15.3509 2.33775 16.1447C2.01148 15.8723 1.40272 15.3449 1.29536 15.1397C0.4233 13.4831 2.24718 10.2624 3.52108 8.44377C6.66984 3.94858 11.6011 0.546597 13.8844 1.16339C14.2557 1.26839 15.4846 2.69399 15.4846 2.69399C15.4846 2.69399 13.2025 3.96058 11.0865 5.72638C8.23523 7.92297 6.08087 11.115 4.79078 14.5793ZM20.7973 21.5075C20.8303 21.4937 20.8531 21.4553 20.8495 21.4181C20.8447 21.3719 20.8033 21.3383 20.7571 21.3431C20.7571 21.3431 18.3682 21.6971 16.1113 20.8703C16.3572 20.0711 17.011 20.3597 17.9988 20.4395C19.7795 20.5457 21.3755 20.2853 22.5546 19.9469C23.5766 19.6535 24.9189 19.0751 25.9619 18.2519C26.3133 19.0247 26.4375 19.8749 26.4375 19.8749C26.4375 19.8749 26.7098 19.8263 26.9371 19.9661C27.1518 20.0987 27.3095 20.3735 27.2022 21.0851C26.9826 22.4141 26.4183 23.4923 25.4694 24.4847C24.8919 25.1069 24.1907 25.6475 23.3883 26.0405C22.9624 26.2643 22.5084 26.4581 22.0292 26.6147C18.4522 27.7835 14.79 26.4983 13.6097 23.7389C13.5155 23.5313 13.4358 23.3141 13.3728 23.0873C12.8696 21.2687 13.2966 19.0871 14.6317 17.7137C14.7139 17.6261 14.7978 17.5229 14.7978 17.3933C14.7978 17.2847 14.7289 17.1707 14.6695 17.0897C14.2023 16.4123 12.5847 15.2573 12.9098 13.0224C13.1431 11.4168 14.5465 10.2864 15.8552 10.3536L16.1869 10.3728C16.7537 10.4064 17.2485 10.479 17.7157 10.4988C18.4972 10.5324 19.1995 10.419 20.0314 9.72536C20.3121 9.49136 20.537 9.28856 20.9178 9.22376C20.958 9.21716 21.0576 9.18117 21.2561 9.19077C21.4594 9.20157 21.6525 9.25737 21.8265 9.37316C22.4934 9.81716 22.5882 10.893 22.623 11.6796C22.6428 12.129 22.6967 13.2156 22.7153 13.5269C22.7579 14.2403 22.945 14.3405 23.3241 14.4659C23.5376 14.5361 23.7355 14.5883 24.027 14.6705C24.9099 14.9183 25.4335 15.1703 25.7639 15.4931C25.9607 15.6953 26.0524 15.9095 26.0806 16.1147C26.185 16.8749 25.491 17.8133 23.654 18.6665C21.6459 19.5989 19.2103 19.8347 17.5274 19.6475L16.9378 19.5809C15.5913 19.3997 14.8236 21.1403 15.6315 22.3325C16.1521 23.1011 17.5706 23.6009 18.9896 23.6015C22.2433 23.6021 24.7443 22.2119 25.6746 21.0113L25.7489 20.9051C25.7945 20.8361 25.7567 20.7983 25.6998 20.8373C24.9399 21.3575 21.5638 23.4233 17.9526 22.8017C17.9526 22.8017 17.5136 22.7297 17.1135 22.5737C16.7951 22.4501 16.1293 22.1435 16.0484 21.4595C18.9626 22.3613 20.7973 21.5087 20.7973 21.5087V21.5075ZM16.1809 20.9621L16.1815 20.9627L16.1821 20.9639L16.1809 20.9621ZM10.6061 8.42457C11.7253 7.13037 13.1035 6.00538 14.3378 5.37358C14.3804 5.35198 14.426 5.39818 14.4026 5.44018C14.3048 5.61778 14.1159 5.99818 14.0559 6.28618C14.0463 6.33118 14.0955 6.36478 14.1333 6.33898C14.901 5.81518 16.2373 5.25418 17.4092 5.18218C17.4596 5.17918 17.4836 5.24338 17.444 5.27458C17.2659 5.41138 17.0709 5.60038 16.9288 5.79178C16.9048 5.82418 16.9276 5.87098 16.9678 5.87158C17.7907 5.87758 18.9506 6.16558 19.7063 6.58977C19.7573 6.61857 19.7213 6.71757 19.6637 6.70437C18.52 6.44218 16.6475 6.24298 14.7025 6.71757C12.9662 7.14117 11.6407 7.79517 10.6739 8.49897C10.6253 8.53437 10.5665 8.47077 10.6061 8.42457Z" fill="white"/>
<path d="M107.947 11.4673C106.273 11.4673 105.507 12.7225 105.173 13.4371C104.953 13.9093 104.964 14.0479 104.803 14.0479C104.57 14.0479 104.764 13.6687 104.868 13.2223C105.074 12.3439 104.917 11.6731 104.917 11.6731H102.533V23.1204H105.787V19.491C106.172 20.1444 106.886 20.8428 107.986 20.8428C110.34 20.8428 111.524 18.8502 111.524 16.1586C111.524 13.1077 110.106 11.4661 107.946 11.4661L107.947 11.4673ZM107.053 18.7182C106.306 18.7182 105.757 17.7714 105.757 16.4514C105.757 15.1699 106.322 14.1853 107.027 14.1853C107.933 14.1853 108.319 15.0163 108.319 16.4514C108.319 17.9442 107.963 18.7182 107.053 18.7182Z" fill="white"/>
<path d="M43.2482 11.4672C41.8166 11.4672 41.1083 12.5946 40.7832 13.3212C40.6015 13.7274 40.5511 14.0484 40.4036 14.0484C40.196 14.0484 40.3448 13.7694 40.1751 13.1508C39.9513 12.3366 39.2784 11.4672 37.8474 11.4672C36.3432 11.4672 35.699 12.7386 35.3937 13.437C35.185 13.9146 35.1844 14.0478 35.0237 14.0478C34.791 14.0478 34.9841 13.6686 35.0885 13.2222C35.2948 12.3438 35.1376 11.673 35.1376 11.673H32.753V20.643H36.0079V16.1802C36.0079 15.3 36.3761 14.1828 37.0071 14.1828C37.7358 14.1828 37.8822 14.7432 37.8822 15.78V20.6454H41.1503V16.1802C41.1503 15.3966 41.4699 14.1828 42.1543 14.1828C42.8932 14.1828 43.0245 14.9694 43.0245 15.78V20.643H46.2339V15.3678C46.2339 13.0266 45.4092 11.466 43.2488 11.466L43.2482 11.4672ZM98.4949 11.4672C97.0633 11.4672 96.3549 12.5946 96.0299 13.3212C95.8481 13.7274 95.7977 14.0484 95.6502 14.0484C95.4427 14.0484 95.5812 13.6938 95.4217 13.1508C95.183 12.3408 94.5898 11.4672 93.094 11.4672C91.5898 11.4672 90.9457 12.7386 90.6404 13.437C90.4317 13.9146 90.4311 14.0478 90.2703 14.0478C90.0376 14.0478 90.2307 13.6686 90.3351 13.2222C90.5414 12.3438 90.3843 11.673 90.3843 11.673H87.9996V20.643H91.2545V16.1802C91.2545 15.3 91.6228 14.1828 92.2537 14.1828C92.9825 14.1828 93.1288 14.7432 93.1288 15.78V20.6454H96.3969V16.1802C96.3969 15.3966 96.7166 14.1828 97.4009 14.1828C98.1398 14.1828 98.2712 14.9694 98.2712 15.78V20.643H101.481V15.3678C101.481 13.0266 100.656 11.466 98.4955 11.466L98.4949 11.4672ZM51.7907 11.469C49.2975 11.469 47.5084 12.3858 47.5084 12.3858V15.0816C47.5084 15.0816 49.484 13.9452 51.0866 13.9452C52.3659 13.9452 52.523 14.6352 52.4648 15.2082C52.4648 15.2082 52.096 15.1104 50.9702 15.1104C48.3174 15.1104 46.9782 16.3164 46.9782 18.2508C46.9782 20.0856 48.483 20.8524 49.7515 20.8524C51.6018 20.8524 52.415 19.6086 52.6651 19.0182C52.8385 18.609 52.8703 18.333 53.0262 18.333C53.2037 18.333 53.1437 18.531 53.1353 18.9384C53.1204 19.6518 53.1539 20.1918 53.2673 20.646H55.7203V16.2312C55.7203 13.4748 54.7451 11.469 51.7907 11.469ZM50.9984 18.5472C50.2199 18.7272 49.8169 18.4872 49.8169 17.9712C49.8169 17.2644 50.548 16.9812 51.591 16.9812C52.051 16.9812 52.4834 17.0208 52.4834 17.0208C52.4834 17.3238 51.8267 18.3564 50.9984 18.5472ZM61.0816 8.95801H64.3365V20.646H61.0816V8.95801ZM67.9189 16.1604C67.9189 15.354 68.668 14.6202 70.0427 14.6202C71.5409 14.6202 72.7458 15.342 73.0163 15.5058V12.3858C73.0163 12.3858 72.0645 11.469 69.7242 11.469C67.2574 11.469 65.2032 12.9132 65.2032 16.0212C65.2032 19.1292 67.0673 20.8524 69.7176 20.8524C71.7874 20.8524 73.0217 19.7148 73.0217 19.7148V16.7514C72.6313 16.9698 71.5433 17.7252 70.0577 17.7252C68.4845 17.7252 67.9183 17.001 67.9183 16.161L67.9189 16.1604ZM79.6101 11.469C77.7257 11.469 77.0089 13.2552 76.8644 13.5654C76.7199 13.8756 76.6479 14.0538 76.5297 14.0502C76.324 14.0436 76.4674 13.6692 76.5477 13.4274C76.6995 12.9696 77.0203 11.7696 77.0203 10.2936C77.0203 9.29281 76.8848 8.95801 76.8848 8.95801H74.0749V20.646H77.3298V16.1832C77.3298 15.456 77.6195 14.1858 78.44 14.1858C79.1189 14.1858 79.3318 14.6892 79.3318 15.7032V20.6466H82.5868V15.8988C82.5868 13.596 82.2053 11.4702 79.6101 11.4702V11.469ZM83.6447 11.6856V20.6454H86.8997V11.6856C86.8997 11.6856 86.3527 12.006 85.2755 12.006C84.1983 12.006 83.6447 11.6856 83.6447 11.6856Z" fill="white"/>
<path d="M87.2553 10.1682C87.2553 10.8867 86.3635 11.469 85.2629 11.469C84.1623 11.469 83.2705 10.8867 83.2705 10.1682C83.2705 9.44979 84.1623 8.86743 85.2629 8.86743C86.3635 8.86743 87.2553 9.44979 87.2553 10.1682Z" fill="white"/>
<path d="M56.7729 11.6855V20.6453H60.0278V11.6855C60.0278 11.6855 59.4809 12.0059 58.4037 12.0059L56.7729 11.6855Z" fill="white"/>
<path d="M60.3835 10.1682C60.3835 10.8867 59.4915 11.469 58.3911 11.469C57.2907 11.469 56.3987 10.8867 56.3987 10.1682C56.3987 9.44979 57.2907 8.86743 58.3911 8.86743C59.4915 8.86743 60.3835 9.44979 60.3835 10.1682Z" fill="white"/>
</g>
<defs>
<clipPath id="clip0_40_217">
<rect width="111.524" height="30" fill="white"/>
</clipPath>
</defs>
</svg>
