<svg width="132" height="30" viewBox="0 0 132 30" fill="none" xmlns="http://www.w3.org/2000/svg">
<g clip-path="url(#clip0_40_212)">
<path d="M27.7335 14.6176C27.7314 18.0959 26.3479 21.4309 23.8873 23.8893C21.4267 26.3478 18.0904 27.7282 14.6121 27.7272C11.1338 27.7261 7.7983 26.3437 5.33914 23.8838C2.87998 21.4239 1.4985 18.088 1.4985 14.6097C1.4985 11.1314 2.87998 7.7955 5.33914 5.33561C7.7983 2.87571 11.1338 1.49323 14.6121 1.49219C18.0904 1.49114 21.4267 2.87162 23.8873 5.33004C26.3479 7.78846 27.7314 11.1235 27.7335 14.6018" fill="white"/>
<path d="M12.9067 24.7029L15.4642 22.1454L10.539 17.2201C10.332 17.0131 10.107 16.7536 9.98625 16.4596C9.7095 15.8724 9.58875 14.9566 10.263 14.2824C11.0925 13.4529 12.198 13.7986 13.2697 14.8704L18.0045 19.6051L20.562 17.0476L15.6195 12.1051C15.4125 11.8981 15.1702 11.5869 15.0495 11.3274C14.721 10.6539 14.7382 9.80712 15.3435 9.20187C16.1902 8.35512 17.2957 8.66637 18.5235 9.89337L23.1195 14.4901L25.677 11.9326L20.7 6.95562C18.177 4.43262 15.81 4.51887 14.1855 6.14337C13.563 6.76587 13.1827 7.42212 12.993 8.16537C12.8214 8.85512 12.7979 9.57338 12.924 10.2729L12.8895 10.3081C11.6445 9.78987 10.2277 10.1004 9.1395 11.1894C7.6875 12.6406 7.74 14.1789 7.9125 15.0774L7.86 15.1299L6.59925 14.1099L4.38675 16.3216C5.1645 17.0304 6.09825 17.8944 7.152 18.9481L12.9067 24.7029Z" fill="#101828"/>
<path d="M14.9865 6.09348e-06C12.0204 0.00267562 9.1216 0.884679 6.65664 2.53452C4.19167 4.18437 2.27119 6.52798 1.13794 9.2691C0.00469816 12.0102 -0.290427 15.0258 0.289875 17.9346C0.870177 20.8435 2.29985 23.5149 4.39818 25.6114C6.4965 27.7078 9.16927 29.1351 12.0786 29.7128C14.988 30.2905 18.0033 29.9926 20.7434 28.8569C23.4835 27.7212 25.8254 25.7986 27.473 23.3322C29.1206 20.8657 30 17.9662 30 15V14.982C29.9952 11.0045 28.4109 7.19181 25.5955 4.38227C22.78 1.57272 18.964 -0.00357649 14.9865 6.09348e-06ZM14.9183 3.20551C18.0337 3.20272 21.0227 4.43745 23.2279 6.63815C25.4331 8.83885 26.6739 11.8253 26.6775 14.9408V14.9543C26.6775 17.2775 25.9887 19.5485 24.6983 21.4803C23.4078 23.4122 21.5736 24.918 19.4274 25.8076C17.2813 26.6972 14.9196 26.9305 12.6408 26.4781C10.3621 26.0257 8.26865 24.9078 6.62511 23.2658C4.98157 21.6239 3.86173 19.5315 3.40713 17.2532C2.95253 14.9749 3.18359 12.613 4.0711 10.466C4.95861 8.319 6.46273 6.48332 8.39332 5.19099C10.3239 3.89867 12.5943 3.20773 14.9175 3.20551H14.9183Z" fill="white"/>
<path d="M34.9103 20.9565H38.3528V14.3265C38.3528 14.0468 38.3768 13.7213 38.493 13.4415C38.703 12.8603 39.2378 12.162 40.1453 12.162C41.262 12.162 41.7735 13.1393 41.7735 14.5815V20.9565H45.2168V14.3025C45.2168 14.0235 45.2633 13.6515 45.3563 13.395C45.5888 12.72 46.1708 12.162 46.9853 12.162C48.1253 12.162 48.6608 13.116 48.6608 14.7683V20.9565H52.1033V14.256C52.1033 10.8585 50.4518 9.32403 48.2648 9.32403C47.4278 9.32403 46.7295 9.51003 46.101 9.88203C45.5211 10.2309 45.0216 10.6987 44.6355 11.2545H44.589C44.1 10.068 42.9368 9.32328 41.4713 9.32328C39.5168 9.32328 38.5163 10.3943 38.028 11.1158H37.9583L37.7948 9.57978H34.8173C34.8638 10.5803 34.9103 11.79 34.9103 13.2098V20.9565ZM64.356 16.3965C64.4025 16.1408 64.4723 15.6053 64.4723 15.0008C64.4723 12.1853 63.0765 9.32328 59.4 9.32328C55.4445 9.32328 53.6535 12.5108 53.6535 15.396C53.6535 18.9563 55.8638 21.213 59.7255 21.213C61.2615 21.213 62.6805 20.9565 63.8438 20.4915L63.3788 18.0953C62.4248 18.3975 61.4475 18.5603 60.2378 18.5603C58.5855 18.5603 57.1433 17.8628 57.027 16.3965H64.356ZM57.0038 13.977C57.0968 13.023 57.7013 11.6738 59.1908 11.6738C60.819 11.6738 61.1918 13.116 61.1918 13.9763L57.0038 13.977ZM66.4628 7.11303V9.57978H64.95V12.1853H66.4628V16.839C66.4628 18.444 66.7883 19.5375 67.44 20.2125C67.998 20.7938 68.952 21.213 70.092 21.213C71.0925 21.213 71.9303 21.0735 72.396 20.8868L72.372 18.2115C72.0268 18.2743 71.6766 18.3054 71.3258 18.3045C70.2555 18.3045 69.9293 17.676 69.9293 16.3035V12.186H72.4658V9.57978H69.9293V6.32253L66.4628 7.11303ZM83.4098 14.2328C83.4098 11.5575 82.2 9.32328 78.408 9.32328C76.3373 9.32328 74.778 9.88203 73.9868 10.3238L74.6385 12.6038C75.3833 12.1388 76.6163 11.7435 77.7795 11.7435C79.5248 11.7435 79.8503 12.6045 79.8503 13.209V13.3718C75.825 13.3493 73.173 14.7683 73.173 17.7225C73.173 19.5375 74.5455 21.213 76.8488 21.213C78.198 21.213 79.3613 20.724 80.106 19.8165H80.1758L80.385 20.9565H83.5725C83.4563 20.3288 83.4098 19.2818 83.4098 18.1883V14.2328ZM79.9665 16.8158C79.9665 17.025 79.9433 17.2343 79.8968 17.4203C79.6643 18.1418 78.9428 18.723 78.0585 18.723C77.2673 18.723 76.6628 18.2805 76.6628 17.3738C76.6628 16.0013 78.105 15.5588 79.9665 15.582V16.8158ZM93.7523 18.0488C93.2168 18.2813 92.5658 18.4208 91.728 18.4208C90.006 18.4208 88.6103 17.3273 88.6103 15.2333C88.587 13.3718 89.7968 12.0458 91.6583 12.0458C92.589 12.0458 93.2168 12.2085 93.636 12.3945L94.194 9.76578C93.45 9.48678 92.4263 9.32328 91.4955 9.32328C87.261 9.32328 84.981 12.0458 84.981 15.3728C84.981 18.9563 87.3308 21.213 91.0065 21.213C92.3565 21.213 93.543 20.9565 94.1708 20.6775L93.7523 18.0488ZM95.529 20.9565H99.066V15.1875C99.066 14.9085 99.0893 14.6295 99.1358 14.3963C99.3683 13.3028 100.253 12.6053 101.555 12.6053C101.951 12.6053 102.254 12.6518 102.509 12.7215V9.37128C102.254 9.32403 102.091 9.32403 101.765 9.32403C100.671 9.32403 99.2753 10.0223 98.6933 11.6745H98.6003L98.484 9.58053H95.436C95.4825 10.5578 95.529 11.6505 95.529 13.326V20.9565ZM107.282 20.9565V9.57903H103.745V20.9565H107.282ZM105.514 4.62378C104.374 4.62378 103.629 5.39178 103.652 6.41553C103.629 7.39278 104.374 8.18328 105.491 8.18328C106.654 8.18328 107.398 7.39278 107.398 6.41553C107.375 5.39178 106.654 4.62378 105.514 4.62378ZM109.996 7.11303V9.57978H108.484V12.1853H109.996V16.839C109.996 18.444 110.321 19.5375 110.973 20.2125C111.531 20.7938 112.485 21.213 113.625 21.213C114.626 21.213 115.463 21.0735 115.929 20.8868L115.906 18.2115C115.56 18.2743 115.21 18.3054 114.859 18.3045C113.789 18.3045 113.462 17.676 113.462 16.3035V12.186H115.999V9.57978H113.462V6.32253L109.996 7.11303ZM120.987 20.9565V9.57903H117.45V20.9565H120.987ZM119.219 4.62378C118.079 4.62378 117.334 5.39178 117.357 6.41553C117.334 7.39278 118.079 8.18328 119.195 8.18328C120.359 8.18328 121.103 7.39278 121.103 6.41553C121.08 5.39178 120.359 4.62378 119.219 4.62378ZM131.333 18.0488C130.797 18.2813 130.146 18.4208 129.308 18.4208C127.586 18.4208 126.191 17.3273 126.191 15.2333C126.167 13.3718 127.377 12.0458 129.239 12.0458C130.169 12.0458 130.797 12.2085 131.216 12.3945L131.774 9.76578C131.03 9.48678 130.006 9.32328 129.076 9.32328C124.841 9.32328 122.561 12.0458 122.561 15.3728C122.561 18.9563 124.911 21.213 128.587 21.213C129.936 21.213 131.123 20.9565 131.751 20.6775L131.333 18.0488Z" fill="white"/>
</g>
<defs>
<clipPath id="clip0_40_212">
<rect width="132" height="30" fill="white"/>
</clipPath>
</defs>
</svg>
