<svg width="390" height="250" viewBox="0 0 390 250" fill="none" xmlns="http://www.w3.org/2000/svg">
<path d="M380 0H10C4.47715 0 0 4.47716 0 10V240C0 245.523 4.47715 250 10 250H380C385.523 250 390 245.523 390 240V10C390 4.47715 385.523 0 380 0Z" fill="#F4F3FE"/>
<path d="M146.152 33.3672H115.109V221.937H146.152V33.3672Z" fill="white"/>
<path d="M146.152 150.261H115.109V221.937H146.152V150.261Z" fill="#57D989"/>
<path d="M182.467 33.3672H151.425V221.937H182.467V33.3672Z" fill="white"/>
<path d="M182.467 68.8367H151.425V221.937H182.467V68.8367Z" fill="#2BC6D9"/>
<path d="M218.79 33.3672H187.747V221.937H218.79V33.3672Z" fill="white"/>
<path d="M218.79 103.119H187.747V221.937H218.79V103.119Z" fill="#5394FF"/>
<path d="M138.425 203.456H134.851V211.409L133.621 211.841L123.232 203.31V201.824H133.426V199.474H134.851V201.824H138.425V203.456ZM133.426 209.795V203.456H125.644L133.426 209.795Z" fill="white"/>
<path d="M138.687 193.391C138.687 195.388 137.889 197.184 136.293 198.78L135.063 197.659C136.446 196.241 137.134 194.81 137.134 193.367C137.134 192.289 136.817 191.412 136.19 190.742C135.557 190.066 134.747 189.731 133.754 189.731C132.823 189.731 132.062 190.078 131.471 190.779C130.88 191.473 130.588 192.374 130.588 193.482C130.588 194.517 130.874 195.571 131.446 196.649L130.691 197.793L123.342 197.361V188.678H124.913V195.875L129.742 196.198C129.297 195.175 129.072 194.189 129.072 193.226C129.072 191.716 129.492 190.474 130.332 189.488C131.172 188.501 132.305 188.014 133.724 188.014C135.191 188.014 136.385 188.52 137.298 189.524C138.224 190.523 138.687 191.814 138.687 193.391Z" fill="white"/>
<path d="M129.741 181.365C130.503 182.01 130.88 182.832 130.88 183.825C130.88 184.817 130.503 185.633 129.747 186.273C128.992 186.912 128.085 187.229 127.019 187.229C125.972 187.229 125.065 186.906 124.304 186.26C123.543 185.615 123.165 184.787 123.165 183.782C123.165 182.79 123.543 181.98 124.298 181.346C125.053 180.713 125.96 180.403 127.026 180.403C128.073 180.397 128.98 180.719 129.741 181.365ZM138.425 185.682L123.342 174.606V173.077L138.425 184.135V185.682ZM129.674 183.782C129.674 183.204 129.419 182.735 128.907 182.369C128.396 182.004 127.768 181.815 127.019 181.815C126.271 181.815 125.643 182.01 125.132 182.4C124.62 182.784 124.365 183.258 124.365 183.819C124.365 184.391 124.62 184.866 125.132 185.231C125.643 185.597 126.271 185.779 127.019 185.779C127.768 185.779 128.396 185.591 128.907 185.201C129.419 184.817 129.674 184.342 129.674 183.782ZM138.595 174.947C138.595 175.939 138.217 176.749 137.462 177.382C136.707 178.016 135.8 178.332 134.734 178.332C133.687 178.332 132.78 178.01 132.019 177.364C131.258 176.719 130.874 175.897 130.874 174.904C130.874 173.912 131.251 173.102 132.007 172.468C132.762 171.835 133.669 171.519 134.734 171.519C135.794 171.519 136.701 171.841 137.462 172.481C138.224 173.12 138.595 173.942 138.595 174.947ZM137.389 174.904C137.389 174.313 137.14 173.839 136.634 173.479C136.129 173.12 135.502 172.943 134.741 172.943C133.992 172.943 133.364 173.138 132.853 173.528C132.341 173.918 132.086 174.387 132.086 174.947C132.086 175.525 132.341 175.994 132.853 176.359C133.364 176.725 133.992 176.914 134.741 176.914C135.483 176.914 136.117 176.719 136.622 176.329C137.134 175.933 137.389 175.464 137.389 174.904Z" fill="white"/>
<path d="M173.73 201.928C174.528 203.006 174.93 204.358 174.93 205.977C174.93 207.603 174.528 208.949 173.724 210.027C172.92 211.104 171.885 211.64 170.618 211.64C169.76 211.64 169.011 211.36 168.378 210.8C167.744 210.24 167.257 209.485 166.91 208.535C166.118 210.258 164.949 211.123 163.397 211.123C162.264 211.123 161.314 210.617 160.553 209.6C159.792 208.59 159.408 207.378 159.408 205.971C159.408 204.565 159.792 203.353 160.553 202.342C161.314 201.331 162.276 200.82 163.439 200.82C164.962 200.82 166.118 201.684 166.904 203.408C167.683 201.337 168.926 200.308 170.631 200.308C171.903 200.314 172.932 200.85 173.73 201.928ZM165.528 208.437C166.045 207.78 166.301 206.958 166.301 205.977C166.301 205.003 166.045 204.181 165.528 203.517C165.01 202.86 164.334 202.525 163.5 202.525C162.757 202.525 162.13 202.853 161.637 203.517C161.144 204.181 160.894 204.997 160.894 205.977C160.894 206.97 161.144 207.792 161.637 208.443C162.136 209.095 162.769 209.424 163.543 209.424C164.353 209.43 165.01 209.095 165.528 208.437ZM172.622 208.857C173.17 208.145 173.444 207.189 173.444 205.977C173.444 204.772 173.17 203.816 172.622 203.097C172.074 202.385 171.392 202.031 170.576 202.031C169.742 202.031 169.053 202.409 168.518 203.17C167.982 203.931 167.708 204.863 167.708 205.971C167.708 207.092 167.982 208.029 168.53 208.784C169.078 209.539 169.772 209.917 170.618 209.917C171.404 209.923 172.074 209.57 172.622 208.857Z" fill="white"/>
<path d="M174.966 194.103C174.966 196.472 174.065 198.348 172.274 199.73L171.172 198.5C172.664 197.276 173.413 195.802 173.413 194.079C173.413 193.147 173.145 192.362 172.591 191.729C172.049 191.095 171.331 190.785 170.435 190.785C169.516 190.785 168.797 191.174 168.292 191.948C167.781 192.721 167.525 193.744 167.525 195.011V195.979L166.514 196.326L161.149 191.558V198.932H159.621V189.299H160.869L166.13 194.042C166.246 192.605 166.66 191.418 167.373 190.474C168.085 189.536 169.102 189.062 170.417 189.062C171.739 189.062 172.829 189.549 173.681 190.517C174.54 191.485 174.966 192.685 174.966 194.103Z" fill="white"/>
<path d="M166.028 182.229C166.789 182.875 167.166 183.697 167.166 184.689C167.166 185.682 166.789 186.498 166.034 187.137C165.279 187.777 164.371 188.093 163.306 188.093C162.258 188.093 161.351 187.771 160.59 187.125C159.829 186.48 159.451 185.652 159.451 184.647C159.451 183.654 159.829 182.844 160.584 182.211C161.339 181.578 162.246 181.267 163.312 181.267C164.359 181.261 165.266 181.578 166.028 182.229ZM174.711 186.541L159.628 175.464V173.936L174.711 184.994V186.541ZM165.961 184.647C165.961 184.068 165.705 183.599 165.193 183.234C164.682 182.869 164.055 182.68 163.306 182.68C162.563 182.68 161.929 182.875 161.418 183.265C160.906 183.648 160.651 184.123 160.651 184.683C160.651 185.256 160.906 185.731 161.418 186.096C161.929 186.461 162.557 186.644 163.306 186.644C164.055 186.644 164.682 186.455 165.193 186.066C165.705 185.676 165.961 185.201 165.961 184.647ZM174.881 175.805C174.881 176.798 174.504 177.608 173.749 178.241C172.994 178.874 172.086 179.191 171.021 179.191C169.973 179.191 169.066 178.868 168.305 178.223C167.544 177.577 167.16 176.755 167.16 175.763C167.16 174.77 167.538 173.96 168.293 173.327C169.048 172.694 169.955 172.377 171.021 172.377C172.08 172.377 172.987 172.7 173.749 173.339C174.504 173.979 174.881 174.801 174.881 175.805ZM173.676 175.763C173.676 175.172 173.426 174.697 172.92 174.338C172.415 173.979 171.788 173.802 171.027 173.802C170.278 173.802 169.651 173.997 169.139 174.387C168.628 174.776 168.372 175.245 168.372 175.805C168.372 176.384 168.628 176.853 169.139 177.218C169.651 177.583 170.278 177.772 171.027 177.772C171.77 177.772 172.403 177.577 172.908 177.188C173.42 176.798 173.676 176.323 173.676 175.763Z" fill="white"/>
<path d="M210.953 205.594C210.953 207.402 210.357 208.833 209.163 209.887C207.97 210.934 206.094 211.464 203.537 211.464C201.18 211.464 199.225 210.897 197.673 209.771C196.12 208.644 195.347 207.116 195.347 205.192C195.347 203.627 195.919 202.141 197.07 200.728L198.385 201.721C197.393 202.902 196.899 204.084 196.899 205.277C196.899 206.611 197.508 207.682 198.726 208.486C199.944 209.29 201.539 209.692 203.494 209.692C202.02 208.644 201.253 207.213 201.253 205.405C201.253 203.95 201.686 202.72 202.55 201.709C203.415 200.698 204.541 200.186 205.936 200.186C207.385 200.186 208.585 200.704 209.534 201.739C210.478 202.768 210.953 204.053 210.953 205.594ZM209.443 205.569C209.443 204.473 209.114 203.596 208.451 202.927C207.793 202.263 206.959 201.928 205.948 201.928C205.016 201.928 204.243 202.275 203.634 202.963C203.019 203.657 202.715 204.54 202.715 205.612C202.715 206.708 203.049 207.609 203.719 208.316C204.383 209.028 205.169 209.381 206.058 209.381C207.02 209.381 207.83 209.022 208.475 208.303C209.12 207.591 209.443 206.678 209.443 205.569Z" fill="white"/>
<path d="M210.697 197.964L197.161 191.15V199.45H195.608V189.214H196.881L210.697 196.07V197.964Z" fill="white"/>
<path d="M202.008 182.704C202.769 183.35 203.147 184.172 203.147 185.164C203.147 186.157 202.769 186.973 202.014 187.612C201.259 188.252 200.352 188.568 199.286 188.568C198.239 188.568 197.331 188.246 196.57 187.6C195.809 186.955 195.432 186.127 195.432 185.122C195.432 184.129 195.809 183.319 196.564 182.686C197.313 182.053 198.227 181.742 199.292 181.742C200.34 181.736 201.247 182.053 202.008 182.704ZM210.697 187.016L195.614 175.933V174.405L210.697 185.463V187.016ZM201.947 185.122C201.947 184.543 201.691 184.074 201.18 183.709C200.668 183.344 200.041 183.155 199.292 183.155C198.549 183.155 197.916 183.35 197.405 183.74C196.893 184.123 196.637 184.598 196.637 185.158C196.637 185.731 196.893 186.206 197.405 186.571C197.916 186.936 198.543 187.119 199.292 187.119C200.041 187.119 200.668 186.93 201.18 186.541C201.691 186.151 201.947 185.676 201.947 185.122ZM210.868 176.28C210.868 177.273 210.49 178.083 209.735 178.716C208.98 179.349 208.073 179.666 207.007 179.666C205.96 179.666 205.053 179.343 204.291 178.698C203.53 178.052 203.147 177.23 203.147 176.238C203.147 175.245 203.524 174.435 204.279 173.802C205.034 173.169 205.942 172.852 207.007 172.852C208.067 172.852 208.974 173.175 209.735 173.814C210.49 174.454 210.868 175.276 210.868 176.28ZM209.656 176.238C209.656 175.647 209.406 175.172 208.901 174.813C208.396 174.454 207.768 174.277 207.007 174.277C206.258 174.277 205.631 174.472 205.12 174.862C204.608 175.251 204.352 175.72 204.352 176.28C204.352 176.859 204.608 177.328 205.12 177.693C205.631 178.058 206.258 178.247 207.007 178.247C207.75 178.247 208.383 178.052 208.889 177.663C209.406 177.273 209.656 176.798 209.656 176.238Z" fill="white"/>
<path d="M291.709 166.866C289.566 166.866 287.66 166.124 285.991 164.626L286.972 163.463C287.714 164.145 288.47 164.644 289.225 164.967C289.98 165.283 290.826 165.448 291.776 165.448C292.708 165.448 293.463 165.222 294.035 164.778C294.607 164.333 294.894 163.749 294.894 163.03C294.894 162.348 294.644 161.812 294.132 161.41C293.627 161.009 292.665 160.662 291.252 160.369C289.584 160.01 288.384 159.523 287.654 158.908C286.923 158.293 286.551 157.422 286.551 156.289C286.551 155.181 286.984 154.268 287.854 153.549C288.719 152.831 289.821 152.472 291.155 152.472C293.006 152.472 294.65 153.044 296.075 154.195L295.155 155.413C293.913 154.402 292.568 153.89 291.112 153.89C290.217 153.89 289.499 154.11 288.951 154.542C288.403 154.974 288.129 155.522 288.129 156.192C288.129 156.886 288.39 157.434 288.92 157.83C289.444 158.232 290.448 158.591 291.928 158.908C293.517 159.255 294.674 159.742 295.399 160.357C296.124 160.978 296.489 161.825 296.489 162.908C296.489 164.096 296.044 165.052 295.149 165.783C294.26 166.501 293.116 166.866 291.709 166.866Z" fill="#6D6D6D"/>
<path d="M297.95 169.862V156.32H299.491V158.396C300.532 156.862 301.847 156.101 303.449 156.101C304.77 156.101 305.921 156.588 306.907 157.568C307.894 158.549 308.387 159.858 308.387 161.496C308.387 163.109 307.894 164.406 306.907 165.399C305.921 166.385 304.77 166.879 303.449 166.879C301.823 166.879 300.502 166.148 299.491 164.68V169.862H297.95ZM303.175 165.502C304.216 165.502 305.081 165.137 305.775 164.412C306.469 163.688 306.816 162.707 306.816 161.484C306.816 160.296 306.463 159.334 305.757 158.591C305.05 157.854 304.192 157.483 303.181 157.483C302.182 157.483 301.305 157.86 300.562 158.622C299.813 159.383 299.442 160.345 299.442 161.502C299.442 162.659 299.813 163.621 300.562 164.37C301.299 165.131 302.17 165.502 303.175 165.502Z" fill="#6D6D6D"/>
<path d="M309.733 166.665V156.326H311.274V159.024C311.67 158.128 312.242 157.416 312.973 156.88C313.704 156.35 314.55 156.101 315.494 156.143V157.806C314.185 157.806 313.204 158.22 312.437 159.048C311.664 159.876 311.274 161.045 311.274 162.549V166.672H309.733V166.665Z" fill="#6D6D6D"/>
<path d="M316.814 162.123C316.924 163.176 317.32 164.011 318.008 164.632C318.696 165.253 319.512 165.563 320.462 165.563C321.704 165.563 322.788 165.076 323.72 164.102L324.682 164.96C323.519 166.251 322.1 166.897 320.419 166.897C318.964 166.897 317.74 166.391 316.747 165.387C315.755 164.382 315.262 163.085 315.262 161.496C315.262 159.986 315.731 158.713 316.681 157.666C317.624 156.618 318.812 156.101 320.224 156.101C321.704 156.101 322.879 156.618 323.744 157.66C324.609 158.701 325.047 160.004 325.047 161.581C325.047 161.782 325.035 161.959 325.023 162.117H316.814V162.123ZM316.814 160.881H323.476C323.385 159.882 323.05 159.054 322.483 158.39C321.917 157.733 321.15 157.398 320.176 157.398C319.299 157.398 318.544 157.727 317.917 158.378C317.289 159.036 316.924 159.87 316.814 160.881Z" fill="#6D6D6D"/>
<path d="M329.315 166.885C328.262 166.885 327.355 166.598 326.6 166.026C325.838 165.454 325.461 164.65 325.461 163.627C325.461 162.549 325.857 161.715 326.661 161.13C327.458 160.546 328.536 160.254 329.882 160.254C330.947 160.254 332.001 160.4 333.042 160.692V160.369C333.042 159.462 332.78 158.768 332.244 158.293C331.715 157.812 330.959 157.574 329.985 157.574C328.974 157.574 327.927 157.818 326.843 158.311L326.387 157.051C327.665 156.466 328.92 156.168 330.144 156.168C331.611 156.168 332.725 156.551 333.486 157.306C334.205 158.025 334.564 159.042 334.564 160.345V166.665H333.042V165.125C332.116 166.3 330.874 166.885 329.315 166.885ZM329.614 165.642C330.576 165.642 331.392 165.381 332.056 164.863C332.719 164.345 333.054 163.676 333.054 162.866V161.904C332.043 161.611 331.033 161.465 330.034 161.465C329.09 161.465 328.347 161.654 327.811 162.038C327.282 162.415 327.014 162.939 327.014 163.59C327.014 164.218 327.263 164.717 327.763 165.088C328.268 165.454 328.883 165.642 329.614 165.642Z" fill="#6D6D6D"/>
<path d="M340.654 166.885C339.333 166.885 338.182 166.391 337.195 165.417C336.209 164.437 335.716 163.128 335.716 161.49C335.716 159.876 336.209 158.579 337.195 157.586C338.182 156.6 339.333 156.107 340.654 156.107C342.28 156.107 343.601 156.838 344.618 158.305V152.064H346.159V166.665H344.618V164.583C343.577 166.117 342.262 166.885 340.654 166.885ZM340.934 165.502C341.933 165.502 342.81 165.125 343.553 164.364C344.302 163.603 344.673 162.641 344.673 161.465C344.673 160.321 344.302 159.371 343.553 158.616C342.81 157.861 341.933 157.489 340.934 157.489C339.893 157.489 339.028 157.854 338.334 158.579C337.64 159.304 337.293 160.284 337.293 161.508C337.293 162.695 337.646 163.657 338.352 164.4C339.065 165.137 339.923 165.502 340.934 165.502Z" fill="#6D6D6D"/>
<path d="M271.901 151.802H257.037V166.665H271.901V151.802Z" fill="#2BC6D9"/>
<path d="M286.911 194.335V180.336H288.494V192.879H296.374V194.341H286.911V194.335Z" fill="#6D6D6D"/>
<path d="M305.909 192.983C304.868 194.042 303.583 194.572 302.049 194.572C300.514 194.572 299.236 194.049 298.219 192.995C297.196 191.942 296.69 190.669 296.69 189.171C296.69 187.691 297.208 186.419 298.237 185.359C299.272 184.3 300.557 183.77 302.085 183.77C303.62 183.77 304.899 184.294 305.928 185.347C306.957 186.401 307.468 187.673 307.468 189.171C307.468 190.657 306.951 191.93 305.909 192.983ZM302.092 193.196C303.2 193.196 304.107 192.812 304.826 192.039C305.538 191.266 305.897 190.316 305.897 189.177C305.897 188.057 305.526 187.101 304.783 186.315C304.046 185.53 303.133 185.134 302.055 185.134C300.947 185.134 300.039 185.524 299.333 186.303C298.627 187.083 298.274 188.039 298.274 189.177C298.274 190.298 298.639 191.248 299.376 192.027C300.106 192.806 301.008 193.196 302.092 193.196Z" fill="#6D6D6D"/>
<path d="M312.175 194.536C311.426 194.536 310.671 194.396 309.904 194.122C309.137 193.848 308.467 193.476 307.895 193.013L308.674 191.911C309.849 192.794 311.037 193.233 312.254 193.233C312.882 193.233 313.393 193.08 313.795 192.776C314.197 192.465 314.392 192.063 314.392 191.558C314.392 191.089 314.172 190.73 313.74 190.48C313.308 190.225 312.668 189.981 311.81 189.743C311.292 189.597 310.878 189.463 310.568 189.342C310.257 189.22 309.916 189.049 309.526 188.83C309.143 188.611 308.857 188.331 308.668 187.99C308.479 187.649 308.388 187.247 308.388 186.778C308.388 185.901 308.717 185.183 309.374 184.635C310.032 184.087 310.878 183.813 311.907 183.813C313.241 183.813 314.483 184.19 315.628 184.951L314.928 186.114C313.898 185.451 312.882 185.116 311.865 185.116C311.262 185.116 310.781 185.262 310.415 185.548C310.05 185.834 309.861 186.206 309.861 186.656C309.861 186.845 309.916 187.016 310.02 187.174C310.129 187.338 310.245 187.466 310.379 187.576C310.513 187.679 310.726 187.795 311.012 187.917C311.298 188.032 311.53 188.118 311.7 188.172C311.877 188.227 312.151 188.313 312.522 188.434C313.016 188.58 313.424 188.721 313.746 188.854C314.063 188.982 314.404 189.165 314.763 189.39C315.122 189.616 315.39 189.902 315.573 190.243C315.75 190.578 315.841 190.98 315.841 191.43C315.841 192.392 315.5 193.147 314.8 193.701C314.124 194.262 313.241 194.536 312.175 194.536Z" fill="#6D6D6D"/>
<path d="M320.438 194.536C319.689 194.536 318.934 194.396 318.167 194.122C317.399 193.848 316.73 193.476 316.157 193.013L316.937 191.911C318.112 192.794 319.299 193.233 320.517 193.233C321.144 193.233 321.656 193.08 322.058 192.776C322.46 192.465 322.654 192.063 322.654 191.558C322.654 191.089 322.435 190.73 322.003 190.48C321.57 190.225 320.931 189.981 320.073 189.743C319.555 189.597 319.141 189.463 318.83 189.342C318.52 189.22 318.179 189.049 317.789 188.83C317.406 188.611 317.119 188.331 316.931 187.99C316.742 187.649 316.65 187.247 316.65 186.778C316.65 185.901 316.979 185.183 317.637 184.635C318.295 184.087 319.141 183.813 320.17 183.813C321.504 183.813 322.746 184.19 323.89 184.951L323.19 186.114C322.161 185.451 321.144 185.116 320.133 185.116C319.531 185.116 319.05 185.262 318.684 185.548C318.319 185.834 318.13 186.206 318.13 186.656C318.13 186.845 318.185 187.016 318.288 187.174C318.398 187.338 318.514 187.466 318.648 187.576C318.782 187.679 318.995 187.795 319.281 187.917C319.567 188.032 319.799 188.118 319.969 188.172C320.146 188.227 320.42 188.313 320.791 188.434C321.284 188.58 321.692 188.721 322.009 188.854C322.326 188.982 322.667 189.165 323.026 189.39C323.385 189.616 323.653 189.902 323.836 190.243C324.012 190.578 324.104 190.98 324.104 191.43C324.104 192.392 323.757 193.147 323.062 193.701C322.38 194.262 321.497 194.536 320.438 194.536Z" fill="#6D6D6D"/>
<path d="M271.901 179.465H257.037V194.329H271.901V179.465Z" fill="#57D989"/>
<path d="M287.051 222.004V208.005H288.634V222.004H287.051Z" fill="#6D6D6D"/>
<path d="M290.973 222.004V211.665H292.513V213.461C293.323 212.115 294.504 211.445 296.057 211.445C297.287 211.445 298.249 211.823 298.956 212.572C299.662 213.327 300.015 214.325 300.015 215.586V222.004H298.475V215.963C298.475 214.989 298.225 214.228 297.726 213.674C297.226 213.12 296.52 212.846 295.613 212.846C294.718 212.846 293.975 213.144 293.39 213.747C292.806 214.344 292.513 215.129 292.513 216.085V222.01H290.973V222.004Z" fill="#6D6D6D"/>
<path d="M306.457 222.241C304.965 222.241 303.704 221.712 302.688 220.652C301.665 219.593 301.159 218.32 301.159 216.84C301.159 215.361 301.671 214.088 302.688 213.028C303.704 211.969 304.965 211.439 306.457 211.439C308.058 211.439 309.434 212.054 310.597 213.278L309.617 214.319C308.655 213.309 307.602 212.797 306.439 212.797C305.397 212.797 304.52 213.187 303.808 213.966C303.096 214.746 302.742 215.702 302.742 216.84C302.742 217.961 303.108 218.911 303.832 219.69C304.557 220.469 305.458 220.859 306.542 220.859C307.65 220.859 308.692 220.342 309.66 219.3L310.683 220.238C309.471 221.578 308.07 222.241 306.457 222.241Z" fill="#6D6D6D"/>
<path d="M319.993 220.652C318.952 221.712 317.667 222.241 316.133 222.241C314.598 222.241 313.32 221.718 312.303 220.664C311.286 219.611 310.774 218.338 310.774 216.84C310.774 215.361 311.292 214.088 312.321 213.028C313.356 211.969 314.641 211.439 316.169 211.439C317.704 211.439 318.983 211.963 320.012 213.016C321.041 214.07 321.552 215.342 321.552 216.84C321.552 218.32 321.035 219.593 319.993 220.652ZM316.176 220.859C317.284 220.859 318.191 220.476 318.91 219.696C319.622 218.923 319.981 217.973 319.981 216.834C319.981 215.714 319.61 214.758 318.867 213.978C318.13 213.193 317.217 212.797 316.139 212.797C315.031 212.797 314.123 213.187 313.417 213.966C312.711 214.746 312.358 215.702 312.358 216.84C312.358 217.961 312.723 218.911 313.46 219.69C314.19 220.469 315.092 220.859 316.176 220.859Z" fill="#6D6D6D"/>
<path d="M322.837 222.004V211.665H324.377V213.406C325.242 212.097 326.356 211.445 327.72 211.445C329.267 211.445 330.369 212.133 331.039 213.503C331.934 212.127 333.146 211.445 334.68 211.445C335.868 211.445 336.806 211.817 337.487 212.566C338.176 213.309 338.523 214.325 338.523 215.604V222.004H336.982V215.963C336.982 214.965 336.745 214.192 336.276 213.656C335.801 213.12 335.143 212.846 334.309 212.846C333.493 212.846 332.817 213.132 332.263 213.704C331.715 214.277 331.447 215.056 331.447 216.043V222.004H329.925V215.921C329.925 214.959 329.687 214.21 329.212 213.662C328.743 213.114 328.092 212.846 327.264 212.846C326.436 212.846 325.748 213.15 325.2 213.765C324.651 214.38 324.377 215.16 324.377 216.11V222.01H322.837V222.004Z" fill="#6D6D6D"/>
<path d="M341.275 217.461C341.385 218.515 341.781 219.349 342.469 219.97C343.157 220.591 343.973 220.902 344.923 220.902C346.165 220.902 347.249 220.415 348.181 219.44L349.143 220.299C347.98 221.59 346.561 222.235 344.88 222.235C343.425 222.235 342.201 221.73 341.208 220.725C340.216 219.721 339.723 218.424 339.723 216.834C339.723 215.324 340.198 214.051 341.141 213.004C342.085 211.957 343.273 211.433 344.685 211.433C346.165 211.433 347.34 211.951 348.205 212.992C349.07 214.033 349.508 215.336 349.508 216.913C349.508 217.114 349.496 217.291 349.484 217.449H341.275V217.461ZM341.275 216.219H347.937C347.846 215.221 347.511 214.392 346.944 213.729C346.378 213.071 345.611 212.736 344.637 212.736C343.754 212.736 342.999 213.065 342.378 213.717C341.75 214.374 341.385 215.208 341.275 216.219Z" fill="#6D6D6D"/>
<path d="M271.901 207.134H257.037V221.998H271.901V207.134Z" fill="#5394FF"/>
<path d="M259.26 51.0135V34.9746H262.079V51.0135H259.26Z" fill="#6D6D6D"/>
<path d="M264.319 51.0135V38.9204H267.096V40.7837C268.07 39.371 269.325 38.6647 270.865 38.6647C272.223 38.6647 273.277 39.0848 274.038 39.919C274.799 40.7594 275.182 41.8919 275.182 43.3168V51.0135H272.412V44.1328C272.412 43.195 272.18 42.4643 271.73 41.9407C271.279 41.4231 270.64 41.1612 269.818 41.1612C269.008 41.1612 268.35 41.4292 267.851 41.9711C267.352 42.513 267.096 43.2498 267.096 44.1754V51.0135H264.319Z" fill="#6D6D6D"/>
<path d="M276.127 44.9731C276.127 43.8405 276.395 42.7931 276.931 41.8311C277.467 40.8629 278.216 40.0956 279.184 39.5232C280.152 38.9509 281.224 38.6647 282.399 38.6647C283.477 38.6647 284.408 38.8413 285.175 39.1944C285.949 39.5476 286.637 40.0591 287.24 40.7228L285.516 42.58C285.042 42.0868 284.573 41.7154 284.086 41.4535C283.598 41.1978 283.026 41.0638 282.374 41.0638C281.376 41.0638 280.548 41.4413 279.884 42.1964C279.226 42.9515 278.891 43.8709 278.891 44.967C278.891 46.0691 279.232 46.9947 279.914 47.7497C280.596 48.5048 281.461 48.8823 282.515 48.8823C283.13 48.8823 283.684 48.7544 284.183 48.4926C284.682 48.2308 285.169 47.8532 285.65 47.36L287.325 49.0163C286.667 49.7531 285.955 50.3194 285.182 50.703C284.408 51.0927 283.471 51.2876 282.368 51.2876C281.187 51.2876 280.121 51.0014 279.159 50.4351C278.203 49.8627 277.454 49.1015 276.919 48.1394C276.395 47.1834 276.127 46.1239 276.127 44.9731Z" fill="#6D6D6D"/>
<path d="M287.136 44.973C287.136 43.8343 287.416 42.7809 287.97 41.8188C288.53 40.8567 289.303 40.0895 290.296 39.5232C291.295 38.9508 292.391 38.6707 293.602 38.6707C294.82 38.6707 295.922 38.9508 296.903 39.511C297.883 40.0773 298.65 40.8385 299.205 41.8006C299.759 42.7687 300.033 43.8222 300.033 44.9791C300.033 45.8316 299.868 46.6415 299.539 47.4148C299.211 48.1881 298.76 48.8579 298.2 49.4303C297.634 50.0027 296.945 50.4594 296.142 50.7943C295.338 51.1292 294.473 51.2997 293.554 51.2997C292.348 51.2997 291.252 51.0135 290.266 50.4472C289.279 49.8748 288.512 49.1137 287.964 48.1516C287.41 47.1834 287.136 46.1239 287.136 44.973ZM289.912 44.973C289.912 46.0508 290.266 46.9703 290.966 47.7375C291.666 48.5047 292.549 48.8884 293.602 48.8884C294.699 48.8884 295.581 48.5108 296.257 47.7558C296.927 47.0007 297.262 46.0752 297.262 44.973C297.262 43.8891 296.909 42.9697 296.215 42.2085C295.514 41.4474 294.632 41.0699 293.554 41.0699C292.47 41.0699 291.587 41.4474 290.917 42.1903C290.247 42.9453 289.912 43.8709 289.912 44.973Z" fill="#6D6D6D"/>
<path d="M301.135 51.0135V38.9204H303.911V40.7289C304.368 40.0895 304.892 39.5902 305.464 39.2188C306.043 38.8474 306.749 38.6647 307.589 38.6647C308.442 38.6647 309.172 38.8534 309.781 39.231C310.39 39.6085 310.859 40.1261 311.188 40.7837C312.278 39.371 313.642 38.6647 315.286 38.6647C316.613 38.6647 317.649 39.0666 318.398 39.8764C319.147 40.6863 319.524 41.825 319.524 43.2985V51.0135H316.754V44.1328C316.754 43.1768 316.54 42.4461 316.114 41.9285C315.688 41.417 315.085 41.1612 314.306 41.1612C313.532 41.1612 312.905 41.4231 312.43 41.9528C311.961 42.4826 311.718 43.2194 311.718 44.1754V51.0135H308.947V44.1084C308.947 43.1768 308.728 42.4521 308.302 41.9346C307.869 41.417 307.273 41.1612 306.505 41.1612C305.732 41.1612 305.105 41.4353 304.63 41.9833C304.149 42.5313 303.918 43.2681 303.918 44.1997V51.0196H301.135V51.0135Z" fill="#6D6D6D"/>
<path d="M320.505 44.9609C320.505 43.8161 320.755 42.7627 321.254 41.8006C321.753 40.8385 322.46 40.0774 323.367 39.5111C324.28 38.9448 325.297 38.6647 326.417 38.6647C327.173 38.6647 327.867 38.7743 328.5 39.0057C329.133 39.231 329.675 39.5476 330.132 39.9495C330.582 40.3514 330.966 40.8263 331.283 41.3804C331.599 41.9285 331.837 42.5191 331.989 43.1646C332.141 43.81 332.221 44.4798 332.221 45.1801C332.221 45.515 332.202 45.7708 332.178 45.9534H323.288C323.44 46.9216 323.824 47.6767 324.457 48.2186C325.09 48.7605 325.857 49.0285 326.765 49.0285C327.416 49.0285 328.007 48.9128 328.518 48.6753C329.03 48.4378 329.535 48.0786 330.041 47.5853L331.672 49.0285C330.418 50.5447 328.768 51.2997 326.722 51.2997C325.559 51.2997 324.505 51.0379 323.568 50.5142C322.63 49.9906 321.887 49.2477 321.339 48.2795C320.779 47.3052 320.505 46.2031 320.505 44.9609ZM323.251 44.1267H329.462C329.365 43.1889 329.048 42.4217 328.518 41.8311C327.989 41.2404 327.276 40.942 326.399 40.942C325.565 40.942 324.865 41.2343 324.305 41.825C323.738 42.4034 323.385 43.1707 323.251 44.1267Z" fill="#6D6D6D"/>
<path d="M258.023 76.1679L259.722 74.1524C260.52 74.8466 261.324 75.3641 262.128 75.7112C262.931 76.0583 263.814 76.2349 264.776 76.2349C265.647 76.2349 266.341 76.0522 266.853 75.6808C267.364 75.3093 267.62 74.81 267.62 74.1767C267.62 73.7749 267.529 73.44 267.34 73.1781C267.157 72.9163 266.798 72.6605 266.274 72.417C265.751 72.1734 264.996 71.9359 264.009 71.7045C263.084 71.4853 262.322 71.2661 261.72 71.0286C261.117 70.7912 260.569 70.4928 260.082 70.1274C259.594 69.7621 259.235 69.3115 259.01 68.7878C258.778 68.2641 258.669 67.6309 258.669 66.8941C258.669 65.524 259.18 64.4036 260.203 63.5389C261.232 62.6743 262.542 62.2419 264.143 62.2419C266.36 62.2419 268.302 62.9118 269.958 64.2575L268.448 66.3948C266.962 65.2926 265.513 64.7385 264.094 64.7385C263.291 64.7385 262.651 64.9212 262.182 65.2865C261.713 65.6519 261.476 66.1208 261.476 66.687C261.476 67.1133 261.586 67.4604 261.793 67.7405C262.006 68.0145 262.377 68.2702 262.919 68.5016C263.455 68.733 264.24 68.9705 265.276 69.2202C267.06 69.6525 268.363 70.2249 269.191 70.9373C270.019 71.6497 270.433 72.6544 270.433 73.9514C270.433 75.425 269.91 76.5941 268.85 77.4527C267.797 78.3113 266.414 78.7375 264.703 78.7375C262.158 78.7315 259.929 77.8729 258.023 76.1679Z" fill="#6D6D6D"/>
<path d="M270.756 68.8183V66.4131H272.284V63.1127H275.061V66.4131H278.3V68.8183H275.061V74.7492C275.061 75.7539 275.554 76.2593 276.547 76.2593C277.143 76.2593 277.716 76.1192 278.258 75.8452V78.0982C277.545 78.5001 276.711 78.7071 275.767 78.7071C273.447 78.7071 272.284 77.5258 272.284 75.1693V68.8183H270.756Z" fill="#6D6D6D"/>
<path d="M278.557 74.9866C278.557 73.6835 279.007 72.7032 279.908 72.0273C280.81 71.3575 281.997 71.0165 283.477 71.0165C284.658 71.0165 285.772 71.1809 286.814 71.5219V71.2966C286.814 70.4441 286.558 69.7986 286.046 69.3541C285.535 68.9035 284.798 68.6843 283.842 68.6843C282.752 68.6843 281.601 68.94 280.383 69.4515L279.616 67.2351C280.365 66.9002 281.09 66.6505 281.796 66.4861C282.502 66.3217 283.312 66.2365 284.232 66.2365C285.998 66.2365 287.325 66.6749 288.22 67.5639C289.115 68.4468 289.56 69.7073 289.56 71.3514V78.5183H286.789V77.0326C285.815 78.1956 284.512 78.7802 282.88 78.7802C282.094 78.7802 281.376 78.6401 280.737 78.36C280.091 78.0799 279.567 77.6476 279.159 77.0691C278.758 76.4724 278.557 75.7843 278.557 74.9866ZM281.327 74.8831C281.327 75.4372 281.546 75.8695 281.985 76.1923C282.423 76.5089 282.983 76.6733 283.659 76.6733C284.585 76.6733 285.346 76.4358 285.949 75.967C286.552 75.492 286.856 74.8831 286.856 74.1402V73.446C286.052 73.1294 285.127 72.965 284.086 72.965C283.215 72.965 282.539 73.1355 282.058 73.4704C281.571 73.7992 281.327 74.2681 281.327 74.8831Z" fill="#6D6D6D"/>
<path d="M290.144 68.8183V66.4131H291.672V63.1127H294.449V66.4131H297.688V68.8183H294.449V74.7492C294.449 75.7539 294.942 76.2593 295.934 76.2593C296.531 76.2593 297.103 76.1192 297.645 75.8452V78.0982C296.933 78.5001 296.099 78.7071 295.155 78.7071C292.835 78.7071 291.672 77.5258 291.672 75.1693V68.8183H290.144Z" fill="#6D6D6D"/>
<path d="M298.814 64.5559V61.9375H301.792V64.5559H298.814ZM298.93 78.5062V66.413H301.701V78.5062H298.93Z" fill="#6D6D6D"/>
<path d="M302.621 76.9291L303.851 75.0475C305.172 76.0401 306.488 76.5333 307.815 76.5333C308.4 76.5333 308.862 76.4176 309.191 76.174C309.52 75.9366 309.691 75.6017 309.691 75.1754C309.691 75.0049 309.648 74.8527 309.563 74.7126C309.478 74.5726 309.368 74.4569 309.228 74.3595C309.088 74.262 308.917 74.1707 308.704 74.0733C308.491 73.9819 308.278 73.9028 308.059 73.8358C307.84 73.7688 307.602 73.6958 307.328 73.6166C307.2 73.5801 306.999 73.5192 306.999 73.5192C306.567 73.3913 306.202 73.2756 305.903 73.166C305.605 73.0564 305.27 72.9042 304.911 72.6971C304.545 72.4901 304.247 72.2709 304.022 72.0395C303.796 71.802 303.608 71.5036 303.449 71.1322C303.291 70.7608 303.218 70.3467 303.218 69.89C303.218 68.7757 303.626 67.8806 304.442 67.2108C305.264 66.541 306.293 66.2061 307.529 66.2061C308.272 66.2061 309.039 66.3278 309.818 66.5653C310.598 66.8089 311.316 67.1438 311.962 67.57L310.866 69.5368C309.618 68.7757 308.479 68.3982 307.462 68.3982C306.932 68.3982 306.518 68.5139 306.214 68.7452C305.915 68.9766 305.763 69.2811 305.763 69.6708C305.763 69.8108 305.787 69.9326 305.842 70.0544C305.891 70.1701 305.988 70.2797 306.122 70.3832C306.262 70.4867 306.384 70.572 306.494 70.6451C306.603 70.7181 306.78 70.8034 307.017 70.8947C307.255 70.9922 307.444 71.0591 307.578 71.1078C307.718 71.1505 307.937 71.2235 308.235 71.3271C308.887 71.5341 309.246 71.6498 309.551 71.7716C309.855 71.8933 310.184 72.0517 310.549 72.2587C310.915 72.4596 311.207 72.6789 311.426 72.9102C311.651 73.1416 311.846 73.4339 311.998 73.7932C312.157 74.1463 312.236 74.5361 312.236 74.9562C312.236 76.1801 311.816 77.1179 310.975 77.7694C310.135 78.421 309.057 78.7498 307.742 78.7498C306.859 78.7498 305.97 78.5975 305.069 78.287C304.174 77.9582 303.352 77.5137 302.621 76.9291Z" fill="#6D6D6D"/>
<path d="M312.15 68.8183V66.4131H313.679V63.1127H316.455V66.4131H319.695V68.8183H316.455V74.7492C316.455 75.7539 316.949 76.2593 317.941 76.2593C318.538 76.2593 319.11 76.1192 319.652 75.8452V78.0982C318.94 78.5001 318.106 78.7071 317.162 78.7071C314.842 78.7071 313.679 77.5258 313.679 75.1693V68.8183H312.15Z" fill="#6D6D6D"/>
<path d="M320.821 64.5559V61.9375H323.799V64.5559H320.821ZM320.937 78.5062V66.413H323.708V78.5062H320.937Z" fill="#6D6D6D"/>
<path d="M324.932 72.4657C324.932 71.3331 325.2 70.2858 325.735 69.3237C326.271 68.3555 327.02 67.5882 327.988 67.0159C328.957 66.4435 330.022 66.1573 331.203 66.1573C332.281 66.1573 333.213 66.3339 333.98 66.687C334.753 67.0402 335.442 67.5517 336.044 68.2154L334.321 70.0726C333.846 69.5794 333.377 69.208 332.89 68.9461C332.403 68.6904 331.831 68.5564 331.179 68.5564C330.181 68.5564 329.352 68.934 328.689 69.689C328.031 70.4441 327.696 71.3635 327.696 72.4596C327.696 73.5617 328.037 74.4873 328.719 75.2424C329.401 75.9974 330.266 76.3749 331.319 76.3749C331.934 76.3749 332.488 76.2471 332.988 75.9852C333.487 75.7234 333.974 75.3459 334.455 74.8526L336.13 76.5089C335.472 77.2457 334.76 77.812 333.986 78.1956C333.213 78.5853 332.275 78.7802 331.173 78.7802C329.992 78.7802 328.926 78.494 327.964 77.9277C327.008 77.3553 326.259 76.5942 325.723 75.6321C325.2 74.6761 324.932 73.6165 324.932 72.4657Z" fill="#6D6D6D"/>
<path d="M335.978 76.9291L337.208 75.0475C338.529 76.0401 339.844 76.5333 341.172 76.5333C341.756 76.5333 342.219 76.4176 342.548 76.174C342.877 75.9366 343.047 75.6017 343.047 75.1754C343.047 75.0049 343.004 74.8527 342.913 74.7126C342.828 74.5726 342.718 74.4569 342.578 74.3595C342.438 74.262 342.268 74.1707 342.055 74.0733C341.841 73.9819 341.628 73.9028 341.409 73.8358C341.19 73.7688 340.952 73.6958 340.678 73.6166C340.55 73.5801 340.35 73.5192 340.35 73.5192C339.917 73.3913 339.552 73.2756 339.254 73.166C338.955 73.0564 338.62 72.9042 338.261 72.6971C337.896 72.4901 337.597 72.2709 337.372 72.0395C337.147 71.802 336.958 71.5036 336.8 71.1322C336.641 70.7608 336.568 70.3467 336.568 69.89C336.568 68.7757 336.976 67.8806 337.792 67.2108C338.614 66.541 339.643 66.2061 340.879 66.2061C341.622 66.2061 342.389 66.3278 343.169 66.5653C343.948 66.8089 344.667 67.1438 345.312 67.57L344.216 69.5368C342.968 68.7757 341.829 68.3982 340.812 68.3982C340.283 68.3982 339.869 68.5139 339.564 68.7452C339.266 68.9766 339.113 69.2811 339.113 69.6708C339.113 69.8108 339.138 69.9326 339.193 70.0544C339.241 70.1701 339.339 70.2797 339.473 70.3832C339.613 70.4867 339.735 70.572 339.844 70.6451C339.954 70.7181 340.13 70.8034 340.368 70.8947C340.605 70.9922 340.794 71.0591 340.928 71.1078C341.068 71.1505 341.287 71.2235 341.586 71.3271C342.237 71.5341 342.596 71.6498 342.901 71.7716C343.205 71.8933 343.534 72.0517 343.9 72.2587C344.265 72.4596 344.557 72.6789 344.776 72.9102C345.002 73.1416 345.197 73.4339 345.349 73.7932C345.507 74.1463 345.586 74.5361 345.586 74.9562C345.586 76.1801 345.166 77.1179 344.326 77.7694C343.485 78.421 342.408 78.7498 341.092 78.7498C340.209 78.7498 339.321 78.5975 338.419 78.287C337.536 77.9582 336.714 77.5137 335.978 76.9291Z" fill="#6D6D6D"/>
<path d="M258.163 93.0106C258.163 91.5918 258.541 90.307 259.302 89.1562C260.063 88.0053 261.153 87.0189 262.572 86.2151L262.9 86.7327C260.294 88.3341 258.991 90.4288 258.991 93.0106C258.991 95.5863 260.294 97.681 262.9 99.2886L262.572 99.8183C261.153 99.0085 260.063 98.0281 259.302 96.8773C258.541 95.7203 258.163 94.4355 258.163 93.0106Z" fill="#6D6D6D"/>
<path d="M263.188 86.4465H264.217L268.375 92.42L272.559 86.4465H273.545L268.771 93.1568V97.5714H267.949V93.175L263.188 86.4465Z" fill="#6D6D6D"/>
<path d="M272.034 93.5038C272.034 92.9254 272.132 92.3774 272.326 91.8537C272.521 91.3361 272.789 90.8855 273.124 90.508C273.459 90.1304 273.867 89.8321 274.348 89.6068C274.823 89.3876 275.335 89.278 275.876 89.278C276.613 89.278 277.271 89.4667 277.843 89.8382C278.416 90.2157 278.848 90.7211 279.152 91.3665C279.451 92.0059 279.603 92.7244 279.603 93.5221C279.603 93.65 279.597 93.7596 279.585 93.8388H272.856C272.923 94.813 273.264 95.5864 273.873 96.1648C274.488 96.7433 275.207 97.0295 276.035 97.0295C277.1 97.0295 278.026 96.6032 278.811 95.7629L279.359 96.2318C278.903 96.725 278.416 97.1026 277.886 97.3644C277.362 97.6262 276.735 97.7602 276.004 97.7602C275.475 97.7602 274.969 97.6567 274.488 97.4496C274.001 97.2487 273.581 96.9564 273.222 96.5911C272.862 96.2257 272.57 95.7812 272.357 95.2454C272.138 94.7156 272.034 94.131 272.034 93.5038ZM272.856 93.1446H278.751C278.726 92.7244 278.641 92.3347 278.507 91.9633C278.373 91.5918 278.19 91.2569 277.953 90.9647C277.721 90.6663 277.423 90.4349 277.058 90.2583C276.692 90.0878 276.284 90.0026 275.84 90.0026C275.042 90.0026 274.366 90.3009 273.8 90.9038C273.246 91.4944 272.923 92.2434 272.856 93.1446Z" fill="#6D6D6D"/>
<path d="M279.999 95.1906C279.999 94.3624 280.322 93.717 280.973 93.2481C281.619 92.7853 282.477 92.5479 283.543 92.5479C284.468 92.5479 285.364 92.6635 286.228 92.901V92.5479C286.228 91.7441 285.991 91.1291 285.528 90.7028C285.059 90.2766 284.402 90.0635 283.561 90.0635C282.727 90.0635 281.881 90.2827 281.022 90.715L280.736 90.033C281.747 89.5702 282.703 89.3328 283.61 89.3328C284.724 89.3328 285.577 89.6311 286.167 90.2279C286.721 90.782 287.002 91.5431 287.002 92.5174V97.5714H286.234V96.2196C285.912 96.6641 285.498 97.0356 284.98 97.3279C284.462 97.6201 283.847 97.7663 283.141 97.7663C282.751 97.7663 282.374 97.7115 282.008 97.6019C281.643 97.4923 281.308 97.3339 281.01 97.1208C280.711 96.9138 280.468 96.6398 280.285 96.311C280.09 95.9821 279.999 95.6046 279.999 95.1906ZM280.833 95.1784C280.833 95.7447 281.059 96.2014 281.521 96.5302C281.978 96.859 282.532 97.0295 283.184 97.0295C284.03 97.0295 284.749 96.792 285.345 96.3231C285.948 95.8543 286.247 95.2575 286.247 94.5329V93.6135C285.315 93.3699 284.395 93.2481 283.5 93.2481C282.654 93.2481 282.002 93.4186 281.534 93.7657C281.065 94.1189 280.833 94.5877 280.833 95.1784Z" fill="#6D6D6D"/>
<path d="M288.591 97.5714V89.4728H289.37V91.7684C289.699 91.0255 290.192 90.4227 290.832 89.966C291.428 89.5398 292.092 89.3327 292.817 89.3388C292.963 89.3388 292.963 90.1974 292.963 90.1974C292.403 90.1974 291.958 90.2887 291.538 90.4653C291.118 90.6419 290.746 90.8976 290.424 91.2326C290.101 91.5614 289.845 91.9937 289.656 92.5113C289.468 93.0289 289.37 93.6134 289.37 94.2528V97.5714H288.591Z" fill="#6D6D6D"/>
<path d="M293.249 99.2886C295.855 97.6871 297.158 95.5924 297.158 93.0106C297.158 90.4288 295.855 88.3341 293.249 86.7327L293.584 86.2151C295.003 87.0189 296.087 88.0053 296.848 89.1562C297.603 90.307 297.98 91.5918 297.98 93.0167C297.98 94.4355 297.603 95.7264 296.848 96.8773C296.087 98.0281 295.003 99.0085 293.584 99.8183L293.249 99.2886Z" fill="#6D6D6D"/>
<path d="M71.0544 221.937H44.9927C41.1687 221.937 38.0693 218.838 38.0693 215.014V188.952C38.0693 185.128 41.1687 182.029 44.9927 182.029H71.0544C74.8785 182.029 77.9778 185.128 77.9778 188.952V215.014C77.9778 218.838 74.8785 221.937 71.0544 221.937Z" fill="#5394FF"/>
<path d="M51.259 205.582C50.9606 204.729 50.8145 203.578 50.8145 202.129C50.8145 200.674 51.0519 199.358 51.533 198.177C52.014 196.99 52.7021 196.052 53.5972 195.352C54.4984 194.651 55.5336 194.304 56.7027 194.304C57.4882 194.304 58.2128 194.444 58.8644 194.731C59.522 195.011 60.1857 195.431 60.8677 195.979L60.1918 196.807C59.6072 196.296 59.0349 195.912 58.4625 195.662C57.8962 195.407 57.2812 195.279 56.6235 195.279C55.2048 195.279 54.06 195.942 53.1953 197.264C52.3307 198.585 51.8922 200.308 51.8922 202.427V202.781C52.9518 200.984 54.4558 200.089 56.4104 200.089C57.2812 200.089 58.0971 200.272 58.8583 200.643C59.6133 201.009 60.2283 201.538 60.6911 202.22C61.1539 202.908 61.3914 203.67 61.3914 204.516C61.3914 205.411 61.1661 206.221 60.7276 206.946C60.2831 207.67 59.6742 208.236 58.9009 208.644C58.1276 209.058 57.2751 209.259 56.3313 209.259C55.6066 209.259 54.9186 209.132 54.2792 208.87C53.6398 208.608 53.0918 208.255 52.6534 207.81C52.014 207.171 51.5512 206.434 51.259 205.582ZM52.3246 204.65C52.3246 205.685 52.7143 206.55 53.4937 207.244C54.2731 207.938 55.2413 208.285 56.4043 208.285C57.5491 208.285 58.4746 207.926 59.1932 207.201C59.9056 206.477 60.2649 205.582 60.2649 204.516C60.2649 203.517 59.8934 202.683 59.1566 202.025C58.4198 201.368 57.476 201.039 56.3434 201.039C55.765 201.039 55.223 201.143 54.7176 201.35C54.2122 201.557 53.786 201.831 53.4389 202.166C53.0918 202.5 52.8178 202.89 52.6229 203.329C52.422 203.755 52.3246 204.199 52.3246 204.65Z" fill="white"/>
<path d="M61.3916 195.668L64.698 194.444H65.5201V209.004H64.4788V195.565L61.6839 196.515L61.3916 195.668Z" fill="white"/>
<path d="M71.0544 173.869H44.9927C41.1687 173.869 38.0693 170.77 38.0693 166.946V140.884C38.0693 137.06 41.1687 133.961 44.9927 133.961H71.0544C74.8785 133.961 77.9778 137.06 77.9778 140.884V166.946C77.9778 170.77 74.8785 173.869 71.0544 173.869Z" fill="#2BC6D9"/>
<path d="M47.3799 157.032C47.3799 156.223 47.6783 155.498 48.2689 154.871C48.8596 154.244 49.6329 153.775 50.5767 153.464C49.7851 153.142 49.1336 152.697 48.6343 152.131C48.1289 151.564 47.8731 150.87 47.8731 150.06C47.8731 149.336 48.1045 148.678 48.5734 148.094C49.0361 147.509 49.639 147.058 50.3758 146.748C51.1126 146.431 51.9041 146.279 52.7445 146.279C53.5848 146.279 54.3703 146.437 55.1071 146.748C55.8438 147.058 56.4467 147.509 56.9095 148.1C57.3783 148.69 57.6097 149.354 57.6097 150.097C57.6097 150.895 57.3601 151.577 56.8547 152.137C56.3493 152.697 55.7038 153.142 54.9122 153.464C55.8682 153.775 56.6354 154.244 57.2322 154.877C57.8228 155.51 58.1212 156.241 58.1212 157.075C58.1212 157.861 57.8837 158.567 57.4088 159.188C56.9399 159.809 56.2884 160.29 55.4724 160.631C54.6565 160.966 53.7492 161.137 52.7445 161.137C51.2161 161.137 49.9373 160.753 48.9144 159.992C47.8914 159.219 47.3799 158.232 47.3799 157.032ZM48.4881 157.112C48.4881 157.964 48.8778 158.689 49.6572 159.279C50.4306 159.87 51.4657 160.168 52.7445 160.168C54.0354 160.168 55.0705 159.87 55.8438 159.267C56.6172 158.67 57.0008 157.934 57.0008 157.069C57.0008 156.18 56.5867 155.449 55.7647 154.859C54.9366 154.274 53.9379 153.976 52.7445 153.976C51.5571 153.976 50.5463 154.274 49.7242 154.865C48.9022 155.455 48.4881 156.204 48.4881 157.112ZM48.9813 150.091C48.9813 150.955 49.3467 151.674 50.0774 152.228C50.802 152.788 51.691 153.068 52.7445 153.068C53.7918 153.068 54.6808 152.788 55.4115 152.222C56.1422 151.662 56.5015 150.937 56.5015 150.054C56.5015 149.244 56.1422 148.569 55.4176 148.039C54.6991 147.509 53.804 147.241 52.7384 147.241C51.6788 147.241 50.7837 147.509 50.0652 148.045C49.3467 148.587 48.9813 149.269 48.9813 150.091Z" fill="white"/>
<path d="M59.467 157.514C59.1686 156.661 59.0225 155.51 59.0225 154.061C59.0225 152.606 59.2599 151.29 59.741 150.109C60.222 148.922 60.9101 147.984 61.8052 147.284C62.7064 146.583 63.7416 146.236 64.9107 146.236C65.6962 146.236 66.4208 146.376 67.0724 146.663C67.73 146.943 68.3937 147.363 69.0757 147.911L68.3998 148.739C67.8152 148.228 67.2368 147.844 66.6705 147.594C66.1042 147.339 65.4892 147.211 64.8315 147.211C63.4128 147.211 62.268 147.874 61.4033 149.196C60.5387 150.517 60.1002 152.24 60.1002 154.359V154.713C61.1598 152.916 62.6638 152.021 64.6184 152.021C65.4892 152.021 66.3051 152.204 67.0602 152.575C67.8152 152.941 68.4302 153.47 68.893 154.152C69.3558 154.84 69.5933 155.602 69.5933 156.448C69.5933 157.343 69.368 158.153 68.9296 158.878C68.485 159.602 67.8761 160.175 67.1028 160.583C66.3295 160.997 65.477 161.198 64.5332 161.198C63.8086 161.198 63.1205 161.07 62.4811 160.808C61.8418 160.546 61.2937 160.193 60.8492 159.748C60.222 159.103 59.7593 158.36 59.467 157.514ZM60.5326 156.576C60.5326 157.611 60.9223 158.476 61.7017 159.17C62.4811 159.864 63.4493 160.211 64.6123 160.211C65.7571 160.211 66.6827 159.852 67.4012 159.127C68.1136 158.403 68.4729 157.507 68.4729 156.442C68.4729 155.443 68.1014 154.609 67.3646 153.951C66.6278 153.294 65.684 152.965 64.5514 152.965C63.973 152.965 63.431 153.068 62.9256 153.276C62.4202 153.483 61.994 153.757 61.6469 154.091C61.3059 154.426 61.0258 154.816 60.8309 155.254C60.63 155.687 60.5326 156.125 60.5326 156.576Z" fill="white"/>
<path d="M71.0544 125.801H44.9927C41.1687 125.801 38.0693 122.702 38.0693 118.878V92.816C38.0693 88.992 41.1687 85.8926 44.9927 85.8926H71.0544C74.8785 85.8926 77.9778 88.992 77.9778 92.816V118.878C77.9778 122.702 74.8785 125.801 71.0544 125.801Z" fill="#57D989"/>
<path d="M47.209 108.532L55.4781 98.3084H56.4463V108.41H58.7967V109.336H56.4463V112.862H55.405V109.336H47.5804L47.209 108.532ZM48.506 108.41H55.405V99.8612L48.506 108.41Z" fill="white"/>
<path d="M59.4912 110.517L60.3193 109.829C61.5372 111.37 63.0412 112.137 64.8132 112.137C65.824 112.137 66.6704 111.833 67.3584 111.23C68.0465 110.627 68.3875 109.847 68.3875 108.898C68.3875 107.911 67.9734 107.138 67.1453 106.578C66.3111 106.023 65.2272 105.743 63.8937 105.743H63.1082L62.8342 105.147L67.8151 99.3984H60.228V98.3998H69.2765V99.1487L64.3869 104.751C64.8984 104.787 65.3855 104.854 65.8544 104.964C66.3172 105.067 66.78 105.238 67.2306 105.451C67.6812 105.67 68.077 105.932 68.4058 106.237C68.7346 106.541 69.0025 106.919 69.2035 107.375C69.4044 107.832 69.5079 108.337 69.5079 108.891C69.5079 109.707 69.2887 110.438 68.8564 111.096C68.418 111.747 67.8456 112.247 67.127 112.594C66.4146 112.941 65.6413 113.111 64.801 113.111C63.6745 113.111 62.6576 112.88 61.7686 112.417C60.8674 111.96 60.1123 111.321 59.4912 110.517Z" fill="white"/>
<path d="M45.6992 46.6843C45.6992 44.9793 46.229 43.5301 47.2946 42.3427C48.3602 41.1553 49.7242 40.5586 51.3865 40.5586C53.0367 40.5586 54.3885 41.1492 55.4358 42.3366C56.4832 43.524 57.0068 44.9732 57.0068 46.6843C57.0068 48.3893 56.4771 49.8385 55.4115 51.0259C54.3459 52.2133 52.9819 52.81 51.3195 52.81C49.6694 52.81 48.3176 52.2194 47.2702 51.0381C46.229 49.8507 45.6992 48.4015 45.6992 46.6843ZM48.141 64.7996L65.6656 40.8204H69.0573L51.5205 64.7996H48.141ZM49.4562 44.2547C48.9935 44.9063 48.7621 45.7161 48.7621 46.6843C48.7621 47.6525 49.0117 48.4563 49.505 49.1078C49.9982 49.7593 50.6254 50.0821 51.3865 50.0821C52.1659 50.0821 52.7931 49.7593 53.2559 49.1078C53.7248 48.4563 53.9622 47.6464 53.9622 46.6843C53.9622 45.7405 53.7126 44.9367 53.2072 44.273C52.7018 43.6093 52.0746 43.2805 51.3195 43.2805C50.5401 43.2805 49.919 43.6032 49.4562 44.2547ZM60.1976 58.9966C60.1976 57.2795 60.7273 55.8181 61.7929 54.6124C62.8585 53.4068 64.2164 52.8039 65.8788 52.8039C67.5289 52.8039 68.8746 53.4007 69.9159 54.6002C70.9571 55.7998 71.4808 57.2612 71.4808 58.9906C71.4808 60.6833 70.9511 62.1143 69.8855 63.2956C68.8198 64.4708 67.4559 65.0615 65.7935 65.0615C64.1434 65.0615 62.7976 64.4769 61.7564 63.3078C60.7212 62.1387 60.1976 60.7016 60.1976 58.9966ZM63.9363 56.5123C63.4735 57.1638 63.2422 57.9737 63.2422 58.9357C63.2422 59.9039 63.4918 60.7138 63.9972 61.3592C64.4965 62.0108 65.1298 62.3396 65.8849 62.3396C66.6643 62.3396 67.2854 62.0169 67.7481 61.3592C68.2109 60.7077 68.4423 59.8978 68.4423 58.9357C68.4423 57.9919 68.1927 57.1882 67.6933 56.5244C67.194 55.8607 66.5608 55.5319 65.8057 55.5319C65.0202 55.538 64.3991 55.8607 63.9363 56.5123Z" fill="#6D6D6D"/>
</svg>
