<svg width="390" height="250" viewBox="0 0 390 250" fill="none" xmlns="http://www.w3.org/2000/svg">
<path d="M0 10C0 4.47716 4.47715 0 10 0H380C385.523 0 390 4.47715 390 10V240C390 245.523 385.523 250 380 250H10C4.47715 250 0 245.523 0 240V10Z" fill="#5D51F2"/>
<path d="M264.593 155.816C226.536 155.816 195.685 124.965 195.685 86.9079C195.685 48.8511 226.536 18 264.593 18C302.65 18 333.501 48.8511 333.501 86.9079C333.501 124.965 302.65 155.816 264.593 155.816Z" fill="white" fill-opacity="0.1"/>
<path d="M144.892 212.279C106.835 212.279 75.9839 181.428 75.9839 143.371C75.9839 105.314 106.835 74.4629 144.892 74.4629C182.949 74.4629 213.8 105.314 213.8 143.371C213.8 181.428 182.949 212.279 144.892 212.279Z" fill="white" fill-opacity="0.1"/>
<path d="M261.901 30.4009C309.287 30.4009 347.699 68.8131 347.699 116.199C347.699 163.585 309.287 201.998 261.901 201.998C214.515 201.998 176.103 163.585 176.103 116.199C176.103 68.8131 214.515 30.4009 261.901 30.4009ZM261.901 31.3801C215.058 31.3801 177.082 69.3566 177.082 116.199C177.082 163.042 215.058 201.018 261.901 201.018C308.744 201.018 346.72 163.047 346.72 116.199C346.72 69.3517 308.744 31.3801 261.901 31.3801Z" fill="#F0DECF"/>
<path opacity="0.2" d="M328.978 208.607L347.968 222.33C350.162 223.911 350.651 226.976 349.07 229.164C348.149 230.437 346.671 231.191 345.099 231.191H72.5227C69.8202 231.191 67.6269 228.998 67.6269 226.295C67.6269 224.792 68.3172 223.373 69.502 222.442L87.1415 208.602H328.978V208.607Z" fill="white"/>
<path d="M180.998 208.108C180.729 208.108 180.508 208.328 180.508 208.597C180.508 208.857 180.709 209.067 180.964 209.087H180.998L346.23 209.101C346.499 209.101 346.72 208.881 346.72 208.612C346.72 208.352 346.519 208.142 346.264 208.122H346.23L180.998 208.108Z" fill="#2E363A"/>
<path fill-rule="evenodd" clip-rule="evenodd" d="M258.312 98.0409L221.878 101.434C206.236 111.847 197.321 119.044 195.123 123.019C191.828 128.982 193.811 157.515 195.123 170.66L194.922 170.816C192.684 172.603 191.833 174.146 192.361 175.453L192.386 175.512C193.282 177.543 189.404 176.51 188.807 177.7C188.22 178.88 187.799 182.512 185.405 182.591H185.321C183.676 182.591 158.311 186.615 109.226 194.669V208.357L197.189 208.519C201.252 208.529 205.174 207.045 208.219 204.362L208.346 204.25V208.362H301.096L301.904 208.617C306.462 210.041 309.772 210.903 311.089 210.903C318.339 210.903 322.907 200.69 321.189 195.197C319.47 189.699 303.069 120.317 296.911 116.493C292.842 113.972 280.191 107.921 258.954 98.3493L258.312 98.0409Z" fill="#4757A4"/>
<path fill-rule="evenodd" clip-rule="evenodd" d="M256.883 99.4117C256.672 99.7593 256.785 100.21 257.133 100.42L260.432 102.423L262.244 103.524L264.672 105.008L267.742 106.907L267.796 106.937C267.825 106.951 267.849 106.966 267.874 106.976L267.967 107.01L267.987 107.015L268.011 107.02C268.045 107.025 268.099 107.03 268.207 107.034L268.275 107.03C268.315 107.025 268.344 107.02 268.378 107.005L268.408 106.995L268.647 107.093L268.975 107.235C270.038 107.705 271.849 108.586 274.547 109.957L275.996 110.696C281.523 113.531 284.583 115.171 287.893 117.139C289.053 117.83 290.003 118.588 290.718 119.44C294.135 123.509 296.627 129.114 298.903 136.962L299.109 137.677L299.305 138.372L299.501 139.087C299.814 140.233 300.137 141.471 300.509 142.92L301.586 147.155L301.88 148.291C301.944 148.541 302.007 148.786 302.071 149.025L302.193 149.481L302.325 149.97L302.453 150.44C302.536 150.749 302.619 151.047 302.702 151.336L303.319 153.485L303.828 155.268L304.294 156.917C307.946 169.867 309.703 177.127 311.074 185.567C312.523 194.488 313.023 202.761 312.465 210.776C312.984 210.683 313.483 210.536 313.968 210.345C314.467 202.497 313.977 194.409 312.587 185.729L312.523 185.328C311.025 176.099 309.072 168.285 304.734 153.084L304.181 151.145C303.98 150.45 303.78 149.706 303.559 148.874L303.226 147.601L302.002 142.793C301.361 140.286 300.862 138.402 300.323 136.551L300.171 136.027C297.885 128.277 295.359 122.667 291.853 118.495C291.021 117.506 289.949 116.65 288.656 115.881L288.04 115.519L287.232 115.044C284.466 113.443 281.611 111.925 277.093 109.605L275.232 108.655L273.827 107.945L272.809 107.436C270.968 106.52 269.739 105.948 269.029 105.659L268.878 105.6L268.745 105.546L268.613 105.497C268.408 105.424 268.256 105.389 268.119 105.389H268.089L266.772 104.572L264.653 103.27L261.509 101.35C260.432 100.694 259.233 99.9698 257.901 99.162C257.544 98.9515 257.093 99.0641 256.883 99.4117ZM253.387 102.256C253.167 102.594 253.26 103.049 253.603 103.274L254.048 103.563L255.023 104.19L256.217 104.949C261.656 108.41 270.351 113.81 272.54 115.24L272.74 115.372C274.39 116.464 275.864 117.497 277.288 118.554C281.225 121.487 285.019 124.855 289.802 129.702C291.31 131.229 292.984 134.852 294.693 139.934C295.839 143.346 296.803 146.754 297.787 150.582L297.895 151.008C299.809 158.528 303.104 176.838 303.917 184.231L304.098 185.93L301.699 185.235L298.82 184.412L297.366 184.001L288.04 181.367L284.652 180.402C278.209 178.562 274.145 177.343 269.514 175.864L268.878 175.658L268.359 175.487L267.977 175.36C264.559 174.199 261.505 172.868 256.021 170.263L253.755 169.181L252.511 168.594L251.61 168.173C246.852 165.955 243.855 164.736 240.311 163.644C239.924 163.527 239.513 163.742 239.39 164.129C239.273 164.516 239.488 164.927 239.875 165.049L240.277 165.177L240.693 165.309L241.109 165.446C244.565 166.582 247.757 167.967 253.133 170.518L255.786 171.781C261.549 174.513 264.628 175.83 268.427 177.059L269.455 177.387L270.694 177.778C276.138 179.492 281.254 180.98 291.095 183.756L299.285 186.072L301.175 186.615L302.967 187.134C303.265 187.222 303.569 187.31 303.873 187.398C304.005 187.438 304.137 187.438 304.264 187.403L304.568 190.355L304.847 193.112C304.925 193.885 304.999 194.625 305.067 195.344L301.909 194.233L296.646 192.363L294.781 191.707L293.621 191.305C292.363 190.874 291.266 190.507 290.071 190.116L289.234 189.846L288.505 189.616L287.873 189.42C286.635 189.039 285.278 188.647 283.418 188.118L279.614 187.041C274.101 185.474 271.326 184.588 268.08 183.306L267.228 182.968L266.596 182.713C261.588 180.686 257.128 178.664 248.873 174.748L242.196 171.575C239.542 170.317 237.77 169.495 235.704 168.55C235.337 168.383 234.901 168.545 234.73 168.912C234.563 169.279 234.725 169.715 235.092 169.886L237.099 170.807L238.666 171.536L240.237 172.271C241.094 172.677 242.039 173.122 243.131 173.641L248.222 176.06C257.26 180.349 261.774 182.38 267.419 184.618L268.089 184.882L268.481 185.034L269 185.23C271.712 186.243 274.415 187.085 279.027 188.397L283.178 189.572L284.872 190.057L285.489 190.238C286.948 190.664 288.084 191.016 289.317 191.413L290.546 191.814L291.702 192.201L292.289 192.402C293.797 192.916 295.471 193.503 297.831 194.341L303.564 196.377L304.587 196.735C304.798 196.808 305.023 196.779 305.204 196.671L305.41 198.84L305.542 200.269C305.797 203.094 305.968 205.292 306.066 206.908L306.1 207.491L306.12 207.921L306.134 208.269H306.125C306.1 208.274 306.071 208.284 306.036 208.298L305.909 208.352L305.748 208.504L305.689 208.563C305.606 208.651 305.596 208.685 305.571 208.778L305.547 208.906C305.542 208.94 305.542 208.954 305.542 208.979V208.999C305.542 209.028 305.542 209.052 305.547 209.077L305.552 209.121C305.557 209.165 305.566 209.224 305.576 209.307L305.645 209.723L306.1 209.85C306.624 209.997 307.114 210.129 307.574 210.247C307.584 210.198 307.588 210.144 307.598 210.085L307.608 210.002L307.613 209.909L307.618 209.806C307.647 209.243 307.623 208.308 307.539 206.933L307.495 206.193C307.241 202.262 306.609 195.462 305.532 185.264L305.429 184.309C304.656 176.995 301.302 158.327 299.349 150.661L299.129 149.804C298.179 146.117 297.234 142.803 296.113 139.479L295.922 138.916L295.726 138.353L295.594 137.976C293.993 133.472 292.426 130.255 290.874 128.683L290.419 128.223L289.959 127.763L289.499 127.303C285.293 123.132 281.807 120.082 278.194 117.394C276.838 116.38 275.438 115.401 273.891 114.368L273.578 114.163C271.433 112.743 259.169 105.14 254.43 102.055C254.063 101.82 253.608 101.918 253.387 102.256ZM288.319 205.425C287.917 205.474 287.628 205.841 287.677 206.242L287.932 208.352H289.41L289.131 206.066C289.087 205.665 288.72 205.376 288.319 205.425ZM281.905 202.845H281.861C281.455 202.879 281.156 203.231 281.185 203.638L281.562 208.352H283.036L282.649 203.52C282.62 203.129 282.292 202.835 281.905 202.845ZM277 202.223H276.956C276.549 202.257 276.251 202.61 276.28 203.016L276.711 208.352H278.184L277.744 202.898C277.714 202.507 277.382 202.213 277 202.223ZM269.994 198.859H269.95C269.543 198.894 269.245 199.246 269.279 199.653L269.974 208.122C269.979 208.205 269.999 208.279 270.033 208.352H271.384C271.428 208.245 271.453 208.127 271.443 208.005L270.748 199.535C270.714 199.143 270.381 198.85 269.994 198.859ZM255.111 194.311H255.067C254.66 194.331 254.347 194.674 254.367 195.08L254.964 208.352H256.433L255.83 195.016C255.821 194.625 255.497 194.316 255.111 194.311ZM232.791 187.384C232.385 187.398 232.066 187.736 232.081 188.143L232.712 207.691C232.722 208 232.918 208.254 233.187 208.357H233.701C233.99 208.25 234.191 207.97 234.176 207.647L233.545 188.099C233.53 187.707 233.217 187.398 232.83 187.389H232.791V187.384ZM261.637 196.02C261.24 196.118 261 196.514 261.098 196.906L261.808 199.804L261.852 200.005C261.945 200.416 261.994 200.695 262.033 200.994L262.048 201.156L262.205 203.638L262.273 204.641C262.337 205.596 262.415 206.634 262.493 207.584C262.528 207.99 262.88 208.289 263.287 208.254C263.693 208.22 263.992 207.868 263.957 207.461L263.869 206.306L263.796 205.302C263.639 203.109 263.522 201.067 263.512 200.974L263.492 200.808C263.448 200.431 263.385 200.083 263.262 199.569L263.13 199.011L262.528 196.549C262.425 196.167 262.028 195.922 261.637 196.02ZM238.876 189.562C238.475 189.621 238.196 189.993 238.255 190.395L238.548 192.392L239.665 199.755L239.684 199.892L239.709 200.123L239.728 200.294L239.753 200.539C239.782 200.901 239.806 201.293 239.836 201.821L240.061 207.373C240.081 207.78 240.423 208.093 240.825 208.073C241.231 208.054 241.544 207.711 241.525 207.31L241.319 202.208L241.3 201.748L241.275 201.253L241.261 200.989C241.236 200.612 241.207 200.289 241.172 199.971L241.138 199.687L241.094 199.359L240.947 198.385C240.653 196.441 240.1 192.882 239.713 190.194C239.65 189.783 239.278 189.504 238.876 189.562ZM248.271 192.191H248.227C247.821 192.221 247.517 192.568 247.542 192.975L248.492 207.207C248.521 207.613 248.869 207.917 249.275 207.892C249.681 207.863 249.985 207.515 249.96 207.109L249.011 192.877C248.986 192.485 248.658 192.186 248.271 192.191ZM230.916 180.863C230.754 181.235 230.926 181.665 231.303 181.827L231.738 182.018L233.638 182.85L238.279 184.921C245.446 188.108 249.26 189.626 253.853 190.953L255.806 191.516C256.628 191.751 257.495 192 258.435 192.265L265.681 194.316L269.01 195.266C275.247 197.058 279.124 198.228 283.575 199.682L284.505 199.985L285.445 200.299C292.309 202.595 298.384 204.945 304.098 207.569C304.465 207.74 304.901 207.579 305.072 207.207C305.243 206.84 305.082 206.404 304.71 206.232C298.556 203.403 291.995 200.891 284.495 198.433L283.154 197.998C278.253 196.412 273.837 195.104 265.847 192.838L258.322 190.708L255.83 189.998L254.675 189.665L253.97 189.46L253.559 189.337C249.339 188.074 245.593 186.571 238.837 183.565L234.103 181.455L233.246 181.078L232.541 180.77L231.875 180.481C231.508 180.314 231.077 180.486 230.916 180.863ZM226.221 182.713H226.177C225.77 182.738 225.462 183.085 225.486 183.492L225.863 189.528L225.907 190.311L225.937 190.894L225.952 191.237C225.961 191.516 225.971 191.775 225.976 192.04L225.986 192.485L226.01 200.245L226.025 202.585C226.03 203.564 226.04 204.543 226.045 205.478C226.049 205.885 226.377 206.208 226.784 206.208C227.19 206.203 227.513 205.875 227.513 205.469L227.479 200.147C227.459 196.108 227.454 192.573 227.454 192.407L227.445 191.912L227.435 191.56L227.415 191.075C227.406 190.781 227.386 190.473 227.366 190.116L227.283 188.701L226.955 183.403C226.931 183.012 226.608 182.713 226.221 182.713ZM183.172 186.023C182.927 186.346 182.991 186.806 183.319 187.051L183.642 187.296L183.858 187.462L184.176 187.707C187.187 190.067 189.708 192.559 194.178 197.391L196.484 199.888L197.272 200.734C199.279 202.889 200.586 204.225 202.134 205.699C202.427 205.978 202.892 205.968 203.172 205.674C203.451 205.381 203.441 204.915 203.147 204.636L202.643 204.152L202.207 203.726L201.948 203.466C200.611 202.144 199.26 200.72 197.189 198.478L195.26 196.387C190.32 191.051 187.72 188.52 184.22 185.881C183.877 185.631 183.417 185.7 183.172 186.023ZM176.695 200.979C176.612 201.376 176.871 201.763 177.268 201.846C178.702 202.14 179.848 202.693 181.243 203.696L181.454 203.848L181.782 204.098L182.604 204.734C183.143 205.15 183.667 205.562 183.794 205.655C184.117 205.9 184.577 205.836 184.822 205.513C185.067 205.19 185.003 204.729 184.68 204.485L182.834 203.06L182.399 202.732L182.242 202.619C180.622 201.435 179.27 200.764 177.552 200.411C177.165 200.323 176.778 200.578 176.695 200.979ZM172.759 187.658C172.592 188.03 172.764 188.461 173.131 188.627C184.191 193.523 191.084 198.164 196.866 205.371C197.12 205.689 197.581 205.738 197.899 205.483C198.217 205.229 198.266 204.769 198.011 204.45C192.058 197.028 184.979 192.265 173.723 187.281C173.356 187.119 172.921 187.286 172.759 187.658ZM175.554 196.309C175.437 196.696 175.652 197.107 176.039 197.224C179.153 198.179 181.88 199.53 185.189 201.64L185.664 201.944L186.076 202.213L186.501 202.492C186.839 202.717 187.197 202.957 187.588 203.222L190.154 204.969C190.487 205.199 190.947 205.111 191.172 204.774C191.402 204.441 191.314 203.98 190.976 203.755L188.567 202.115L188.073 201.782L187.412 201.342L186.883 200.994C186.653 200.842 186.433 200.7 186.213 200.558L185.757 200.269C182.448 198.174 179.657 196.803 176.475 195.829C176.083 195.702 175.672 195.922 175.554 196.309ZM212.175 181.411C211.768 181.426 211.45 181.763 211.465 182.17L212.155 204.171C212.17 204.578 212.508 204.896 212.914 204.881C213.32 204.867 213.639 204.529 213.624 204.122L212.934 182.121C212.919 181.729 212.606 181.421 212.219 181.411H212.175ZM219.479 181.852C219.073 181.861 218.755 182.199 218.764 182.605L219.254 203.461C219.264 203.868 219.602 204.186 220.003 204.181C220.409 204.171 220.728 203.834 220.718 203.427L220.228 182.571C220.218 182.165 219.881 181.842 219.479 181.852ZM234.274 174.625C234.132 175.002 234.323 175.428 234.7 175.57L235.792 175.986C242.367 178.503 248.31 181.034 258.557 185.582L264.701 188.314L266.268 189.009L267.262 189.445L268.692 190.072C283.927 196.749 293.552 200.426 304.651 203.501C305.043 203.608 305.444 203.378 305.557 202.987C305.664 202.595 305.434 202.193 305.043 202.081C293.449 198.874 283.457 194.992 266.86 187.658L257.828 183.643L255.223 182.493L253.828 181.881C246.161 178.518 241.04 176.393 235.229 174.195C234.842 174.053 234.416 174.243 234.274 174.625ZM191.089 179.462C190.707 179.599 190.511 180.025 190.653 180.402L191.387 182.459L191.441 182.605C191.657 183.178 191.857 183.624 192.102 184.064C192.606 184.965 193.306 185.842 194.526 187.085L194.619 187.178C194.961 187.506 195.304 187.736 195.95 188.103L196.386 188.353L196.611 188.485C197.071 188.759 197.306 188.945 197.522 189.195L197.605 189.293L197.688 189.396L197.771 189.499C198.119 189.949 198.418 190.458 198.907 191.379L199.201 191.937L199.367 192.25L199.49 192.47C199.818 193.068 200.068 193.459 200.381 193.876L200.596 194.159L201.017 194.708L201.345 195.124C202.848 197.033 203.695 197.929 204.312 198.189L204.351 198.203L205.1 199.736C205.282 200.098 205.722 200.25 206.084 200.069C206.447 199.888 206.598 199.447 206.417 199.085L205.556 197.332L205.502 197.224C205.448 197.131 205.409 197.063 205.34 196.994C205.189 196.833 204.978 196.725 204.738 196.74H204.719L204.645 196.676L204.567 196.607L204.484 196.524L204.391 196.431L204.268 196.304L204.121 196.147L204.014 196.03C203.451 195.408 202.682 194.468 201.678 193.156L201.512 192.94C201.198 192.519 200.944 192.098 200.533 191.33L200.131 190.571L199.955 190.243L199.833 190.018C199.412 189.259 199.098 188.789 198.682 188.294L198.633 188.236C198.222 187.756 197.83 187.482 196.969 186.992L196.699 186.84L196.543 186.752L196.386 186.659C196.019 186.439 195.803 186.282 195.608 186.086L195.573 186.052C194.437 184.897 193.816 184.118 193.385 183.35C193.194 183.012 193.037 182.659 192.861 182.204L192.788 182.013L192.034 179.903C191.887 179.521 191.466 179.325 191.089 179.462ZM218.774 106.266L218.446 106.564L218.055 106.932L217.746 107.225L217.173 107.769L216.733 108.18L216.542 108.356C216.018 108.836 215.641 109.159 215.21 109.487L214.877 109.737L214.603 109.943L214.427 110.075C213.541 110.721 212.62 111.348 211.196 112.283L209.042 113.688L208.239 114.217L207.764 114.535C205.198 116.253 203.754 117.35 202.163 118.819C199.147 121.599 197.566 126.358 196.959 132.801L196.929 133.114L196.9 133.428L196.875 133.741C196.665 136.38 196.631 138.901 196.68 142.774L196.709 145.373V145.917V146.254C196.709 146.362 196.704 146.465 196.704 146.568L196.645 148.888L196.606 150.509L196.582 151.576C196.366 160.78 196.293 168.883 196.371 176.682C196.376 177.205 196.572 177.597 196.973 178.136L197.159 178.376C197.453 178.753 197.722 179.046 198.217 179.541L198.79 180.104L198.941 180.26C199.607 180.931 199.926 181.328 200.2 181.837L200.337 182.096L200.405 182.229L200.479 182.37C200.875 183.168 201.159 183.918 201.678 185.43L201.85 185.935C202.956 189.19 203.788 190.747 205.717 192.426C205.918 192.603 206.207 192.681 206.496 192.563C206.696 192.485 206.809 192.363 206.892 192.211C206.917 192.167 206.936 192.123 206.951 192.079L206.976 192.015L207.005 191.927L207.015 191.907C207.152 191.584 207.034 191.202 206.736 191.012L206.696 190.987C206.569 190.914 206.427 190.884 206.29 190.894L206.226 190.899L206.207 190.884C204.895 189.616 204.219 188.294 203.338 185.753L202.946 184.608L202.755 184.069L202.657 183.8C202.266 182.708 201.982 182.067 201.541 181.24L201.487 181.142C201.086 180.388 200.645 179.879 199.661 178.909L199.26 178.513L199.054 178.307C198.78 178.028 198.589 177.822 198.413 177.607L198.188 177.318L198.109 177.21C197.909 176.941 197.835 176.784 197.835 176.667L197.825 175.365L197.82 174.474L197.816 173.132C197.786 165.818 197.889 158.136 198.104 149.446L198.183 146.396L198.188 145.931L198.183 145.177C198.178 144.854 198.178 144.467 198.168 143.983L198.148 142.539L198.139 141.643L198.134 140.722C198.119 137.662 198.193 135.484 198.408 133.104L198.423 132.943C199 126.833 200.479 122.378 203.162 119.905L203.392 119.695L203.646 119.465L203.813 119.318C205.345 117.972 206.936 116.836 209.854 114.921L212.003 113.516L212.699 113.056L213.134 112.767C214.251 112.023 215.039 111.465 215.905 110.814L216.106 110.662L216.307 110.505L216.439 110.403L216.635 110.241C217.051 109.898 217.482 109.507 218.089 108.934L219.19 107.891L219.416 107.681L219.646 107.47C219.685 107.436 219.724 107.402 219.763 107.367C220.067 107.098 220.091 106.633 219.817 106.329C219.538 106.016 219.073 105.992 218.774 106.266ZM254.557 165.857C254.401 166.234 254.582 166.66 254.954 166.817L255.811 167.169L257.666 167.938L258.836 168.427C260.383 169.074 261.882 169.705 263.389 170.342L269.573 172.975C272.975 174.415 274.601 175.042 276.383 175.56L276.774 175.673L277.053 175.751L277.475 175.864C278.762 176.197 280.255 176.505 283.139 177.059L288.676 178.111L290.654 178.493C294.14 179.169 296.984 179.741 301.268 180.628C301.664 180.711 302.051 180.456 302.134 180.06C302.218 179.663 301.963 179.276 301.567 179.193L299.124 178.689L296.867 178.229L295.016 177.857C292.764 177.406 290.605 176.99 287.888 176.471L282.84 175.511L281.817 175.311C279.399 174.836 278.214 174.567 276.951 174.204L276.554 174.087L276.221 173.984L275.888 173.876C274.547 173.441 273.088 172.868 270.616 171.825L264.354 169.162L262.405 168.339L261.235 167.845L259.762 167.228C258.401 166.66 257 166.077 255.522 165.465C255.145 165.304 254.714 165.48 254.557 165.857ZM250.959 105.199C250.67 105.482 250.67 105.948 250.954 106.236L251.395 106.682L252.065 107.367L252.408 107.72C252.986 108.312 253.588 108.939 254.234 109.619L255.605 111.064L259.228 114.907C264.589 120.576 267.869 123.832 271.59 126.999L272.246 127.553L274.772 129.638C276.114 130.74 277.382 131.778 277.592 131.954C282.424 135.978 285.278 138.984 287.898 143.234C290.625 147.66 292.451 152.815 293.557 158.788C294.468 163.723 294.869 169 294.957 175.487C294.962 175.893 295.295 176.216 295.702 176.212C296.108 176.207 296.431 175.874 296.426 175.467C296.338 168.907 295.932 163.551 295.001 158.523C293.866 152.384 291.981 147.057 289.151 142.465C286.473 138.123 283.56 135.033 278.743 131.004L274.635 127.631L273.367 126.583L272.814 126.123L272.295 125.682L271.933 125.374L271.575 125.061C268.197 122.113 264.99 118.897 259.933 113.531L256.565 109.957L255.997 109.355C254.479 107.759 253.211 106.442 251.987 105.208C251.713 104.915 251.248 104.91 250.959 105.199ZM250.709 112.185C250.445 112.488 250.474 112.953 250.778 113.223L255.84 117.629L256.56 118.26L257.647 119.22L258.058 119.582C258.866 120.297 259.595 120.958 260.295 121.604L260.472 121.766C266.812 127.602 271.159 132.625 275.335 139.317C276.677 141.466 277.744 143.787 278.664 146.465L278.757 146.744C279.428 148.722 279.903 150.44 280.716 153.706L281.421 156.555L281.636 157.417L281.773 157.955C281.935 158.582 282.077 159.116 282.248 159.723C282.424 160.349 282.595 160.947 282.772 161.529L282.924 162.024L283.07 162.484L283.252 163.052C283.741 164.56 284.285 166.068 285.156 168.413L286.718 172.584L286.943 173.191L287.207 173.915C287.237 173.999 287.266 174.077 287.296 174.16C287.433 174.542 287.854 174.738 288.235 174.601C288.617 174.464 288.813 174.043 288.676 173.661L288.407 172.917L288.157 172.241L287.937 171.649L286.478 167.752L286.042 166.577L285.832 166.004C285.224 164.339 284.808 163.12 284.392 161.798L284.26 161.382C284.084 160.819 283.917 160.242 283.746 159.635L283.516 158.807L283.335 158.127C283.11 157.285 282.875 156.35 282.493 154.802L282.047 153.001L281.744 151.801C281.181 149.598 280.769 148.149 280.25 146.592L280.143 146.274C279.164 143.376 278.023 140.869 276.574 138.539C272.378 131.817 268.011 126.745 261.715 120.924L261.461 120.689C260.153 119.484 258.758 118.241 256.991 116.694L251.742 112.126C251.439 111.847 250.974 111.876 250.709 112.185ZM249.118 114.452C248.771 114.657 248.653 115.108 248.854 115.455L251.292 119.631L252.619 121.913C253.059 122.681 253.441 123.337 253.76 123.895L254.225 124.713L254.479 125.163L254.548 125.291L254.597 125.384L254.646 125.472L254.68 125.526L254.714 125.575C254.729 125.589 254.739 125.604 254.807 125.668L254.846 125.697L254.9 125.731L254.983 125.775L255.116 125.819L255.321 125.839L255.336 125.834L255.62 126.226L256.065 126.848L256.452 127.396C256.721 127.783 257.02 128.213 257.343 128.688L258.073 129.761C258.454 130.319 258.856 130.989 259.277 131.763C259.948 132.997 260.653 134.465 261.426 136.208L261.666 136.757L262.009 137.56L264.32 143.067C264.716 144.007 265.034 144.747 265.171 145.035L265.294 145.285L265.382 145.466C265.774 146.245 266.18 146.964 266.856 148.1L267.874 149.799L268.178 150.313C268.951 151.62 269.382 152.433 269.818 153.388L270.048 153.897L270.244 154.337L270.444 154.793C271.712 157.706 272.525 159.963 273.186 162.288L273.23 162.45C273.435 163.184 273.631 163.943 273.842 164.814L273.999 165.465L275.301 171.169C275.394 171.566 275.785 171.81 276.182 171.717C276.579 171.624 276.823 171.233 276.73 170.836L275.394 164.976L275.271 164.472L275.164 164.036C274.988 163.326 274.821 162.685 274.645 162.058L274.552 161.72C273.798 159.091 272.843 156.54 271.296 153.079L271.198 152.859C270.669 151.679 270.16 150.749 269.132 149.03L268.129 147.356L267.913 146.989L267.688 146.607C267.218 145.799 266.9 145.212 266.577 144.556L266.479 144.355L266.4 144.183L266.239 143.821C265.47 142.054 263.546 137.383 262.959 136.052L262.763 135.601L262.567 135.165C261.857 133.584 261.196 132.223 260.565 131.058C260.124 130.24 259.698 129.53 259.287 128.928L258.557 127.861L258.097 127.19C256.721 125.203 255.914 124.111 255.551 123.739C255.478 123.665 255.414 123.607 255.341 123.553C255.316 123.533 255.287 123.518 255.262 123.504L255.228 123.484L254.097 121.511L253.221 119.998C252.531 118.804 251.713 117.409 250.768 115.788L250.132 114.701C249.921 114.363 249.471 114.246 249.118 114.452ZM246.44 116.611C246.063 116.723 245.843 117.105 245.931 117.482L247.459 122.789L248.1 124.992L248.369 125.903C248.394 125.981 248.413 126.054 248.438 126.128L248.536 126.451C249.588 129.893 250.543 132.62 251.503 134.784C253.128 138.46 254.797 141.559 257.167 145.466L257.573 146.137L261.245 152.066C262.699 154.44 263.923 156.531 265.147 158.748L265.416 159.238L265.607 159.59C266.43 161.133 267.11 162.606 268.378 165.485L269.093 167.105L269.382 167.752L269.666 168.378C269.803 168.677 269.93 168.956 270.067 169.255C270.239 169.622 270.674 169.783 271.041 169.612C271.409 169.441 271.57 169.005 271.399 168.638L271.056 167.899L270.733 167.184L270.028 165.598L269.318 163.992L268.902 163.062L268.598 162.386C267.889 160.819 267.36 159.747 266.723 158.577L266.616 158.376C265.446 156.242 264.281 154.239 262.934 152.022L262.263 150.92L258.91 145.505L258.768 145.275C256.247 141.148 254.528 137.985 252.854 134.201C251.968 132.199 251.072 129.668 250.088 126.495L249.862 125.766C249.588 124.86 249.162 123.401 248.736 121.937L247.351 117.125C247.238 116.718 246.827 116.498 246.44 116.611ZM242.259 120.635C241.877 120.767 241.672 121.188 241.809 121.57L243.454 126.275L244.996 130.661L245.843 133.051C246.705 135.489 247.503 137.716 248.242 139.772L249.559 143.41L249.716 143.836L252.751 152.1L253.006 152.805C253.72 154.832 254.131 156.31 256.716 165.554C256.824 165.945 257.231 166.17 257.622 166.063C258.014 165.955 258.239 165.549 258.131 165.157L256.442 159.13C255.248 154.886 254.9 153.745 254.342 152.178L253.755 150.558L251.219 143.655L250.416 141.452L249.456 138.788L248.536 136.218C247.013 131.949 245.26 126.985 243.204 121.08C243.057 120.703 242.641 120.503 242.259 120.635ZM235.415 118.882C235.028 119 234.808 119.411 234.93 119.798L236.027 123.386L236.037 123.421L236.027 123.45C236.002 123.528 235.983 123.616 235.973 123.724L235.968 123.793L235.963 123.871V123.949V124.033C235.998 125.491 236.835 130.015 238.974 139.689L239.483 141.966L239.758 143.17C240.34 145.706 240.952 148.144 241.956 151.958L243.821 159.027L244.144 160.271L244.438 161.412C244.502 161.661 244.565 161.916 244.634 162.175C244.732 162.567 245.133 162.807 245.525 162.704C245.916 162.606 246.156 162.205 246.053 161.813L245.549 159.845L245.025 157.852L243.606 152.477L243.106 150.582L242.768 149.29C241.966 146.186 241.442 144.032 240.893 141.579L240.409 139.41L239.973 137.432L239.601 135.728C238.029 128.468 237.417 124.973 237.417 123.988V123.91L237.427 123.886C237.53 123.685 237.53 123.494 237.481 123.239L237.437 123.019C237.393 122.858 237.217 122.285 236.321 119.372C236.213 118.98 235.802 118.765 235.415 118.882ZM229.476 124.635C229.085 124.733 228.845 125.129 228.943 125.526L230.181 130.505L230.534 131.944C231.068 134.147 231.185 134.833 231.322 135.929L231.445 136.943C231.552 137.878 231.978 141.682 232.223 143.728L232.419 145.324L232.634 147.038L232.776 148.159C233.217 151.581 233.751 155.542 234.416 160.261C234.475 160.663 234.842 160.942 235.244 160.888C235.645 160.834 235.924 160.462 235.87 160.06L235.454 157.079L235.048 154.127L234.744 151.885C234.411 149.397 234.127 147.175 233.878 145.153L233.604 142.901L233.173 139.17C233.016 137.809 232.894 136.708 232.879 136.571L232.761 135.621C232.536 133.849 232.321 133.006 230.363 125.178C230.265 124.772 229.868 124.532 229.476 124.635ZM224.811 119.24C224.419 119.254 224.111 119.572 224.106 119.959V119.993L224.36 126.475L224.541 131.415C224.576 132.443 224.605 133.276 224.61 133.736L224.615 133.976C224.625 135.332 224.424 144.942 224.36 149.226C224.356 149.633 224.679 149.965 225.085 149.97C225.491 149.975 225.824 149.652 225.829 149.246L226.049 136.761C226.069 135.606 226.079 134.695 226.084 134.201V133.961C226.079 133.124 225.942 129.344 225.81 125.913L225.575 119.945C225.56 119.538 225.217 119.225 224.811 119.24ZM216.346 113.428C215.078 115.161 213.859 116.63 212.473 118.143L212.185 118.461L211.357 119.337L209.502 121.301C209.355 121.457 209.223 121.599 209.115 121.717L208.89 121.962C205.58 125.629 203.989 129.046 202.736 136.164C202.667 136.566 202.932 136.943 203.333 137.016C203.735 137.09 204.112 136.82 204.185 136.419L204.258 136.012L204.332 135.626L204.405 135.239C205.551 129.315 206.99 126.324 209.805 123.151L209.991 122.946C210.54 122.339 212.806 119.964 213.35 119.377C214.858 117.741 216.175 116.165 217.545 114.295C217.785 113.967 217.717 113.507 217.389 113.267C217.041 113.027 216.586 113.1 216.346 113.428ZM219.425 116.101L218.324 135.156C218.299 135.562 218.608 135.91 219.014 135.929C219.42 135.954 219.768 135.645 219.788 135.239L220.889 116.185C220.914 115.778 220.605 115.431 220.199 115.411C219.793 115.387 219.445 115.695 219.425 116.101ZM215.377 120.351L211.205 134.617C211.093 135.009 211.313 135.415 211.705 135.528C212.096 135.64 212.503 135.42 212.615 135.028L216.787 120.762C216.899 120.371 216.679 119.964 216.287 119.852C215.901 119.739 215.494 119.959 215.377 120.351Z" fill="#5463AC"/>
<path opacity="0.5" fill-rule="evenodd" clip-rule="evenodd" d="M241.216 114.961L229.799 122.045L222.612 113.737L227.591 110.163L230.538 114.961L235.625 110.163L237.221 109.551L241.216 114.961Z" fill="#21396E"/>
<path opacity="0.5" fill-rule="evenodd" clip-rule="evenodd" d="M203.935 170.807C202.54 191.751 196.905 203.109 187.025 204.881H208.18L206.877 179.418L203.935 170.807Z" fill="#21396E"/>
<path opacity="0.5" fill-rule="evenodd" clip-rule="evenodd" d="M222.162 179.418C220.85 185.93 223.749 190.184 230.857 192.191C241.525 195.202 252.864 208.612 267.952 208.612C278.013 208.612 288.931 208.602 300.705 208.578C292.436 206.11 283.59 203.266 274.175 200.044C264.76 196.823 250.729 191.839 232.086 185.093C230.774 184.221 230.064 183.325 229.966 182.4C229.863 181.475 229.814 181.014 229.814 181.014C227.895 180.412 226.456 180.011 225.496 179.81C224.537 179.609 223.421 179.477 222.162 179.418Z" fill="#21396E"/>
<path opacity="0.5" fill-rule="evenodd" clip-rule="evenodd" d="M266.782 134.602L265.255 167.977L281.186 172.339L266.782 134.602Z" fill="#21396E"/>
<path fill-rule="evenodd" clip-rule="evenodd" d="M223.631 143.248H201.845L204.488 177.69C204.547 178.469 205.066 179.134 205.8 179.394C207.24 179.888 209.551 180.138 212.738 180.138H213.095C216.096 180.118 218.29 179.874 219.675 179.394C220.414 179.139 220.928 178.469 220.987 177.69L223.631 143.248Z" fill="#E2E0E0"/>
<path fill-rule="evenodd" clip-rule="evenodd" d="M201.844 143.248L204.488 177.69C204.547 178.469 205.066 179.134 205.8 179.394C207.24 179.888 209.55 180.138 212.738 180.138C215.053 180.138 215.352 167.874 213.628 143.341L201.844 143.248Z" fill="white"/>
<path fill-rule="evenodd" clip-rule="evenodd" d="M223.102 139.577H202.539C201.727 139.577 201.071 140.233 201.071 141.045V143.248H224.57V141.045C224.57 140.237 223.914 139.577 223.102 139.577Z" fill="#80424C"/>
<path fill-rule="evenodd" clip-rule="evenodd" d="M220.693 135.905H205.027C204.214 135.905 203.558 136.561 203.558 137.373V139.577H222.162V137.373C222.162 136.566 221.501 135.905 220.693 135.905Z" fill="#80424C"/>
<path fill-rule="evenodd" clip-rule="evenodd" d="M210.901 139.577H202.579C201.766 139.577 201.11 140.233 201.11 141.045V143.248H212.37V141.045C212.37 140.237 211.709 139.577 210.901 139.577Z" fill="#8E545E"/>
<path fill-rule="evenodd" clip-rule="evenodd" d="M208.454 135.905H205.027C204.214 135.905 203.558 136.561 203.558 137.373V139.577H209.923V137.373C209.923 136.566 209.262 135.905 208.454 135.905Z" fill="#8E545E"/>
<path d="M203.558 139.087C203.289 139.087 203.069 139.307 203.069 139.577C203.069 139.836 203.269 140.047 203.524 140.066H203.558H217.673C217.942 140.066 218.162 139.846 218.162 139.577C218.162 139.317 217.961 139.107 217.707 139.087H217.673H203.558Z" fill="#5F2932"/>
<path d="M201.154 142.636C200.885 142.636 200.665 142.857 200.665 143.126C200.665 143.385 200.866 143.596 201.12 143.616H201.154H221.633C221.903 143.616 222.123 143.395 222.123 143.126C222.123 142.867 221.922 142.656 221.668 142.636H221.633H201.154Z" fill="#5F2932"/>
<path fill-rule="evenodd" clip-rule="evenodd" d="M224.707 92.4157C225.035 94.5355 225.202 96.4106 225.202 98.0458L225.985 106.604L230.156 114.809L238.934 111.46L253.029 98.6529L255.624 92.9395C250.19 83.143 246.954 74.5216 245.916 67.0752L231.503 64.4706L222.568 82.1003L224.707 92.4157Z" fill="#FDB4A3"/>
<path fill-rule="evenodd" clip-rule="evenodd" d="M244.971 69.7091C244.751 81.2533 242.494 88.0144 238.206 89.9824C231.777 92.9395 219.832 97.0764 217.599 92.9395C215.362 88.8025 210.569 78.9621 208.733 73.3221C207.509 69.5622 205.957 64.7154 204.082 58.7817C201.556 51.2863 204.503 46.4395 212.924 44.2462C221.344 42.0529 232.34 40.9709 245.916 41.0003L242.577 60.5735C244.222 58.3558 246.396 57.2494 249.099 57.2494C253.152 57.2494 255.38 67.3493 251.218 68.5292C248.443 69.3174 246.362 69.7091 244.971 69.7091Z" fill="#FDB4A3"/>
<path d="M225.942 81.0134C225.726 80.847 225.418 80.8911 225.256 81.1065C223.215 83.7698 220.718 84.8468 217.697 84.3768C217.428 84.3328 217.178 84.5188 217.139 84.7832C217.095 85.0525 217.281 85.3022 217.545 85.3413C220.928 85.8701 223.778 84.6412 226.03 81.6989C226.196 81.4834 226.157 81.175 225.942 81.0134Z" fill="#583E40"/>
<path fill-rule="evenodd" clip-rule="evenodd" d="M246.087 69.5427C244.388 70.3456 243.737 72.108 244.134 74.8301L244.153 74.9525C244.809 79.1432 242.719 85.2433 241.431 87.6129C240.574 89.1942 235.126 91.3729 225.099 94.1586L230.798 94.9811C233.539 95.3776 235.439 97.9185 235.047 100.66C235.023 100.846 234.983 101.027 234.935 101.208L234.895 101.346C233.848 104.944 230.23 106.599 230.156 114.564V114.809L238.934 111.46L253.029 98.6529L255.624 92.9395C250.836 84.3083 247.757 76.5926 246.381 69.7875L246.087 69.5427Z" fill="#F69883"/>
<path fill-rule="evenodd" clip-rule="evenodd" d="M240.07 112.415L229.745 122.045L223.484 111.318L227.924 108.121L230.553 112.415L235.086 108.121L236.511 107.573L240.07 112.415Z" fill="#D8D8D8"/>
<path fill-rule="evenodd" clip-rule="evenodd" d="M201.639 147.958C200.19 148.536 200.063 149.236 200.063 149.867C200.063 150.504 202.359 152.12 203.778 152.521C205.198 152.922 212.14 159.845 212.14 159.845L211.852 159.679C207.157 156.976 204.327 155.723 203.367 155.914C201.898 156.208 200.924 158.513 202.163 159.605L202.256 159.688C202.843 160.188 203.886 160.927 205.374 161.901L205.443 161.945L205.404 161.926C203.867 161.069 202.868 160.814 202.408 161.157C201.399 161.911 200.763 163.321 200.763 163.982C200.763 164.423 201.414 165.069 202.711 165.916C201.487 167.208 201.708 168.564 203.367 169.979L203.524 170.112C206.197 172.324 214.5 177.607 216.238 178.38C217.785 179.066 224.111 179.095 229.814 181.014C228.952 176.471 230.074 170.572 233.168 163.311L233.368 162.841C233.53 162.474 233.741 162.141 233.99 161.847L233.76 161.774C231.807 161.128 230.739 160.619 230.553 160.242C230.181 159.497 229.09 153.231 228.424 152.927L228.39 152.908C227.89 152.653 226.162 151.341 223.2 148.972L222.505 158.254L218.671 155.958C214.192 153.27 211.421 151.561 210.353 150.842L210.236 150.763C208.405 149.515 203.088 147.38 201.639 147.958ZM205.487 161.975C206.163 162.352 206.941 162.851 207.817 163.458L207.23 163.091C206.598 162.69 206.016 162.317 205.487 161.975Z" fill="#FDB4A3"/>
<path d="M266.987 133.804C266.894 133.55 266.61 133.423 266.356 133.516C266.116 133.604 265.988 133.868 266.057 134.108L266.067 134.142L280.123 171.732L280.069 171.722C276.588 171.027 263.237 167.355 240.384 160.8L238.171 160.163C236.046 159.551 233.794 160.614 232.913 162.641C229.251 171.066 228.174 177.744 229.721 182.689C230.196 184.206 231.346 185.42 232.839 185.974C279.574 203.315 300.636 210.061 306.374 210.061C306.643 210.061 306.863 209.841 306.863 209.571C306.863 209.302 306.643 209.082 306.374 209.082C300.812 209.082 279.731 202.33 233.177 185.058C231.968 184.608 231.038 183.629 230.651 182.4C229.187 177.724 230.23 171.267 233.809 163.037C234.494 161.461 236.242 160.633 237.897 161.108L242.665 162.474C266.831 169.397 279.413 172.809 280.862 172.824C281.195 172.829 281.43 172.51 281.337 172.197L281.327 172.163L266.987 133.804Z" fill="#21396E"/>
<path d="M280.984 171.859C280.72 171.796 280.456 171.962 280.397 172.226C280.338 172.476 280.485 172.731 280.725 172.804L280.759 172.814L299.481 177.186C299.745 177.25 300.009 177.083 300.068 176.819C300.127 176.569 299.98 176.314 299.74 176.241L299.706 176.231L280.984 171.859Z" fill="#21396E"/>
<path d="M206.853 181.558C206.594 181.572 206.398 181.783 206.393 182.038V182.072L207.866 208.377C207.881 208.646 208.111 208.852 208.381 208.837C208.64 208.822 208.836 208.612 208.841 208.357V208.323L207.367 182.018C207.353 181.759 207.142 181.563 206.887 181.558H206.853Z" fill="#21396E"/>
<path fill-rule="evenodd" clip-rule="evenodd" d="M235.087 108.043C239.341 111.166 241.285 115.259 240.928 120.326C251.586 109.761 257.617 102.663 259.032 99.0397C257.798 95.3091 256.668 93.2773 255.625 92.9444L235.087 108.043Z" fill="white"/>
<path fill-rule="evenodd" clip-rule="evenodd" d="M227.924 108.121C224.844 111.225 223.307 114.647 223.307 118.397C221.53 115.225 221.055 109.526 221.892 101.306L225.148 97.8989L226.391 101.306L227.924 108.121Z" fill="white"/>
<path d="M214.436 67.9026H214.402C214.133 67.927 213.932 68.162 213.957 68.4313C214.196 71.2953 214.211 73.4788 214.084 75.9757L214.045 76.7296C214.025 77.0331 214.001 77.5227 213.991 77.6794L213.976 77.9633C213.966 78.1689 213.961 78.3501 213.957 78.5116V78.6487V78.918L214.182 79.0649C216.429 80.5042 218.539 80.2644 220.355 78.3599C220.541 78.1641 220.536 77.8556 220.341 77.6696C220.145 77.4835 219.836 77.4885 219.65 77.6843C218.25 79.153 216.762 79.3978 215.048 78.4382L214.945 78.3794L214.95 78.1739C214.95 78.12 214.955 78.0661 214.955 78.0123L215.038 76.5582C215.195 73.7921 215.195 71.4666 214.936 68.3529C214.906 68.0935 214.691 67.8977 214.436 67.9026Z" fill="#2E363A"/>
<path fill-rule="evenodd" clip-rule="evenodd" d="M226.225 59.4573L225.824 59.2321L225.427 59.0118C221.481 56.8479 219.117 56.0645 218.333 56.6618C216.963 57.7144 218.407 60.4316 221.506 60.7155C222.965 60.8477 224.394 60.8036 225.799 60.5833L226.034 60.5442C226.353 60.4903 226.568 60.1868 226.514 59.8637C226.485 59.6923 226.377 59.5406 226.225 59.4573Z" fill="#2E363A"/>
<path fill-rule="evenodd" clip-rule="evenodd" d="M203.514 63.3397L203.783 63.0558L203.979 62.8501C206.696 60.0302 208.458 58.7572 209.271 59.0363C210.681 59.521 210.211 62.0766 207.734 63.1145C206.569 63.6041 205.379 63.9419 204.16 64.1328L203.959 64.1622C203.68 64.2014 203.426 64.0153 203.381 63.7412C203.362 63.5992 203.411 63.4523 203.514 63.3397Z" fill="#2E363A"/>
<path fill-rule="evenodd" clip-rule="evenodd" d="M251.379 84.7146C251.482 79.7014 253.308 73.5963 256.858 66.3995C262.184 55.6044 261.161 36.7165 246.459 33.4755C242.645 25.6129 235.83 23.1259 226.019 26.0144L225.437 26.1857C215.993 28.9861 210.793 30.9787 209.839 32.1635L209.672 31.6739C208.957 29.5834 208.595 28.3496 208.595 27.9678C208.595 27.3509 200.684 33.1328 199.504 37.0641L198.314 35.38C192.297 41.8081 193.007 49.7736 200.449 59.2762L205.824 64.2797L204.101 58.7132L204.179 58.6447C204.909 58.0082 206.084 56.5591 207.699 54.3021C210.103 54.2581 212.061 53.8076 213.574 52.9411L214.117 52.8627C218.279 52.2655 220.986 51.5458 222.245 50.7086C225.887 56.2604 229.965 59.0069 234.484 58.9384L236.746 65.8659C237.426 67.9564 239.502 69.2587 241.671 68.9796L241.759 68.9698L242.572 60.5687C245.127 57.8466 247.781 57.2298 250.537 58.7083C254.669 60.931 254.669 69.5328 246.087 69.5328L247.707 76.431L251.379 84.7146Z" fill="#2E363A"/>
<path fill-rule="evenodd" clip-rule="evenodd" d="M220.972 67.9074C220.307 68.0249 219.626 67.3102 219.45 66.3115C219.274 65.3127 219.67 64.407 220.336 64.2895C221.002 64.172 221.682 64.8868 221.859 65.8855C222.035 66.8892 221.638 67.7899 220.972 67.9074Z" fill="#2E363A"/>
<path fill-rule="evenodd" clip-rule="evenodd" d="M209.957 69.8657C209.291 69.9832 208.61 69.2684 208.434 68.2697C208.258 67.271 208.655 66.3652 209.32 66.2477C209.986 66.1302 210.667 66.845 210.843 67.8438C211.019 68.8474 210.623 69.7482 209.957 69.8657Z" fill="#2E363A"/>
<path fill-rule="evenodd" clip-rule="evenodd" d="M148.05 141.535H56.421C55.0698 141.535 53.9731 142.632 53.9731 143.983C53.9731 144.296 54.0318 144.609 54.1542 144.903L81.3698 212.127H180.754L153.719 145.363C152.784 143.048 150.542 141.535 148.05 141.535Z" fill="#B6D4E5"/>
<path fill-rule="evenodd" clip-rule="evenodd" d="M227.264 205.028H170.718V212.127H221.144C224.522 212.127 227.264 209.386 227.264 206.007V205.028Z" fill="#B6D4E5"/>
<path d="M249.446 61.6458C248.246 60.4463 246.303 60.4463 245.103 61.6458C244.912 61.8367 244.912 62.1451 245.103 62.3361C245.294 62.527 245.603 62.527 245.794 62.3361C246.611 61.5185 247.933 61.5185 248.75 62.3361C249.568 63.1537 249.568 64.4755 248.75 65.2931C248.56 65.484 248.56 65.7925 248.75 65.9834C248.941 66.1743 249.25 66.1743 249.441 65.9834C250.645 64.7888 250.645 62.8452 249.446 61.6458Z" fill="#583E40"/>
<path fill-rule="evenodd" clip-rule="evenodd" d="M142.909 141.618H51.2796C49.9283 141.618 48.8317 142.715 48.8317 144.066C48.8317 144.379 48.8904 144.693 49.0128 144.986L74.1232 207.011C75.3961 210.154 78.4462 212.21 81.8389 212.21H171.98C173.331 212.21 174.428 211.114 174.428 209.762C174.428 209.449 174.369 209.136 174.247 208.842L148.578 145.442C147.643 143.131 145.401 141.618 142.909 141.618Z" fill="#E9F0F6"/>
<path d="M193.575 133.486C193.306 133.472 193.076 133.682 193.066 133.951L193.042 134.514C192.675 143.395 193.15 154.856 194.467 168.897L194.613 170.415L194.535 170.469C192.665 171.796 191.71 173.113 191.744 174.449L191.749 174.523C191.882 177.161 194.021 180.98 198.06 184.647C198.261 184.828 198.569 184.813 198.75 184.613C198.931 184.412 198.917 184.104 198.716 183.922C194.858 180.417 192.846 176.828 192.728 174.474C192.68 173.46 193.541 172.31 195.406 171.061C195.558 170.958 195.637 170.787 195.622 170.606L195.49 169.255C194.119 154.753 193.639 142.999 194.05 133.995C194.055 133.731 193.845 133.501 193.575 133.486Z" fill="#21396E"/>
<path d="M192.91 176.682C191.49 176.633 190.31 176.731 189.365 176.99C187.798 177.416 187.186 179.056 187.186 182.047C187.186 182.88 187.656 183.717 188.533 184.672C188.944 185.117 189.399 185.553 190.065 186.135L190.946 186.909C192.792 188.529 193.282 189.087 193.203 189.494L193.194 189.528C193.12 189.788 193.272 190.057 193.536 190.13C193.796 190.204 194.065 190.052 194.138 189.788C194.32 189.141 193.982 188.485 193.238 187.687C192.963 187.394 192.631 187.075 192.195 186.689L191.896 186.424L191.005 185.651C190.202 184.951 189.688 184.476 189.253 184.001C188.528 183.213 188.166 182.561 188.166 182.042C188.166 179.453 188.636 178.199 189.62 177.93C190.457 177.7 191.544 177.612 192.875 177.656C193.145 177.666 193.375 177.455 193.38 177.186C193.394 176.917 193.184 176.691 192.91 176.682Z" fill="#21396E"/>
<path d="M187.505 181.954C187.456 181.69 187.197 181.514 186.932 181.568L186.354 181.675C181.278 182.635 177.053 183.315 173.679 183.712C173.41 183.741 173.219 183.986 173.248 184.255C173.278 184.525 173.523 184.716 173.792 184.686C177.317 184.27 181.757 183.55 187.113 182.532C187.383 182.473 187.559 182.219 187.505 181.954Z" fill="#21396E"/>
<path d="M244.208 74.4678C243.938 74.4384 243.699 74.6342 243.669 74.9035L243.615 75.3931C242.729 83.3144 241.285 87.9066 239.425 89.0865C237.398 90.3692 234.152 91.5148 229.697 92.5087C229.432 92.5674 229.266 92.8269 229.325 93.0913C229.383 93.3557 229.643 93.5221 229.907 93.4634C234.465 92.445 237.809 91.2652 239.948 89.9139C242.21 88.4795 243.728 83.5445 244.643 75.0112C244.668 74.737 244.477 74.4971 244.208 74.4678Z" fill="#583E40"/>
<path fill-rule="evenodd" clip-rule="evenodd" d="M113.432 183.722C109.706 183.722 106.142 180.706 105.466 176.99C104.791 173.274 107.263 170.258 110.989 170.258C114.714 170.258 118.279 173.274 118.954 176.99C119.63 180.706 117.157 183.722 113.432 183.722Z" fill="#B6D4E5"/>
<path fill-rule="evenodd" clip-rule="evenodd" d="M220.096 162.665L219.788 162.871C216.649 165.005 215.391 166.792 215.391 170.802C215.391 173.558 213.81 175.374 214.632 177.514L215.073 177.768C215.572 178.052 215.974 178.263 216.228 178.38C217.775 179.066 224.101 179.095 229.804 181.014C228.943 176.471 230.064 170.572 233.158 163.311L233.359 162.841C233.52 162.474 233.731 162.141 233.98 161.847L233.75 161.774L233.422 161.661C231.68 161.069 230.72 160.594 230.544 160.242C230.172 159.497 229.08 153.231 228.414 152.927L228.38 152.908L228.336 152.883C227.787 152.58 226.069 151.277 223.185 148.972L222.49 158.254C223.014 159.752 222.216 161.226 220.096 162.665Z" fill="#F69883"/>
<path d="M214.657 152.962C214.427 152.82 214.123 152.888 213.981 153.118C213.844 153.339 213.903 153.618 214.109 153.769L214.143 153.794L224.316 160.1C224.546 160.242 224.85 160.173 224.992 159.943C225.129 159.723 225.07 159.444 224.87 159.292L224.835 159.267L214.657 152.962Z" fill="#583E40"/>
<path d="M205.325 161.275C205.095 161.138 204.791 161.211 204.654 161.446C204.522 161.666 204.586 161.95 204.791 162.097L204.825 162.117L210.363 165.416C210.593 165.553 210.896 165.48 211.033 165.245C211.166 165.025 211.102 164.741 210.896 164.594L210.862 164.574L205.325 161.275Z" fill="#583E40"/>
<path d="M202.951 165.661C202.711 165.534 202.418 165.622 202.285 165.857C202.163 166.082 202.236 166.361 202.447 166.503L202.481 166.523L207.201 169.083C207.441 169.211 207.734 169.123 207.866 168.888C207.989 168.662 207.915 168.383 207.705 168.241L207.671 168.222L202.951 165.661Z" fill="#583E40"/>
<path d="M205.658 156.09C205.413 155.973 205.124 156.07 205.002 156.315C204.889 156.545 204.978 156.824 205.193 156.952L205.227 156.971L214.186 161.333C214.431 161.451 214.725 161.353 214.842 161.108C214.955 160.878 214.867 160.599 214.652 160.472L214.617 160.452L205.658 156.09Z" fill="#583E40"/>
<path d="M255.776 92.4793C255.522 92.3961 255.243 92.5331 255.155 92.7877C255.066 93.0423 255.208 93.3214 255.463 93.4095C257.015 93.9284 258.048 95.4314 258.542 97.9919C258.591 98.2563 258.851 98.4326 259.115 98.3787C259.38 98.3249 259.556 98.0702 259.502 97.8059C258.954 94.9272 257.715 93.1255 255.776 92.4793Z" fill="#D8D8D8"/>
<path d="M134.855 147.493C137.475 147.493 140.358 149.353 141.288 151.645L141.313 151.703C142.018 153.505 141.303 155.057 139.614 155.596L139.594 155.6L139.604 155.605C141.655 157.084 143.237 158.969 144.054 160.966C144.079 161.03 144.103 161.093 144.128 161.157L144.157 161.24L144.192 161.333L144.221 161.417L144.245 161.485L144.289 161.612L144.334 161.75L144.373 161.877L144.407 162.014L144.431 162.112L144.461 162.229L144.48 162.317L144.5 162.401C144.828 163.987 144.583 165.431 143.824 166.587L143.81 166.611H143.829C146.336 166.782 148.98 168.569 149.871 170.748C150.806 173.039 149.44 174.9 146.821 174.9C144.201 174.9 141.318 173.039 140.388 170.748L140.358 170.674C140.128 170.082 140.05 169.509 140.113 168.981L140.04 168.995C139.408 169.137 138.723 169.206 138.003 169.206H137.905C136.446 169.191 134.914 168.888 133.416 168.329L133.338 168.3L133.347 168.32C133.489 168.555 133.612 168.795 133.71 169.034C134.645 171.326 133.279 173.186 130.66 173.186C128.04 173.186 125.157 171.326 124.227 169.034C123.296 166.743 124.657 164.883 127.277 164.883H127.365C127.575 164.888 127.786 164.902 128.001 164.927L127.942 164.873C126.723 163.683 125.783 162.347 125.22 160.956L125.171 160.839C125.093 160.638 125.025 160.442 124.961 160.247L124.932 160.149L124.873 160.168C124.486 160.281 124.06 160.335 123.6 160.335C120.981 160.335 118.097 158.474 117.167 156.183C116.232 153.892 117.598 152.031 120.217 152.031H120.285C122.312 152.056 124.525 153.192 125.832 154.817L125.842 154.832L125.881 154.788L125.93 154.734L126.033 154.626L126.116 154.543L126.209 154.455L126.288 154.386L126.371 154.313L126.454 154.239L126.532 154.176L126.64 154.093L126.718 154.034L126.807 153.97L126.875 153.921L126.919 153.892L127.002 153.838L127.105 153.774L127.213 153.711L127.237 153.696L127.345 153.632L127.419 153.593L127.536 153.53L127.668 153.461L127.747 153.422L127.859 153.373C127.903 153.353 127.952 153.334 127.996 153.314L128.124 153.265L128.251 153.216L128.363 153.177L128.452 153.148L128.589 153.104L128.731 153.06L128.789 153.04L128.912 153.006L129.049 152.971L129.108 152.957L129.259 152.922L129.401 152.893L129.538 152.869L129.671 152.844L129.827 152.82L129.95 152.8L130.077 152.785L130.165 152.776L130.234 152.771L130.361 152.756L130.449 152.746L130.542 152.736L130.694 152.727L130.811 152.722L130.904 152.717H130.978L131.11 152.712H131.218H131.291H131.433L131.565 152.717C131.835 152.722 132.104 152.741 132.378 152.766L132.481 152.776C132.212 152.408 131.991 152.027 131.835 151.635C130.87 149.353 132.236 147.493 134.855 147.493Z" fill="#B6D4E5"/>
<path d="M134.513 147.493C132.045 147.493 130.762 149.221 131.644 151.351C131.844 151.836 132.143 152.306 132.52 152.746C132.667 152.918 132.574 153.099 132.349 153.064C131.844 152.996 131.35 152.957 130.856 152.952H130.714H130.64H130.532L130.4 152.957H130.327L130.234 152.962L130.116 152.967L129.964 152.976L129.871 152.981L129.783 152.991L129.651 153.006L129.587 153.011L129.499 153.02L129.367 153.035L129.245 153.055L129.088 153.079L128.956 153.104L128.819 153.128L128.677 153.157L128.525 153.192L128.471 153.206L128.334 153.241L128.212 153.275L128.153 153.29L128.011 153.334L127.874 153.378L127.786 153.407L127.673 153.446L127.546 153.495L127.419 153.544C127.375 153.564 127.331 153.578 127.286 153.598L127.174 153.647L127.095 153.686L126.963 153.75L126.846 153.813L126.772 153.853L126.665 153.916L126.537 153.99L126.435 154.053L126.351 154.107L126.307 154.137L126.239 154.186L126.151 154.249L126.072 154.308L125.965 154.391L125.891 154.45L125.808 154.518L125.725 154.592L125.651 154.66L125.558 154.749L125.475 154.832L125.372 154.94L125.362 154.949C125.265 155.057 125.167 155.17 125.078 155.287C124.981 155.414 124.697 155.356 124.574 155.175C123.385 153.461 121.093 152.237 119.022 152.237C116.555 152.237 115.272 153.965 116.154 156.095C117.035 158.225 119.747 159.953 122.21 159.953C122.807 159.953 123.34 159.85 123.801 159.659C123.967 159.59 124.236 159.728 124.28 159.914C124.373 160.3 124.506 160.687 124.667 161.084C125.313 162.65 126.449 164.153 127.938 165.446C128.148 165.632 128.045 165.862 127.776 165.803C127.34 165.705 126.905 165.656 126.488 165.656C124.021 165.656 122.738 167.385 123.62 169.514C124.501 171.644 127.213 173.372 129.676 173.372C132.143 173.372 133.426 171.644 132.545 169.514C132.378 169.113 132.148 168.721 131.854 168.349C131.693 168.138 131.879 167.962 132.143 168.075C133.896 168.819 135.712 169.22 137.435 169.22C138.395 169.22 139.286 169.093 140.084 168.853C140.304 168.785 140.608 169.025 140.544 169.211C140.339 169.828 140.387 170.547 140.696 171.301C141.577 173.431 144.289 175.159 146.752 175.159C149.215 175.159 150.502 173.431 149.621 171.301C148.74 169.172 146.027 167.443 143.565 167.443C143.482 167.443 143.398 167.443 143.32 167.448C143.07 167.458 142.821 167.189 142.948 167.037C143.957 165.818 144.304 164.207 143.908 162.42L143.888 162.332L143.859 162.215L143.834 162.122L143.795 161.989L143.761 161.867L143.717 161.735L143.673 161.608L143.648 161.539L143.619 161.456L143.585 161.363L143.555 161.28C143.531 161.216 143.506 161.157 143.482 161.093C142.615 158.993 140.877 157.02 138.625 155.522C138.424 155.39 138.41 155.165 138.605 155.126C140.481 154.744 141.313 153.177 140.559 151.356C139.687 149.221 136.975 147.493 134.513 147.493Z" fill="white"/>
<path fill-rule="evenodd" clip-rule="evenodd" d="M137.206 167.81C132.814 167.81 127.982 164.741 126.416 160.956C124.849 157.172 127.135 154.102 131.527 154.102C135.918 154.102 140.75 157.172 142.317 160.956C143.884 164.741 141.597 167.81 137.206 167.81Z" fill="#719CFD"/>
<path fill-rule="evenodd" clip-rule="evenodd" d="M131.36 154.347C129.387 154.347 127.849 154.969 126.9 155.997C126.978 156.305 127.081 156.619 127.218 156.937C128.765 160.643 133.533 163.649 137.861 163.649C139.834 163.649 141.372 163.027 142.321 161.999C142.243 161.691 142.14 161.377 142.003 161.059C140.456 157.353 135.692 154.347 131.36 154.347Z" fill="#B9CDFF"/>
<path fill-rule="evenodd" clip-rule="evenodd" d="M129.519 171.972C127.928 171.972 126.175 170.821 125.608 169.402C125.04 167.982 125.867 166.831 127.458 166.831C129.049 166.831 130.802 167.982 131.37 169.402C131.938 170.821 131.11 171.972 129.519 171.972Z" fill="#F6BE67"/>
<path fill-rule="evenodd" clip-rule="evenodd" d="M137.108 154.102C135.517 154.102 133.764 152.952 133.196 151.532C132.628 150.112 133.456 148.962 135.047 148.962C136.638 148.962 138.391 150.112 138.959 151.532C139.527 152.952 138.699 154.102 137.108 154.102Z" fill="#3CB49F"/>
<path fill-rule="evenodd" clip-rule="evenodd" d="M146.41 173.44C144.819 173.44 143.066 172.29 142.498 170.87C141.93 169.45 142.758 168.3 144.349 168.3C145.94 168.3 147.692 169.45 148.26 170.87C148.828 172.29 148.001 173.44 146.41 173.44Z" fill="#4757A4"/>
<path fill-rule="evenodd" clip-rule="evenodd" d="M121.686 158.509C120.095 158.509 118.342 157.358 117.775 155.938C117.207 154.518 118.034 153.368 119.625 153.368C121.216 153.368 122.969 154.518 123.537 155.938C124.105 157.358 123.277 158.509 121.686 158.509Z" fill="#E9525B"/>
<path d="M244.628 34.014C244.56 33.7545 244.296 33.593 244.031 33.6615C234.886 36.036 228.595 40.8485 225.202 48.0893C225.089 48.3341 225.192 48.6279 225.437 48.7405C225.682 48.8531 225.976 48.7503 226.088 48.5055C229.349 41.5438 235.4 36.9172 244.276 34.6113C244.54 34.5428 244.697 34.2784 244.628 34.014Z" fill="white"/>
<path d="M133.328 181.763C132.477 181.763 131.87 182.126 131.61 182.694C130.915 182.145 130.043 181.788 129.216 181.763H129.133H122.494L124.967 187.81C125.285 188.583 125.965 189.274 126.768 189.719C126.342 190.15 126.22 190.811 126.499 191.555L126.528 191.628L129.001 197.675H135.644C136.496 197.675 137.103 197.312 137.363 196.744C138.058 197.293 138.929 197.65 139.757 197.675H139.84H146.483L144.011 191.628C143.693 190.855 143.012 190.165 142.209 189.719C142.635 189.288 142.758 188.627 142.479 187.883L142.449 187.81L139.977 181.763H133.328Z" fill="#B6D4E5"/>
<path d="M132.349 181.763C131.497 181.763 130.89 182.126 130.631 182.694C129.935 182.145 129.064 181.788 128.237 181.763H128.153H121.515L123.987 187.81C124.305 188.583 124.986 189.274 125.789 189.719C125.363 190.15 125.24 190.811 125.519 191.555L125.549 191.628L128.021 197.675H134.665C135.517 197.675 136.124 197.312 136.383 196.744C137.078 197.293 137.95 197.65 138.777 197.675H138.86H145.504L143.032 191.628C142.713 190.855 142.033 190.165 141.23 189.719C141.656 189.288 141.778 188.627 141.499 187.883L141.47 187.81L138.997 181.763H132.349Z" fill="white"/>
<path d="M127.727 190.086H133.289L135.36 195.065C135.673 195.814 135.262 196.421 134.444 196.446H134.39H128.829L126.758 191.467C126.445 190.718 126.856 190.111 127.673 190.086H127.727Z" fill="#229581"/>
<path d="M134.488 190.086H139.933C140.75 190.086 141.656 190.679 141.989 191.423L142.008 191.472L144.035 196.451H138.591H138.537C137.734 196.426 136.858 195.844 136.535 195.114L136.515 195.065L134.488 190.086Z" fill="#229581"/>
<path d="M123.228 182.987H128.672C129.489 182.987 130.395 183.58 130.728 184.324L130.748 184.373L132.774 189.352H127.33H127.276C126.474 189.327 125.597 188.745 125.274 188.015L125.254 187.966L123.228 182.987Z" fill="#229581"/>
<path d="M132.868 182.987H138.429L140.5 187.966C140.814 188.715 140.402 189.322 139.585 189.347H139.531H133.969L131.898 184.368L131.879 184.319C131.605 183.594 132.016 183.012 132.814 182.982L132.868 182.987Z" fill="#229581"/>
<path d="M63.5346 158.215C64.2837 156.961 66.3154 156.961 68.0681 158.215L68.1219 158.254C69.0031 158.9 69.6641 159.757 69.9725 160.623L69.9872 160.668L73.0078 161.598L73.0225 161.559C73.3212 160.814 74.0507 160.359 75.0397 160.359H75.1131C75.211 160.359 75.3089 160.369 75.4068 160.379L75.4557 160.384L75.7789 155.532L75.7446 155.507C74.2025 154.249 73.5268 152.384 74.2318 151.209C74.9808 149.956 77.0126 149.956 78.7653 151.209L78.8388 151.263C78.9808 151.366 79.1178 151.478 79.25 151.596L79.2794 151.625L82.1532 151.268L82.1385 151.219C81.742 149.672 82.5987 148.482 84.2094 148.482C85.9817 148.482 87.9889 149.916 88.7037 151.689C89.4136 153.461 88.5569 154.895 86.7846 154.895H86.7307C85.6977 154.876 84.5619 154.372 83.6561 153.569L83.6024 153.52L80.7481 153.877L80.7579 153.906C80.9439 154.592 80.89 155.243 80.5865 155.752L80.5621 155.791C80.1264 156.477 79.2842 156.785 78.2904 156.668L78.2415 156.663L77.9183 161.49L77.9379 161.505C78.6527 162.073 79.2206 162.802 79.529 163.576L79.5486 163.629C80.0137 164.829 79.7543 165.891 78.9416 166.425L78.9073 166.445L80.2928 169.411H80.2977C80.7579 169.573 81.2132 169.808 81.644 170.116C83.3967 171.37 84.2143 173.397 83.4653 174.65C82.7162 175.903 80.6845 175.903 78.9318 174.65C77.1791 173.397 76.3615 171.37 77.1106 170.116L77.14 170.072C77.326 169.779 77.5903 169.553 77.9183 169.402L77.9771 169.377L76.7091 166.665H76.6993C75.2991 166.312 73.9185 165.216 73.2575 163.889L73.2234 163.816L69.8697 162.783L69.8795 162.763C69.1305 164.016 67.0987 164.016 65.346 162.763C63.6031 161.5 62.7856 159.468 63.5346 158.215Z" fill="#B6D4E5"/>
<path d="M63.0444 158.215C63.7934 156.961 65.8252 156.961 67.5779 158.215L67.6316 158.254C68.5129 158.9 69.1738 159.757 69.4823 160.623L69.497 160.668L72.5176 161.598L72.5323 161.559C72.831 160.814 73.5605 160.359 74.5494 160.359H74.6228C74.7207 160.359 74.8187 160.369 74.9166 160.379L74.9655 160.384L75.2887 155.532L75.2544 155.507C73.7122 154.249 73.0366 152.384 73.7416 151.209C74.4906 149.956 76.5224 149.956 78.275 151.209L78.3485 151.263C78.4905 151.366 78.6275 151.478 78.7597 151.596L78.7891 151.625L81.663 151.268L81.6483 151.219C81.2517 149.672 82.1085 148.482 83.7192 148.482C85.4915 148.482 87.4987 149.916 88.2135 151.689C88.9234 153.461 88.0666 154.895 86.2944 154.895H86.2405C85.2075 154.876 84.0716 154.372 83.1659 153.569L83.1121 153.52L80.2578 153.877L80.2677 153.906C80.4537 154.592 80.3998 155.243 80.0963 155.752L80.0719 155.791C79.6361 156.477 78.794 156.785 77.8002 156.668L77.7513 156.663L77.4281 161.49L77.4477 161.505C78.1625 162.073 78.7304 162.802 79.0388 163.576L79.0584 163.629C79.5235 164.829 79.264 165.891 78.4513 166.425L78.417 166.445L79.8026 169.411H79.8075C80.2677 169.573 80.723 169.808 81.1538 170.116C82.9065 171.37 83.7241 173.397 82.975 174.65C82.226 175.903 80.1942 175.903 78.4415 174.65C76.6889 173.397 75.8713 171.37 76.6203 170.116L76.6497 170.072C76.8358 169.779 77.1001 169.553 77.4281 169.402L77.4869 169.377L76.2188 166.665H76.209C74.8089 166.312 73.4282 165.216 72.7673 163.889L72.7331 163.816L69.3795 162.783L69.3893 162.763C68.6402 164.016 66.6085 164.016 64.8558 162.763C63.1129 161.5 62.2953 159.468 63.0444 158.215Z" fill="white"/>
<path d="M66.6871 160.477C66.4374 160.398 66.2416 160.516 66.2514 160.736C66.2612 160.947 66.4619 161.182 66.7018 161.265L66.7263 161.275L76.0331 164.139C76.2584 164.207 76.4394 164.124 76.4639 163.938V163.918L77.1591 153.485L86.1772 152.359C86.3926 152.335 86.4758 152.134 86.368 151.914L86.3582 151.889C86.2407 151.664 85.9813 151.503 85.761 151.517H85.7365L76.4933 152.673C76.366 152.687 76.2779 152.771 76.2583 152.888L76.2534 152.913L75.568 163.208L66.6871 160.477Z" fill="#B9CDFF"/>
<path d="M75.8225 163.316C75.6022 163.331 75.5043 163.517 75.5973 163.742L75.6071 163.767L79.3475 171.781C79.4552 172.016 79.7294 172.192 79.9546 172.177C80.1749 172.163 80.2728 171.977 80.1798 171.752L80.17 171.727L76.4296 163.713C76.3218 163.478 76.0477 163.301 75.8225 163.316Z" fill="#B9CDFF"/>
<path fill-rule="evenodd" clip-rule="evenodd" d="M79.3815 155.228C78.8038 156.198 77.2323 156.198 75.8762 155.228C74.52 154.259 73.8884 152.692 74.471 151.723C75.0487 150.754 76.6203 150.754 77.9765 151.723C79.3277 152.692 79.9592 154.259 79.3815 155.228Z" fill="#719CFD"/>
<path fill-rule="evenodd" clip-rule="evenodd" d="M77.0318 151.297C78.5201 152.359 79.2105 154.083 78.574 155.145C78.3243 155.561 77.9032 155.816 77.399 155.904C78.2508 156.066 79.0146 155.84 79.3818 155.228C79.9595 154.259 79.3329 152.692 77.9767 151.723C77.59 151.444 77.1835 151.248 76.787 151.131C76.8702 151.184 76.9486 151.238 77.0318 151.297Z" fill="#547ACE"/>
<path fill-rule="evenodd" clip-rule="evenodd" d="M76.1998 153.476C76.2879 154.151 76.0432 154.626 75.6516 154.528C75.2599 154.435 74.8682 153.809 74.7752 153.128C74.6822 152.448 74.9318 151.978 75.3235 152.075C75.72 152.173 76.1117 152.8 76.1998 153.476Z" fill="#B9CDFF"/>
<path fill-rule="evenodd" clip-rule="evenodd" d="M68.6891 162.234C68.1114 163.204 66.5398 163.204 65.1837 162.234C63.8276 161.265 63.1961 159.698 63.7787 158.729C64.3564 157.759 65.9279 157.759 67.284 158.729C68.6352 159.698 69.2668 161.27 68.6891 162.234Z" fill="#3CB49F"/>
<path fill-rule="evenodd" clip-rule="evenodd" d="M66.3394 158.303C67.8277 159.365 68.518 161.089 67.8815 162.151C67.6319 162.567 67.2109 162.822 66.7066 162.91C67.5585 163.071 68.3222 162.846 68.6894 162.234C69.2671 161.265 68.6404 159.698 67.2843 158.729C66.8975 158.45 66.4912 158.254 66.0946 158.136C66.173 158.19 66.2562 158.244 66.3394 158.303Z" fill="#229581"/>
<path fill-rule="evenodd" clip-rule="evenodd" d="M65.5074 160.486C65.5956 161.162 65.3507 161.637 64.9591 161.539C64.5674 161.446 64.1757 160.819 64.0827 160.139C63.9946 159.463 64.2394 158.988 64.6311 159.086C65.0227 159.184 65.4193 159.806 65.5074 160.486Z" fill="#50C4B0"/>
<path fill-rule="evenodd" clip-rule="evenodd" d="M82.2604 174.116C81.6827 175.086 80.1111 175.086 78.755 174.116C77.3988 173.147 76.7674 171.58 77.35 170.611C77.9325 169.642 79.4991 169.642 80.8553 170.611C82.2065 171.58 82.8381 173.152 82.2604 174.116Z" fill="#F6BE67"/>
<path fill-rule="evenodd" clip-rule="evenodd" d="M79.9107 170.185C81.399 171.247 82.0893 172.971 81.4528 174.033C81.2031 174.449 80.7822 174.704 80.2779 174.792C81.1298 174.953 81.8935 174.728 82.2607 174.116C82.8384 173.147 82.2117 171.58 80.8556 170.611C80.4688 170.332 80.0625 170.136 79.6659 170.018C79.7491 170.072 79.8275 170.126 79.9107 170.185Z" fill="#D19C49"/>
<path fill-rule="evenodd" clip-rule="evenodd" d="M79.0778 172.368C79.1659 173.044 78.921 173.519 78.5294 173.421C78.1377 173.323 77.746 172.701 77.653 172.021C77.5649 171.345 77.8097 170.87 78.2014 170.968C78.5979 171.061 78.9896 171.688 79.0778 172.368Z" fill="#F9D8A4"/>
<path fill-rule="evenodd" clip-rule="evenodd" d="M86.0005 154.161C84.6297 154.161 83.0778 153.05 82.5295 151.684C81.9812 150.313 82.6469 149.207 84.0128 149.207C85.3836 149.207 86.9356 150.318 87.4839 151.684C88.0372 153.05 87.3713 154.161 86.0005 154.161Z" fill="#F6BE67"/>
<path fill-rule="evenodd" clip-rule="evenodd" d="M86.9063 150.837C87.5085 152.34 86.779 153.559 85.276 153.554C84.6836 153.554 84.0619 153.363 83.4842 153.045C84.199 153.716 85.134 154.161 86.0006 154.161C87.3714 154.161 88.0323 153.05 87.484 151.684C87.3273 151.292 87.0875 150.92 86.7938 150.592C86.8329 150.67 86.8721 150.754 86.9063 150.837Z" fill="#D19C49"/>
<path fill-rule="evenodd" clip-rule="evenodd" d="M84.2869 151.17C83.8218 151.522 83.1903 151.547 82.8769 151.229C82.5636 150.91 82.6908 150.367 83.1559 150.019C83.621 149.667 84.2526 149.642 84.5659 149.961C84.8793 150.279 84.7568 150.817 84.2869 151.17Z" fill="#F9D8A4"/>
<path fill-rule="evenodd" clip-rule="evenodd" d="M76.8355 166.038C75.4646 166.038 73.9126 164.927 73.3643 163.561C72.816 162.19 73.4818 161.084 74.8478 161.084C76.2186 161.084 77.7706 162.195 78.3189 163.561C78.8721 164.932 78.2063 166.038 76.8355 166.038Z" fill="#E9525B"/>
<path fill-rule="evenodd" clip-rule="evenodd" d="M77.7413 162.714C78.3435 164.217 77.614 165.436 76.111 165.431C75.5186 165.431 74.8969 165.24 74.3192 164.922C75.034 165.593 75.969 166.038 76.8355 166.038C78.2064 166.038 78.8673 164.927 78.319 163.561C78.1623 163.169 77.9225 162.797 77.6287 162.469C77.6679 162.552 77.707 162.631 77.7413 162.714Z" fill="#CB3E47"/>
<path fill-rule="evenodd" clip-rule="evenodd" d="M75.1228 163.052C74.6577 163.404 74.0262 163.429 73.7129 163.111C73.3995 162.792 73.5267 162.249 73.9918 161.901C74.4569 161.554 75.0886 161.524 75.4019 161.842C75.7152 162.156 75.5928 162.699 75.1228 163.052Z" fill="#E98086"/>
<path d="M75.2492 53.2495H185.894V129.623H75.2492V53.2495ZM76.2284 54.2287V128.644H184.914V54.2287H76.2284Z" fill="#F0DECF"/>
<path d="M76.2193 65.6113V66.5905H172.695V65.6113H76.2193Z" fill="#F0DECF"/>
<path fill-rule="evenodd" clip-rule="evenodd" d="M136.569 72.0982H51.8724C45.317 72.0982 40.0002 77.415 40.0002 83.9704C40.0002 90.5259 45.317 95.8427 51.8724 95.8427H136.569C143.125 95.8427 148.441 90.5259 148.441 83.9704C148.441 77.415 143.125 72.0982 136.569 72.0982Z" fill="#E9525B"/>
<path fill-rule="evenodd" clip-rule="evenodd" d="M155.907 100.738H71.2103C64.6548 100.738 59.338 106.055 59.338 112.611C59.338 119.166 64.6548 124.483 71.2103 124.483H155.907C162.462 124.483 167.779 119.166 167.779 112.611C167.779 106.055 162.462 100.738 155.907 100.738Z" fill="#F6BE67"/>
<path d="M79.0688 116.894C78.8191 116.894 78.6184 116.821 78.4715 116.669C78.3198 116.518 78.2072 116.253 78.124 115.866C78.0897 115.7 78.0456 115.46 78.0016 115.147C77.9575 114.833 77.9134 114.579 77.8743 114.383C77.8351 114.187 77.7714 113.937 77.6735 113.639C77.4532 112.963 77.2084 112.39 76.9391 111.92C76.6747 111.45 76.4153 111.059 76.1608 110.741C75.9062 110.422 75.6858 110.138 75.49 109.874C75.2942 109.614 75.1962 109.404 75.1962 109.242C75.1962 108.983 75.2794 108.792 75.4459 108.679C75.6123 108.567 75.8817 108.508 76.2587 108.508H80.1459C80.4543 108.508 80.6942 108.547 80.8655 108.621C81.0369 108.694 81.1201 108.865 81.1201 109.125C81.1201 109.37 81.0418 109.551 80.8802 109.668C80.7187 109.786 80.4739 109.84 80.1459 109.84H77.0224C77.512 110.447 77.9379 111.054 78.2903 111.666C78.6477 112.278 78.9415 112.87 79.1814 113.453C79.4213 114.035 79.5878 114.53 79.6955 114.946C79.7983 115.362 79.8521 115.69 79.8521 115.935C79.8521 116.248 79.7787 116.488 79.6367 116.645C79.4996 116.816 79.3087 116.894 79.0688 116.894ZM74.0801 116.894C73.8353 116.894 73.6198 116.821 73.4387 116.669C73.2575 116.518 73.1645 116.312 73.1645 116.048C73.1645 115.817 73.2575 115.622 73.4387 115.46C73.6198 115.298 73.8401 115.22 74.0995 115.22C74.359 115.22 74.5745 115.303 74.7507 115.465C74.927 115.626 75.0151 115.822 75.0151 116.048C75.0151 116.317 74.9221 116.522 74.736 116.669C74.55 116.816 74.3346 116.894 74.0801 116.894ZM69.7277 116.894C69.101 116.894 68.5575 116.782 68.0924 116.562C67.6322 116.341 67.2798 116.033 67.0399 115.646C66.8 115.259 66.6825 114.819 66.6825 114.339C66.6825 114.011 66.7364 113.712 66.849 113.443C66.9616 113.174 67.1281 112.939 67.3435 112.733C67.5638 112.527 67.8379 112.366 68.1708 112.239C67.7792 112.053 67.4854 111.813 67.2847 111.519C67.0839 111.225 66.9861 110.892 66.9861 110.52C66.9861 110.226 67.0448 109.952 67.1574 109.688C67.27 109.428 67.4463 109.193 67.6813 108.983C67.9163 108.777 68.21 108.611 68.5625 108.493C68.915 108.376 69.3263 108.317 69.7914 108.317C70.3446 108.317 70.8244 108.42 71.2405 108.621C71.6517 108.821 71.965 109.091 72.1804 109.428C72.3959 109.766 72.4986 110.124 72.4986 110.505C72.4986 111.294 72.0972 111.871 71.2943 112.234C72.2881 112.616 72.7875 113.316 72.7875 114.344C72.7875 114.824 72.67 115.254 72.435 115.641C72.2 116.028 71.8525 116.331 71.3874 116.552C70.9321 116.782 70.3739 116.894 69.7277 116.894ZM69.7326 111.867C70.0899 111.867 70.3788 111.754 70.604 111.529C70.8292 111.304 70.9418 111.024 70.9418 110.687C70.9418 110.319 70.8341 110.026 70.6138 109.791C70.3935 109.561 70.1046 109.443 69.7473 109.443C69.5123 109.443 69.3017 109.497 69.1157 109.605C68.9345 109.712 68.7877 109.859 68.6898 110.045C68.5919 110.231 68.538 110.442 68.538 110.677C68.538 110.853 68.5674 111.01 68.6261 111.157C68.6849 111.304 68.7632 111.426 68.8709 111.534C68.9737 111.636 69.101 111.72 69.2479 111.778C69.3899 111.837 69.5514 111.867 69.7326 111.867ZM69.8304 115.778C70.1095 115.778 70.3592 115.715 70.5844 115.592C70.8096 115.47 70.9859 115.294 71.1181 115.063C71.2503 114.838 71.3139 114.574 71.3139 114.275C71.3139 113.81 71.1769 113.448 70.8978 113.188C70.6188 112.929 70.276 112.797 69.8697 112.797C69.5808 112.797 69.3213 112.855 69.0863 112.973C68.8513 113.09 68.6751 113.262 68.5429 113.482C68.4156 113.702 68.3519 113.962 68.3519 114.261C68.3519 114.559 68.4156 114.824 68.5429 115.054C68.6702 115.284 68.8464 115.46 69.0716 115.587C69.2968 115.715 69.5514 115.778 69.8304 115.778Z" fill="white"/>
<path d="M136.569 74.0565C142.043 74.0565 146.483 78.497 146.483 83.9704C146.483 89.4439 142.043 93.8844 136.569 93.8844C131.096 93.8844 126.656 89.4439 126.656 83.9704C126.656 78.497 131.096 74.0565 136.569 74.0565ZM136.569 75.0357C131.635 75.0357 127.635 79.0355 127.635 83.9704C127.635 88.9054 131.635 92.9052 136.569 92.9052C141.504 92.9052 145.504 88.9054 145.504 83.9704C145.504 79.0355 141.504 75.0357 136.569 75.0357Z" fill="white"/>
<path d="M155.907 102.697C161.381 102.697 165.821 107.137 165.821 112.611C165.821 118.084 161.381 122.525 155.907 122.525C150.434 122.525 145.993 118.084 145.993 112.611C145.993 107.137 150.434 102.697 155.907 102.697ZM155.907 103.676C150.972 103.676 146.973 107.676 146.973 112.611C146.973 117.546 150.972 121.545 155.907 121.545C160.842 121.545 164.842 117.546 164.842 112.611C164.842 107.676 160.842 103.676 155.907 103.676Z" fill="white"/>
<path d="M155.795 114.447C152.74 114.447 149.988 116.131 148.569 118.765L148.515 118.863L148.353 119.171L148.593 119.426C150.454 121.389 153.034 122.525 155.79 122.525C158.502 122.525 161.043 121.428 162.894 119.523L162.987 119.426L163.227 119.171L163.065 118.863C161.67 116.17 158.889 114.447 155.795 114.447ZM155.795 115.426C158.331 115.426 160.627 116.743 161.929 118.838L161.988 118.936L162.032 119.009L162.012 119.029C160.421 120.571 158.316 121.477 156.059 121.545L155.927 121.55H155.795C153.484 121.55 151.31 120.669 149.67 119.122L149.558 119.014L149.602 118.936C150.855 116.85 153.083 115.514 155.565 115.436L155.682 115.431L155.795 115.426ZM155.795 106.124C153.699 106.124 152.001 107.823 152.001 109.918C152.001 112.013 153.699 113.712 155.795 113.712C157.89 113.712 159.589 112.013 159.589 109.918C159.589 107.823 157.89 106.124 155.795 106.124ZM155.795 107.103C157.352 107.103 158.61 108.361 158.61 109.918C158.61 111.475 157.352 112.733 155.795 112.733C154.238 112.733 152.98 111.475 152.98 109.918C152.98 108.361 154.243 107.103 155.795 107.103Z" fill="white"/>
<path d="M136.569 85.8064C133.514 85.8064 130.763 87.4905 129.343 90.1244L129.289 90.2224L129.128 90.5308L129.368 90.7854C131.228 92.7486 133.808 93.8844 136.564 93.8844C139.277 93.8844 141.817 92.7877 143.668 90.8833L143.761 90.7854L144.001 90.5308L143.839 90.2224C142.444 87.5297 139.658 85.8064 136.569 85.8064ZM136.569 86.7855C139.105 86.7855 141.401 88.1025 142.704 90.1979L142.762 90.2958L142.806 90.3692L142.787 90.3888C141.196 91.931 139.091 92.8367 136.834 92.9052L136.701 92.9101H136.569C134.258 92.9101 132.085 92.0289 130.445 90.4819L130.352 90.3937L130.332 90.3741L130.376 90.2958C131.629 88.2102 133.857 86.8737 136.339 86.7953L136.457 86.7904L136.569 86.7855ZM136.569 77.4836C134.474 77.4836 132.775 79.1824 132.775 81.2778C132.775 83.3732 134.474 85.072 136.569 85.072C138.665 85.072 140.363 83.3732 140.363 81.2778C140.363 79.1824 138.665 77.4836 136.569 77.4836ZM136.569 78.4627C138.126 78.4627 139.384 79.7209 139.384 81.2778C139.384 82.8347 138.126 84.0929 136.569 84.0929C135.012 84.0929 133.754 82.8347 133.754 81.2778C133.754 79.7209 135.012 78.4627 136.569 78.4627Z" fill="white"/>
<path d="M72.0671 76.2596H119.311C121.206 76.2596 122.738 77.792 122.738 79.6867C122.738 81.5813 121.206 83.1137 119.311 83.1137H72.0671C70.1724 83.1137 68.64 81.5813 68.64 79.6867C68.64 77.792 70.1724 76.2596 72.0671 76.2596ZM119.311 77.2388H72.0671C70.7159 77.2388 69.6192 78.3354 69.6192 79.6867C69.6192 81.0379 70.7159 82.1346 72.0671 82.1346H119.311C120.662 82.1346 121.759 81.0379 121.759 79.6867C121.759 78.3354 120.662 77.2388 119.311 77.2388Z" fill="white"/>
<path d="M91.406 104.9H138.65C140.545 104.9 142.077 106.432 142.077 108.327C142.077 110.222 140.545 111.754 138.65 111.754H91.406C89.5113 111.754 87.9789 110.222 87.9789 108.327C87.9789 106.432 89.5113 104.9 91.406 104.9ZM138.65 105.879H91.406C90.0547 105.879 88.9581 106.976 88.9581 108.327C88.9581 109.678 90.0547 110.775 91.406 110.775H138.65C140.001 110.775 141.098 109.678 141.098 108.327C141.098 106.976 140.001 105.879 138.65 105.879Z" fill="white"/>
<path d="M93.6775 115.303C93.4083 115.303 93.188 115.524 93.188 115.793C93.188 116.052 93.3888 116.263 93.6433 116.282H93.6775H141.588C141.857 116.282 142.077 116.062 142.077 115.793C142.077 115.533 141.876 115.323 141.622 115.303H141.588H93.6775Z" fill="white"/>
<path d="M108.365 119.22C108.096 119.22 107.875 119.44 107.875 119.71C107.875 119.969 108.076 120.18 108.331 120.199H108.365H141.588C141.857 120.199 142.077 119.979 142.077 119.71C142.077 119.45 141.876 119.24 141.622 119.22H141.588H108.365Z" fill="white"/>
<path d="M74.3387 86.6631C74.0694 86.6631 73.8491 86.8835 73.8491 87.1527C73.8491 87.4122 74.0499 87.6227 74.3045 87.6423H74.3387H122.249C122.518 87.6423 122.738 87.422 122.738 87.1527C122.738 86.8932 122.538 86.6827 122.283 86.6631H122.249H74.3387Z" fill="white"/>
<path d="M89.026 90.5798C88.7567 90.5798 88.5364 90.8001 88.5364 91.0693C88.5364 91.3288 88.7372 91.5393 88.9918 91.5589H89.026H122.249C122.518 91.5589 122.738 91.3386 122.738 91.0693C122.738 90.8099 122.538 90.5994 122.283 90.5798H122.249H89.026Z" fill="white"/>
<path d="M58.8144 88.2543C58.2073 88.2543 57.6786 88.1416 57.2281 87.9213C56.7777 87.701 56.44 87.3926 56.2099 87.0058C55.9798 86.6142 55.8622 86.1785 55.8622 85.6987C55.8622 85.3707 55.9161 85.072 56.0238 84.8027C56.1315 84.5335 56.2931 84.2985 56.5036 84.0929C56.7141 83.8872 56.9834 83.7257 57.3066 83.5984C56.9247 83.4124 56.6407 83.1725 56.4498 82.8787C56.2589 82.585 56.1609 82.2521 56.1609 81.88C56.1609 81.5862 56.2148 81.3121 56.3274 81.0477C56.4351 80.7882 56.6064 80.5532 56.8365 80.3427C57.0666 80.1371 57.3505 79.9706 57.6932 79.8531C58.0359 79.7356 58.4326 79.6769 58.883 79.6769C59.4166 79.6769 59.8865 79.7797 60.288 79.9804C60.6895 80.1811 60.993 80.4504 61.1987 80.7882C61.4043 81.126 61.507 81.4834 61.507 81.8653C61.507 82.6535 61.1154 83.2312 60.337 83.5935C61.3015 83.9754 61.7861 84.6755 61.7861 85.7036C61.7861 86.1834 61.6736 86.6142 61.4435 87.0009C61.2134 87.3877 60.8755 87.6913 60.43 87.9116C59.9796 88.1417 59.441 88.2543 58.8144 88.2543ZM58.7263 83.2263C59.0837 83.2263 59.3725 83.1137 59.5977 82.8885C59.8229 82.6633 59.9355 82.3842 59.9355 82.0464C59.9355 81.6792 59.8278 81.3855 59.6075 81.1505C59.3872 80.9204 59.0984 80.8029 58.741 80.8029C58.506 80.8029 58.2954 80.8568 58.1094 80.9645C57.9234 81.0722 57.7815 81.2191 57.6835 81.4051C57.5856 81.5911 57.5317 81.8017 57.5317 82.0367C57.5317 82.2129 57.5611 82.3696 57.6198 82.5164C57.6786 82.6633 57.7569 82.7857 57.8646 82.8934C57.9674 82.9962 58.0947 83.0795 58.2416 83.1382C58.3836 83.197 58.5451 83.2263 58.7263 83.2263ZM58.8242 87.138C59.069 87.138 59.2844 87.0744 59.4851 86.952C59.681 86.8296 59.8376 86.6534 59.9502 86.4233C60.0628 86.1932 60.1216 85.9337 60.1216 85.635C60.1216 85.17 59.9992 84.8077 59.7593 84.5482C59.5194 84.2887 59.2159 84.1565 58.8585 84.1565C58.6039 84.1565 58.3787 84.2153 58.1731 84.3328C57.9675 84.4503 57.8107 84.6216 57.6981 84.8419C57.5855 85.0622 57.5317 85.3217 57.5317 85.6203C57.5317 85.919 57.5855 86.1834 57.6981 86.4135C57.8107 86.6436 57.9675 86.8198 58.1633 86.9471C58.3542 87.0744 58.5794 87.138 58.8242 87.138ZM54.6481 88.2543C54.4278 88.2543 54.232 88.1809 54.0704 88.0291C53.9088 87.8773 53.8256 87.6717 53.8256 87.4073C53.8256 87.1772 53.9088 86.9813 54.0704 86.8198C54.2369 86.6582 54.4327 86.5799 54.6677 86.5799C54.9027 86.5799 55.0936 86.6631 55.2551 86.8247C55.4118 86.9862 55.495 87.1821 55.495 87.4073C55.495 87.6766 55.4118 87.8822 55.2453 88.0291C55.074 88.1809 54.8782 88.2543 54.6481 88.2543ZM50.3986 88.2543C49.9433 88.2543 49.5271 88.1809 49.1501 88.0389C48.7732 87.8969 48.45 87.6961 48.1759 87.4465C47.9017 87.1919 47.6961 86.903 47.5541 86.5799C47.4121 86.2568 47.3436 85.919 47.3436 85.5714C47.3436 85.2826 47.3975 85.0133 47.5003 84.7636C47.6031 84.5139 47.7598 84.2838 47.9654 84.0782C48.171 83.8725 48.4256 83.6914 48.7243 83.5298C48.4109 83.2704 48.1711 83.006 48.0046 82.7318C47.8381 82.4577 47.7549 82.1346 47.7549 81.7527C47.7549 81.4638 47.8136 81.1946 47.9262 80.94C48.0437 80.6903 48.2151 80.4651 48.4403 80.2741C48.6655 80.0832 48.9347 79.9364 49.2431 79.8385C49.5516 79.7406 49.8943 79.6867 50.2664 79.6867C50.6923 79.6867 51.084 79.7454 51.4316 79.8678C51.7792 79.9902 52.068 80.1469 52.303 80.3476C52.538 80.5434 52.7143 80.754 52.8367 80.9743C52.959 81.1946 53.0179 81.4002 53.0179 81.6009C53.0179 81.8066 52.9541 81.973 52.822 82.0954C52.6947 82.2178 52.5527 82.2815 52.3961 82.2815C52.2639 82.2815 52.1513 82.257 52.0485 82.2129C51.9457 82.1689 51.8771 82.1052 51.8379 82.022C51.7743 81.8751 51.7008 81.7136 51.6225 81.5471C51.5442 81.3806 51.4609 81.2435 51.3728 81.1358C51.2847 81.0281 51.1623 80.9449 51.0105 80.8764C50.8588 80.8127 50.663 80.7784 50.428 80.7784C50.0804 80.7784 49.8062 80.8861 49.6006 81.0967C49.395 81.3072 49.2921 81.5618 49.2921 81.8555C49.2921 82.2423 49.4194 82.536 49.6789 82.7416C49.9335 82.9473 50.2419 83.0501 50.5944 83.0501H50.8295C51.1036 83.0501 51.3091 83.1039 51.4462 83.2165C51.5833 83.3291 51.6568 83.476 51.6568 83.662C51.6568 83.8481 51.598 83.995 51.4854 84.0978C51.3679 84.2006 51.2064 84.2544 50.9958 84.2544C50.9518 84.2544 50.8441 84.2447 50.6826 84.23C50.521 84.2153 50.3986 84.2055 50.3252 84.2055C49.8846 84.2055 49.5418 84.3328 49.297 84.5873C49.0522 84.8419 48.9249 85.1895 48.9249 85.635C48.9249 85.9386 48.9984 86.203 49.1403 86.4282C49.2823 86.6534 49.4684 86.8296 49.6887 86.9471C49.909 87.0646 50.1391 87.1233 50.379 87.1233C50.7951 87.1233 51.1182 86.9961 51.3483 86.7366C51.5784 86.4771 51.7939 86.0854 51.9946 85.5567C52.024 85.4686 52.0925 85.3952 52.1904 85.3315C52.2932 85.2679 52.3961 85.2385 52.5038 85.2385C52.7192 85.2385 52.9003 85.307 53.0422 85.4392C53.1842 85.5714 53.2577 85.7525 53.2577 85.9728C53.2577 86.1442 53.1989 86.3596 53.0765 86.624C52.9541 86.8884 52.778 87.1429 52.5381 87.3877C52.2982 87.6325 51.9995 87.8381 51.6323 88.0046C51.2749 88.171 50.8637 88.2543 50.3986 88.2543Z" fill="white"/>
<path d="M176.411 39.7323C178.913 39.7323 180.939 41.7591 180.939 44.2609C180.939 46.7626 178.913 48.7895 176.411 48.7895C173.909 48.7895 171.882 46.7626 171.882 44.2609C171.882 41.7591 173.909 39.7323 176.411 39.7323ZM176.411 40.7115C174.453 40.7115 172.861 42.3026 172.861 44.2609C172.861 46.2192 174.453 47.8103 176.411 47.8103C178.369 47.8103 179.96 46.2192 179.96 44.2609C179.96 42.2977 178.374 40.7115 176.411 40.7115Z" fill="#F0DECF"/>
<path d="M159.643 40.2219H167.966V48.5447H159.643V40.2219ZM160.622 41.2011V47.5656H166.987V41.2011H160.622Z" fill="#F0DECF"/>
<path d="M144.828 47.5656V48.5447H155.251V47.5656H144.828Z" fill="#F0DECF"/>
</svg>
