<svg width="1920" height="1836" viewBox="0 0 1920 1836" fill="none" xmlns="http://www.w3.org/2000/svg">
<mask id="mask0_460_23180" style="mask-type:alpha" maskUnits="userSpaceOnUse" x="0" y="0" width="1920" height="1836">
<path d="M0 0H1920V1836H0V0Z" fill="#101828"/>
</mask>
<g mask="url(#mask0_460_23180)">
<path d="M-140.371 1256.12C-284.493 1256.12 -379.111 1187 -434.45 1126.25C-499.534 1054.85 -525.759 979.241 -526 978.46L-521.729 977.016C-521.489 977.738 -495.443 1052.63 -431.021 1123.3C-371.652 1188.45 -266.448 1263.27 -102.717 1250.04C13.7358 1240.6 139.211 1169.44 272.145 1094.07C497.23 966.429 752.391 821.766 1011.58 969.076C1334.17 1152.48 1569.3 1153.92 1709.7 1122.94C1861.76 1089.32 1938.63 1011.42 1939.35 1010.64L1942.6 1013.77C1941.82 1014.55 1864.22 1093.35 1710.96 1127.27C1569.72 1158.55 1333.33 1157.17 1009.36 973.046C752.391 826.999 498.433 971.001 274.431 1098.04C141.076 1173.65 15.1794 1245.05 -102.296 1254.55C-115.409 1255.58 -128.1 1256.12 -140.371 1256.12Z" fill="white"/>
<path d="M-147.83 1281.2C-290.448 1281.2 -382.72 1216.96 -436.435 1160.3C-499.834 1093.35 -524.436 1022.25 -524.677 1021.53L-520.406 1020.08C-520.165 1020.81 -495.804 1091.12 -433.006 1157.35C-375.141 1218.4 -271.741 1288.36 -108.01 1275.12C7.5401 1265.74 126.399 1200.78 252.295 1132.03C362.191 1071.99 475.816 1009.92 594.735 981.106C729.654 948.444 851.881 964.745 968.333 1030.97C1291.04 1214.43 1539.35 1204.15 1690.81 1163.18C1854.78 1118.85 1943.56 1030.19 1944.47 1029.29L1947.65 1032.48C1946.75 1033.38 1857.13 1122.88 1691.95 1167.57C1539.65 1208.72 1290.08 1219.12 966.048 1034.94C707.939 888.233 477.32 1014.19 254.34 1136C128.023 1204.99 8.68298 1270.19 -107.77 1279.64C-121.424 1280.66 -134.838 1281.2 -147.83 1281.2Z" fill="white"/>
<path d="M-155.589 1306.34C-296.463 1306.34 -386.389 1246.91 -438.359 1194.34C-500.195 1131.84 -523.172 1065.2 -523.413 1064.54L-519.142 1063.09C-518.902 1063.75 -496.165 1129.56 -434.991 1191.33C-378.629 1248.3 -277.034 1313.38 -113.243 1300.09C1.22485 1290.82 113.527 1232.06 232.385 1169.8C444.358 1058.82 663.609 944.053 925.326 1092.81C1247.92 1276.15 1509.27 1254.19 1671.68 1203.48C1847.74 1148.51 1948.8 1048.9 1949.82 1047.87L1953.01 1051.06C1951.99 1052.08 1850.27 1152.36 1673.24 1207.7C1509.87 1258.76 1247.19 1280.9 923.101 1096.72C663.549 949.166 445.381 1063.39 234.491 1173.77C115.151 1236.27 2.48798 1295.28 -112.882 1304.6C-127.619 1305.8 -141.814 1306.34 -155.589 1306.34Z" fill="white"/>
<path d="M-163.589 1331.49C-302.478 1331.49 -389.998 1276.87 -440.284 1228.45C-500.556 1170.4 -521.849 1108.21 -522.09 1107.6L-517.819 1106.16C-517.579 1106.76 -496.526 1168.06 -436.976 1225.32C-382.118 1278.19 -282.267 1338.4 -118.476 1325.11C-5.27161 1315.97 100.354 1263.28 212.235 1207.58C412.177 1107.96 618.916 1004.93 882.258 1154.64C1204.85 1337.98 1479.32 1304.3 1652.73 1243.73C1840.77 1178.1 1953.97 1067.6 1955.11 1066.52L1958.3 1069.71C1957.16 1070.85 1843.35 1181.89 1654.48 1247.94C1543.5 1286.73 1428.73 1302.61 1313.24 1295.16C1168.94 1285.83 1023.19 1239.88 880.092 1158.55C618.856 1010.04 413.2 1112.54 214.28 1211.61C102.038 1267.55 -4.00842 1320.36 -118.055 1329.62C-133.875 1330.88 -149.033 1331.49 -163.589 1331.49Z" fill="white"/>
<path d="M-172.071 1356.69C-308.734 1356.69 -393.667 1306.94 -442.209 1262.55C-500.857 1208.9 -520.586 1151.21 -520.767 1150.67L-516.496 1149.23C-516.315 1149.77 -496.887 1206.55 -439.021 1259.37C-385.607 1308.15 -287.561 1363.43 -123.769 1350.19C-12.1289 1341.17 91.4512 1292.45 191.663 1245.35C379.515 1157.05 573.803 1065.74 839.129 1216.54C1161.66 1399.88 1449.3 1354.46 1633.79 1284.03C1833.79 1207.7 1959.14 1086.37 1960.35 1085.17L1963.53 1088.42C1962.27 1089.62 1836.43 1211.54 1635.59 1288.18C1517.57 1333.23 1397.15 1354.1 1277.69 1350.25C1128.34 1345.44 980.063 1301.77 836.904 1220.39C573.622 1070.73 380.417 1161.56 193.588 1249.32C93.0151 1296.6 -10.9861 1345.44 -123.408 1354.58C-140.311 1356.03 -156.492 1356.69 -172.071 1356.69Z" fill="white"/>
<path d="M1243.95 1405.41C1243.34 1405.41 1242.74 1405.41 1242.2 1405.41C1087.79 1405.11 936.935 1363.67 793.836 1282.34C528.028 1131.24 355.394 1206.97 172.595 1287.16C78.8195 1328.3 -18.144 1370.83 -128.581 1379.73C-294.117 1393.14 -391.502 1341.95 -444.074 1296.66C-501.218 1247.4 -519.263 1194.22 -519.443 1193.68L-515.173 1192.24C-514.992 1192.78 -497.248 1244.99 -441.006 1293.35C-389.096 1337.98 -292.794 1388.45 -129.003 1375.16C-19.2869 1366.25 77.3158 1323.91 170.73 1282.94C354.552 1202.34 528.269 1126.13 796.001 1278.37C1118.53 1461.71 1419.29 1404.57 1614.78 1324.33C1826.75 1237.29 1964.2 1105.14 1965.58 1103.81L1968.71 1107.06C1967.32 1108.39 1829.4 1241.08 1616.64 1328.42C1492.25 1379.49 1366.9 1405.41 1243.95 1405.41Z" fill="white"/>
<path d="M1183.67 1460.81C1032.52 1460.81 886.949 1421.59 750.707 1344.18C481.772 1191.27 321.048 1256.12 150.88 1324.69C63.9621 1359.76 -25.9037 1395.97 -133.875 1404.75C-450.871 1430.31 -517.519 1238.67 -518.12 1236.75L-513.849 1235.36C-513.248 1237.23 -447.503 1425.68 -134.236 1400.24C-26.9263 1391.58 62.6388 1355.43 149.196 1320.54C320.386 1251.49 482.072 1186.34 752.933 1340.27C1075.46 1523.61 1389.45 1454.68 1595.95 1364.57C1819.89 1266.82 1969.31 1123.97 1970.81 1122.52L1973.94 1125.77C1972.44 1127.21 1822.42 1270.67 1597.76 1368.72C1465.78 1426.34 1334.17 1457.2 1206.71 1460.57C1199.01 1460.69 1191.31 1460.81 1183.67 1460.81Z" fill="white"/>
</g>
</svg>
