<svg width="1920" height="590" viewBox="0 0 1920 590" fill="none" xmlns="http://www.w3.org/2000/svg">
<mask id="mask0_460_23180" style="mask-type:alpha" maskUnits="userSpaceOnUse" x="0" y="0" width="1920" height="590">
<path d="M0 0H1920V590H0V0Z" fill="#101828"/>
</mask>
<g mask="url(#mask0_460_23180)">
<path d="M-140.371 382.117C-284.493 382.117 -379.111 313.003 -434.45 252.251C-499.534 180.851 -525.759 105.241 -526 104.46L-521.729 103.016C-521.489 103.738 -495.443 178.626 -431.021 249.303C-371.652 314.447 -266.448 389.275 -102.717 376.042C13.7358 366.598 139.211 295.439 272.145 220.07C497.23 92.4293 752.391 -52.2341 1011.58 95.0759C1334.17 278.477 1569.3 279.92 1709.7 248.942C1861.76 215.318 1938.63 137.422 1939.35 136.64L1942.6 139.768C1941.82 140.55 1864.22 219.348 1710.96 253.273C1569.72 284.552 1333.33 283.168 1009.36 99.0459C752.391 -47.001 498.433 97.0008 274.431 224.04C141.076 299.65 15.1794 371.049 -102.296 380.553C-115.409 381.576 -128.1 382.117 -140.371 382.117Z" fill="white"/>
<path d="M-147.83 407.2C-290.448 407.2 -382.72 342.959 -436.435 286.296C-499.834 219.348 -524.436 148.249 -524.677 147.528L-520.406 146.084C-520.165 146.806 -495.804 217.122 -433.006 283.349C-375.141 344.402 -271.741 414.358 -108.01 401.125C7.5401 391.741 126.399 326.778 252.295 258.025C362.191 197.994 475.816 135.918 594.735 107.106C729.654 74.444 851.881 90.745 968.333 156.971C1291.04 340.432 1539.35 330.146 1690.81 289.183C1854.78 244.852 1943.56 156.189 1944.47 155.287L1947.65 158.475C1946.75 159.377 1857.13 248.882 1691.95 293.574C1539.65 334.718 1290.08 345.124 966.048 160.941C707.939 14.2327 477.32 140.189 254.34 261.995C128.023 330.988 8.68298 396.192 -107.77 405.636C-121.424 406.659 -134.838 407.2 -147.83 407.2Z" fill="white"/>
<path d="M-155.589 432.343C-296.463 432.343 -386.389 372.914 -438.359 320.342C-500.195 257.845 -523.172 191.198 -523.413 190.536L-519.142 189.092C-518.902 189.754 -496.165 255.559 -434.991 317.334C-378.629 374.297 -277.034 439.381 -113.243 426.088C1.22485 416.824 113.527 358.057 232.385 295.8C444.358 184.821 663.609 70.0532 925.326 218.807C1247.92 402.147 1509.27 380.192 1671.68 329.485C1847.74 274.507 1948.8 174.897 1949.82 173.874L1953.01 177.062C1951.99 178.085 1850.27 278.356 1673.24 333.695C1509.87 384.764 1247.19 406.899 923.101 222.717C663.549 75.166 445.381 189.393 234.491 299.77C115.151 362.267 2.48798 421.275 -112.882 430.599C-127.619 431.802 -141.814 432.343 -155.589 432.343Z" fill="white"/>
<path d="M-163.589 457.486C-302.478 457.486 -389.998 402.869 -440.284 354.448C-500.556 296.402 -521.849 234.205 -522.09 233.604L-517.819 232.16C-517.579 232.762 -496.526 294.056 -436.976 351.32C-382.118 404.192 -282.267 464.404 -118.476 451.11C-5.27161 441.967 100.354 389.275 212.235 333.575C412.177 233.965 618.916 130.926 882.258 280.642C1204.85 463.983 1479.32 430.298 1652.73 369.726C1840.77 304.101 1953.97 193.603 1955.11 192.521L1958.3 195.709C1957.16 196.852 1843.35 307.891 1654.48 373.936C1543.5 412.734 1428.73 428.614 1313.24 421.155C1168.94 411.832 1023.19 365.876 880.092 284.552C618.856 136.039 413.2 238.536 214.28 337.605C102.038 393.546 -4.00842 446.358 -118.055 455.622C-133.875 456.885 -149.033 457.486 -163.589 457.486Z" fill="white"/>
<path d="M-172.071 482.69C-308.734 482.69 -393.667 432.945 -442.209 388.553C-500.857 334.898 -520.586 277.213 -520.767 276.672L-516.496 275.228C-516.315 275.77 -496.887 332.552 -439.021 385.365C-385.607 434.148 -287.561 489.426 -123.769 476.193C-12.1289 467.171 91.4512 418.448 191.663 371.35C379.515 283.048 573.803 191.739 839.129 342.537C1161.66 525.878 1449.3 480.464 1633.79 410.027C1833.79 333.695 1959.14 212.371 1960.35 211.167L1963.53 214.416C1962.27 215.619 1836.43 337.545 1635.59 414.177C1517.57 459.231 1397.15 480.103 1277.69 476.253C1128.34 471.441 980.063 427.772 836.904 346.387C573.622 196.731 380.417 287.559 193.588 375.32C93.0151 422.599 -10.9861 471.441 -123.408 480.584C-140.311 482.028 -156.492 482.69 -172.071 482.69Z" fill="white"/>
<path d="M1243.95 531.412C1243.34 531.412 1242.74 531.412 1242.2 531.412C1087.79 531.111 936.935 489.667 793.836 408.343C528.028 257.243 355.394 332.974 172.595 413.155C78.8195 454.298 -18.144 496.825 -128.581 505.728C-294.117 519.141 -391.502 467.953 -444.074 422.659C-501.218 373.395 -519.263 320.222 -519.443 319.68L-515.173 318.237C-514.992 318.778 -497.248 370.989 -441.006 419.351C-389.096 463.983 -292.794 514.449 -129.003 501.156C-19.2869 492.254 77.3158 449.907 170.73 408.944C354.552 328.342 528.269 252.131 796.001 404.373C1118.53 587.714 1419.29 530.57 1614.78 450.328C1826.75 363.29 1964.2 231.138 1965.58 229.814L1968.71 233.063C1967.32 234.386 1829.4 367.079 1616.64 454.419C1492.25 505.487 1366.9 531.412 1243.95 531.412Z" fill="white"/>
<path d="M1183.67 586.811C1032.52 586.811 886.949 547.593 750.707 470.178C481.772 317.274 321.048 382.117 150.88 450.689C63.9621 485.757 -25.9037 521.968 -133.875 530.75C-450.871 556.315 -517.519 364.673 -518.12 362.748L-513.849 361.365C-513.248 363.23 -447.503 551.683 -134.236 526.239C-26.9263 517.577 62.6388 481.427 149.196 446.539C320.386 377.485 482.072 312.342 752.933 466.268C1075.46 649.609 1389.45 580.676 1595.95 490.57C1819.89 392.824 1969.31 249.965 1970.81 248.521L1973.94 251.77C1972.44 253.213 1822.42 396.674 1597.76 494.72C1465.78 552.345 1334.17 583.202 1206.71 586.571C1199.01 586.691 1191.31 586.811 1183.67 586.811Z" fill="white"/>
</g>
</svg>
