<svg width="3840" height="591" viewBox="0 0 3840 591" fill="none" xmlns="http://www.w3.org/2000/svg">
<mask id="mask0_34_110" style="mask-type:alpha" maskUnits="userSpaceOnUse" x="1920" y="0" width="1920" height="590">
<path d="M1920 0H3840V590H1920V0Z" fill="#101828"/>
</mask>
<g mask="url(#mask0_34_110)">
<path d="M1779.63 382.117C1635.51 382.117 1540.89 313.003 1485.55 252.251C1420.47 180.851 1394.24 105.241 1394 104.46L1398.27 103.016C1398.51 103.738 1424.56 178.626 1488.98 249.303C1548.35 314.447 1653.55 389.275 1817.28 376.042C1933.74 366.598 2059.21 295.439 2192.14 220.07C2417.23 92.4293 2672.39 -52.2341 2931.58 95.0759C3254.17 278.477 3489.3 279.92 3629.7 248.942C3781.76 215.318 3858.63 137.422 3859.35 136.64L3862.6 139.768C3861.82 140.55 3784.22 219.348 3630.96 253.273C3489.72 284.552 3253.33 283.168 2929.36 99.0459C2672.39 -47.001 2418.43 97.0008 2194.43 224.04C2061.08 299.65 1935.18 371.049 1817.7 380.553C1804.59 381.576 1791.9 382.117 1779.63 382.117Z" fill="white"/>
<path d="M1772.17 407.2C1629.55 407.2 1537.28 342.959 1483.57 286.296C1420.17 219.348 1395.56 148.249 1395.32 147.528L1399.59 146.084C1399.83 146.806 1424.2 217.122 1486.99 283.349C1544.86 344.402 1648.26 414.358 1811.99 401.125C1927.54 391.741 2046.4 326.778 2172.3 258.025C2282.19 197.994 2395.82 135.918 2514.74 107.106C2649.65 74.444 2771.88 90.745 2888.33 156.971C3211.04 340.432 3459.35 330.146 3610.81 289.183C3774.78 244.852 3863.56 156.189 3864.47 155.287L3867.65 158.475C3866.75 159.377 3777.13 248.882 3611.95 293.574C3459.65 334.718 3210.08 345.124 2886.05 160.941C2627.94 14.2327 2397.32 140.189 2174.34 261.995C2048.02 330.988 1928.68 396.192 1812.23 405.636C1798.58 406.659 1785.16 407.2 1772.17 407.2Z" fill="white"/>
<path d="M1764.41 432.343C1623.54 432.343 1533.61 372.914 1481.64 320.342C1419.8 257.845 1396.83 191.198 1396.59 190.536L1400.86 189.092C1401.1 189.754 1423.83 255.559 1485.01 317.334C1541.37 374.297 1642.97 439.381 1806.76 426.088C1921.22 416.824 2033.53 358.057 2152.39 295.8C2364.36 184.821 2583.61 70.0532 2845.33 218.807C3167.92 402.147 3429.27 380.192 3591.68 329.485C3767.74 274.507 3868.8 174.897 3869.82 173.874L3873.01 177.062C3871.98 178.085 3770.27 278.356 3593.24 333.695C3429.87 384.764 3167.19 406.899 2843.1 222.717C2583.55 75.166 2365.38 189.393 2154.49 299.77C2035.15 362.267 1922.49 421.275 1807.12 430.599C1792.38 431.802 1778.19 432.343 1764.41 432.343Z" fill="white"/>
<path d="M1756.41 457.486C1617.52 457.486 1530 402.869 1479.72 354.448C1419.44 296.402 1398.15 234.205 1397.91 233.604L1402.18 232.16C1402.42 232.762 1423.47 294.056 1483.02 351.32C1537.88 404.192 1637.73 464.404 1801.52 451.11C1914.73 441.967 2020.35 389.275 2132.23 333.575C2332.18 233.965 2538.92 130.926 2802.26 280.642C3124.85 463.983 3399.32 430.298 3572.73 369.726C3760.77 304.101 3873.97 193.603 3875.11 192.521L3878.3 195.709C3877.16 196.852 3763.35 307.891 3574.48 373.936C3463.5 412.734 3348.73 428.614 3233.24 421.155C3088.94 411.832 2943.19 365.876 2800.09 284.552C2538.86 136.039 2333.2 238.536 2134.28 337.605C2022.04 393.546 1915.99 446.358 1801.94 455.622C1786.12 456.885 1770.97 457.486 1756.41 457.486Z" fill="white"/>
<path d="M1747.93 482.69C1611.27 482.69 1526.33 432.945 1477.79 388.553C1419.14 334.898 1399.41 277.213 1399.23 276.672L1403.5 275.228C1403.68 275.77 1423.11 332.552 1480.98 385.365C1534.39 434.148 1632.44 489.426 1796.23 476.193C1907.87 467.171 2011.45 418.448 2111.66 371.35C2299.51 283.048 2493.8 191.739 2759.13 342.537C3081.66 525.878 3369.3 480.464 3553.79 410.027C3753.79 333.695 3879.14 212.371 3880.35 211.167L3883.53 214.416C3882.27 215.619 3756.43 337.545 3555.59 414.177C3437.57 459.231 3317.15 480.103 3197.69 476.253C3048.34 471.441 2900.06 427.772 2756.9 346.387C2493.62 196.731 2300.42 287.559 2113.59 375.32C2013.01 422.599 1909.01 471.441 1796.59 480.584C1779.69 482.028 1763.51 482.69 1747.93 482.69Z" fill="white"/>
<path d="M3163.95 531.412C3163.34 531.412 3162.74 531.412 3162.2 531.412C3007.79 531.111 2856.94 489.667 2713.84 408.343C2448.03 257.243 2275.39 332.974 2092.59 413.155C1998.82 454.298 1901.86 496.825 1791.42 505.728C1625.88 519.141 1528.5 467.953 1475.93 422.659C1418.78 373.395 1400.74 320.222 1400.56 319.68L1404.83 318.237C1405.01 318.778 1422.75 370.989 1478.99 419.351C1530.9 463.983 1627.21 514.449 1791 501.156C1900.71 492.254 1997.32 449.907 2090.73 408.944C2274.55 328.342 2448.27 252.131 2716 404.373C3038.53 587.714 3339.29 530.57 3534.78 450.328C3746.75 363.29 3884.2 231.138 3885.58 229.814L3888.71 233.063C3887.32 234.386 3749.4 367.079 3536.64 454.419C3412.25 505.487 3286.9 531.412 3163.95 531.412Z" fill="white"/>
<path d="M3103.67 586.811C2952.52 586.811 2806.95 547.593 2670.71 470.178C2401.77 317.274 2241.05 382.117 2070.88 450.689C1983.96 485.757 1894.1 521.968 1786.12 530.75C1469.13 556.315 1402.48 364.673 1401.88 362.748L1406.15 361.365C1406.75 363.23 1472.5 551.683 1785.76 526.239C1893.07 517.577 1982.64 481.427 2069.2 446.539C2240.39 377.485 2402.07 312.342 2672.93 466.268C2995.46 649.609 3309.45 580.676 3515.95 490.57C3739.89 392.824 3889.31 249.965 3890.81 248.521L3893.94 251.77C3892.44 253.213 3742.42 396.674 3517.75 494.72C3385.78 552.345 3254.17 583.202 3126.71 586.571C3119.01 586.691 3111.31 586.811 3103.67 586.811Z" fill="white"/>
</g>
<mask id="mask1_34_110" style="mask-type:alpha" maskUnits="userSpaceOnUse" x="0" y="1" width="1920" height="590">
<path d="M1920 1H0V591H1920V1Z" fill="#101828"/>
</mask>
<g mask="url(#mask1_34_110)">
<path d="M2060.37 383.117C2204.49 383.117 2299.11 314.003 2354.45 253.251C2419.53 181.851 2445.76 106.241 2446 105.46L2441.73 104.016C2441.49 104.738 2415.44 179.626 2351.02 250.303C2291.65 315.447 2186.45 390.275 2022.72 377.042C1906.26 367.598 1780.79 296.439 1647.86 221.07C1422.77 93.4293 1167.61 -51.2341 908.418 96.0759C585.827 279.477 350.697 280.92 210.304 249.942C58.242 216.318 -18.6311 138.422 -19.3529 137.64L-22.6011 140.768C-21.8191 141.55 55.7756 220.348 209.041 254.273C350.275 285.552 586.669 284.168 910.643 100.046C1167.61 -46.001 1421.57 98.0008 1645.57 225.04C1778.92 300.65 1904.82 372.049 2022.3 381.553C2035.41 382.576 2048.1 383.117 2060.37 383.117Z" fill="white"/>
<path d="M2067.83 408.2C2210.45 408.2 2302.72 343.959 2356.44 287.296C2419.83 220.348 2444.44 149.249 2444.68 148.528L2440.41 147.084C2440.17 147.806 2415.8 218.122 2353.01 284.349C2295.14 345.402 2191.74 415.358 2028.01 402.125C1912.46 392.741 1793.6 327.778 1667.71 259.025C1557.81 198.994 1444.18 136.918 1325.26 108.106C1190.35 75.444 1068.12 91.745 951.666 157.971C628.956 341.432 380.652 331.146 229.192 290.183C65.2197 245.852 -23.5632 157.189 -24.4655 156.287L-27.6535 159.475C-26.7512 160.377 62.8738 249.882 228.049 294.574C380.351 335.718 629.918 346.124 953.952 161.941C1212.06 15.2327 1442.68 141.189 1665.66 262.995C1791.98 331.988 1911.32 397.192 2027.77 406.636C2041.42 407.659 2054.84 408.2 2067.83 408.2Z" fill="white"/>
<path d="M2075.59 433.343C2216.46 433.343 2306.39 373.914 2358.36 321.342C2420.2 258.845 2443.17 192.198 2443.41 191.536L2439.14 190.092C2438.9 190.754 2416.17 256.559 2354.99 318.334C2298.63 375.297 2197.03 440.381 2033.24 427.088C1918.78 417.824 1806.47 359.057 1687.61 296.8C1475.64 185.821 1256.39 71.0532 994.674 219.807C672.084 403.147 410.727 381.192 248.32 330.485C72.2572 275.507 -28.7967 175.897 -29.8193 174.874L-33.0073 178.062C-31.9847 179.085 69.7308 279.356 246.756 334.695C410.126 385.764 672.806 407.899 996.9 223.717C1256.45 76.166 1474.62 190.393 1685.51 300.77C1804.85 363.267 1917.51 422.275 2032.88 431.599C2047.62 432.802 2061.81 433.343 2075.59 433.343Z" fill="white"/>
<path d="M2083.59 458.486C2222.48 458.486 2310 403.869 2360.28 355.448C2420.56 297.402 2441.85 235.205 2442.09 234.604L2437.82 233.16C2437.58 233.762 2416.53 295.056 2356.98 352.32C2302.12 405.192 2202.27 465.404 2038.48 452.11C1925.27 442.967 1819.65 390.275 1707.77 334.575C1507.82 234.965 1301.08 131.926 1037.74 281.642C715.152 464.983 440.683 431.298 267.267 370.726C79.2346 305.101 -33.9699 194.603 -35.1128 193.521L-38.3008 196.709C-37.1579 197.852 76.648 308.891 265.522 374.936C376.501 413.734 491.27 429.614 606.76 422.155C751.062 412.832 896.808 366.876 1039.91 285.552C1301.14 137.039 1506.8 239.536 1705.72 338.605C1817.96 394.546 1924.01 447.358 2038.06 456.622C2053.87 457.885 2069.03 458.486 2083.59 458.486Z" fill="white"/>
<path d="M2092.07 483.69C2228.73 483.69 2313.67 433.945 2362.21 389.553C2420.86 335.898 2440.59 278.213 2440.77 277.672L2436.5 276.228C2436.32 276.77 2416.89 333.552 2359.02 386.365C2305.61 435.148 2207.56 490.426 2043.77 477.193C1932.13 468.171 1828.55 419.448 1728.34 372.35C1540.49 284.048 1346.2 192.739 1080.87 343.537C758.341 526.878 470.698 481.464 286.215 411.027C86.2124 334.695 -39.1426 213.371 -40.3456 212.167L-43.5336 215.416C-42.2704 216.619 83.5658 338.545 284.41 415.177C402.427 460.231 522.849 481.103 642.309 477.253C791.664 472.441 939.937 428.772 1083.1 347.387C1346.38 197.731 1539.58 288.559 1726.41 376.32C1826.99 423.599 1930.99 472.441 2043.41 481.584C2060.31 483.028 2076.49 483.69 2092.07 483.69Z" fill="white"/>
<path d="M676.054 532.412C676.655 532.412 677.257 532.412 677.798 532.412C832.206 532.111 983.065 490.667 1126.16 409.343C1391.97 258.243 1564.61 333.974 1747.41 414.155C1841.18 455.298 1938.14 497.825 2048.58 506.728C2214.12 520.141 2311.5 468.953 2364.07 423.659C2421.22 374.395 2439.26 321.222 2439.44 320.68L2435.17 319.237C2434.99 319.778 2417.25 371.989 2361.01 420.351C2309.1 464.983 2212.79 515.449 2049 502.156C1939.29 493.254 1842.68 450.907 1749.27 409.944C1565.45 329.342 1391.73 253.131 1124 405.373C801.469 588.714 500.713 531.57 305.222 451.328C93.2498 364.29 -44.1955 232.138 -45.579 230.814L-48.7068 234.063C-47.3233 235.386 90.6031 368.079 303.358 455.419C427.75 506.487 553.105 532.412 676.054 532.412Z" fill="white"/>
<path d="M736.325 587.811C887.485 587.811 1033.05 548.593 1169.29 471.178C1438.23 318.274 1598.95 383.117 1769.12 451.689C1856.04 486.757 1945.9 522.968 2053.87 531.75C2370.87 557.315 2437.52 365.673 2438.12 363.748L2433.85 362.365C2433.25 364.23 2367.5 552.683 2054.24 527.239C1946.93 518.577 1857.36 482.427 1770.8 447.539C1599.61 378.485 1437.93 313.342 1167.07 467.268C844.537 650.609 530.548 581.676 324.05 491.57C100.107 393.824 -49.3083 250.965 -50.8121 249.521L-53.9399 252.77C-52.4361 254.213 97.5806 397.674 322.245 495.72C454.216 553.345 585.827 584.202 713.287 587.571C720.987 587.691 728.686 587.811 736.325 587.811Z" fill="white"/>
</g>
</svg>
