<svg width="944" height="194" viewBox="0 0 944 194" fill="none" xmlns="http://www.w3.org/2000/svg">
<mask id="path-1-outside-1_460_26211" maskUnits="userSpaceOnUse" x="-1" y="-1" width="946" height="196" fill="black">
<rect fill="white" x="-1" y="-1" width="946" height="196"/>
<path d="M0.346591 153V7.54545H54.892C66.0663 7.54545 75.4413 9.62878 83.017 13.7955C90.6402 17.9621 96.393 23.6913 100.276 30.983C104.205 38.2273 106.17 46.4659 106.17 55.6989C106.17 65.0265 104.205 73.3125 100.276 80.5568C96.3456 87.8011 90.5455 93.5066 82.875 97.6733C75.2045 101.793 65.7585 103.852 54.5369 103.852H18.3864V82.1903H50.9858C57.5199 82.1903 62.8703 81.054 67.0369 78.7812C71.2036 76.5085 74.2813 73.3835 76.2699 69.4062C78.3059 65.429 79.3239 60.8598 79.3239 55.6989C79.3239 50.5379 78.3059 45.9924 76.2699 42.0625C74.2813 38.1326 71.1799 35.0786 66.9659 32.9006C62.7992 30.6752 57.4252 29.5625 50.8438 29.5625H26.696V153H0.346591ZM147.631 7.54545V153H121.921V7.54545H147.631ZM199.462 155.202C192.549 155.202 186.322 153.971 180.783 151.509C175.29 148.999 170.934 145.306 167.714 140.429C164.542 135.552 162.956 129.539 162.956 122.389C162.956 116.234 164.092 111.144 166.365 107.119C168.638 103.095 171.739 99.875 175.669 97.4602C179.599 95.0455 184.026 93.2225 188.95 91.9915C193.922 90.7131 199.059 89.7898 204.362 89.2216C210.754 88.5587 215.939 87.9669 219.916 87.446C223.893 86.8778 226.782 86.0256 228.581 84.8892C230.428 83.7055 231.351 81.8826 231.351 79.4205V78.9943C231.351 73.6439 229.765 69.5009 226.592 66.5653C223.42 63.6297 218.851 62.1619 212.885 62.1619C206.588 62.1619 201.592 63.535 197.899 66.2812C194.253 69.0275 191.791 72.2708 190.513 76.0114L166.507 72.6023C168.401 65.9735 171.526 60.4337 175.882 55.983C180.238 51.4848 185.565 48.1231 191.862 45.8977C198.16 43.625 205.12 42.4886 212.743 42.4886C217.999 42.4886 223.231 43.1042 228.439 44.3352C233.647 45.5663 238.406 47.6023 242.714 50.4432C247.023 53.2367 250.48 57.0483 253.084 61.8778C255.735 66.7074 257.061 72.7443 257.061 79.9886V153H232.345V138.014H231.493C229.93 141.045 227.729 143.885 224.888 146.537C222.094 149.141 218.567 151.248 214.305 152.858C210.091 154.42 205.143 155.202 199.462 155.202ZM206.138 136.31C211.299 136.31 215.773 135.292 219.561 133.256C223.349 131.172 226.261 128.426 228.297 125.017C230.38 121.608 231.422 117.891 231.422 113.866V101.011C230.617 101.674 229.244 102.29 227.303 102.858C225.409 103.426 223.278 103.923 220.911 104.349C218.543 104.776 216.199 105.154 213.879 105.486C211.559 105.817 209.547 106.101 207.842 106.338C204.007 106.859 200.574 107.711 197.544 108.895C194.514 110.079 192.123 111.736 190.371 113.866C188.619 115.95 187.743 118.649 187.743 121.963C187.743 126.698 189.471 130.273 192.928 132.688C196.384 135.102 200.787 136.31 206.138 136.31ZM288.987 193.909C285.483 193.909 282.24 193.625 279.257 193.057C276.321 192.536 273.978 191.92 272.226 191.21L278.192 171.182C281.932 172.271 285.27 172.792 288.206 172.744C291.142 172.697 293.722 171.774 295.947 169.974C298.22 168.223 300.138 165.287 301.7 161.168L303.902 155.273L264.342 43.9091H291.615L316.757 126.295H317.893L343.107 43.9091H370.45L326.771 166.21C324.735 171.987 322.036 176.935 318.675 181.054C315.313 185.221 311.194 188.393 306.317 190.571C301.487 192.796 295.711 193.909 288.987 193.909ZM446.447 7.54545L484.303 122.034H485.794L523.578 7.54545H552.555L501.277 153H468.749L417.541 7.54545H446.447ZM564.577 153V43.9091H590.288V153H564.577ZM577.504 28.4261C573.432 28.4261 569.928 27.0767 566.992 24.3778C564.057 21.6316 562.589 18.3409 562.589 14.5057C562.589 10.6231 564.057 7.33238 566.992 4.63351C569.928 1.8873 573.432 0.5142 577.504 0.5142C581.623 0.5142 585.127 1.8873 588.015 4.63351C590.951 7.33238 592.418 10.6231 592.418 14.5057C592.418 18.3409 590.951 21.6316 588.015 24.3778C585.127 27.0767 581.623 28.4261 577.504 28.4261ZM651.209 154.918C642.639 154.918 634.968 152.716 628.197 148.312C621.427 143.909 616.076 137.517 612.146 129.136C608.216 120.756 606.251 110.576 606.251 98.5966C606.251 86.4754 608.24 76.2481 612.217 67.9148C616.242 59.5341 621.663 53.2131 628.482 48.9517C635.3 44.643 642.899 42.4886 651.28 42.4886C657.672 42.4886 662.928 43.5777 667.047 45.7557C671.166 47.8864 674.433 50.4669 676.848 53.4972C679.263 56.4801 681.133 59.2973 682.459 61.9489H683.524V7.54545H709.305V153H684.021V135.812H682.459C681.133 138.464 679.215 141.281 676.706 144.264C674.196 147.2 670.882 149.709 666.763 151.793C662.643 153.876 657.459 154.918 651.209 154.918ZM658.382 133.824C663.827 133.824 668.467 132.356 672.303 129.42C676.138 126.437 679.05 122.295 681.038 116.991C683.027 111.688 684.021 105.509 684.021 98.4545C684.021 91.3996 683.027 85.268 681.038 80.0597C679.097 74.8513 676.209 70.803 672.374 67.9148C668.586 65.0265 663.922 63.5824 658.382 63.5824C652.653 63.5824 647.871 65.0739 644.036 68.0568C640.2 71.0398 637.312 75.1591 635.371 80.4148C633.429 85.6705 632.459 91.6837 632.459 98.4545C632.459 105.273 633.429 111.357 635.371 116.707C637.359 122.01 640.271 126.201 644.107 129.278C647.989 132.309 652.748 133.824 658.382 133.824ZM778.998 155.131C768.06 155.131 758.614 152.858 750.66 148.312C742.753 143.72 736.668 137.233 732.407 128.852C728.146 120.424 726.015 110.505 726.015 99.0938C726.015 87.8722 728.146 78.0237 732.407 69.5483C736.716 61.0256 742.729 54.3968 750.447 49.6619C758.165 44.8797 767.232 42.4886 777.648 42.4886C784.372 42.4886 790.717 43.5777 796.683 45.7557C802.696 47.8864 807.999 51.2008 812.592 55.6989C817.232 60.197 820.878 65.9261 823.529 72.8864C826.181 79.7992 827.506 88.0379 827.506 97.6023V105.486H738.089V88.1562H802.862C802.814 83.232 801.749 78.8523 799.665 75.017C797.582 71.1345 794.67 68.0805 790.93 65.8551C787.237 63.6297 782.928 62.517 778.004 62.517C772.748 62.517 768.131 63.7955 764.154 66.3523C760.177 68.8617 757.076 72.1761 754.85 76.2955C752.672 80.3674 751.559 84.8419 751.512 89.7188V104.847C751.512 111.191 752.672 116.636 754.992 121.182C757.312 125.68 760.556 129.136 764.722 131.551C768.889 133.919 773.766 135.102 779.353 135.102C783.094 135.102 786.479 134.581 789.509 133.54C792.54 132.451 795.167 130.865 797.393 128.781C799.618 126.698 801.299 124.117 802.435 121.04L826.441 123.739C824.926 130.083 822.038 135.623 817.776 140.358C813.562 145.045 808.165 148.691 801.583 151.295C795.002 153.852 787.473 155.131 778.998 155.131ZM890.842 155.131C880.189 155.131 870.956 152.787 863.143 148.099C855.331 143.412 849.27 136.854 844.962 128.426C840.7 119.998 838.57 110.15 838.57 98.8807C838.57 87.6117 840.7 77.7396 844.962 69.2642C849.27 60.7888 855.331 54.2074 863.143 49.5199C870.956 44.8324 880.189 42.4886 890.842 42.4886C901.496 42.4886 910.729 44.8324 918.541 49.5199C926.354 54.2074 932.391 60.7888 936.652 69.2642C940.961 77.7396 943.115 87.6117 943.115 98.8807C943.115 110.15 940.961 119.998 936.652 128.426C932.391 136.854 926.354 143.412 918.541 148.099C910.729 152.787 901.496 155.131 890.842 155.131ZM890.984 134.534C896.761 134.534 901.59 132.948 905.473 129.776C909.356 126.556 912.244 122.247 914.138 116.849C916.079 111.452 917.05 105.438 917.05 98.8097C917.05 92.1335 916.079 86.0966 914.138 80.6989C912.244 75.2538 909.356 70.9214 905.473 67.7017C901.59 64.482 896.761 62.8722 890.984 62.8722C885.066 62.8722 880.142 64.482 876.212 67.7017C872.329 70.9214 869.417 75.2538 867.476 80.6989C865.582 86.0966 864.635 92.1335 864.635 98.8097C864.635 105.438 865.582 111.452 867.476 116.849C869.417 122.247 872.329 126.556 876.212 129.776C880.142 132.948 885.066 134.534 890.984 134.534Z"/>
</mask>
<path d="M0.346591 153H-0.653409V154H0.346591V153ZM0.346591 7.54545V6.54545H-0.653409V7.54545H0.346591ZM83.0171 13.7955L82.5351 14.6717L82.5374 14.6729L83.0171 13.7955ZM100.276 30.983L99.3929 31.453L99.3966 31.4598L100.276 30.983ZM100.276 80.5568L101.155 81.0337V81.0337L100.276 80.5568ZM82.875 97.6733L83.3481 98.5543L83.3523 98.552L82.875 97.6733ZM18.3864 103.852H17.3864V104.852H18.3864V103.852ZM18.3864 82.1903V81.1903H17.3864V82.1903H18.3864ZM67.0369 78.7812L67.5158 79.6591L67.0369 78.7812ZM76.2699 69.4062L75.3797 68.9506L75.3755 68.959L76.2699 69.4062ZM76.2699 42.0625L75.3776 42.514L75.382 42.5225L76.2699 42.0625ZM66.9659 32.9006L66.4948 33.7827L66.5068 33.7889L66.9659 32.9006ZM26.696 29.5625V28.5625H25.696V29.5625H26.696ZM26.696 153V154H27.696V153H26.696ZM1.34659 153V7.54545H-0.653409V153H1.34659ZM0.346591 8.54545H54.8921V6.54545H0.346591V8.54545ZM54.8921 8.54545C65.9457 8.54545 75.144 10.6065 82.5351 14.6717L83.499 12.9192C75.7386 8.65102 66.1868 6.54545 54.8921 6.54545V8.54545ZM82.5374 14.6729C89.9986 18.7511 95.6069 24.3427 99.3929 31.4529L101.158 30.513C97.1791 23.0399 91.2817 17.1731 83.4967 12.918L82.5374 14.6729ZM99.3966 31.4598C103.238 38.5408 105.17 46.6121 105.17 55.6989H107.17C107.17 46.3197 105.173 37.9137 101.155 30.5061L99.3966 31.4598ZM105.17 55.6989C105.17 64.8822 103.237 73.0004 99.3966 80.08L101.155 81.0337C105.174 73.6246 107.17 65.1708 107.17 55.6989H105.17ZM99.3966 80.08C95.5644 87.1441 89.9087 92.7145 82.3977 96.7946L83.3523 98.552C91.1822 94.2988 97.1269 88.4582 101.155 81.0337L99.3966 80.08ZM82.4019 96.7923C74.9129 100.814 65.6398 102.852 54.5369 102.852V104.852C65.8773 104.852 75.4962 102.771 83.3481 98.5543L82.4019 96.7923ZM54.5369 102.852H18.3864V104.852H54.5369V102.852ZM19.3864 103.852V82.1903H17.3864V103.852H19.3864ZM18.3864 83.1903H50.9858V81.1903H18.3864V83.1903ZM50.9858 83.1903C57.6272 83.1903 63.1573 82.0365 67.5158 79.6591L66.5581 77.9034C62.5832 80.0715 57.4125 81.1903 50.9858 81.1903V83.1903ZM67.5158 79.6591C71.849 77.2956 75.0781 74.0259 77.1643 69.8535L75.3755 68.959C73.4844 72.7411 70.5582 75.7215 66.5581 77.9034L67.5158 79.6591ZM77.16 69.8619C79.2787 65.7232 80.3239 60.9936 80.3239 55.6989H78.3239C78.3239 60.726 77.3331 65.1348 75.3797 68.9506L77.16 69.8619ZM80.3239 55.6989C80.3239 50.4044 79.2788 45.6965 77.1578 41.6025L75.382 42.5225C77.333 46.2884 78.3239 50.6714 78.3239 55.6989H80.3239ZM77.1622 41.611C75.0712 37.4789 71.8106 34.2789 67.4251 32.0122L66.5068 33.7889C70.5493 35.8783 73.4913 38.7863 75.3776 42.514L77.1622 41.611ZM67.437 32.0185C63.0797 29.6913 57.5284 28.5625 50.8438 28.5625V30.5625C57.322 30.5625 62.5188 31.6591 66.4948 33.7826L67.437 32.0185ZM50.8438 28.5625H26.696V30.5625H50.8438V28.5625ZM25.696 29.5625V153H27.696V29.5625H25.696ZM26.696 152H0.346591V154H26.696V152ZM147.631 7.54545H148.631V6.54545H147.631V7.54545ZM147.631 153V154H148.631V153H147.631ZM121.921 153H120.921V154H121.921V153ZM121.921 7.54545V6.54545H120.921V7.54545H121.921ZM146.631 7.54545V153H148.631V7.54545H146.631ZM147.631 152H121.921V154H147.631V152ZM122.921 153V7.54545H120.921V153H122.921ZM121.921 8.54545H147.631V6.54545H121.921V8.54545ZM180.783 151.509L180.367 152.418L180.377 152.422L180.783 151.509ZM167.714 140.429L166.876 140.974L166.88 140.98L167.714 140.429ZM166.365 107.119L165.494 106.628L166.365 107.119ZM175.669 97.4602L175.146 96.6082L175.669 97.4602ZM188.95 91.9915L189.193 92.9616L189.199 92.96L188.95 91.9915ZM204.362 89.2216L204.259 88.2269L204.256 88.2273L204.362 89.2216ZM219.916 87.446L220.046 88.4376L220.058 88.436L219.916 87.446ZM228.581 84.8892L229.115 85.7347L229.121 85.7311L228.581 84.8892ZM226.592 66.5653L227.272 65.8314L226.592 66.5653ZM197.899 66.2812L197.302 65.4788L197.297 65.4825L197.899 66.2812ZM190.513 76.0114L190.372 77.0014L191.191 77.1178L191.459 76.3348L190.513 76.0114ZM166.507 72.6023L165.546 72.3275L165.23 73.431L166.367 73.5923L166.507 72.6023ZM175.882 55.9829L176.597 56.6824L176.6 56.6786L175.882 55.9829ZM191.862 45.8977L192.195 46.8406L192.202 46.8383L191.862 45.8977ZM242.715 50.4432L242.164 51.2781L242.17 51.2822L242.715 50.4432ZM253.084 61.8778L252.204 62.3525L252.207 62.3591L253.084 61.8778ZM257.061 153V154H258.061V153H257.061ZM232.345 153H231.345V154H232.345V153ZM232.345 138.014H233.345V137.014H232.345V138.014ZM231.493 138.014V137.014H230.883L230.604 137.556L231.493 138.014ZM224.888 146.537L225.57 147.268L225.57 147.268L224.888 146.537ZM214.305 152.858L214.653 153.796L214.659 153.793L214.305 152.858ZM219.561 133.256L220.035 134.137L220.043 134.132L219.561 133.256ZM228.297 125.017L227.444 124.496L227.438 124.504L228.297 125.017ZM231.422 101.011H232.422V98.8924L230.786 100.239L231.422 101.011ZM227.303 102.858L227.022 101.898L227.015 101.9L227.303 102.858ZM220.911 104.349L221.088 105.334L220.911 104.349ZM207.842 106.338L207.977 107.329L207.98 107.329L207.842 106.338ZM197.544 108.895L197.18 107.963L197.544 108.895ZM190.371 113.866L191.136 114.51L191.143 114.502L190.371 113.866ZM192.928 132.688L192.355 133.507L192.928 132.688ZM199.462 154.202C192.669 154.202 186.584 152.993 181.189 150.595L180.377 152.422C186.061 154.949 192.428 156.202 199.462 156.202V154.202ZM181.198 150.599C175.87 148.165 171.662 144.593 168.549 139.878L166.88 140.98C170.206 146.019 174.71 149.833 180.367 152.418L181.198 150.599ZM168.553 139.884C165.508 135.203 163.956 129.39 163.956 122.389H161.956C161.956 129.688 163.576 135.901 166.876 140.974L168.553 139.884ZM163.956 122.389C163.956 116.351 165.071 111.444 167.236 107.611L165.494 106.628C163.113 110.844 161.956 116.117 161.956 122.389H163.956ZM167.236 107.611C169.425 103.734 172.407 100.638 176.193 98.3122L175.146 96.6082C171.071 99.1119 167.85 102.456 165.494 106.628L167.236 107.611ZM176.193 98.3122C180.027 95.9561 184.358 94.1704 189.193 92.9616L188.708 91.0213C183.694 92.2747 179.171 94.1349 175.146 96.6082L176.193 98.3122ZM189.199 92.96C194.122 91.6941 199.212 90.7791 204.469 90.2159L204.256 88.2273C198.906 88.8004 193.721 89.7321 188.701 91.023L189.199 92.96ZM204.465 90.2163C210.862 89.5529 216.056 88.96 220.046 88.4376L219.786 86.4545C215.822 86.9737 210.647 87.5645 204.259 88.2269L204.465 90.2163ZM220.058 88.436C224.072 87.8624 227.132 86.9868 229.115 85.7347L228.047 84.0437C226.431 85.0643 223.715 85.8932 219.775 86.4561L220.058 88.436ZM229.121 85.7311C231.293 84.3384 232.351 82.174 232.351 79.4204H230.351C230.351 81.5912 229.562 83.0726 228.041 84.0473L229.121 85.7311ZM232.351 79.4204V78.9943H230.351V79.4204H232.351ZM232.351 78.9943C232.351 73.4364 230.695 68.9997 227.272 65.8314L225.913 67.2993C228.834 70.0022 230.351 73.8515 230.351 78.9943H232.351ZM227.272 65.8314C223.854 62.6688 219.006 61.1619 212.885 61.1619V63.1619C218.696 63.1619 222.986 64.5906 225.913 67.2993L227.272 65.8314ZM212.885 61.1619C206.45 61.1619 201.222 62.5646 197.302 65.4788L198.496 67.0837C201.963 64.5055 206.725 63.1619 212.885 63.1619V61.1619ZM197.297 65.4825C193.517 68.3299 190.919 71.73 189.567 75.688L191.459 76.3348C192.663 72.8116 194.989 69.725 198.501 67.08L197.297 65.4825ZM190.653 75.0213L166.648 71.6122L166.367 73.5923L190.372 77.0014L190.653 75.0213ZM167.469 72.877C169.322 66.3907 172.369 61.002 176.597 56.6824L175.167 55.2835C170.683 59.8654 167.48 65.5563 165.546 72.3275L167.469 72.877ZM176.6 56.6786C180.842 52.2989 186.034 49.018 192.195 46.8406L191.529 44.9549C185.096 47.2282 179.634 50.6708 175.164 55.2873L176.6 56.6786ZM192.202 46.8383C198.376 44.6099 205.22 43.4886 212.743 43.4886V41.4886C205.02 41.4886 197.943 42.6401 191.523 44.9571L192.202 46.8383ZM212.743 43.4886C217.92 43.4886 223.075 44.0948 228.209 45.3084L228.669 43.362C223.387 42.1135 218.077 41.4886 212.743 41.4886V43.4886ZM228.209 45.3084C233.307 46.5135 237.957 48.504 242.164 51.278L243.265 49.6083C238.855 46.7005 233.987 44.6191 228.669 43.362L228.209 45.3084ZM242.17 51.2822C246.329 53.9782 249.674 57.6603 252.204 62.3525L253.964 61.4032C251.286 56.4363 247.718 52.4952 243.259 49.6041L242.17 51.2822ZM252.207 62.3591C254.756 67.002 256.061 72.8613 256.061 79.9886H258.061C258.061 72.6273 256.714 66.4128 253.96 61.3966L252.207 62.3591ZM256.061 79.9886V153H258.061V79.9886H256.061ZM257.061 152H232.345V154H257.061V152ZM233.345 153V138.014H231.345V153H233.345ZM232.345 137.014H231.493V139.014H232.345V137.014ZM230.604 137.556C229.101 140.471 226.974 143.222 224.205 145.806L225.57 147.268C228.483 144.549 230.76 141.618 232.382 138.472L230.604 137.556ZM224.206 145.805C221.524 148.306 218.115 150.35 213.952 151.922L214.659 153.793C219.019 152.146 222.664 149.977 225.57 147.268L224.206 145.805ZM213.958 151.92C209.88 153.432 205.055 154.202 199.462 154.202V156.202C205.232 156.202 210.303 155.409 214.653 153.796L213.958 151.92ZM206.138 137.31C211.431 137.31 216.075 136.265 220.035 134.137L219.088 132.375C215.472 134.318 211.166 135.31 206.138 135.31V137.31ZM220.043 134.132C223.972 131.971 227.02 129.105 229.155 125.53L227.438 124.504C225.501 127.748 222.726 130.374 219.079 132.379L220.043 134.132ZM229.15 125.538C231.33 121.971 232.422 118.074 232.422 113.866H230.422C230.422 117.709 229.43 121.245 227.444 124.496L229.15 125.538ZM232.422 113.866V101.011H230.422V113.866H232.422ZM230.786 100.239C230.143 100.769 228.932 101.339 227.022 101.898L227.583 103.818C229.555 103.241 231.091 102.58 232.058 101.783L230.786 100.239ZM227.015 101.9C225.164 102.455 223.071 102.944 220.733 103.365L221.088 105.334C223.485 104.902 225.653 104.397 227.59 103.816L227.015 101.9ZM220.733 103.365C218.378 103.789 216.046 104.166 213.738 104.496L214.021 106.476C216.353 106.143 218.709 105.762 221.088 105.334L220.733 103.365ZM213.738 104.496C211.419 104.827 209.408 105.111 207.705 105.348L207.98 107.329C209.686 107.092 211.7 106.807 214.021 106.476L213.738 104.496ZM207.708 105.347C203.808 105.877 200.297 106.746 197.18 107.963L197.908 109.826C200.852 108.676 204.206 107.841 207.977 107.329L207.708 105.347ZM197.18 107.963C194.019 109.198 191.477 110.947 189.598 113.231L191.143 114.502C192.768 112.525 195.008 110.959 197.908 109.826L197.18 107.963ZM189.605 113.223C187.671 115.523 186.743 118.466 186.743 121.963H188.743C188.743 118.831 189.567 116.376 191.136 114.51L189.605 113.223ZM186.743 121.963C186.743 126.978 188.595 130.88 192.355 133.507L193.5 131.868C190.348 129.665 188.743 126.418 188.743 121.963H186.743ZM192.355 133.507C196.019 136.067 200.638 137.31 206.138 137.31V135.31C200.937 135.31 196.749 134.137 193.5 131.868L192.355 133.507ZM279.257 193.057L279.444 192.074L279.432 192.072L279.257 193.057ZM272.226 191.21L271.267 190.925L271.008 191.796L271.85 192.137L272.226 191.21ZM278.192 171.182L278.471 170.222L277.517 169.944L277.233 170.896L278.192 171.182ZM288.206 172.744L288.19 171.744L288.206 172.744ZM295.947 169.974L295.337 169.182L295.328 169.19L295.319 169.197L295.947 169.974ZM301.7 161.168L302.635 161.522L302.637 161.518L301.7 161.168ZM303.902 155.273L304.839 155.623L304.966 155.281L304.844 154.938L303.902 155.273ZM264.342 43.9091V42.9091H262.926L263.4 44.2438L264.342 43.9091ZM291.615 43.9091L292.572 43.6172L292.355 42.9091H291.615V43.9091ZM316.757 126.295L315.801 126.587L316.017 127.295H316.757V126.295ZM317.893 126.295V127.295H318.633L318.85 126.588L317.893 126.295ZM343.107 43.9091V42.9091H342.367L342.15 43.6165L343.107 43.9091ZM370.45 43.9091L371.392 44.2454L371.869 42.9091H370.45V43.9091ZM326.771 166.21L325.83 165.874L325.828 165.878L326.771 166.21ZM318.675 181.054L317.9 180.422L317.896 180.426L318.675 181.054ZM306.317 190.571L305.909 189.658L305.898 189.663L306.317 190.571ZM288.987 192.909C285.537 192.909 282.357 192.629 279.444 192.074L279.07 194.039C282.123 194.621 285.43 194.909 288.987 194.909V192.909ZM279.432 192.072C276.53 191.557 274.263 190.957 272.602 190.283L271.85 192.137C273.693 192.884 276.113 193.515 279.082 194.041L279.432 192.072ZM273.184 191.496L279.15 171.467L277.233 170.896L271.267 190.925L273.184 191.496ZM277.912 172.142C281.719 173.25 285.16 173.794 288.222 173.744L288.19 171.744C285.381 171.79 282.145 171.291 278.471 170.222L277.912 172.142ZM288.222 173.744C291.375 173.693 294.172 172.696 296.576 170.752L295.319 169.197C293.272 170.852 290.908 171.701 288.19 171.744L288.222 173.744ZM296.558 170.766C299.036 168.856 301.04 165.729 302.635 161.522L300.765 160.813C299.236 164.845 297.405 167.589 295.337 169.182L296.558 170.766ZM302.637 161.518L304.839 155.623L302.965 154.923L300.763 160.818L302.637 161.518ZM304.844 154.938L265.285 43.5744L263.4 44.2438L302.96 155.607L304.844 154.938ZM264.342 44.9091H291.615V42.9091H264.342V44.9091ZM290.659 44.201L315.801 126.587L317.714 126.004L292.572 43.6172L290.659 44.201ZM316.757 127.295H317.893V125.295H316.757V127.295ZM318.85 126.588L344.063 44.2017L342.15 43.6165L316.937 126.003L318.85 126.588ZM343.107 44.9091H370.45V42.9091H343.107V44.9091ZM369.509 43.5728L325.83 165.874L327.713 166.547L371.392 44.2454L369.509 43.5728ZM325.828 165.878C323.825 171.562 321.179 176.404 317.9 180.422L319.449 181.686C322.894 177.465 325.646 172.412 327.714 166.543L325.828 165.878ZM317.896 180.426C314.634 184.47 310.641 187.545 305.909 189.658L306.725 191.484C311.746 189.241 315.992 185.971 319.453 181.682L317.896 180.426ZM305.898 189.663C301.23 191.814 295.603 192.909 288.987 192.909V194.909C295.818 194.909 301.745 193.779 306.735 191.479L305.898 189.663ZM446.447 7.54545L447.397 7.23152L447.17 6.54545H446.447V7.54545ZM484.303 122.034L483.353 122.348L483.58 123.034H484.303V122.034ZM485.794 122.034V123.034H486.517L486.744 122.347L485.794 122.034ZM523.578 7.54545V6.54545H522.855L522.628 7.23205L523.578 7.54545ZM552.555 7.54545L553.499 7.87793L553.968 6.54545H552.555V7.54545ZM501.277 153V154H501.985L502.22 153.332L501.277 153ZM468.749 153L467.805 153.332L468.04 154H468.749V153ZM417.541 7.54545V6.54545H416.129L416.598 7.87752L417.541 7.54545ZM445.498 7.85938L483.353 122.348L485.252 121.72L447.397 7.23152L445.498 7.85938ZM484.303 123.034H485.794V121.034H484.303V123.034ZM486.744 122.347L524.528 7.85885L522.628 7.23205L484.844 121.721L486.744 122.347ZM523.578 8.54545H552.555V6.54545H523.578V8.54545ZM551.612 7.21297L500.334 152.668L502.22 153.332L553.499 7.87793L551.612 7.21297ZM501.277 152H468.749V154H501.277V152ZM469.692 152.668L418.484 7.21338L416.598 7.87752L467.805 153.332L469.692 152.668ZM417.541 8.54545H446.447V6.54545H417.541V8.54545ZM564.577 153H563.577V154H564.577V153ZM564.577 43.9091V42.9091H563.577V43.9091H564.577ZM590.288 43.9091H591.288V42.9091H590.288V43.9091ZM590.288 153V154H591.288V153H590.288ZM566.992 24.3778L566.309 25.1081L566.315 25.114L566.992 24.3778ZM566.992 4.63351L567.669 5.36971L567.675 5.36378L566.992 4.63351ZM588.015 4.63351L587.326 5.35822L587.332 5.364L587.338 5.36968L588.015 4.63351ZM588.015 24.3778L588.698 25.1085L588.698 25.1081L588.015 24.3778ZM565.577 153V43.9091H563.577V153H565.577ZM564.577 44.9091H590.288V42.9091H564.577V44.9091ZM589.288 43.9091V153H591.288V43.9091H589.288ZM590.288 152H564.577V154H590.288V152ZM577.504 27.4261C573.676 27.4261 570.416 26.1669 567.669 23.6417L566.315 25.114C569.44 27.9865 573.187 29.4261 577.504 29.4261V27.4261ZM567.675 23.6476C564.931 21.0802 563.589 18.0495 563.589 14.5057H561.589C561.589 18.6323 563.182 22.1831 566.309 25.1081L567.675 23.6476ZM563.589 14.5057C563.589 10.9114 564.933 7.885 567.669 5.36968L566.315 3.89735C563.18 6.77976 561.589 10.3348 561.589 14.5057H563.589ZM567.675 5.36378C570.423 2.79337 573.682 1.5142 577.504 1.5142V-0.4858C573.182 -0.4858 569.433 0.981243 566.309 3.90324L567.675 5.36378ZM577.504 1.5142C581.376 1.5142 584.63 2.79522 587.326 5.35822L588.704 3.90881C585.623 0.979386 581.87 -0.4858 577.504 -0.4858V1.5142ZM587.338 5.36968C590.074 7.885 591.418 10.9114 591.418 14.5057H593.418C593.418 10.3348 591.827 6.77976 588.692 3.89735L587.338 5.36968ZM591.418 14.5057C591.418 18.0495 590.076 21.0802 587.332 23.6476L588.698 25.1081C591.825 22.1831 593.418 18.6323 593.418 14.5057H591.418ZM587.332 23.6472C584.638 26.1651 581.381 27.4261 577.504 27.4261V29.4261C581.865 29.4261 585.616 27.9883 588.698 25.1085L587.332 23.6472ZM628.197 148.312L627.652 149.151L628.197 148.312ZM612.146 129.136L613.052 128.712L612.146 129.136ZM612.217 67.9148L611.316 67.4819L611.315 67.484L612.217 67.9148ZM628.482 48.9517L629.012 49.7997L629.016 49.7971L628.482 48.9517ZM667.047 45.7557L666.579 46.6397L666.587 46.6439L667.047 45.7557ZM676.848 53.4972L676.066 54.1204L676.071 54.1264L676.848 53.4972ZM682.459 61.9489L681.564 62.3961L681.841 62.9489H682.459V61.9489ZM683.524 61.9489V62.9489H684.524V61.9489H683.524ZM683.524 7.54545V6.54545H682.524V7.54545H683.524ZM709.305 7.54545H710.305V6.54545H709.305V7.54545ZM709.305 153V154H710.305V153H709.305ZM684.021 153H683.021V154H684.021V153ZM684.021 135.812H685.021V134.812H684.021V135.812ZM682.459 135.812V134.812H681.841L681.564 135.365L682.459 135.812ZM676.706 144.264L677.466 144.914L677.471 144.908L676.706 144.264ZM666.763 151.793L667.214 152.685L666.763 151.793ZM672.303 129.42L672.91 130.215L672.917 130.21L672.303 129.42ZM681.038 116.991L680.102 116.64L681.038 116.991ZM681.038 80.0597L680.101 80.4089L680.104 80.4164L681.038 80.0597ZM672.374 67.9148L671.767 68.71L671.772 68.7136L672.374 67.9148ZM644.036 68.0568L643.422 67.2675L644.036 68.0568ZM635.371 80.4148L634.433 80.0683L635.371 80.4148ZM635.371 116.707L634.431 117.048L634.434 117.059L635.371 116.707ZM644.107 129.278L643.481 130.058L643.491 130.067L644.107 129.278ZM651.209 153.918C642.82 153.918 635.341 151.766 628.743 147.474L627.652 149.151C634.595 153.666 642.458 155.918 651.209 155.918V153.918ZM628.743 147.474C622.15 143.187 616.914 136.949 613.052 128.712L611.241 129.561C615.238 138.085 620.703 144.632 627.652 149.151L628.743 147.474ZM613.052 128.712C609.2 120.497 607.251 110.471 607.251 98.5966H605.251C605.251 110.681 607.233 121.014 611.241 129.561L613.052 128.712ZM607.251 98.5966C607.251 86.5798 609.224 76.5091 613.12 68.3455L611.315 67.484C607.257 75.9871 605.251 86.371 605.251 98.5966H607.251ZM613.119 68.3477C617.074 60.1105 622.378 53.9458 629.012 49.7997L627.952 48.1037C620.949 52.4804 615.409 58.9577 611.316 67.4819L613.119 68.3477ZM629.016 49.7971C635.668 45.5934 643.081 43.4886 651.28 43.4886V41.4886C642.718 41.4886 634.932 43.6925 627.947 48.1063L629.016 49.7971ZM651.28 43.4886C657.567 43.4886 662.648 44.5608 666.579 46.6397L667.514 44.8716C663.207 42.5945 657.777 41.4886 651.28 41.4886V43.4886ZM666.587 46.6439C670.606 48.7224 673.754 51.2196 676.066 54.1204L677.63 52.874C675.112 49.7141 671.726 47.0503 667.506 44.8675L666.587 46.6439ZM676.071 54.1264C678.453 57.0686 680.279 59.825 681.564 62.3961L683.353 61.5016C681.987 58.7697 680.073 55.8917 677.625 52.868L676.071 54.1264ZM682.459 62.9489H683.524V60.9489H682.459V62.9489ZM684.524 61.9489V7.54545H682.524V61.9489H684.524ZM683.524 8.54545H709.305V6.54545H683.524V8.54545ZM708.305 7.54545V153H710.305V7.54545H708.305ZM709.305 152H684.021V154H709.305V152ZM685.021 153V135.812H683.021V153H685.021ZM684.021 134.812H682.459V136.812H684.021V134.812ZM681.564 135.365C680.283 137.928 678.414 140.68 675.941 143.62L677.471 144.908C680.016 141.882 681.983 139 683.353 136.26L681.564 135.365ZM675.946 143.614C673.537 146.432 670.335 148.865 666.311 150.9L667.214 152.685C671.429 150.553 674.856 147.968 677.466 144.914L675.946 143.614ZM666.311 150.9C662.373 152.892 657.355 153.918 651.209 153.918V155.918C657.563 155.918 662.914 154.86 667.214 152.685L666.311 150.9ZM658.382 134.824C664.018 134.824 668.879 133.301 672.91 130.215L671.695 128.626C668.056 131.412 663.637 132.824 658.382 132.824V134.824ZM672.917 130.21C676.92 127.096 679.932 122.79 681.975 117.343L680.102 116.64C678.167 121.799 675.355 125.779 671.689 128.631L672.917 130.21ZM681.975 117.343C684.014 111.904 685.021 105.601 685.021 98.4545H683.021C683.021 105.418 682.04 111.473 680.102 116.64L681.975 117.343ZM685.021 98.4545C685.021 91.3087 684.015 85.0509 681.973 79.703L680.104 80.4164C682.039 85.485 683.021 91.4905 683.021 98.4545H685.021ZM681.975 79.7104C679.978 74.3521 676.986 70.1362 672.975 67.116L671.772 68.7136C675.432 71.4699 678.216 75.3506 680.101 80.4089L681.975 79.7104ZM672.98 67.1196C668.99 64.0776 664.104 62.5824 658.382 62.5824V64.5824C663.74 64.5824 668.181 65.9755 671.767 68.71L672.98 67.1196ZM658.382 62.5824C652.472 62.5824 647.462 64.1246 643.422 67.2675L644.649 68.8462C648.279 66.0231 652.834 64.5824 658.382 64.5824V62.5824ZM643.422 67.2675C639.418 70.3816 636.429 74.665 634.433 80.0683L636.309 80.7613C638.196 75.6532 640.983 71.698 644.649 68.8462L643.422 67.2675ZM634.433 80.0683C632.443 85.4553 631.459 91.5894 631.459 98.4545H633.459C633.459 91.778 634.416 85.8856 636.309 80.7613L634.433 80.0683ZM631.459 98.4545C631.459 105.367 632.443 111.57 634.431 117.048L636.311 116.366C634.416 111.145 633.459 105.179 633.459 98.4545H631.459ZM634.434 117.059C636.476 122.504 639.485 126.852 643.481 130.058L644.732 128.498C641.057 125.549 638.242 121.517 636.307 116.356L634.434 117.059ZM643.491 130.067C647.574 133.254 652.558 134.824 658.382 134.824V132.824C652.937 132.824 648.404 131.364 644.722 128.49L643.491 130.067ZM750.66 148.312L750.158 149.177L750.164 149.181L750.66 148.312ZM732.407 128.852L731.515 129.303L731.516 129.306L732.407 128.852ZM732.407 69.5483L731.515 69.0971L731.514 69.0991L732.407 69.5483ZM750.447 49.6619L750.97 50.5143L750.973 50.512L750.447 49.6619ZM796.683 45.7557L796.34 46.6951L796.349 46.6983L796.683 45.7557ZM812.592 55.6989L811.892 56.4133L811.896 56.4169L812.592 55.6989ZM823.529 72.8864L822.595 73.2424L822.595 73.2445L823.529 72.8864ZM827.506 105.486V106.486H828.506V105.486H827.506ZM738.089 105.486H737.089V106.486H738.089V105.486ZM738.089 88.1562V87.1562H737.089V88.1562H738.089ZM802.862 88.1562V89.1562H803.871L803.861 88.1466L802.862 88.1562ZM799.665 75.017L798.784 75.4899L798.787 75.4944L799.665 75.017ZM790.93 65.8551L790.414 66.7116L790.418 66.7145L790.93 65.8551ZM764.154 66.3523L764.688 67.198L764.695 67.1934L764.154 66.3523ZM754.85 76.2954L753.97 75.8201L753.968 75.8238L754.85 76.2954ZM751.512 89.7188L750.512 89.709V89.7188H751.512ZM754.992 121.182L754.102 121.636L754.103 121.64L754.992 121.182ZM764.722 131.551L764.221 132.416L764.228 132.421L764.722 131.551ZM789.509 133.54L789.834 134.486L789.847 134.481L789.509 133.54ZM797.393 128.781L796.709 128.051L797.393 128.781ZM802.435 121.04L802.547 120.046L801.769 119.959L801.497 120.693L802.435 121.04ZM826.441 123.739L827.414 123.971L827.676 122.871L826.553 122.745L826.441 123.739ZM817.776 140.358L817.033 139.689L817.033 139.689L817.776 140.358ZM801.583 151.295L801.945 152.228L801.951 152.225L801.583 151.295ZM778.998 154.131C768.201 154.131 758.933 151.888 751.156 147.444L750.164 149.181C758.296 153.828 767.92 156.131 778.998 156.131V154.131ZM751.162 147.448C743.426 142.955 737.475 136.613 733.298 128.399L731.516 129.306C735.862 137.853 742.079 144.485 750.158 149.177L751.162 147.448ZM733.299 128.401C729.122 120.139 727.015 110.38 727.015 99.0938H725.015C725.015 110.629 727.169 120.709 731.515 129.303L733.299 128.401ZM727.015 99.0938C727.015 87.9998 729.121 78.3102 733.3 69.9975L731.514 69.0991C727.17 77.7372 725.015 87.7445 725.015 99.0938H727.015ZM733.299 69.9995C737.529 61.6327 743.419 55.1468 750.97 50.5143L749.924 48.8096C742.039 53.6467 735.902 60.4185 731.515 69.0971L733.299 69.9995ZM750.973 50.512C758.511 45.8416 767.39 43.4886 777.648 43.4886V41.4886C767.074 41.4886 757.818 43.9179 749.92 48.8119L750.973 50.512ZM777.648 43.4886C784.262 43.4886 790.49 44.5594 796.34 46.695L797.025 44.8163C790.943 42.5959 784.482 41.4886 777.648 41.4886V43.4886ZM796.349 46.6983C802.224 48.78 807.402 52.0161 811.892 56.4133L813.291 54.9844C808.595 50.3854 803.168 46.9927 797.017 44.8131L796.349 46.6983ZM811.896 56.4169C816.416 60.7988 819.987 66.398 822.595 73.2424L824.464 72.5304C821.768 65.4543 818.048 59.5952 813.288 54.9809L811.896 56.4169ZM822.595 73.2445C825.192 80.0151 826.506 88.1263 826.506 97.6023H828.506C828.506 87.9494 827.169 79.5834 824.463 72.5282L822.595 73.2445ZM826.506 97.6023V105.486H828.506V97.6023H826.506ZM827.506 104.486H738.089V106.486H827.506V104.486ZM739.089 105.486V88.1562H737.089V105.486H739.089ZM738.089 89.1562H802.862V87.1562H738.089V89.1562ZM803.861 88.1466C803.813 83.0802 802.715 78.5362 800.544 74.5397L798.787 75.4944C800.783 79.1684 801.816 83.3839 801.862 88.1659L803.861 88.1466ZM800.547 74.5442C798.379 70.5037 795.34 67.3152 791.441 64.9957L790.418 66.7145C794.001 68.8458 796.786 71.7653 798.784 75.4899L800.547 74.5442ZM791.446 64.9986C787.576 62.6666 783.083 61.517 778.004 61.517V63.517C782.772 63.517 786.897 64.5929 790.414 66.7116L791.446 64.9986ZM778.004 61.517C772.578 61.517 767.77 62.8392 763.613 65.5111L764.695 67.1934C768.493 64.7517 772.917 63.517 778.004 63.517V61.517ZM763.62 65.5065C759.499 68.1073 756.278 71.549 753.97 75.8201L755.73 76.7708C757.873 72.8033 760.855 69.6162 764.688 67.198L763.62 65.5065ZM753.968 75.8238C751.71 80.046 750.561 84.6802 750.512 89.709L752.512 89.7285C752.558 85.0035 753.634 80.6889 755.732 76.7671L753.968 75.8238ZM750.512 89.7188V104.847H752.512V89.7188H750.512ZM750.512 104.847C750.512 111.312 751.694 116.92 754.102 121.636L755.883 120.727C753.65 116.353 752.512 111.071 752.512 104.847H750.512ZM754.103 121.64C756.506 126.299 759.88 129.901 764.221 132.416L765.224 130.686C761.231 128.372 758.118 125.061 755.881 120.723L754.103 121.64ZM764.228 132.421C768.569 134.887 773.622 136.102 779.353 136.102V134.102C773.91 134.102 769.209 132.95 765.216 130.682L764.228 132.421ZM779.353 136.102C783.186 136.102 786.684 135.569 789.834 134.485L789.184 132.594C786.274 133.594 783.001 134.102 779.353 134.102V136.102ZM789.847 134.481C792.999 133.348 795.746 131.693 798.076 129.511L796.709 128.051C794.589 130.036 792.08 131.553 789.171 132.599L789.847 134.481ZM798.076 129.511C800.424 127.314 802.187 124.598 803.373 121.386L801.497 120.693C800.411 123.636 798.813 126.082 796.709 128.051L798.076 129.511ZM802.324 122.034L826.329 124.732L826.553 122.745L802.547 120.046L802.324 122.034ZM825.468 123.506C823.991 129.693 821.18 135.081 817.033 139.689L818.52 141.027C822.895 136.165 825.861 130.474 827.414 123.971L825.468 123.506ZM817.033 139.689C812.934 144.248 807.671 147.811 801.215 150.366L801.951 152.225C808.658 149.571 814.19 145.842 818.52 141.027L817.033 139.689ZM801.221 150.363C794.776 152.867 787.374 154.131 778.998 154.131V156.131C787.573 156.131 795.228 154.837 801.945 152.228L801.221 150.363ZM863.143 148.099L862.629 148.957L863.143 148.099ZM844.962 128.426L844.069 128.877L844.071 128.881L844.962 128.426ZM844.962 69.2642L844.07 68.811L844.068 68.815L844.962 69.2642ZM863.143 49.5199L863.658 50.3774L863.143 49.5199ZM918.541 49.5199L918.027 50.3774L918.541 49.5199ZM936.652 69.2642L935.759 69.7134L935.761 69.7174L936.652 69.2642ZM936.652 128.426L935.762 127.971L935.76 127.975L936.652 128.426ZM918.541 148.099L918.027 147.242L918.541 148.099ZM905.473 129.776L906.106 130.55L906.111 130.545L905.473 129.776ZM914.138 116.849L913.197 116.511L913.194 116.518L914.138 116.849ZM914.138 80.6989L913.193 81.0274L913.197 81.0373L914.138 80.6989ZM905.473 67.7017L906.111 66.9319L905.473 67.7017ZM876.212 67.7017L875.578 66.9281L875.573 66.9319L876.212 67.7017ZM867.476 80.6989L866.534 80.363L866.532 80.3678L867.476 80.6989ZM867.476 116.849L866.532 117.181L866.535 117.188L867.476 116.849ZM876.212 129.776L875.573 130.545L875.584 130.554L876.212 129.776ZM890.842 154.131C880.339 154.131 871.29 151.821 863.658 147.242L862.629 148.957C870.622 153.752 880.039 156.131 890.842 156.131V154.131ZM863.658 147.242C856.012 142.655 850.079 136.239 845.852 127.971L844.071 128.881C848.462 137.469 854.65 144.169 862.629 148.957L863.658 147.242ZM845.854 127.975C841.676 119.711 839.57 110.023 839.57 98.8807H837.57C837.57 110.276 839.725 120.285 844.069 128.877L845.854 127.975ZM839.57 98.8807C839.57 87.7386 841.676 78.0255 845.855 69.7134L844.068 68.815C839.725 77.4536 837.57 87.4849 837.57 98.8807H839.57ZM845.853 69.7174C850.081 61.4018 856.014 54.9639 863.658 50.3774L862.629 48.6624C854.648 53.4509 848.46 60.1758 844.07 68.811L845.853 69.7174ZM863.658 50.3774C871.29 45.7979 880.339 43.4886 890.842 43.4886V41.4886C880.039 41.4886 870.622 43.8669 862.629 48.6624L863.658 50.3774ZM890.842 43.4886C901.346 43.4886 910.394 45.7979 918.027 50.3774L919.056 48.6624C911.063 43.8669 901.646 41.4886 890.842 41.4886V43.4886ZM918.027 50.3774C925.67 54.9633 931.579 61.3999 935.759 69.7134L937.545 68.815C933.203 60.1777 927.038 53.4515 919.056 48.6624L918.027 50.3774ZM935.761 69.7174C939.986 78.0286 942.115 87.7402 942.115 98.8807H944.115C944.115 87.4833 941.936 77.4506 937.543 68.811L935.761 69.7174ZM942.115 98.8807C942.115 110.021 939.986 119.708 935.762 127.971L937.542 128.881C941.936 120.288 944.115 110.278 944.115 98.8807H942.115ZM935.76 127.975C931.58 136.241 925.671 142.655 918.027 147.242L919.056 148.957C927.036 144.169 933.201 137.467 937.544 128.877L935.76 127.975ZM918.027 147.242C910.394 151.821 901.346 154.131 890.842 154.131V156.131C901.646 156.131 911.063 153.752 919.056 148.957L918.027 147.242ZM890.984 135.534C896.955 135.534 902.018 133.89 906.106 130.55L904.84 129.001C901.163 132.006 896.567 133.534 890.984 133.534V135.534ZM906.111 130.545C910.152 127.195 913.136 122.726 915.081 117.181L913.194 116.518C911.352 121.768 908.56 125.917 904.835 129.006L906.111 130.545ZM915.079 117.188C917.065 111.666 918.05 105.536 918.05 98.8097H916.05C916.05 105.341 915.094 111.237 913.197 116.511L915.079 117.188ZM918.05 98.8097C918.05 92.0367 917.065 85.8829 915.079 80.3604L913.197 81.0373C915.093 86.3103 916.05 92.2303 916.05 98.8097H918.05ZM915.082 80.3703C913.137 74.7781 910.153 70.2839 906.111 66.9319L904.835 68.4715C908.558 71.5589 911.351 75.7294 913.193 81.0274L915.082 80.3703ZM906.111 66.9319C902.024 63.5421 896.958 61.8722 890.984 61.8722V63.8722C896.564 63.8722 901.157 65.4219 904.835 68.4715L906.111 66.9319ZM890.984 61.8722C884.875 61.8722 879.715 63.5385 875.578 66.9282L876.845 68.4752C880.568 65.4255 885.257 63.8722 890.984 63.8722V61.8722ZM875.573 66.9319C871.533 70.2823 868.527 74.7738 866.534 80.363L868.418 81.0347C870.308 75.7337 873.125 71.5605 876.85 68.4715L875.573 66.9319ZM866.532 80.3678C864.595 85.888 863.635 92.0392 863.635 98.8097H865.635C865.635 92.2278 866.568 86.3052 868.419 81.03L866.532 80.3678ZM863.635 98.8097C863.635 105.534 864.596 111.661 866.532 117.181L868.419 116.518C866.568 111.242 865.635 105.343 865.635 98.8097H863.635ZM866.535 117.188C868.528 122.73 871.535 127.197 875.573 130.545L876.85 129.006C873.123 125.915 870.306 121.764 868.417 116.511L866.535 117.188ZM875.584 130.554C879.721 133.893 884.878 135.534 890.984 135.534V133.534C885.253 133.534 880.562 132.002 876.84 128.997L875.584 130.554Z" fill="white" fill-opacity="0.2" mask="url(#path-1-outside-1_460_26211)"/>
</svg>
