<svg width="120" height="120" viewBox="0 0 120 120" fill="none" xmlns="http://www.w3.org/2000/svg">
<path d="M73.4063 74.1328C72.0234 72.75 69.7969 72.75 68.4375 74.1328L63.5156 79.0547V57.0703C63.5156 55.125 61.9453 53.5547 60 53.5547C58.0547 53.5547 56.4844 55.125 56.4844 57.0703V79.0547L51.5625 74.1328C50.1797 72.75 47.9531 72.75 46.5938 74.1328C45.2109 75.5156 45.2109 77.7422 46.5938 79.1016L57.5156 90.0234C58.8984 91.4063 61.125 91.4063 62.4844 90.0234L73.4063 79.1016C74.7891 77.7422 74.7891 75.5156 73.4063 74.1328Z" fill="#C6FE1E"/>
<path d="M0 36.8203V18.3984C0 14.5078 3.14062 11.3672 7.03125 11.3672H35.9531C38.9766 11.3672 41.9062 12.3516 44.3438 14.1328L54.6328 21.7969C57.0703 23.6016 60 24.5625 63.0234 24.5625H112.969C116.859 24.5625 120 27.7031 120 31.5938V36.7969C118.289 34.8516 115.758 33.6094 112.969 33.6094H7.03125C4.24219 33.6328 1.71094 34.875 0 36.8203ZM120 43.0078V101.602C120 105.492 116.859 108.633 112.969 108.633H7.03125C3.14062 108.633 0 105.492 0 101.602V43.0078C0 39.1172 3.14062 35.9766 7.03125 35.9766H112.969C116.859 35.9766 120 39.1172 120 43.0078ZM89.2969 72.3047C89.2969 56.1328 76.1719 43.0078 60 43.0078C43.8281 43.0078 30.7031 56.1328 30.7031 72.3047C30.7031 88.4766 43.8281 101.602 60 101.602C76.1719 101.602 89.2969 88.4766 89.2969 72.3047Z" fill="#C6FE1E"/>
</svg>
