<svg width="1920" height="905" viewBox="0 0 1920 905" fill="none" xmlns="http://www.w3.org/2000/svg">
<rect width="1920" height="905" fill="#F3F4F9"/>
<mask id="mask0_924_915" style="mask-type:alpha" maskUnits="userSpaceOnUse" x="0" y="0" width="1920" height="905">
<rect width="1920" height="905" fill="#F3F4F9"/>
</mask>
<g mask="url(#mask0_924_915)">
<g opacity="0.06">
<path d="M0.680173 898.998L0.680176 955.121L57.1235 955.121L57.1235 898.998L0.680173 898.998Z" stroke="#101828" stroke-width="0.5" stroke-miterlimit="10"/>
<path d="M0.680173 842.873L0.680176 898.996L57.1235 898.996L57.1235 842.873L0.680173 842.873Z" stroke="#101828" stroke-width="0.5" stroke-miterlimit="10"/>
<path d="M0.680173 786.779L0.680176 842.902L57.1235 842.902L57.1235 786.779L0.680173 786.779Z" stroke="#101828" stroke-width="0.5" stroke-miterlimit="10"/>
<path d="M0.680173 730.654L0.680176 786.777L57.1235 786.777L57.1235 730.654L0.680173 730.654Z" stroke="#101828" stroke-width="0.5" stroke-miterlimit="10"/>
<path d="M0.680173 674.56L0.680176 730.684L57.1235 730.684L57.1235 674.56L0.680173 674.56Z" stroke="#101828" stroke-width="0.5" stroke-miterlimit="10"/>
<path d="M0.680173 618.435L0.680176 674.559L57.1235 674.559L57.1235 618.435L0.680173 618.435Z" stroke="#101828" stroke-width="0.5" stroke-miterlimit="10"/>
<path d="M0.680173 562.342L0.680176 618.465L57.1235 618.465L57.1235 562.342L0.680173 562.342Z" stroke="#101828" stroke-width="0.5" stroke-miterlimit="10"/>
<path d="M0.680173 506.217L0.680176 562.34L57.1235 562.34L57.1235 506.217L0.680173 506.217Z" stroke="#101828" stroke-width="0.5" stroke-miterlimit="10"/>
<path d="M0.680173 450.123L0.680176 506.246L57.1235 506.246L57.1235 450.123L0.680173 450.123Z" stroke="#101828" stroke-width="0.5" stroke-miterlimit="10"/>
<path d="M0.680173 393.998L0.680176 450.121L57.1235 450.121L57.1235 393.998L0.680173 393.998Z" stroke="#101828" stroke-width="0.5" stroke-miterlimit="10"/>
<path d="M0.680173 337.877L0.680176 394L57.1235 394L57.1235 337.877L0.680173 337.877Z" stroke="#101828" stroke-width="0.5" stroke-miterlimit="10"/>
<path d="M0.680173 281.775L0.680176 337.898L57.1235 337.898L57.1235 281.775L0.680173 281.775Z" stroke="#101828" stroke-width="0.5" stroke-miterlimit="10"/>
<path d="M0.680173 225.654L0.680176 281.777L57.1235 281.777L57.1235 225.654L0.680173 225.654Z" stroke="#101828" stroke-width="0.5" stroke-miterlimit="10"/>
<path d="M0.680173 169.556L0.680176 225.68L57.1235 225.68L57.1235 169.556L0.680173 169.556Z" stroke="#101828" stroke-width="0.5" stroke-miterlimit="10"/>
<path d="M0.680173 113.435L0.680176 169.559L57.1235 169.559L57.1235 113.435L0.680173 113.435Z" stroke="#101828" stroke-width="0.5" stroke-miterlimit="10"/>
<path d="M0.680173 57.3377L0.680176 113.461L57.1235 113.461L57.1235 57.3377L0.680173 57.3377Z" stroke="#101828" stroke-width="0.5" stroke-miterlimit="10"/>
<path d="M0.680173 1.21649L0.680176 57.3398L57.1235 57.3398L57.1235 1.21649L0.680173 1.21649Z" stroke="#101828" stroke-width="0.5" stroke-miterlimit="10"/>
<path d="M0.680173 -54.8811L0.680176 1.24219L57.1235 1.24219L57.1235 -54.8811L0.680173 -54.8811Z" stroke="#101828" stroke-width="0.5" stroke-miterlimit="10"/>
<path d="M57.1235 898.998L57.1235 955.121L113.567 955.121L113.567 898.998L57.1235 898.998Z" stroke="#101828" stroke-width="0.5" stroke-miterlimit="10"/>
<path d="M57.1235 842.873L57.1235 898.996L113.567 898.996L113.567 842.873L57.1235 842.873Z" stroke="#101828" stroke-width="0.5" stroke-miterlimit="10"/>
<path d="M57.1235 786.779L57.1235 842.902L113.567 842.902L113.567 786.779L57.1235 786.779Z" stroke="#101828" stroke-width="0.5" stroke-miterlimit="10"/>
<path d="M57.1235 730.654L57.1235 786.777L113.567 786.777L113.567 730.654L57.1235 730.654Z" stroke="#101828" stroke-width="0.5" stroke-miterlimit="10"/>
<path d="M57.1235 674.56L57.1235 730.684L113.567 730.684L113.567 674.56L57.1235 674.56Z" stroke="#101828" stroke-width="0.5" stroke-miterlimit="10"/>
<path d="M57.1235 618.435L57.1235 674.559L113.567 674.559L113.567 618.435L57.1235 618.435Z" stroke="#101828" stroke-width="0.5" stroke-miterlimit="10"/>
<path d="M57.1235 562.342L57.1235 618.465L113.567 618.465L113.567 562.342L57.1235 562.342Z" stroke="#101828" stroke-width="0.5" stroke-miterlimit="10"/>
<path d="M57.1235 506.217L57.1235 562.34L113.567 562.34L113.567 506.217L57.1235 506.217Z" stroke="#101828" stroke-width="0.5" stroke-miterlimit="10"/>
<path d="M57.1235 450.123L57.1235 506.246L113.567 506.246L113.567 450.123L57.1235 450.123Z" stroke="#101828" stroke-width="0.5" stroke-miterlimit="10"/>
<path d="M57.1235 393.998L57.1235 450.121L113.567 450.121L113.567 393.998L57.1235 393.998Z" stroke="#101828" stroke-width="0.5" stroke-miterlimit="10"/>
<path d="M57.1235 337.877L57.1235 394L113.567 394L113.567 337.877L57.1235 337.877Z" stroke="#101828" stroke-width="0.5" stroke-miterlimit="10"/>
<path d="M57.1235 281.775L57.1235 337.898L113.567 337.898L113.567 281.775L57.1235 281.775Z" stroke="#101828" stroke-width="0.5" stroke-miterlimit="10"/>
<path d="M57.1235 225.654L57.1235 281.777L113.567 281.777L113.567 225.654L57.1235 225.654Z" stroke="#101828" stroke-width="0.5" stroke-miterlimit="10"/>
<path d="M57.1235 169.556L57.1235 225.68L113.567 225.68L113.567 169.556L57.1235 169.556Z" stroke="#101828" stroke-width="0.5" stroke-miterlimit="10"/>
<path d="M57.1235 113.435L57.1235 169.559L113.567 169.559L113.567 113.435L57.1235 113.435Z" stroke="#101828" stroke-width="0.5" stroke-miterlimit="10"/>
<path d="M57.1235 57.3377L57.1235 113.461L113.567 113.461L113.567 57.3377L57.1235 57.3377Z" stroke="#101828" stroke-width="0.5" stroke-miterlimit="10"/>
<path d="M57.1235 1.21649L57.1235 57.3398L113.567 57.3398L113.567 1.21649L57.1235 1.21649Z" stroke="#101828" stroke-width="0.5" stroke-miterlimit="10"/>
<path d="M57.1235 -54.8811L57.1235 1.24219L113.567 1.24219L113.567 -54.8811L57.1235 -54.8811Z" stroke="#101828" stroke-width="0.5" stroke-miterlimit="10"/>
<path d="M113.54 898.998L113.54 955.121L169.983 955.121L169.983 898.998L113.54 898.998Z" stroke="#101828" stroke-width="0.5" stroke-miterlimit="10"/>
<path d="M113.54 842.873L113.54 898.996L169.983 898.996L169.983 842.873L113.54 842.873Z" stroke="#101828" stroke-width="0.5" stroke-miterlimit="10"/>
<path d="M113.54 786.779L113.54 842.902L169.983 842.902L169.983 786.779L113.54 786.779Z" stroke="#101828" stroke-width="0.5" stroke-miterlimit="10"/>
<path d="M113.54 730.654L113.54 786.777L169.983 786.777L169.983 730.654L113.54 730.654Z" stroke="#101828" stroke-width="0.5" stroke-miterlimit="10"/>
<path d="M113.54 674.56L113.54 730.684L169.983 730.684L169.983 674.56L113.54 674.56Z" stroke="#101828" stroke-width="0.5" stroke-miterlimit="10"/>
<path d="M113.54 618.435L113.54 674.559L169.983 674.559L169.983 618.435L113.54 618.435Z" stroke="#101828" stroke-width="0.5" stroke-miterlimit="10"/>
<path d="M113.54 562.342L113.54 618.465L169.983 618.465L169.983 562.342L113.54 562.342Z" stroke="#101828" stroke-width="0.5" stroke-miterlimit="10"/>
<path d="M113.54 506.217L113.54 562.34L169.983 562.34L169.983 506.217L113.54 506.217Z" stroke="#101828" stroke-width="0.5" stroke-miterlimit="10"/>
<path d="M113.54 450.123L113.54 506.246L169.983 506.246L169.983 450.123L113.54 450.123Z" stroke="#101828" stroke-width="0.5" stroke-miterlimit="10"/>
<path d="M113.54 393.998L113.54 450.121L169.983 450.121L169.983 393.998L113.54 393.998Z" stroke="#101828" stroke-width="0.5" stroke-miterlimit="10"/>
<path d="M113.54 337.877L113.54 394L169.983 394L169.983 337.877L113.54 337.877Z" stroke="#101828" stroke-width="0.5" stroke-miterlimit="10"/>
<path d="M113.54 281.775L113.54 337.898L169.983 337.898L169.983 281.775L113.54 281.775Z" stroke="#101828" stroke-width="0.5" stroke-miterlimit="10"/>
<path d="M113.54 225.654L113.54 281.777L169.983 281.777L169.983 225.654L113.54 225.654Z" stroke="#101828" stroke-width="0.5" stroke-miterlimit="10"/>
<path d="M113.54 169.556L113.54 225.68L169.983 225.68L169.983 169.556L113.54 169.556Z" stroke="#101828" stroke-width="0.5" stroke-miterlimit="10"/>
<path d="M113.54 113.435L113.54 169.559L169.983 169.559L169.983 113.435L113.54 113.435Z" stroke="#101828" stroke-width="0.5" stroke-miterlimit="10"/>
<path d="M113.54 57.3377L113.54 113.461L169.983 113.461L169.983 57.3377L113.54 57.3377Z" stroke="#101828" stroke-width="0.5" stroke-miterlimit="10"/>
<path d="M113.54 1.21649L113.54 57.3398L169.983 57.3398L169.983 1.21649L113.54 1.21649Z" stroke="#101828" stroke-width="0.5" stroke-miterlimit="10"/>
<path d="M113.54 -54.8811L113.54 1.24219L169.983 1.24219L169.983 -54.8811L113.54 -54.8811Z" stroke="#101828" stroke-width="0.5" stroke-miterlimit="10"/>
<path d="M169.983 898.998L169.983 955.121L226.426 955.121L226.426 898.998L169.983 898.998Z" stroke="#101828" stroke-width="0.5" stroke-miterlimit="10"/>
<path d="M169.983 842.873L169.983 898.996L226.426 898.996L226.426 842.873L169.983 842.873Z" stroke="#101828" stroke-width="0.5" stroke-miterlimit="10"/>
<path d="M169.983 786.779L169.983 842.902L226.426 842.902L226.426 786.779L169.983 786.779Z" stroke="#101828" stroke-width="0.5" stroke-miterlimit="10"/>
<path d="M169.983 730.654L169.983 786.777L226.426 786.777L226.426 730.654L169.983 730.654Z" stroke="#101828" stroke-width="0.5" stroke-miterlimit="10"/>
<path d="M169.983 674.56L169.983 730.684L226.426 730.684L226.426 674.56L169.983 674.56Z" stroke="#101828" stroke-width="0.5" stroke-miterlimit="10"/>
<path d="M169.983 618.435L169.983 674.559L226.426 674.559L226.426 618.435L169.983 618.435Z" stroke="#101828" stroke-width="0.5" stroke-miterlimit="10"/>
<path d="M169.983 562.342L169.983 618.465L226.426 618.465L226.426 562.342L169.983 562.342Z" stroke="#101828" stroke-width="0.5" stroke-miterlimit="10"/>
<path d="M169.983 506.217L169.983 562.34L226.426 562.34L226.426 506.217L169.983 506.217Z" stroke="#101828" stroke-width="0.5" stroke-miterlimit="10"/>
<path d="M169.983 450.123L169.983 506.246L226.426 506.246L226.426 450.123L169.983 450.123Z" stroke="#101828" stroke-width="0.5" stroke-miterlimit="10"/>
<path d="M169.983 393.998L169.983 450.121L226.426 450.121L226.426 393.998L169.983 393.998Z" stroke="#101828" stroke-width="0.5" stroke-miterlimit="10"/>
<path d="M169.983 337.877L169.983 394L226.426 394L226.426 337.877L169.983 337.877Z" stroke="#101828" stroke-width="0.5" stroke-miterlimit="10"/>
<path d="M169.983 281.775L169.983 337.898L226.426 337.898L226.426 281.775L169.983 281.775Z" stroke="#101828" stroke-width="0.5" stroke-miterlimit="10"/>
<path d="M169.983 225.654L169.983 281.777L226.426 281.777L226.426 225.654L169.983 225.654Z" stroke="#101828" stroke-width="0.5" stroke-miterlimit="10"/>
<path d="M169.983 169.556L169.983 225.68L226.426 225.68L226.426 169.556L169.983 169.556Z" stroke="#101828" stroke-width="0.5" stroke-miterlimit="10"/>
<path d="M169.983 113.435L169.983 169.559L226.426 169.559L226.426 113.435L169.983 113.435Z" stroke="#101828" stroke-width="0.5" stroke-miterlimit="10"/>
<path d="M169.983 57.3377L169.983 113.461L226.426 113.461L226.426 57.3377L169.983 57.3377Z" stroke="#101828" stroke-width="0.5" stroke-miterlimit="10"/>
<path d="M169.983 1.21649L169.983 57.3398L226.426 57.3398L226.426 1.21649L169.983 1.21649Z" stroke="#101828" stroke-width="0.5" stroke-miterlimit="10"/>
<path d="M169.983 -54.8811L169.983 1.24219L226.426 1.24219L226.426 -54.8811L169.983 -54.8811Z" stroke="#101828" stroke-width="0.5" stroke-miterlimit="10"/>
<path d="M226.399 898.998L226.399 955.121L282.843 955.121L282.843 898.998L226.399 898.998Z" stroke="#101828" stroke-width="0.5" stroke-miterlimit="10"/>
<path d="M226.399 842.873L226.399 898.996L282.843 898.996L282.843 842.873L226.399 842.873Z" stroke="#101828" stroke-width="0.5" stroke-miterlimit="10"/>
<path d="M226.399 786.779L226.399 842.902L282.843 842.902L282.843 786.779L226.399 786.779Z" stroke="#101828" stroke-width="0.5" stroke-miterlimit="10"/>
<path d="M226.399 730.654L226.399 786.777L282.843 786.777L282.843 730.654L226.399 730.654Z" stroke="#101828" stroke-width="0.5" stroke-miterlimit="10"/>
<path d="M226.399 674.56L226.399 730.684L282.843 730.684L282.843 674.56L226.399 674.56Z" stroke="#101828" stroke-width="0.5" stroke-miterlimit="10"/>
<path d="M226.399 618.435L226.399 674.559L282.843 674.559L282.843 618.435L226.399 618.435Z" stroke="#101828" stroke-width="0.5" stroke-miterlimit="10"/>
<path d="M226.399 562.342L226.399 618.465L282.843 618.465L282.843 562.342L226.399 562.342Z" stroke="#101828" stroke-width="0.5" stroke-miterlimit="10"/>
<path d="M226.399 506.217L226.399 562.34L282.843 562.34L282.843 506.217L226.399 506.217Z" stroke="#101828" stroke-width="0.5" stroke-miterlimit="10"/>
<path d="M226.399 450.123L226.399 506.246L282.843 506.246L282.843 450.123L226.399 450.123Z" stroke="#101828" stroke-width="0.5" stroke-miterlimit="10"/>
<path d="M226.399 393.998L226.399 450.121L282.843 450.121L282.843 393.998L226.399 393.998Z" stroke="#101828" stroke-width="0.5" stroke-miterlimit="10"/>
<path d="M226.399 337.877L226.399 394L282.843 394L282.843 337.877L226.399 337.877Z" stroke="#101828" stroke-width="0.5" stroke-miterlimit="10"/>
<path d="M226.399 281.775L226.399 337.898L282.843 337.898L282.843 281.775L226.399 281.775Z" stroke="#101828" stroke-width="0.5" stroke-miterlimit="10"/>
<path d="M226.399 225.654L226.399 281.777L282.843 281.777L282.843 225.654L226.399 225.654Z" stroke="#101828" stroke-width="0.5" stroke-miterlimit="10"/>
<path d="M226.399 169.556L226.399 225.68L282.843 225.68L282.843 169.556L226.399 169.556Z" stroke="#101828" stroke-width="0.5" stroke-miterlimit="10"/>
<path d="M226.399 113.435L226.399 169.559L282.843 169.559L282.843 113.435L226.399 113.435Z" stroke="#101828" stroke-width="0.5" stroke-miterlimit="10"/>
<path d="M226.399 57.3377L226.399 113.461L282.843 113.461L282.843 57.3377L226.399 57.3377Z" stroke="#101828" stroke-width="0.5" stroke-miterlimit="10"/>
<path d="M226.399 1.21649L226.399 57.3398L282.843 57.3398L282.843 1.21649L226.399 1.21649Z" stroke="#101828" stroke-width="0.5" stroke-miterlimit="10"/>
<path d="M226.399 -54.8811L226.399 1.24219L282.843 1.24219L282.843 -54.8811L226.399 -54.8811Z" stroke="#101828" stroke-width="0.5" stroke-miterlimit="10"/>
<path d="M282.843 898.998L282.843 955.121L339.286 955.121L339.286 898.998L282.843 898.998Z" stroke="#101828" stroke-width="0.5" stroke-miterlimit="10"/>
<path d="M282.843 842.873L282.843 898.996L339.286 898.996L339.286 842.873L282.843 842.873Z" stroke="#101828" stroke-width="0.5" stroke-miterlimit="10"/>
<path d="M282.843 786.779L282.843 842.902L339.286 842.902L339.286 786.779L282.843 786.779Z" stroke="#101828" stroke-width="0.5" stroke-miterlimit="10"/>
<path d="M282.843 730.654L282.843 786.777L339.286 786.777L339.286 730.654L282.843 730.654Z" stroke="#101828" stroke-width="0.5" stroke-miterlimit="10"/>
<path d="M282.843 674.56L282.843 730.684L339.286 730.684L339.286 674.56L282.843 674.56Z" stroke="#101828" stroke-width="0.5" stroke-miterlimit="10"/>
<path d="M282.843 618.435L282.843 674.559L339.286 674.559L339.286 618.435L282.843 618.435Z" stroke="#101828" stroke-width="0.5" stroke-miterlimit="10"/>
<path d="M282.843 562.342L282.843 618.465L339.286 618.465L339.286 562.342L282.843 562.342Z" stroke="#101828" stroke-width="0.5" stroke-miterlimit="10"/>
<path d="M282.843 506.217L282.843 562.34L339.286 562.34L339.286 506.217L282.843 506.217Z" stroke="#101828" stroke-width="0.5" stroke-miterlimit="10"/>
<path d="M282.843 450.123L282.843 506.246L339.286 506.246L339.286 450.123L282.843 450.123Z" stroke="#101828" stroke-width="0.5" stroke-miterlimit="10"/>
<path d="M282.843 393.998L282.843 450.121L339.286 450.121L339.286 393.998L282.843 393.998Z" stroke="#101828" stroke-width="0.5" stroke-miterlimit="10"/>
<path d="M282.843 337.877L282.843 394L339.286 394L339.286 337.877L282.843 337.877Z" stroke="#101828" stroke-width="0.5" stroke-miterlimit="10"/>
<path d="M282.843 281.775L282.843 337.898L339.286 337.898L339.286 281.775L282.843 281.775Z" stroke="#101828" stroke-width="0.5" stroke-miterlimit="10"/>
<path d="M282.843 225.654L282.843 281.777L339.286 281.777L339.286 225.654L282.843 225.654Z" stroke="#101828" stroke-width="0.5" stroke-miterlimit="10"/>
<path d="M282.843 169.556L282.843 225.68L339.286 225.68L339.286 169.556L282.843 169.556Z" stroke="#101828" stroke-width="0.5" stroke-miterlimit="10"/>
<path d="M282.843 113.435L282.843 169.559L339.286 169.559L339.286 113.435L282.843 113.435Z" stroke="#101828" stroke-width="0.5" stroke-miterlimit="10"/>
<path d="M282.843 57.3377L282.843 113.461L339.286 113.461L339.286 57.3377L282.843 57.3377Z" stroke="#101828" stroke-width="0.5" stroke-miterlimit="10"/>
<path d="M282.843 1.21649L282.843 57.3398L339.286 57.3398L339.286 1.21649L282.843 1.21649Z" stroke="#101828" stroke-width="0.5" stroke-miterlimit="10"/>
<path d="M282.843 -54.8811L282.843 1.24219L339.286 1.24219L339.286 -54.8811L282.843 -54.8811Z" stroke="#101828" stroke-width="0.5" stroke-miterlimit="10"/>
<path d="M339.259 898.998L339.259 955.121L395.702 955.121L395.702 898.998L339.259 898.998Z" stroke="#101828" stroke-width="0.5" stroke-miterlimit="10"/>
<path d="M339.259 842.873L339.259 898.996L395.702 898.996L395.702 842.873L339.259 842.873Z" stroke="#101828" stroke-width="0.5" stroke-miterlimit="10"/>
<path d="M339.259 786.779L339.259 842.902L395.702 842.902L395.702 786.779L339.259 786.779Z" stroke="#101828" stroke-width="0.5" stroke-miterlimit="10"/>
<path d="M339.259 730.654L339.259 786.777L395.702 786.777L395.702 730.654L339.259 730.654Z" stroke="#101828" stroke-width="0.5" stroke-miterlimit="10"/>
<path d="M339.259 674.56L339.259 730.684L395.702 730.684L395.702 674.56L339.259 674.56Z" stroke="#101828" stroke-width="0.5" stroke-miterlimit="10"/>
<path d="M339.259 618.435L339.259 674.559L395.702 674.559L395.702 618.435L339.259 618.435Z" stroke="#101828" stroke-width="0.5" stroke-miterlimit="10"/>
<path d="M339.259 562.342L339.259 618.465L395.702 618.465L395.702 562.342L339.259 562.342Z" stroke="#101828" stroke-width="0.5" stroke-miterlimit="10"/>
<path d="M339.259 506.217L339.259 562.34L395.702 562.34L395.702 506.217L339.259 506.217Z" stroke="#101828" stroke-width="0.5" stroke-miterlimit="10"/>
<path d="M339.259 450.123L339.259 506.246L395.702 506.246L395.702 450.123L339.259 450.123Z" stroke="#101828" stroke-width="0.5" stroke-miterlimit="10"/>
<path d="M339.259 393.998L339.259 450.121L395.702 450.121L395.702 393.998L339.259 393.998Z" stroke="#101828" stroke-width="0.5" stroke-miterlimit="10"/>
<path d="M339.259 337.877L339.259 394L395.702 394L395.702 337.877L339.259 337.877Z" stroke="#101828" stroke-width="0.5" stroke-miterlimit="10"/>
<path d="M339.259 281.775L339.259 337.898L395.702 337.898L395.702 281.775L339.259 281.775Z" stroke="#101828" stroke-width="0.5" stroke-miterlimit="10"/>
<path d="M339.259 225.654L339.259 281.777L395.702 281.777L395.702 225.654L339.259 225.654Z" stroke="#101828" stroke-width="0.5" stroke-miterlimit="10"/>
<path d="M339.259 169.556L339.259 225.68L395.702 225.68L395.702 169.556L339.259 169.556Z" stroke="#101828" stroke-width="0.5" stroke-miterlimit="10"/>
<path d="M339.259 113.435L339.259 169.559L395.702 169.559L395.702 113.435L339.259 113.435Z" stroke="#101828" stroke-width="0.5" stroke-miterlimit="10"/>
<path d="M339.259 57.3377L339.259 113.461L395.702 113.461L395.702 57.3377L339.259 57.3377Z" stroke="#101828" stroke-width="0.5" stroke-miterlimit="10"/>
<path d="M339.259 1.21649L339.259 57.3398L395.702 57.3398L395.702 1.21649L339.259 1.21649Z" stroke="#101828" stroke-width="0.5" stroke-miterlimit="10"/>
<path d="M339.259 -54.8811L339.259 1.24219L395.702 1.24219L395.702 -54.8811L339.259 -54.8811Z" stroke="#101828" stroke-width="0.5" stroke-miterlimit="10"/>
<path d="M395.702 898.998L395.702 955.121L452.146 955.121L452.146 898.998L395.702 898.998Z" stroke="#101828" stroke-width="0.5" stroke-miterlimit="10"/>
<path d="M395.702 842.873L395.702 898.996L452.146 898.996L452.146 842.873L395.702 842.873Z" stroke="#101828" stroke-width="0.5" stroke-miterlimit="10"/>
<path d="M395.702 786.779L395.702 842.902L452.146 842.902L452.146 786.779L395.702 786.779Z" stroke="#101828" stroke-width="0.5" stroke-miterlimit="10"/>
<path d="M395.702 730.654L395.702 786.777L452.146 786.777L452.146 730.654L395.702 730.654Z" stroke="#101828" stroke-width="0.5" stroke-miterlimit="10"/>
<path d="M395.702 674.56L395.702 730.684L452.146 730.684L452.146 674.56L395.702 674.56Z" stroke="#101828" stroke-width="0.5" stroke-miterlimit="10"/>
<path d="M395.702 618.435L395.702 674.559L452.146 674.559L452.146 618.435L395.702 618.435Z" stroke="#101828" stroke-width="0.5" stroke-miterlimit="10"/>
<path d="M395.702 562.342L395.702 618.465L452.146 618.465L452.146 562.342L395.702 562.342Z" stroke="#101828" stroke-width="0.5" stroke-miterlimit="10"/>
<path d="M395.702 506.217L395.702 562.34L452.146 562.34L452.146 506.217L395.702 506.217Z" stroke="#101828" stroke-width="0.5" stroke-miterlimit="10"/>
<path d="M395.702 450.123L395.702 506.246L452.146 506.246L452.146 450.123L395.702 450.123Z" stroke="#101828" stroke-width="0.5" stroke-miterlimit="10"/>
<path d="M395.702 393.998L395.702 450.121L452.146 450.121L452.146 393.998L395.702 393.998Z" stroke="#101828" stroke-width="0.5" stroke-miterlimit="10"/>
<path d="M395.702 337.877L395.702 394L452.146 394L452.146 337.877L395.702 337.877Z" stroke="#101828" stroke-width="0.5" stroke-miterlimit="10"/>
<path d="M395.702 281.775L395.702 337.898L452.146 337.898L452.146 281.775L395.702 281.775Z" stroke="#101828" stroke-width="0.5" stroke-miterlimit="10"/>
<path d="M395.702 225.654L395.702 281.777L452.146 281.777L452.146 225.654L395.702 225.654Z" stroke="#101828" stroke-width="0.5" stroke-miterlimit="10"/>
<path d="M395.702 169.556L395.702 225.68L452.146 225.68L452.146 169.556L395.702 169.556Z" stroke="#101828" stroke-width="0.5" stroke-miterlimit="10"/>
<path d="M395.702 113.435L395.702 169.559L452.146 169.559L452.146 113.435L395.702 113.435Z" stroke="#101828" stroke-width="0.5" stroke-miterlimit="10"/>
<path d="M395.702 57.3377L395.702 113.461L452.146 113.461L452.146 57.3377L395.702 57.3377Z" stroke="#101828" stroke-width="0.5" stroke-miterlimit="10"/>
<path d="M395.702 1.21649L395.702 57.3398L452.146 57.3398L452.146 1.21649L395.702 1.21649Z" stroke="#101828" stroke-width="0.5" stroke-miterlimit="10"/>
<path d="M395.702 -54.8811L395.702 1.24219L452.146 1.24219L452.146 -54.8811L395.702 -54.8811Z" stroke="#101828" stroke-width="0.5" stroke-miterlimit="10"/>
<path d="M452.118 898.998L452.118 955.121L508.562 955.121L508.562 898.998L452.118 898.998Z" stroke="#101828" stroke-width="0.5" stroke-miterlimit="10"/>
<path d="M452.118 842.873L452.118 898.996L508.562 898.996L508.562 842.873L452.118 842.873Z" stroke="#101828" stroke-width="0.5" stroke-miterlimit="10"/>
<path d="M452.118 786.779L452.118 842.902L508.562 842.902L508.562 786.779L452.118 786.779Z" stroke="#101828" stroke-width="0.5" stroke-miterlimit="10"/>
<path d="M452.118 730.654L452.118 786.777L508.562 786.777L508.562 730.654L452.118 730.654Z" stroke="#101828" stroke-width="0.5" stroke-miterlimit="10"/>
<path d="M452.118 674.56L452.118 730.684L508.562 730.684L508.562 674.56L452.118 674.56Z" stroke="#101828" stroke-width="0.5" stroke-miterlimit="10"/>
<path d="M452.118 618.435L452.118 674.559L508.562 674.559L508.562 618.435L452.118 618.435Z" stroke="#101828" stroke-width="0.5" stroke-miterlimit="10"/>
<path d="M452.118 562.342L452.118 618.465L508.562 618.465L508.562 562.342L452.118 562.342Z" stroke="#101828" stroke-width="0.5" stroke-miterlimit="10"/>
<path d="M452.118 506.217L452.118 562.34L508.562 562.34L508.562 506.217L452.118 506.217Z" stroke="#101828" stroke-width="0.5" stroke-miterlimit="10"/>
<path d="M452.118 450.123L452.118 506.246L508.562 506.246L508.562 450.123L452.118 450.123Z" stroke="#101828" stroke-width="0.5" stroke-miterlimit="10"/>
<path d="M452.118 393.998L452.118 450.121L508.562 450.121L508.562 393.998L452.118 393.998Z" stroke="#101828" stroke-width="0.5" stroke-miterlimit="10"/>
<path d="M452.118 337.877L452.118 394L508.562 394L508.562 337.877L452.118 337.877Z" stroke="#101828" stroke-width="0.5" stroke-miterlimit="10"/>
<path d="M452.118 281.775L452.118 337.898L508.562 337.898L508.562 281.775L452.118 281.775Z" stroke="#101828" stroke-width="0.5" stroke-miterlimit="10"/>
<path d="M452.118 225.654L452.118 281.777L508.562 281.777L508.562 225.654L452.118 225.654Z" stroke="#101828" stroke-width="0.5" stroke-miterlimit="10"/>
<path d="M452.118 169.556L452.118 225.68L508.562 225.68L508.562 169.556L452.118 169.556Z" stroke="#101828" stroke-width="0.5" stroke-miterlimit="10"/>
<path d="M452.118 113.435L452.118 169.559L508.562 169.559L508.562 113.435L452.118 113.435Z" stroke="#101828" stroke-width="0.5" stroke-miterlimit="10"/>
<path d="M452.118 57.3377L452.118 113.461L508.562 113.461L508.562 57.3377L452.118 57.3377Z" stroke="#101828" stroke-width="0.5" stroke-miterlimit="10"/>
<path d="M452.118 1.21649L452.118 57.3398L508.562 57.3398L508.562 1.21649L452.118 1.21649Z" stroke="#101828" stroke-width="0.5" stroke-miterlimit="10"/>
<path d="M452.118 -54.8811L452.118 1.24219L508.562 1.24219L508.562 -54.8811L452.118 -54.8811Z" stroke="#101828" stroke-width="0.5" stroke-miterlimit="10"/>
<path d="M508.562 898.998L508.562 955.121L565.005 955.121L565.005 898.998L508.562 898.998Z" stroke="#101828" stroke-width="0.5" stroke-miterlimit="10"/>
<path d="M508.562 842.873L508.562 898.996L565.005 898.996L565.005 842.873L508.562 842.873Z" stroke="#101828" stroke-width="0.5" stroke-miterlimit="10"/>
<path d="M508.562 786.779L508.562 842.902L565.005 842.902L565.005 786.779L508.562 786.779Z" stroke="#101828" stroke-width="0.5" stroke-miterlimit="10"/>
<path d="M508.562 730.654L508.562 786.777L565.005 786.777L565.005 730.654L508.562 730.654Z" stroke="#101828" stroke-width="0.5" stroke-miterlimit="10"/>
<path d="M508.562 674.56L508.562 730.684L565.005 730.684L565.005 674.56L508.562 674.56Z" stroke="#101828" stroke-width="0.5" stroke-miterlimit="10"/>
<path d="M508.562 618.435L508.562 674.559L565.005 674.559L565.005 618.435L508.562 618.435Z" stroke="#101828" stroke-width="0.5" stroke-miterlimit="10"/>
<path d="M508.562 562.342L508.562 618.465L565.005 618.465L565.005 562.342L508.562 562.342Z" stroke="#101828" stroke-width="0.5" stroke-miterlimit="10"/>
<path d="M508.562 506.217L508.562 562.34L565.005 562.34L565.005 506.217L508.562 506.217Z" stroke="#101828" stroke-width="0.5" stroke-miterlimit="10"/>
<path d="M508.562 450.123L508.562 506.246L565.005 506.246L565.005 450.123L508.562 450.123Z" stroke="#101828" stroke-width="0.5" stroke-miterlimit="10"/>
<path d="M508.562 393.998L508.562 450.121L565.005 450.121L565.005 393.998L508.562 393.998Z" stroke="#101828" stroke-width="0.5" stroke-miterlimit="10"/>
<path d="M508.562 337.877L508.562 394L565.005 394L565.005 337.877L508.562 337.877Z" stroke="#101828" stroke-width="0.5" stroke-miterlimit="10"/>
<path d="M508.562 281.775L508.562 337.898L565.005 337.898L565.005 281.775L508.562 281.775Z" stroke="#101828" stroke-width="0.5" stroke-miterlimit="10"/>
<path d="M508.562 225.654L508.562 281.777L565.005 281.777L565.005 225.654L508.562 225.654Z" stroke="#101828" stroke-width="0.5" stroke-miterlimit="10"/>
<path d="M508.562 169.556L508.562 225.68L565.005 225.68L565.005 169.556L508.562 169.556Z" stroke="#101828" stroke-width="0.5" stroke-miterlimit="10"/>
<path d="M508.562 113.435L508.562 169.559L565.005 169.559L565.005 113.435L508.562 113.435Z" stroke="#101828" stroke-width="0.5" stroke-miterlimit="10"/>
<path d="M508.562 57.3377L508.562 113.461L565.005 113.461L565.005 57.3377L508.562 57.3377Z" stroke="#101828" stroke-width="0.5" stroke-miterlimit="10"/>
<path d="M508.562 1.21649L508.562 57.3398L565.005 57.3398L565.005 1.21649L508.562 1.21649Z" stroke="#101828" stroke-width="0.5" stroke-miterlimit="10"/>
<path d="M508.562 -54.8811L508.562 1.24219L565.005 1.24219L565.005 -54.8811L508.562 -54.8811Z" stroke="#101828" stroke-width="0.5" stroke-miterlimit="10"/>
<path d="M564.978 898.998L564.978 955.121L621.421 955.121L621.421 898.998L564.978 898.998Z" stroke="#101828" stroke-width="0.5" stroke-miterlimit="10"/>
<path d="M564.978 842.873L564.978 898.996L621.421 898.996L621.421 842.873L564.978 842.873Z" stroke="#101828" stroke-width="0.5" stroke-miterlimit="10"/>
<path d="M564.978 786.779L564.978 842.902L621.421 842.902L621.421 786.779L564.978 786.779Z" stroke="#101828" stroke-width="0.5" stroke-miterlimit="10"/>
<path d="M564.978 730.654L564.978 786.777L621.421 786.777L621.421 730.654L564.978 730.654Z" stroke="#101828" stroke-width="0.5" stroke-miterlimit="10"/>
<path d="M564.978 674.56L564.978 730.684L621.421 730.684L621.421 674.56L564.978 674.56Z" stroke="#101828" stroke-width="0.5" stroke-miterlimit="10"/>
<path d="M564.978 618.435L564.978 674.559L621.421 674.559L621.421 618.435L564.978 618.435Z" stroke="#101828" stroke-width="0.5" stroke-miterlimit="10"/>
<path d="M564.978 562.342L564.978 618.465L621.421 618.465L621.421 562.342L564.978 562.342Z" stroke="#101828" stroke-width="0.5" stroke-miterlimit="10"/>
<path d="M564.978 506.217L564.978 562.34L621.421 562.34L621.421 506.217L564.978 506.217Z" stroke="#101828" stroke-width="0.5" stroke-miterlimit="10"/>
<path d="M564.978 450.123L564.978 506.246L621.421 506.246L621.421 450.123L564.978 450.123Z" stroke="#101828" stroke-width="0.5" stroke-miterlimit="10"/>
<path d="M564.978 393.998L564.978 450.121L621.421 450.121L621.421 393.998L564.978 393.998Z" stroke="#101828" stroke-width="0.5" stroke-miterlimit="10"/>
<path d="M564.978 337.877L564.978 394L621.421 394L621.421 337.877L564.978 337.877Z" stroke="#101828" stroke-width="0.5" stroke-miterlimit="10"/>
<path d="M564.978 281.775L564.978 337.898L621.421 337.898L621.421 281.775L564.978 281.775Z" stroke="#101828" stroke-width="0.5" stroke-miterlimit="10"/>
<path d="M564.978 225.654L564.978 281.777L621.421 281.777L621.421 225.654L564.978 225.654Z" stroke="#101828" stroke-width="0.5" stroke-miterlimit="10"/>
<path d="M564.978 169.556L564.978 225.68L621.421 225.68L621.421 169.556L564.978 169.556Z" stroke="#101828" stroke-width="0.5" stroke-miterlimit="10"/>
<path d="M564.978 113.435L564.978 169.559L621.421 169.559L621.421 113.435L564.978 113.435Z" stroke="#101828" stroke-width="0.5" stroke-miterlimit="10"/>
<path d="M564.978 57.3377L564.978 113.461L621.421 113.461L621.421 57.3377L564.978 57.3377Z" stroke="#101828" stroke-width="0.5" stroke-miterlimit="10"/>
<path d="M564.978 1.21649L564.978 57.3398L621.421 57.3398L621.421 1.21649L564.978 1.21649Z" stroke="#101828" stroke-width="0.5" stroke-miterlimit="10"/>
<path d="M564.978 -54.8811L564.978 1.24219L621.421 1.24219L621.421 -54.8811L564.978 -54.8811Z" stroke="#101828" stroke-width="0.5" stroke-miterlimit="10"/>
<path d="M621.421 898.998L621.421 955.121L677.865 955.121L677.865 898.998L621.421 898.998Z" stroke="#101828" stroke-width="0.5" stroke-miterlimit="10"/>
<path d="M621.421 842.873L621.421 898.996L677.865 898.996L677.865 842.873L621.421 842.873Z" stroke="#101828" stroke-width="0.5" stroke-miterlimit="10"/>
<path d="M621.421 786.779L621.421 842.902L677.865 842.902L677.865 786.779L621.421 786.779Z" stroke="#101828" stroke-width="0.5" stroke-miterlimit="10"/>
<path d="M621.421 730.654L621.421 786.777L677.865 786.777L677.865 730.654L621.421 730.654Z" stroke="#101828" stroke-width="0.5" stroke-miterlimit="10"/>
<path d="M621.421 674.56L621.421 730.684L677.865 730.684L677.865 674.56L621.421 674.56Z" stroke="#101828" stroke-width="0.5" stroke-miterlimit="10"/>
<path d="M621.421 618.435L621.421 674.559L677.865 674.559L677.865 618.435L621.421 618.435Z" stroke="#101828" stroke-width="0.5" stroke-miterlimit="10"/>
<path d="M621.421 562.342L621.421 618.465L677.865 618.465L677.865 562.342L621.421 562.342Z" stroke="#101828" stroke-width="0.5" stroke-miterlimit="10"/>
<path d="M621.421 506.217L621.421 562.34L677.865 562.34L677.865 506.217L621.421 506.217Z" stroke="#101828" stroke-width="0.5" stroke-miterlimit="10"/>
<path d="M621.421 450.123L621.421 506.246L677.865 506.246L677.865 450.123L621.421 450.123Z" stroke="#101828" stroke-width="0.5" stroke-miterlimit="10"/>
<path d="M621.421 393.998L621.421 450.121L677.865 450.121L677.865 393.998L621.421 393.998Z" stroke="#101828" stroke-width="0.5" stroke-miterlimit="10"/>
<path d="M621.421 337.877L621.421 394L677.865 394L677.865 337.877L621.421 337.877Z" stroke="#101828" stroke-width="0.5" stroke-miterlimit="10"/>
<path d="M621.421 281.775L621.421 337.898L677.865 337.898L677.865 281.775L621.421 281.775Z" stroke="#101828" stroke-width="0.5" stroke-miterlimit="10"/>
<path d="M621.421 225.654L621.421 281.777L677.865 281.777L677.865 225.654L621.421 225.654Z" stroke="#101828" stroke-width="0.5" stroke-miterlimit="10"/>
<path d="M621.421 169.556L621.421 225.68L677.865 225.68L677.865 169.556L621.421 169.556Z" stroke="#101828" stroke-width="0.5" stroke-miterlimit="10"/>
<path d="M621.421 113.435L621.421 169.559L677.865 169.559L677.865 113.435L621.421 113.435Z" stroke="#101828" stroke-width="0.5" stroke-miterlimit="10"/>
<path d="M621.421 57.3377L621.421 113.461L677.865 113.461L677.865 57.3377L621.421 57.3377Z" stroke="#101828" stroke-width="0.5" stroke-miterlimit="10"/>
<path d="M621.421 1.21649L621.421 57.3398L677.865 57.3398L677.865 1.21649L621.421 1.21649Z" stroke="#101828" stroke-width="0.5" stroke-miterlimit="10"/>
<path d="M621.421 -54.8811L621.421 1.24219L677.864 1.24219L677.864 -54.8811L621.421 -54.8811Z" stroke="#101828" stroke-width="0.5" stroke-miterlimit="10"/>
<path d="M677.837 898.998L677.837 955.121L734.281 955.121L734.281 898.998L677.837 898.998Z" stroke="#101828" stroke-width="0.5" stroke-miterlimit="10"/>
<path d="M677.837 842.873L677.837 898.996L734.281 898.996L734.281 842.873L677.837 842.873Z" stroke="#101828" stroke-width="0.5" stroke-miterlimit="10"/>
<path d="M677.837 786.779L677.837 842.902L734.281 842.902L734.281 786.779L677.837 786.779Z" stroke="#101828" stroke-width="0.5" stroke-miterlimit="10"/>
<path d="M677.837 730.654L677.837 786.777L734.281 786.777L734.281 730.654L677.837 730.654Z" stroke="#101828" stroke-width="0.5" stroke-miterlimit="10"/>
<path d="M677.837 674.56L677.837 730.684L734.281 730.684L734.281 674.56L677.837 674.56Z" stroke="#101828" stroke-width="0.5" stroke-miterlimit="10"/>
<path d="M677.837 618.435L677.837 674.559L734.281 674.559L734.281 618.435L677.837 618.435Z" stroke="#101828" stroke-width="0.5" stroke-miterlimit="10"/>
<path d="M677.837 562.342L677.837 618.465L734.281 618.465L734.281 562.342L677.837 562.342Z" stroke="#101828" stroke-width="0.5" stroke-miterlimit="10"/>
<path d="M677.837 506.217L677.837 562.34L734.281 562.34L734.281 506.217L677.837 506.217Z" stroke="#101828" stroke-width="0.5" stroke-miterlimit="10"/>
<path d="M677.837 450.123L677.837 506.246L734.281 506.246L734.281 450.123L677.837 450.123Z" stroke="#101828" stroke-width="0.5" stroke-miterlimit="10"/>
<path d="M677.837 393.998L677.837 450.121L734.281 450.121L734.281 393.998L677.837 393.998Z" stroke="#101828" stroke-width="0.5" stroke-miterlimit="10"/>
<path d="M677.837 337.877L677.837 394L734.281 394L734.281 337.877L677.837 337.877Z" stroke="#101828" stroke-width="0.5" stroke-miterlimit="10"/>
<path d="M677.837 281.775L677.837 337.898L734.281 337.898L734.281 281.775L677.837 281.775Z" stroke="#101828" stroke-width="0.5" stroke-miterlimit="10"/>
<path d="M677.837 225.654L677.837 281.777L734.281 281.777L734.281 225.654L677.837 225.654Z" stroke="#101828" stroke-width="0.5" stroke-miterlimit="10"/>
<path d="M677.837 169.556L677.837 225.68L734.281 225.68L734.281 169.556L677.837 169.556Z" stroke="#101828" stroke-width="0.5" stroke-miterlimit="10"/>
<path d="M677.837 113.435L677.837 169.559L734.281 169.559L734.281 113.435L677.837 113.435Z" stroke="#101828" stroke-width="0.5" stroke-miterlimit="10"/>
<path d="M677.837 57.3377L677.837 113.461L734.281 113.461L734.281 57.3377L677.837 57.3377Z" stroke="#101828" stroke-width="0.5" stroke-miterlimit="10"/>
<path d="M677.837 1.21649L677.837 57.3398L734.281 57.3398L734.281 1.21649L677.837 1.21649Z" stroke="#101828" stroke-width="0.5" stroke-miterlimit="10"/>
<path d="M677.837 -54.8811L677.837 1.24219L734.281 1.24219L734.281 -54.8811L677.837 -54.8811Z" stroke="#101828" stroke-width="0.5" stroke-miterlimit="10"/>
<path d="M734.281 898.998L734.281 955.121L790.724 955.121L790.724 898.998L734.281 898.998Z" stroke="#101828" stroke-width="0.5" stroke-miterlimit="10"/>
<path d="M734.281 842.873L734.281 898.996L790.724 898.996L790.724 842.873L734.281 842.873Z" stroke="#101828" stroke-width="0.5" stroke-miterlimit="10"/>
<path d="M734.281 786.779L734.281 842.902L790.724 842.902L790.724 786.779L734.281 786.779Z" stroke="#101828" stroke-width="0.5" stroke-miterlimit="10"/>
<path d="M734.281 730.654L734.281 786.777L790.724 786.777L790.724 730.654L734.281 730.654Z" stroke="#101828" stroke-width="0.5" stroke-miterlimit="10"/>
<path d="M734.281 674.56L734.281 730.684L790.724 730.684L790.724 674.56L734.281 674.56Z" stroke="#101828" stroke-width="0.5" stroke-miterlimit="10"/>
<path d="M734.281 618.435L734.281 674.559L790.724 674.559L790.724 618.435L734.281 618.435Z" stroke="#101828" stroke-width="0.5" stroke-miterlimit="10"/>
<path d="M734.281 562.342L734.281 618.465L790.724 618.465L790.724 562.342L734.281 562.342Z" stroke="#101828" stroke-width="0.5" stroke-miterlimit="10"/>
<path d="M734.281 506.217L734.281 562.34L790.724 562.34L790.724 506.217L734.281 506.217Z" stroke="#101828" stroke-width="0.5" stroke-miterlimit="10"/>
<path d="M734.281 450.123L734.281 506.246L790.724 506.246L790.724 450.123L734.281 450.123Z" stroke="#101828" stroke-width="0.5" stroke-miterlimit="10"/>
<path d="M734.281 393.998L734.281 450.121L790.724 450.121L790.724 393.998L734.281 393.998Z" stroke="#101828" stroke-width="0.5" stroke-miterlimit="10"/>
<path d="M734.281 337.877L734.281 394L790.724 394L790.724 337.877L734.281 337.877Z" stroke="#101828" stroke-width="0.5" stroke-miterlimit="10"/>
<path d="M734.281 281.775L734.281 337.898L790.724 337.898L790.724 281.775L734.281 281.775Z" stroke="#101828" stroke-width="0.5" stroke-miterlimit="10"/>
<path d="M734.281 225.654L734.281 281.777L790.724 281.777L790.724 225.654L734.281 225.654Z" stroke="#101828" stroke-width="0.5" stroke-miterlimit="10"/>
<path d="M734.281 169.556L734.281 225.68L790.724 225.68L790.724 169.556L734.281 169.556Z" stroke="#101828" stroke-width="0.5" stroke-miterlimit="10"/>
<path d="M734.281 113.435L734.281 169.559L790.724 169.559L790.724 113.435L734.281 113.435Z" stroke="#101828" stroke-width="0.5" stroke-miterlimit="10"/>
<path d="M734.281 57.3377L734.281 113.461L790.724 113.461L790.724 57.3377L734.281 57.3377Z" stroke="#101828" stroke-width="0.5" stroke-miterlimit="10"/>
<path d="M734.281 1.21649L734.281 57.3398L790.724 57.3398L790.724 1.21649L734.281 1.21649Z" stroke="#101828" stroke-width="0.5" stroke-miterlimit="10"/>
<path d="M734.281 -54.8811L734.281 1.24219L790.724 1.24219L790.724 -54.8811L734.281 -54.8811Z" stroke="#101828" stroke-width="0.5" stroke-miterlimit="10"/>
<path d="M790.697 898.998L790.697 955.121L847.14 955.121L847.14 898.998L790.697 898.998Z" stroke="#101828" stroke-width="0.5" stroke-miterlimit="10"/>
<path d="M790.697 842.873L790.697 898.996L847.14 898.996L847.14 842.873L790.697 842.873Z" stroke="#101828" stroke-width="0.5" stroke-miterlimit="10"/>
<path d="M790.697 786.779L790.697 842.902L847.14 842.902L847.14 786.779L790.697 786.779Z" stroke="#101828" stroke-width="0.5" stroke-miterlimit="10"/>
<path d="M790.697 730.654L790.697 786.777L847.14 786.777L847.14 730.654L790.697 730.654Z" stroke="#101828" stroke-width="0.5" stroke-miterlimit="10"/>
<path d="M790.697 674.56L790.697 730.684L847.14 730.684L847.14 674.56L790.697 674.56Z" stroke="#101828" stroke-width="0.5" stroke-miterlimit="10"/>
<path d="M790.697 618.435L790.697 674.559L847.14 674.559L847.14 618.435L790.697 618.435Z" stroke="#101828" stroke-width="0.5" stroke-miterlimit="10"/>
<path d="M790.697 562.342L790.697 618.465L847.14 618.465L847.14 562.342L790.697 562.342Z" stroke="#101828" stroke-width="0.5" stroke-miterlimit="10"/>
<path d="M790.697 506.217L790.697 562.34L847.14 562.34L847.14 506.217L790.697 506.217Z" stroke="#101828" stroke-width="0.5" stroke-miterlimit="10"/>
<path d="M790.697 450.123L790.697 506.246L847.14 506.246L847.14 450.123L790.697 450.123Z" stroke="#101828" stroke-width="0.5" stroke-miterlimit="10"/>
<path d="M790.697 393.998L790.697 450.121L847.14 450.121L847.14 393.998L790.697 393.998Z" stroke="#101828" stroke-width="0.5" stroke-miterlimit="10"/>
<path d="M790.697 337.877L790.697 394L847.14 394L847.14 337.877L790.697 337.877Z" stroke="#101828" stroke-width="0.5" stroke-miterlimit="10"/>
<path d="M790.697 281.775L790.697 337.898L847.14 337.898L847.14 281.775L790.697 281.775Z" stroke="#101828" stroke-width="0.5" stroke-miterlimit="10"/>
<path d="M790.697 225.654L790.697 281.777L847.14 281.777L847.14 225.654L790.697 225.654Z" stroke="#101828" stroke-width="0.5" stroke-miterlimit="10"/>
<path d="M790.697 169.556L790.697 225.68L847.14 225.68L847.14 169.556L790.697 169.556Z" stroke="#101828" stroke-width="0.5" stroke-miterlimit="10"/>
<path d="M790.697 113.435L790.697 169.559L847.14 169.559L847.14 113.435L790.697 113.435Z" stroke="#101828" stroke-width="0.5" stroke-miterlimit="10"/>
<path d="M790.697 57.3377L790.697 113.461L847.14 113.461L847.14 57.3377L790.697 57.3377Z" stroke="#101828" stroke-width="0.5" stroke-miterlimit="10"/>
<path d="M790.697 1.21649L790.697 57.3398L847.14 57.3398L847.14 1.21649L790.697 1.21649Z" stroke="#101828" stroke-width="0.5" stroke-miterlimit="10"/>
<path d="M790.697 -54.8811L790.697 1.24219L847.14 1.24219L847.14 -54.8811L790.697 -54.8811Z" stroke="#101828" stroke-width="0.5" stroke-miterlimit="10"/>
<path d="M847.14 898.998L847.14 955.121L903.583 955.121L903.583 898.998L847.14 898.998Z" stroke="#101828" stroke-width="0.5" stroke-miterlimit="10"/>
<path d="M847.14 842.873L847.14 898.996L903.583 898.996L903.583 842.873L847.14 842.873Z" stroke="#101828" stroke-width="0.5" stroke-miterlimit="10"/>
<path d="M847.14 786.779L847.14 842.902L903.583 842.902L903.583 786.779L847.14 786.779Z" stroke="#101828" stroke-width="0.5" stroke-miterlimit="10"/>
<path d="M847.14 730.654L847.14 786.777L903.583 786.777L903.583 730.654L847.14 730.654Z" stroke="#101828" stroke-width="0.5" stroke-miterlimit="10"/>
<path d="M847.14 674.56L847.14 730.684L903.583 730.684L903.583 674.56L847.14 674.56Z" stroke="#101828" stroke-width="0.5" stroke-miterlimit="10"/>
<path d="M847.14 618.435L847.14 674.559L903.583 674.559L903.583 618.435L847.14 618.435Z" stroke="#101828" stroke-width="0.5" stroke-miterlimit="10"/>
<path d="M847.14 562.342L847.14 618.465L903.583 618.465L903.583 562.342L847.14 562.342Z" stroke="#101828" stroke-width="0.5" stroke-miterlimit="10"/>
<path d="M847.14 506.217L847.14 562.34L903.583 562.34L903.583 506.217L847.14 506.217Z" stroke="#101828" stroke-width="0.5" stroke-miterlimit="10"/>
<path d="M847.14 450.123L847.14 506.246L903.583 506.246L903.583 450.123L847.14 450.123Z" stroke="#101828" stroke-width="0.5" stroke-miterlimit="10"/>
<path d="M847.14 393.998L847.14 450.121L903.583 450.121L903.583 393.998L847.14 393.998Z" stroke="#101828" stroke-width="0.5" stroke-miterlimit="10"/>
<path d="M847.14 337.877L847.14 394L903.583 394L903.583 337.877L847.14 337.877Z" stroke="#101828" stroke-width="0.5" stroke-miterlimit="10"/>
<path d="M847.14 281.775L847.14 337.898L903.583 337.898L903.583 281.775L847.14 281.775Z" stroke="#101828" stroke-width="0.5" stroke-miterlimit="10"/>
<path d="M847.14 225.654L847.14 281.777L903.583 281.777L903.583 225.654L847.14 225.654Z" stroke="#101828" stroke-width="0.5" stroke-miterlimit="10"/>
<path d="M847.14 169.556L847.14 225.68L903.583 225.68L903.583 169.556L847.14 169.556Z" stroke="#101828" stroke-width="0.5" stroke-miterlimit="10"/>
<path d="M847.14 113.435L847.14 169.559L903.583 169.559L903.583 113.435L847.14 113.435Z" stroke="#101828" stroke-width="0.5" stroke-miterlimit="10"/>
<path d="M847.14 57.3377L847.14 113.461L903.583 113.461L903.583 57.3377L847.14 57.3377Z" stroke="#101828" stroke-width="0.5" stroke-miterlimit="10"/>
<path d="M847.14 1.21649L847.14 57.3398L903.583 57.3398L903.583 1.21649L847.14 1.21649Z" stroke="#101828" stroke-width="0.5" stroke-miterlimit="10"/>
<path d="M847.14 -54.8811L847.14 1.24219L903.583 1.24219L903.583 -54.8811L847.14 -54.8811Z" stroke="#101828" stroke-width="0.5" stroke-miterlimit="10"/>
<path d="M903.557 898.998L903.557 955.121L960 955.121L960 898.998L903.557 898.998Z" stroke="#101828" stroke-width="0.5" stroke-miterlimit="10"/>
<path d="M903.557 842.873L903.557 898.996L960 898.996L960 842.873L903.557 842.873Z" stroke="#101828" stroke-width="0.5" stroke-miterlimit="10"/>
<path d="M903.557 786.779L903.557 842.902L960 842.902L960 786.779L903.557 786.779Z" stroke="#101828" stroke-width="0.5" stroke-miterlimit="10"/>
<path d="M903.557 730.654L903.557 786.777L960 786.777L960 730.654L903.557 730.654Z" stroke="#101828" stroke-width="0.5" stroke-miterlimit="10"/>
<path d="M903.557 674.56L903.557 730.684L960 730.684L960 674.56L903.557 674.56Z" stroke="#101828" stroke-width="0.5" stroke-miterlimit="10"/>
<path d="M903.557 618.435L903.557 674.559L960 674.559L960 618.435L903.557 618.435Z" stroke="#101828" stroke-width="0.5" stroke-miterlimit="10"/>
<path d="M903.557 562.342L903.557 618.465L960 618.465L960 562.342L903.557 562.342Z" stroke="#101828" stroke-width="0.5" stroke-miterlimit="10"/>
<path d="M903.557 506.217L903.557 562.34L960 562.34L960 506.217L903.557 506.217Z" stroke="#101828" stroke-width="0.5" stroke-miterlimit="10"/>
<path d="M903.557 450.123L903.557 506.246L960 506.246L960 450.123L903.557 450.123Z" stroke="#101828" stroke-width="0.5" stroke-miterlimit="10"/>
<path d="M903.557 393.998L903.557 450.121L960 450.121L960 393.998L903.557 393.998Z" stroke="#101828" stroke-width="0.5" stroke-miterlimit="10"/>
<path d="M903.557 337.877L903.557 394L960 394L960 337.877L903.557 337.877Z" stroke="#101828" stroke-width="0.5" stroke-miterlimit="10"/>
<path d="M903.557 281.775L903.557 337.898L960 337.898L960 281.775L903.557 281.775Z" stroke="#101828" stroke-width="0.5" stroke-miterlimit="10"/>
<path d="M903.557 225.654L903.557 281.777L960 281.777L960 225.654L903.557 225.654Z" stroke="#101828" stroke-width="0.5" stroke-miterlimit="10"/>
<path d="M903.557 169.556L903.557 225.68L960 225.68L960 169.556L903.557 169.556Z" stroke="#101828" stroke-width="0.5" stroke-miterlimit="10"/>
<path d="M903.557 113.435L903.557 169.559L960 169.559L960 113.435L903.557 113.435Z" stroke="#101828" stroke-width="0.5" stroke-miterlimit="10"/>
<path d="M903.557 57.3377L903.557 113.461L960 113.461L960 57.3377L903.557 57.3377Z" stroke="#101828" stroke-width="0.5" stroke-miterlimit="10"/>
<path d="M903.557 1.21649L903.557 57.3398L960 57.3398L960 1.21649L903.557 1.21649Z" stroke="#101828" stroke-width="0.5" stroke-miterlimit="10"/>
<path d="M903.557 -54.8811L903.557 1.24219L960 1.24219L960 -54.8811L903.557 -54.8811Z" stroke="#101828" stroke-width="0.5" stroke-miterlimit="10"/>
<path d="M960 898.998L960 955.121L1016.44 955.121L1016.44 898.998L960 898.998Z" stroke="#101828" stroke-width="0.5" stroke-miterlimit="10"/>
<path d="M960 842.873L960 898.996L1016.44 898.996L1016.44 842.873L960 842.873Z" stroke="#101828" stroke-width="0.5" stroke-miterlimit="10"/>
<path d="M960 786.779L960 842.902L1016.44 842.902L1016.44 786.779L960 786.779Z" stroke="#101828" stroke-width="0.5" stroke-miterlimit="10"/>
<path d="M960 730.654L960 786.777L1016.44 786.777L1016.44 730.654L960 730.654Z" stroke="#101828" stroke-width="0.5" stroke-miterlimit="10"/>
<path d="M960 674.56L960 730.684L1016.44 730.684L1016.44 674.56L960 674.56Z" stroke="#101828" stroke-width="0.5" stroke-miterlimit="10"/>
<path d="M960 618.435L960 674.559L1016.44 674.559L1016.44 618.435L960 618.435Z" stroke="#101828" stroke-width="0.5" stroke-miterlimit="10"/>
<path d="M960 562.342L960 618.465L1016.44 618.465L1016.44 562.342L960 562.342Z" stroke="#101828" stroke-width="0.5" stroke-miterlimit="10"/>
<path d="M960 506.217L960 562.34L1016.44 562.34L1016.44 506.217L960 506.217Z" stroke="#101828" stroke-width="0.5" stroke-miterlimit="10"/>
<path d="M960 450.123L960 506.246L1016.44 506.246L1016.44 450.123L960 450.123Z" stroke="#101828" stroke-width="0.5" stroke-miterlimit="10"/>
<path d="M960 393.998L960 450.121L1016.44 450.121L1016.44 393.998L960 393.998Z" stroke="#101828" stroke-width="0.5" stroke-miterlimit="10"/>
<path d="M960 337.877L960 394L1016.44 394L1016.44 337.877L960 337.877Z" stroke="#101828" stroke-width="0.5" stroke-miterlimit="10"/>
<path d="M960 281.775L960 337.898L1016.44 337.898L1016.44 281.775L960 281.775Z" stroke="#101828" stroke-width="0.5" stroke-miterlimit="10"/>
<path d="M960 225.654L960 281.777L1016.44 281.777L1016.44 225.654L960 225.654Z" stroke="#101828" stroke-width="0.5" stroke-miterlimit="10"/>
<path d="M960 169.556L960 225.68L1016.44 225.68L1016.44 169.556L960 169.556Z" stroke="#101828" stroke-width="0.5" stroke-miterlimit="10"/>
<path d="M960 113.435L960 169.559L1016.44 169.559L1016.44 113.435L960 113.435Z" stroke="#101828" stroke-width="0.5" stroke-miterlimit="10"/>
<path d="M960 57.3377L960 113.461L1016.44 113.461L1016.44 57.3377L960 57.3377Z" stroke="#101828" stroke-width="0.5" stroke-miterlimit="10"/>
<path d="M960 1.21649L960 57.3398L1016.44 57.3398L1016.44 1.21649L960 1.21649Z" stroke="#101828" stroke-width="0.5" stroke-miterlimit="10"/>
<path d="M960 -54.8811L960 1.24219L1016.44 1.24219L1016.44 -54.8811L960 -54.8811Z" stroke="#101828" stroke-width="0.5" stroke-miterlimit="10"/>
<path d="M1016.44 898.998L1016.44 955.121L1072.89 955.121L1072.89 898.998L1016.44 898.998Z" stroke="#101828" stroke-width="0.5" stroke-miterlimit="10"/>
<path d="M1016.44 842.873L1016.44 898.996L1072.89 898.996L1072.89 842.873L1016.44 842.873Z" stroke="#101828" stroke-width="0.5" stroke-miterlimit="10"/>
<path d="M1016.44 786.779L1016.44 842.902L1072.89 842.902L1072.89 786.779L1016.44 786.779Z" stroke="#101828" stroke-width="0.5" stroke-miterlimit="10"/>
<path d="M1016.44 730.654L1016.44 786.777L1072.89 786.777L1072.89 730.654L1016.44 730.654Z" stroke="#101828" stroke-width="0.5" stroke-miterlimit="10"/>
<path d="M1016.44 674.56L1016.44 730.684L1072.89 730.684L1072.89 674.56L1016.44 674.56Z" stroke="#101828" stroke-width="0.5" stroke-miterlimit="10"/>
<path d="M1016.44 618.435L1016.44 674.559L1072.89 674.559L1072.89 618.435L1016.44 618.435Z" stroke="#101828" stroke-width="0.5" stroke-miterlimit="10"/>
<path d="M1016.44 562.342L1016.44 618.465L1072.89 618.465L1072.89 562.342L1016.44 562.342Z" stroke="#101828" stroke-width="0.5" stroke-miterlimit="10"/>
<path d="M1016.44 506.217L1016.44 562.34L1072.89 562.34L1072.89 506.217L1016.44 506.217Z" stroke="#101828" stroke-width="0.5" stroke-miterlimit="10"/>
<path d="M1016.44 450.123L1016.44 506.246L1072.89 506.246L1072.89 450.123L1016.44 450.123Z" stroke="#101828" stroke-width="0.5" stroke-miterlimit="10"/>
<path d="M1016.44 393.998L1016.44 450.121L1072.89 450.121L1072.89 393.998L1016.44 393.998Z" stroke="#101828" stroke-width="0.5" stroke-miterlimit="10"/>
<path d="M1016.44 337.877L1016.44 394L1072.89 394L1072.89 337.877L1016.44 337.877Z" stroke="#101828" stroke-width="0.5" stroke-miterlimit="10"/>
<path d="M1016.44 281.775L1016.44 337.898L1072.89 337.898L1072.89 281.775L1016.44 281.775Z" stroke="#101828" stroke-width="0.5" stroke-miterlimit="10"/>
<path d="M1016.44 225.654L1016.44 281.777L1072.89 281.777L1072.89 225.654L1016.44 225.654Z" stroke="#101828" stroke-width="0.5" stroke-miterlimit="10"/>
<path d="M1016.44 169.556L1016.44 225.68L1072.89 225.68L1072.89 169.556L1016.44 169.556Z" stroke="#101828" stroke-width="0.5" stroke-miterlimit="10"/>
<path d="M1016.44 113.435L1016.44 169.559L1072.89 169.559L1072.89 113.435L1016.44 113.435Z" stroke="#101828" stroke-width="0.5" stroke-miterlimit="10"/>
<path d="M1016.44 57.3377L1016.44 113.461L1072.89 113.461L1072.89 57.3377L1016.44 57.3377Z" stroke="#101828" stroke-width="0.5" stroke-miterlimit="10"/>
<path d="M1016.44 1.21649L1016.44 57.3398L1072.89 57.3398L1072.89 1.21649L1016.44 1.21649Z" stroke="#101828" stroke-width="0.5" stroke-miterlimit="10"/>
<path d="M1016.44 -54.8811L1016.44 1.24219L1072.89 1.24219L1072.89 -54.8811L1016.44 -54.8811Z" stroke="#101828" stroke-width="0.5" stroke-miterlimit="10"/>
<path d="M1072.86 898.998L1072.86 955.121L1129.3 955.121L1129.3 898.998L1072.86 898.998Z" stroke="#101828" stroke-width="0.5" stroke-miterlimit="10"/>
<path d="M1072.86 842.873L1072.86 898.996L1129.3 898.996L1129.3 842.873L1072.86 842.873Z" stroke="#101828" stroke-width="0.5" stroke-miterlimit="10"/>
<path d="M1072.86 786.779L1072.86 842.902L1129.3 842.902L1129.3 786.779L1072.86 786.779Z" stroke="#101828" stroke-width="0.5" stroke-miterlimit="10"/>
<path d="M1072.86 730.654L1072.86 786.777L1129.3 786.777L1129.3 730.654L1072.86 730.654Z" stroke="#101828" stroke-width="0.5" stroke-miterlimit="10"/>
<path d="M1072.86 674.56L1072.86 730.684L1129.3 730.684L1129.3 674.56L1072.86 674.56Z" stroke="#101828" stroke-width="0.5" stroke-miterlimit="10"/>
<path d="M1072.86 618.435L1072.86 674.559L1129.3 674.559L1129.3 618.435L1072.86 618.435Z" stroke="#101828" stroke-width="0.5" stroke-miterlimit="10"/>
<path d="M1072.86 562.342L1072.86 618.465L1129.3 618.465L1129.3 562.342L1072.86 562.342Z" stroke="#101828" stroke-width="0.5" stroke-miterlimit="10"/>
<path d="M1072.86 506.217L1072.86 562.34L1129.3 562.34L1129.3 506.217L1072.86 506.217Z" stroke="#101828" stroke-width="0.5" stroke-miterlimit="10"/>
<path d="M1072.86 450.123L1072.86 506.246L1129.3 506.246L1129.3 450.123L1072.86 450.123Z" stroke="#101828" stroke-width="0.5" stroke-miterlimit="10"/>
<path d="M1072.86 393.998L1072.86 450.121L1129.3 450.121L1129.3 393.998L1072.86 393.998Z" stroke="#101828" stroke-width="0.5" stroke-miterlimit="10"/>
<path d="M1072.86 337.877L1072.86 394L1129.3 394L1129.3 337.877L1072.86 337.877Z" stroke="#101828" stroke-width="0.5" stroke-miterlimit="10"/>
<path d="M1072.86 281.775L1072.86 337.898L1129.3 337.898L1129.3 281.775L1072.86 281.775Z" stroke="#101828" stroke-width="0.5" stroke-miterlimit="10"/>
<path d="M1072.86 225.654L1072.86 281.777L1129.3 281.777L1129.3 225.654L1072.86 225.654Z" stroke="#101828" stroke-width="0.5" stroke-miterlimit="10"/>
<path d="M1072.86 169.556L1072.86 225.68L1129.3 225.68L1129.3 169.556L1072.86 169.556Z" stroke="#101828" stroke-width="0.5" stroke-miterlimit="10"/>
<path d="M1072.86 113.435L1072.86 169.559L1129.3 169.559L1129.3 113.435L1072.86 113.435Z" stroke="#101828" stroke-width="0.5" stroke-miterlimit="10"/>
<path d="M1072.86 57.3377L1072.86 113.461L1129.3 113.461L1129.3 57.3377L1072.86 57.3377Z" stroke="#101828" stroke-width="0.5" stroke-miterlimit="10"/>
<path d="M1072.86 1.21649L1072.86 57.3398L1129.3 57.3398L1129.3 1.21649L1072.86 1.21649Z" stroke="#101828" stroke-width="0.5" stroke-miterlimit="10"/>
<path d="M1072.86 -54.8811L1072.86 1.24219L1129.3 1.24219L1129.3 -54.8811L1072.86 -54.8811Z" stroke="#101828" stroke-width="0.5" stroke-miterlimit="10"/>
<path d="M1129.3 898.998L1129.3 955.121L1185.75 955.121L1185.75 898.998L1129.3 898.998Z" stroke="#101828" stroke-width="0.5" stroke-miterlimit="10"/>
<path d="M1129.3 842.873L1129.3 898.996L1185.75 898.996L1185.75 842.873L1129.3 842.873Z" stroke="#101828" stroke-width="0.5" stroke-miterlimit="10"/>
<path d="M1129.3 786.779L1129.3 842.902L1185.75 842.902L1185.75 786.779L1129.3 786.779Z" stroke="#101828" stroke-width="0.5" stroke-miterlimit="10"/>
<path d="M1129.3 730.654L1129.3 786.777L1185.75 786.777L1185.75 730.654L1129.3 730.654Z" stroke="#101828" stroke-width="0.5" stroke-miterlimit="10"/>
<path d="M1129.3 674.56L1129.3 730.684L1185.75 730.684L1185.75 674.56L1129.3 674.56Z" stroke="#101828" stroke-width="0.5" stroke-miterlimit="10"/>
<path d="M1129.3 618.435L1129.3 674.559L1185.75 674.559L1185.75 618.435L1129.3 618.435Z" stroke="#101828" stroke-width="0.5" stroke-miterlimit="10"/>
<path d="M1129.3 562.342L1129.3 618.465L1185.75 618.465L1185.75 562.342L1129.3 562.342Z" stroke="#101828" stroke-width="0.5" stroke-miterlimit="10"/>
<path d="M1129.3 506.217L1129.3 562.34L1185.75 562.34L1185.75 506.217L1129.3 506.217Z" stroke="#101828" stroke-width="0.5" stroke-miterlimit="10"/>
<path d="M1129.3 450.123L1129.3 506.246L1185.75 506.246L1185.75 450.123L1129.3 450.123Z" stroke="#101828" stroke-width="0.5" stroke-miterlimit="10"/>
<path d="M1129.3 393.998L1129.3 450.121L1185.75 450.121L1185.75 393.998L1129.3 393.998Z" stroke="#101828" stroke-width="0.5" stroke-miterlimit="10"/>
<path d="M1129.3 337.877L1129.3 394L1185.75 394L1185.75 337.877L1129.3 337.877Z" stroke="#101828" stroke-width="0.5" stroke-miterlimit="10"/>
<path d="M1129.3 281.775L1129.3 337.898L1185.75 337.898L1185.75 281.775L1129.3 281.775Z" stroke="#101828" stroke-width="0.5" stroke-miterlimit="10"/>
<path d="M1129.3 225.654L1129.3 281.777L1185.75 281.777L1185.75 225.654L1129.3 225.654Z" stroke="#101828" stroke-width="0.5" stroke-miterlimit="10"/>
<path d="M1129.3 169.556L1129.3 225.68L1185.75 225.68L1185.75 169.556L1129.3 169.556Z" stroke="#101828" stroke-width="0.5" stroke-miterlimit="10"/>
<path d="M1129.3 113.435L1129.3 169.559L1185.75 169.559L1185.75 113.435L1129.3 113.435Z" stroke="#101828" stroke-width="0.5" stroke-miterlimit="10"/>
<path d="M1129.3 57.3377L1129.3 113.461L1185.75 113.461L1185.75 57.3377L1129.3 57.3377Z" stroke="#101828" stroke-width="0.5" stroke-miterlimit="10"/>
<path d="M1129.3 1.21649L1129.3 57.3398L1185.75 57.3398L1185.75 1.21649L1129.3 1.21649Z" stroke="#101828" stroke-width="0.5" stroke-miterlimit="10"/>
<path d="M1129.3 -54.8811L1129.3 1.24219L1185.75 1.24219L1185.75 -54.8811L1129.3 -54.8811Z" stroke="#101828" stroke-width="0.5" stroke-miterlimit="10"/>
<path d="M1185.72 898.998L1185.72 955.121L1242.16 955.121L1242.16 898.998L1185.72 898.998Z" stroke="#101828" stroke-width="0.5" stroke-miterlimit="10"/>
<path d="M1185.72 842.873L1185.72 898.996L1242.16 898.996L1242.16 842.873L1185.72 842.873Z" stroke="#101828" stroke-width="0.5" stroke-miterlimit="10"/>
<path d="M1185.72 786.779L1185.72 842.902L1242.16 842.902L1242.16 786.779L1185.72 786.779Z" stroke="#101828" stroke-width="0.5" stroke-miterlimit="10"/>
<path d="M1185.72 730.654L1185.72 786.777L1242.16 786.777L1242.16 730.654L1185.72 730.654Z" stroke="#101828" stroke-width="0.5" stroke-miterlimit="10"/>
<path d="M1185.72 674.56L1185.72 730.684L1242.16 730.684L1242.16 674.56L1185.72 674.56Z" stroke="#101828" stroke-width="0.5" stroke-miterlimit="10"/>
<path d="M1185.72 618.435L1185.72 674.559L1242.16 674.559L1242.16 618.435L1185.72 618.435Z" stroke="#101828" stroke-width="0.5" stroke-miterlimit="10"/>
<path d="M1185.72 562.342L1185.72 618.465L1242.16 618.465L1242.16 562.342L1185.72 562.342Z" stroke="#101828" stroke-width="0.5" stroke-miterlimit="10"/>
<path d="M1185.72 506.217L1185.72 562.34L1242.16 562.34L1242.16 506.217L1185.72 506.217Z" stroke="#101828" stroke-width="0.5" stroke-miterlimit="10"/>
<path d="M1185.72 450.123L1185.72 506.246L1242.16 506.246L1242.16 450.123L1185.72 450.123Z" stroke="#101828" stroke-width="0.5" stroke-miterlimit="10"/>
<path d="M1185.72 393.998L1185.72 450.121L1242.16 450.121L1242.16 393.998L1185.72 393.998Z" stroke="#101828" stroke-width="0.5" stroke-miterlimit="10"/>
<path d="M1185.72 337.877L1185.72 394L1242.16 394L1242.16 337.877L1185.72 337.877Z" stroke="#101828" stroke-width="0.5" stroke-miterlimit="10"/>
<path d="M1185.72 281.779L1185.72 337.902L1242.16 337.902L1242.16 281.779L1185.72 281.779Z" stroke="#101828" stroke-width="0.5" stroke-miterlimit="10"/>
<path d="M1185.72 225.654L1185.72 281.777L1242.16 281.777L1242.16 225.654L1185.72 225.654Z" stroke="#101828" stroke-width="0.5" stroke-miterlimit="10"/>
<path d="M1185.72 169.556L1185.72 225.68L1242.16 225.68L1242.16 169.556L1185.72 169.556Z" stroke="#101828" stroke-width="0.5" stroke-miterlimit="10"/>
<path d="M1185.72 113.435L1185.72 169.559L1242.16 169.559L1242.16 113.435L1185.72 113.435Z" stroke="#101828" stroke-width="0.5" stroke-miterlimit="10"/>
<path d="M1185.72 57.3377L1185.72 113.461L1242.16 113.461L1242.16 57.3377L1185.72 57.3377Z" stroke="#101828" stroke-width="0.5" stroke-miterlimit="10"/>
<path d="M1185.72 1.21649L1185.72 57.3398L1242.16 57.3398L1242.16 1.21649L1185.72 1.21649Z" stroke="#101828" stroke-width="0.5" stroke-miterlimit="10"/>
<path d="M1185.72 -54.8811L1185.72 1.24219L1242.16 1.24219L1242.16 -54.8811L1185.72 -54.8811Z" stroke="#101828" stroke-width="0.5" stroke-miterlimit="10"/>
<path d="M1242.16 898.998L1242.16 955.121L1298.61 955.121L1298.61 898.998L1242.16 898.998Z" stroke="#101828" stroke-width="0.5" stroke-miterlimit="10"/>
<path d="M1242.16 842.873L1242.16 898.996L1298.61 898.996L1298.61 842.873L1242.16 842.873Z" stroke="#101828" stroke-width="0.5" stroke-miterlimit="10"/>
<path d="M1242.16 786.779L1242.16 842.902L1298.61 842.902L1298.61 786.779L1242.16 786.779Z" stroke="#101828" stroke-width="0.5" stroke-miterlimit="10"/>
<path d="M1242.16 730.654L1242.16 786.777L1298.61 786.777L1298.61 730.654L1242.16 730.654Z" stroke="#101828" stroke-width="0.5" stroke-miterlimit="10"/>
<path d="M1242.16 674.56L1242.16 730.684L1298.61 730.684L1298.61 674.56L1242.16 674.56Z" stroke="#101828" stroke-width="0.5" stroke-miterlimit="10"/>
<path d="M1242.16 618.435L1242.16 674.559L1298.61 674.559L1298.61 618.435L1242.16 618.435Z" stroke="#101828" stroke-width="0.5" stroke-miterlimit="10"/>
<path d="M1242.16 562.342L1242.16 618.465L1298.61 618.465L1298.61 562.342L1242.16 562.342Z" stroke="#101828" stroke-width="0.5" stroke-miterlimit="10"/>
<path d="M1242.16 506.217L1242.16 562.34L1298.61 562.34L1298.61 506.217L1242.16 506.217Z" stroke="#101828" stroke-width="0.5" stroke-miterlimit="10"/>
<path d="M1242.16 450.123L1242.16 506.246L1298.61 506.246L1298.61 450.123L1242.16 450.123Z" stroke="#101828" stroke-width="0.5" stroke-miterlimit="10"/>
<path d="M1242.16 393.998L1242.16 450.121L1298.61 450.121L1298.61 393.998L1242.16 393.998Z" stroke="#101828" stroke-width="0.5" stroke-miterlimit="10"/>
<path d="M1242.16 337.877L1242.16 394L1298.61 394L1298.61 337.877L1242.16 337.877Z" stroke="#101828" stroke-width="0.5" stroke-miterlimit="10"/>
<path d="M1242.16 281.779L1242.16 337.902L1298.61 337.902L1298.61 281.779L1242.16 281.779Z" stroke="#101828" stroke-width="0.5" stroke-miterlimit="10"/>
<path d="M1242.16 225.654L1242.16 281.777L1298.61 281.777L1298.61 225.654L1242.16 225.654Z" stroke="#101828" stroke-width="0.5" stroke-miterlimit="10"/>
<path d="M1242.16 169.556L1242.16 225.68L1298.61 225.68L1298.61 169.556L1242.16 169.556Z" stroke="#101828" stroke-width="0.5" stroke-miterlimit="10"/>
<path d="M1242.16 113.435L1242.16 169.559L1298.61 169.559L1298.61 113.435L1242.16 113.435Z" stroke="#101828" stroke-width="0.5" stroke-miterlimit="10"/>
<path d="M1242.16 57.3377L1242.16 113.461L1298.61 113.461L1298.61 57.3377L1242.16 57.3377Z" stroke="#101828" stroke-width="0.5" stroke-miterlimit="10"/>
<path d="M1242.16 1.21649L1242.16 57.3398L1298.61 57.3398L1298.61 1.21649L1242.16 1.21649Z" stroke="#101828" stroke-width="0.5" stroke-miterlimit="10"/>
<path d="M1242.16 -54.8811L1242.16 1.24219L1298.61 1.24219L1298.61 -54.8811L1242.16 -54.8811Z" stroke="#101828" stroke-width="0.5" stroke-miterlimit="10"/>
<path d="M1298.58 898.998L1298.58 955.121L1355.02 955.121L1355.02 898.998L1298.58 898.998Z" stroke="#101828" stroke-width="0.5" stroke-miterlimit="10"/>
<path d="M1298.58 842.873L1298.58 898.996L1355.02 898.996L1355.02 842.873L1298.58 842.873Z" stroke="#101828" stroke-width="0.5" stroke-miterlimit="10"/>
<path d="M1298.58 786.779L1298.58 842.902L1355.02 842.902L1355.02 786.779L1298.58 786.779Z" stroke="#101828" stroke-width="0.5" stroke-miterlimit="10"/>
<path d="M1298.58 730.654L1298.58 786.777L1355.02 786.777L1355.02 730.654L1298.58 730.654Z" stroke="#101828" stroke-width="0.5" stroke-miterlimit="10"/>
<path d="M1298.58 674.56L1298.58 730.684L1355.02 730.684L1355.02 674.56L1298.58 674.56Z" stroke="#101828" stroke-width="0.5" stroke-miterlimit="10"/>
<path d="M1298.58 618.435L1298.58 674.559L1355.02 674.559L1355.02 618.435L1298.58 618.435Z" stroke="#101828" stroke-width="0.5" stroke-miterlimit="10"/>
<path d="M1298.58 562.342L1298.58 618.465L1355.02 618.465L1355.02 562.342L1298.58 562.342Z" stroke="#101828" stroke-width="0.5" stroke-miterlimit="10"/>
<path d="M1298.58 506.217L1298.58 562.34L1355.02 562.34L1355.02 506.217L1298.58 506.217Z" stroke="#101828" stroke-width="0.5" stroke-miterlimit="10"/>
<path d="M1298.58 450.123L1298.58 506.246L1355.02 506.246L1355.02 450.123L1298.58 450.123Z" stroke="#101828" stroke-width="0.5" stroke-miterlimit="10"/>
<path d="M1298.58 393.998L1298.58 450.121L1355.02 450.121L1355.02 393.998L1298.58 393.998Z" stroke="#101828" stroke-width="0.5" stroke-miterlimit="10"/>
<path d="M1298.58 337.877L1298.58 394L1355.02 394L1355.02 337.877L1298.58 337.877Z" stroke="#101828" stroke-width="0.5" stroke-miterlimit="10"/>
<path d="M1298.58 281.779L1298.58 337.902L1355.02 337.902L1355.02 281.779L1298.58 281.779Z" stroke="#101828" stroke-width="0.5" stroke-miterlimit="10"/>
<path d="M1298.58 225.654L1298.58 281.777L1355.02 281.777L1355.02 225.654L1298.58 225.654Z" stroke="#101828" stroke-width="0.5" stroke-miterlimit="10"/>
<path d="M1298.58 169.556L1298.58 225.68L1355.02 225.68L1355.02 169.556L1298.58 169.556Z" stroke="#101828" stroke-width="0.5" stroke-miterlimit="10"/>
<path d="M1298.58 113.435L1298.58 169.559L1355.02 169.559L1355.02 113.435L1298.58 113.435Z" stroke="#101828" stroke-width="0.5" stroke-miterlimit="10"/>
<path d="M1298.58 57.3377L1298.58 113.461L1355.02 113.461L1355.02 57.3377L1298.58 57.3377Z" stroke="#101828" stroke-width="0.5" stroke-miterlimit="10"/>
<path d="M1298.58 1.21649L1298.58 57.3398L1355.02 57.3398L1355.02 1.21649L1298.58 1.21649Z" stroke="#101828" stroke-width="0.5" stroke-miterlimit="10"/>
<path d="M1298.58 -54.8811L1298.58 1.24219L1355.02 1.24219L1355.02 -54.8811L1298.58 -54.8811Z" stroke="#101828" stroke-width="0.5" stroke-miterlimit="10"/>
<path d="M1355.02 898.998L1355.02 955.121L1411.46 955.121L1411.46 898.998L1355.02 898.998Z" stroke="#101828" stroke-width="0.5" stroke-miterlimit="10"/>
<path d="M1355.02 842.873L1355.02 898.996L1411.46 898.996L1411.46 842.873L1355.02 842.873Z" stroke="#101828" stroke-width="0.5" stroke-miterlimit="10"/>
<path d="M1355.02 786.779L1355.02 842.902L1411.46 842.902L1411.46 786.779L1355.02 786.779Z" stroke="#101828" stroke-width="0.5" stroke-miterlimit="10"/>
<path d="M1355.02 730.654L1355.02 786.777L1411.46 786.777L1411.46 730.654L1355.02 730.654Z" stroke="#101828" stroke-width="0.5" stroke-miterlimit="10"/>
<path d="M1355.02 674.56L1355.02 730.684L1411.46 730.684L1411.46 674.56L1355.02 674.56Z" stroke="#101828" stroke-width="0.5" stroke-miterlimit="10"/>
<path d="M1355.02 618.435L1355.02 674.559L1411.46 674.559L1411.46 618.435L1355.02 618.435Z" stroke="#101828" stroke-width="0.5" stroke-miterlimit="10"/>
<path d="M1355.02 562.342L1355.02 618.465L1411.46 618.465L1411.46 562.342L1355.02 562.342Z" stroke="#101828" stroke-width="0.5" stroke-miterlimit="10"/>
<path d="M1355.02 506.217L1355.02 562.34L1411.46 562.34L1411.46 506.217L1355.02 506.217Z" stroke="#101828" stroke-width="0.5" stroke-miterlimit="10"/>
<path d="M1355.02 450.123L1355.02 506.246L1411.46 506.246L1411.46 450.123L1355.02 450.123Z" stroke="#101828" stroke-width="0.5" stroke-miterlimit="10"/>
<path d="M1355.02 393.998L1355.02 450.121L1411.46 450.121L1411.46 393.998L1355.02 393.998Z" stroke="#101828" stroke-width="0.5" stroke-miterlimit="10"/>
<path d="M1355.02 337.877L1355.02 394L1411.46 394L1411.46 337.877L1355.02 337.877Z" stroke="#101828" stroke-width="0.5" stroke-miterlimit="10"/>
<path d="M1355.02 281.779L1355.02 337.902L1411.46 337.902L1411.46 281.779L1355.02 281.779Z" stroke="#101828" stroke-width="0.5" stroke-miterlimit="10"/>
<path d="M1355.02 225.654L1355.02 281.777L1411.46 281.777L1411.46 225.654L1355.02 225.654Z" stroke="#101828" stroke-width="0.5" stroke-miterlimit="10"/>
<path d="M1355.02 169.556L1355.02 225.68L1411.46 225.68L1411.46 169.556L1355.02 169.556Z" stroke="#101828" stroke-width="0.5" stroke-miterlimit="10"/>
<path d="M1355.02 113.435L1355.02 169.559L1411.46 169.559L1411.46 113.435L1355.02 113.435Z" stroke="#101828" stroke-width="0.5" stroke-miterlimit="10"/>
<path d="M1355.02 57.3377L1355.02 113.461L1411.46 113.461L1411.46 57.3377L1355.02 57.3377Z" stroke="#101828" stroke-width="0.5" stroke-miterlimit="10"/>
<path d="M1355.02 1.21649L1355.02 57.3398L1411.46 57.3398L1411.46 1.21649L1355.02 1.21649Z" stroke="#101828" stroke-width="0.5" stroke-miterlimit="10"/>
<path d="M1355.02 -54.8811L1355.02 1.24219L1411.46 1.24219L1411.46 -54.8811L1355.02 -54.8811Z" stroke="#101828" stroke-width="0.5" stroke-miterlimit="10"/>
<path d="M1411.44 898.998L1411.44 955.121L1467.88 955.121L1467.88 898.998L1411.44 898.998Z" stroke="#101828" stroke-width="0.5" stroke-miterlimit="10"/>
<path d="M1411.44 842.873L1411.44 898.996L1467.88 898.996L1467.88 842.873L1411.44 842.873Z" stroke="#101828" stroke-width="0.5" stroke-miterlimit="10"/>
<path d="M1411.44 786.779L1411.44 842.902L1467.88 842.902L1467.88 786.779L1411.44 786.779Z" stroke="#101828" stroke-width="0.5" stroke-miterlimit="10"/>
<path d="M1411.44 730.654L1411.44 786.777L1467.88 786.777L1467.88 730.654L1411.44 730.654Z" stroke="#101828" stroke-width="0.5" stroke-miterlimit="10"/>
<path d="M1411.44 674.56L1411.44 730.684L1467.88 730.684L1467.88 674.56L1411.44 674.56Z" stroke="#101828" stroke-width="0.5" stroke-miterlimit="10"/>
<path d="M1411.44 618.435L1411.44 674.559L1467.88 674.559L1467.88 618.435L1411.44 618.435Z" stroke="#101828" stroke-width="0.5" stroke-miterlimit="10"/>
<path d="M1411.44 562.342L1411.44 618.465L1467.88 618.465L1467.88 562.342L1411.44 562.342Z" stroke="#101828" stroke-width="0.5" stroke-miterlimit="10"/>
<path d="M1411.44 506.217L1411.44 562.34L1467.88 562.34L1467.88 506.217L1411.44 506.217Z" stroke="#101828" stroke-width="0.5" stroke-miterlimit="10"/>
<path d="M1411.44 450.123L1411.44 506.246L1467.88 506.246L1467.88 450.123L1411.44 450.123Z" stroke="#101828" stroke-width="0.5" stroke-miterlimit="10"/>
<path d="M1411.44 393.998L1411.44 450.121L1467.88 450.121L1467.88 393.998L1411.44 393.998Z" stroke="#101828" stroke-width="0.5" stroke-miterlimit="10"/>
<path d="M1411.44 337.877L1411.44 394L1467.88 394L1467.88 337.877L1411.44 337.877Z" stroke="#101828" stroke-width="0.5" stroke-miterlimit="10"/>
<path d="M1411.44 281.779L1411.44 337.902L1467.88 337.902L1467.88 281.779L1411.44 281.779Z" stroke="#101828" stroke-width="0.5" stroke-miterlimit="10"/>
<path d="M1411.44 225.654L1411.44 281.777L1467.88 281.777L1467.88 225.654L1411.44 225.654Z" stroke="#101828" stroke-width="0.5" stroke-miterlimit="10"/>
<path d="M1411.44 169.556L1411.44 225.68L1467.88 225.68L1467.88 169.556L1411.44 169.556Z" stroke="#101828" stroke-width="0.5" stroke-miterlimit="10"/>
<path d="M1411.44 113.435L1411.44 169.559L1467.88 169.559L1467.88 113.435L1411.44 113.435Z" stroke="#101828" stroke-width="0.5" stroke-miterlimit="10"/>
<path d="M1411.44 57.3377L1411.44 113.461L1467.88 113.461L1467.88 57.3377L1411.44 57.3377Z" stroke="#101828" stroke-width="0.5" stroke-miterlimit="10"/>
<path d="M1411.44 1.21649L1411.44 57.3398L1467.88 57.3398L1467.88 1.21649L1411.44 1.21649Z" stroke="#101828" stroke-width="0.5" stroke-miterlimit="10"/>
<path d="M1411.44 -54.8811L1411.44 1.24219L1467.88 1.24219L1467.88 -54.8811L1411.44 -54.8811Z" stroke="#101828" stroke-width="0.5" stroke-miterlimit="10"/>
<path d="M1467.88 898.998L1467.88 955.121L1524.32 955.121L1524.32 898.998L1467.88 898.998Z" stroke="#101828" stroke-width="0.5" stroke-miterlimit="10"/>
<path d="M1467.88 842.873L1467.88 898.996L1524.32 898.996L1524.32 842.873L1467.88 842.873Z" stroke="#101828" stroke-width="0.5" stroke-miterlimit="10"/>
<path d="M1467.88 786.779L1467.88 842.902L1524.32 842.902L1524.32 786.779L1467.88 786.779Z" stroke="#101828" stroke-width="0.5" stroke-miterlimit="10"/>
<path d="M1467.88 730.654L1467.88 786.777L1524.32 786.777L1524.32 730.654L1467.88 730.654Z" stroke="#101828" stroke-width="0.5" stroke-miterlimit="10"/>
<path d="M1467.88 674.56L1467.88 730.684L1524.32 730.684L1524.32 674.56L1467.88 674.56Z" stroke="#101828" stroke-width="0.5" stroke-miterlimit="10"/>
<path d="M1467.88 618.435L1467.88 674.559L1524.32 674.559L1524.32 618.435L1467.88 618.435Z" stroke="#101828" stroke-width="0.5" stroke-miterlimit="10"/>
<path d="M1467.88 562.342L1467.88 618.465L1524.32 618.465L1524.32 562.342L1467.88 562.342Z" stroke="#101828" stroke-width="0.5" stroke-miterlimit="10"/>
<path d="M1467.88 506.217L1467.88 562.34L1524.32 562.34L1524.32 506.217L1467.88 506.217Z" stroke="#101828" stroke-width="0.5" stroke-miterlimit="10"/>
<path d="M1467.88 450.123L1467.88 506.246L1524.32 506.246L1524.32 450.123L1467.88 450.123Z" stroke="#101828" stroke-width="0.5" stroke-miterlimit="10"/>
<path d="M1467.88 393.998L1467.88 450.121L1524.32 450.121L1524.32 393.998L1467.88 393.998Z" stroke="#101828" stroke-width="0.5" stroke-miterlimit="10"/>
<path d="M1467.88 337.877L1467.88 394L1524.32 394L1524.32 337.877L1467.88 337.877Z" stroke="#101828" stroke-width="0.5" stroke-miterlimit="10"/>
<path d="M1467.88 281.779L1467.88 337.902L1524.32 337.902L1524.32 281.779L1467.88 281.779Z" stroke="#101828" stroke-width="0.5" stroke-miterlimit="10"/>
<path d="M1467.88 225.654L1467.88 281.777L1524.32 281.777L1524.32 225.654L1467.88 225.654Z" stroke="#101828" stroke-width="0.5" stroke-miterlimit="10"/>
<path d="M1467.88 169.556L1467.88 225.68L1524.32 225.68L1524.32 169.556L1467.88 169.556Z" stroke="#101828" stroke-width="0.5" stroke-miterlimit="10"/>
<path d="M1467.88 113.435L1467.88 169.559L1524.32 169.559L1524.32 113.435L1467.88 113.435Z" stroke="#101828" stroke-width="0.5" stroke-miterlimit="10"/>
<path d="M1467.88 57.3377L1467.88 113.461L1524.32 113.461L1524.32 57.3377L1467.88 57.3377Z" stroke="#101828" stroke-width="0.5" stroke-miterlimit="10"/>
<path d="M1467.88 1.21649L1467.88 57.3398L1524.32 57.3398L1524.32 1.21649L1467.88 1.21649Z" stroke="#101828" stroke-width="0.5" stroke-miterlimit="10"/>
<path d="M1467.88 -54.8811L1467.88 1.24219L1524.32 1.24219L1524.32 -54.8811L1467.88 -54.8811Z" stroke="#101828" stroke-width="0.5" stroke-miterlimit="10"/>
<path d="M1524.3 898.998L1524.3 955.121L1580.74 955.121L1580.74 898.998L1524.3 898.998Z" stroke="#101828" stroke-width="0.5" stroke-miterlimit="10"/>
<path d="M1524.3 842.873L1524.3 898.996L1580.74 898.996L1580.74 842.873L1524.3 842.873Z" stroke="#101828" stroke-width="0.5" stroke-miterlimit="10"/>
<path d="M1524.3 786.779L1524.3 842.902L1580.74 842.902L1580.74 786.779L1524.3 786.779Z" stroke="#101828" stroke-width="0.5" stroke-miterlimit="10"/>
<path d="M1524.3 730.654L1524.3 786.777L1580.74 786.777L1580.74 730.654L1524.3 730.654Z" stroke="#101828" stroke-width="0.5" stroke-miterlimit="10"/>
<path d="M1524.3 674.56L1524.3 730.684L1580.74 730.684L1580.74 674.56L1524.3 674.56Z" stroke="#101828" stroke-width="0.5" stroke-miterlimit="10"/>
<path d="M1524.3 618.435L1524.3 674.559L1580.74 674.559L1580.74 618.435L1524.3 618.435Z" stroke="#101828" stroke-width="0.5" stroke-miterlimit="10"/>
<path d="M1524.3 562.342L1524.3 618.465L1580.74 618.465L1580.74 562.342L1524.3 562.342Z" stroke="#101828" stroke-width="0.5" stroke-miterlimit="10"/>
<path d="M1524.3 506.217L1524.3 562.34L1580.74 562.34L1580.74 506.217L1524.3 506.217Z" stroke="#101828" stroke-width="0.5" stroke-miterlimit="10"/>
<path d="M1524.3 450.123L1524.3 506.246L1580.74 506.246L1580.74 450.123L1524.3 450.123Z" stroke="#101828" stroke-width="0.5" stroke-miterlimit="10"/>
<path d="M1524.3 393.998L1524.3 450.121L1580.74 450.121L1580.74 393.998L1524.3 393.998Z" stroke="#101828" stroke-width="0.5" stroke-miterlimit="10"/>
<path d="M1524.3 337.877L1524.3 394L1580.74 394L1580.74 337.877L1524.3 337.877Z" stroke="#101828" stroke-width="0.5" stroke-miterlimit="10"/>
<path d="M1524.3 281.779L1524.3 337.902L1580.74 337.902L1580.74 281.779L1524.3 281.779Z" stroke="#101828" stroke-width="0.5" stroke-miterlimit="10"/>
<path d="M1524.3 225.654L1524.3 281.777L1580.74 281.777L1580.74 225.654L1524.3 225.654Z" stroke="#101828" stroke-width="0.5" stroke-miterlimit="10"/>
<path d="M1524.3 169.556L1524.3 225.68L1580.74 225.68L1580.74 169.556L1524.3 169.556Z" stroke="#101828" stroke-width="0.5" stroke-miterlimit="10"/>
<path d="M1524.3 113.435L1524.3 169.559L1580.74 169.559L1580.74 113.435L1524.3 113.435Z" stroke="#101828" stroke-width="0.5" stroke-miterlimit="10"/>
<path d="M1524.3 57.3377L1524.3 113.461L1580.74 113.461L1580.74 57.3377L1524.3 57.3377Z" stroke="#101828" stroke-width="0.5" stroke-miterlimit="10"/>
<path d="M1524.3 1.21649L1524.3 57.3398L1580.74 57.3398L1580.74 1.21649L1524.3 1.21649Z" stroke="#101828" stroke-width="0.5" stroke-miterlimit="10"/>
<path d="M1524.3 -54.8811L1524.3 1.24219L1580.74 1.24219L1580.74 -54.8811L1524.3 -54.8811Z" stroke="#101828" stroke-width="0.5" stroke-miterlimit="10"/>
<path d="M1580.74 898.998L1580.74 955.121L1637.18 955.121L1637.18 898.998L1580.74 898.998Z" stroke="#101828" stroke-width="0.5" stroke-miterlimit="10"/>
<path d="M1580.74 842.873L1580.74 898.996L1637.18 898.996L1637.18 842.873L1580.74 842.873Z" stroke="#101828" stroke-width="0.5" stroke-miterlimit="10"/>
<path d="M1580.74 786.779L1580.74 842.902L1637.18 842.902L1637.18 786.779L1580.74 786.779Z" stroke="#101828" stroke-width="0.5" stroke-miterlimit="10"/>
<path d="M1580.74 730.654L1580.74 786.777L1637.18 786.777L1637.18 730.654L1580.74 730.654Z" stroke="#101828" stroke-width="0.5" stroke-miterlimit="10"/>
<path d="M1580.74 674.56L1580.74 730.684L1637.18 730.684L1637.18 674.56L1580.74 674.56Z" stroke="#101828" stroke-width="0.5" stroke-miterlimit="10"/>
<path d="M1580.74 618.435L1580.74 674.559L1637.18 674.559L1637.18 618.435L1580.74 618.435Z" stroke="#101828" stroke-width="0.5" stroke-miterlimit="10"/>
<path d="M1580.74 562.342L1580.74 618.465L1637.18 618.465L1637.18 562.342L1580.74 562.342Z" stroke="#101828" stroke-width="0.5" stroke-miterlimit="10"/>
<path d="M1580.74 506.217L1580.74 562.34L1637.18 562.34L1637.18 506.217L1580.74 506.217Z" stroke="#101828" stroke-width="0.5" stroke-miterlimit="10"/>
<path d="M1580.74 450.123L1580.74 506.246L1637.18 506.246L1637.18 450.123L1580.74 450.123Z" stroke="#101828" stroke-width="0.5" stroke-miterlimit="10"/>
<path d="M1580.74 393.998L1580.74 450.121L1637.18 450.121L1637.18 393.998L1580.74 393.998Z" stroke="#101828" stroke-width="0.5" stroke-miterlimit="10"/>
<path d="M1580.74 337.877L1580.74 394L1637.18 394L1637.18 337.877L1580.74 337.877Z" stroke="#101828" stroke-width="0.5" stroke-miterlimit="10"/>
<path d="M1580.74 281.779L1580.74 337.902L1637.18 337.902L1637.18 281.779L1580.74 281.779Z" stroke="#101828" stroke-width="0.5" stroke-miterlimit="10"/>
<path d="M1580.74 225.654L1580.74 281.777L1637.18 281.777L1637.18 225.654L1580.74 225.654Z" stroke="#101828" stroke-width="0.5" stroke-miterlimit="10"/>
<path d="M1580.74 169.556L1580.74 225.68L1637.18 225.68L1637.18 169.556L1580.74 169.556Z" stroke="#101828" stroke-width="0.5" stroke-miterlimit="10"/>
<path d="M1580.74 113.435L1580.74 169.559L1637.18 169.559L1637.18 113.435L1580.74 113.435Z" stroke="#101828" stroke-width="0.5" stroke-miterlimit="10"/>
<path d="M1580.74 57.3377L1580.74 113.461L1637.18 113.461L1637.18 57.3377L1580.74 57.3377Z" stroke="#101828" stroke-width="0.5" stroke-miterlimit="10"/>
<path d="M1580.74 1.21649L1580.74 57.3398L1637.18 57.3398L1637.18 1.21649L1580.74 1.21649Z" stroke="#101828" stroke-width="0.5" stroke-miterlimit="10"/>
<path d="M1580.74 -54.8811L1580.74 1.24219L1637.18 1.24219L1637.18 -54.8811L1580.74 -54.8811Z" stroke="#101828" stroke-width="0.5" stroke-miterlimit="10"/>
<path d="M1637.16 898.998L1637.16 955.121L1693.6 955.121L1693.6 898.998L1637.16 898.998Z" stroke="#101828" stroke-width="0.5" stroke-miterlimit="10"/>
<path d="M1637.16 842.873L1637.16 898.996L1693.6 898.996L1693.6 842.873L1637.16 842.873Z" stroke="#101828" stroke-width="0.5" stroke-miterlimit="10"/>
<path d="M1637.16 786.779L1637.16 842.902L1693.6 842.902L1693.6 786.779L1637.16 786.779Z" stroke="#101828" stroke-width="0.5" stroke-miterlimit="10"/>
<path d="M1637.16 730.654L1637.16 786.777L1693.6 786.777L1693.6 730.654L1637.16 730.654Z" stroke="#101828" stroke-width="0.5" stroke-miterlimit="10"/>
<path d="M1637.16 674.56L1637.16 730.684L1693.6 730.684L1693.6 674.56L1637.16 674.56Z" stroke="#101828" stroke-width="0.5" stroke-miterlimit="10"/>
<path d="M1637.16 618.435L1637.16 674.559L1693.6 674.559L1693.6 618.435L1637.16 618.435Z" stroke="#101828" stroke-width="0.5" stroke-miterlimit="10"/>
<path d="M1637.16 562.342L1637.16 618.465L1693.6 618.465L1693.6 562.342L1637.16 562.342Z" stroke="#101828" stroke-width="0.5" stroke-miterlimit="10"/>
<path d="M1637.16 506.217L1637.16 562.34L1693.6 562.34L1693.6 506.217L1637.16 506.217Z" stroke="#101828" stroke-width="0.5" stroke-miterlimit="10"/>
<path d="M1637.16 450.123L1637.16 506.246L1693.6 506.246L1693.6 450.123L1637.16 450.123Z" stroke="#101828" stroke-width="0.5" stroke-miterlimit="10"/>
<path d="M1637.16 393.998L1637.16 450.121L1693.6 450.121L1693.6 393.998L1637.16 393.998Z" stroke="#101828" stroke-width="0.5" stroke-miterlimit="10"/>
<path d="M1637.16 337.877L1637.16 394L1693.6 394L1693.6 337.877L1637.16 337.877Z" stroke="#101828" stroke-width="0.5" stroke-miterlimit="10"/>
<path d="M1637.16 281.779L1637.16 337.902L1693.6 337.902L1693.6 281.779L1637.16 281.779Z" stroke="#101828" stroke-width="0.5" stroke-miterlimit="10"/>
<path d="M1637.16 225.654L1637.16 281.777L1693.6 281.777L1693.6 225.654L1637.16 225.654Z" stroke="#101828" stroke-width="0.5" stroke-miterlimit="10"/>
<path d="M1637.16 169.556L1637.16 225.68L1693.6 225.68L1693.6 169.556L1637.16 169.556Z" stroke="#101828" stroke-width="0.5" stroke-miterlimit="10"/>
<path d="M1637.16 113.435L1637.16 169.559L1693.6 169.559L1693.6 113.435L1637.16 113.435Z" stroke="#101828" stroke-width="0.5" stroke-miterlimit="10"/>
<path d="M1637.16 57.3377L1637.16 113.461L1693.6 113.461L1693.6 57.3377L1637.16 57.3377Z" stroke="#101828" stroke-width="0.5" stroke-miterlimit="10"/>
<path d="M1637.16 1.21649L1637.16 57.3398L1693.6 57.3398L1693.6 1.21649L1637.16 1.21649Z" stroke="#101828" stroke-width="0.5" stroke-miterlimit="10"/>
<path d="M1637.16 -54.8811L1637.16 1.24219L1693.6 1.24219L1693.6 -54.8811L1637.16 -54.8811Z" stroke="#101828" stroke-width="0.5" stroke-miterlimit="10"/>
<path d="M1693.6 898.998L1693.6 955.121L1750.04 955.121L1750.04 898.998L1693.6 898.998Z" stroke="#101828" stroke-width="0.5" stroke-miterlimit="10"/>
<path d="M1693.6 842.873L1693.6 898.996L1750.04 898.996L1750.04 842.873L1693.6 842.873Z" stroke="#101828" stroke-width="0.5" stroke-miterlimit="10"/>
<path d="M1693.6 786.779L1693.6 842.902L1750.04 842.902L1750.04 786.779L1693.6 786.779Z" stroke="#101828" stroke-width="0.5" stroke-miterlimit="10"/>
<path d="M1693.6 730.654L1693.6 786.777L1750.04 786.777L1750.04 730.654L1693.6 730.654Z" stroke="#101828" stroke-width="0.5" stroke-miterlimit="10"/>
<path d="M1693.6 674.56L1693.6 730.684L1750.04 730.684L1750.04 674.56L1693.6 674.56Z" stroke="#101828" stroke-width="0.5" stroke-miterlimit="10"/>
<path d="M1693.6 618.435L1693.6 674.559L1750.04 674.559L1750.04 618.435L1693.6 618.435Z" stroke="#101828" stroke-width="0.5" stroke-miterlimit="10"/>
<path d="M1693.6 562.342L1693.6 618.465L1750.04 618.465L1750.04 562.342L1693.6 562.342Z" stroke="#101828" stroke-width="0.5" stroke-miterlimit="10"/>
<path d="M1693.6 506.217L1693.6 562.34L1750.04 562.34L1750.04 506.217L1693.6 506.217Z" stroke="#101828" stroke-width="0.5" stroke-miterlimit="10"/>
<path d="M1693.6 450.123L1693.6 506.246L1750.04 506.246L1750.04 450.123L1693.6 450.123Z" stroke="#101828" stroke-width="0.5" stroke-miterlimit="10"/>
<path d="M1693.6 393.998L1693.6 450.121L1750.04 450.121L1750.04 393.998L1693.6 393.998Z" stroke="#101828" stroke-width="0.5" stroke-miterlimit="10"/>
<path d="M1693.6 337.877L1693.6 394L1750.04 394L1750.04 337.877L1693.6 337.877Z" stroke="#101828" stroke-width="0.5" stroke-miterlimit="10"/>
<path d="M1693.6 281.779L1693.6 337.902L1750.04 337.902L1750.04 281.779L1693.6 281.779Z" stroke="#101828" stroke-width="0.5" stroke-miterlimit="10"/>
<path d="M1693.6 225.654L1693.6 281.777L1750.04 281.777L1750.04 225.654L1693.6 225.654Z" stroke="#101828" stroke-width="0.5" stroke-miterlimit="10"/>
<path d="M1693.6 169.556L1693.6 225.68L1750.04 225.68L1750.04 169.556L1693.6 169.556Z" stroke="#101828" stroke-width="0.5" stroke-miterlimit="10"/>
<path d="M1693.6 113.435L1693.6 169.559L1750.04 169.559L1750.04 113.435L1693.6 113.435Z" stroke="#101828" stroke-width="0.5" stroke-miterlimit="10"/>
<path d="M1693.6 57.3377L1693.6 113.461L1750.04 113.461L1750.04 57.3377L1693.6 57.3377Z" stroke="#101828" stroke-width="0.5" stroke-miterlimit="10"/>
<path d="M1693.6 1.21649L1693.6 57.3398L1750.04 57.3398L1750.04 1.21649L1693.6 1.21649Z" stroke="#101828" stroke-width="0.5" stroke-miterlimit="10"/>
<path d="M1693.6 -54.8811L1693.6 1.24219L1750.04 1.24219L1750.04 -54.8811L1693.6 -54.8811Z" stroke="#101828" stroke-width="0.5" stroke-miterlimit="10"/>
<path d="M1750.02 898.998L1750.02 955.121L1806.46 955.121L1806.46 898.998L1750.02 898.998Z" stroke="#101828" stroke-width="0.5" stroke-miterlimit="10"/>
<path d="M1750.02 842.873L1750.02 898.996L1806.46 898.996L1806.46 842.873L1750.02 842.873Z" stroke="#101828" stroke-width="0.5" stroke-miterlimit="10"/>
<path d="M1750.02 786.779L1750.02 842.902L1806.46 842.902L1806.46 786.779L1750.02 786.779Z" stroke="#101828" stroke-width="0.5" stroke-miterlimit="10"/>
<path d="M1750.02 730.654L1750.02 786.777L1806.46 786.777L1806.46 730.654L1750.02 730.654Z" stroke="#101828" stroke-width="0.5" stroke-miterlimit="10"/>
<path d="M1750.02 674.56L1750.02 730.684L1806.46 730.684L1806.46 674.56L1750.02 674.56Z" stroke="#101828" stroke-width="0.5" stroke-miterlimit="10"/>
<path d="M1750.02 618.435L1750.02 674.559L1806.46 674.559L1806.46 618.435L1750.02 618.435Z" stroke="#101828" stroke-width="0.5" stroke-miterlimit="10"/>
<path d="M1750.02 562.342L1750.02 618.465L1806.46 618.465L1806.46 562.342L1750.02 562.342Z" stroke="#101828" stroke-width="0.5" stroke-miterlimit="10"/>
<path d="M1750.02 506.217L1750.02 562.34L1806.46 562.34L1806.46 506.217L1750.02 506.217Z" stroke="#101828" stroke-width="0.5" stroke-miterlimit="10"/>
<path d="M1750.02 450.123L1750.02 506.246L1806.46 506.246L1806.46 450.123L1750.02 450.123Z" stroke="#101828" stroke-width="0.5" stroke-miterlimit="10"/>
<path d="M1750.02 393.998L1750.02 450.121L1806.46 450.121L1806.46 393.998L1750.02 393.998Z" stroke="#101828" stroke-width="0.5" stroke-miterlimit="10"/>
<path d="M1750.02 337.877L1750.02 394L1806.46 394L1806.46 337.877L1750.02 337.877Z" stroke="#101828" stroke-width="0.5" stroke-miterlimit="10"/>
<path d="M1750.02 281.779L1750.02 337.902L1806.46 337.902L1806.46 281.779L1750.02 281.779Z" stroke="#101828" stroke-width="0.5" stroke-miterlimit="10"/>
<path d="M1750.02 225.654L1750.02 281.777L1806.46 281.777L1806.46 225.654L1750.02 225.654Z" stroke="#101828" stroke-width="0.5" stroke-miterlimit="10"/>
<path d="M1750.02 169.556L1750.02 225.68L1806.46 225.68L1806.46 169.556L1750.02 169.556Z" stroke="#101828" stroke-width="0.5" stroke-miterlimit="10"/>
<path d="M1750.02 113.435L1750.02 169.559L1806.46 169.559L1806.46 113.435L1750.02 113.435Z" stroke="#101828" stroke-width="0.5" stroke-miterlimit="10"/>
<path d="M1750.02 57.3377L1750.02 113.461L1806.46 113.461L1806.46 57.3377L1750.02 57.3377Z" stroke="#101828" stroke-width="0.5" stroke-miterlimit="10"/>
<path d="M1750.02 1.21649L1750.02 57.3398L1806.46 57.3398L1806.46 1.21649L1750.02 1.21649Z" stroke="#101828" stroke-width="0.5" stroke-miterlimit="10"/>
<path d="M1750.02 -54.8811L1750.02 1.24219L1806.46 1.24219L1806.46 -54.8811L1750.02 -54.8811Z" stroke="#101828" stroke-width="0.5" stroke-miterlimit="10"/>
<path d="M1806.46 898.998L1806.46 955.121L1862.9 955.121L1862.9 898.998L1806.46 898.998Z" stroke="#101828" stroke-width="0.5" stroke-miterlimit="10"/>
<path d="M1806.46 842.873L1806.46 898.996L1862.9 898.996L1862.9 842.873L1806.46 842.873Z" stroke="#101828" stroke-width="0.5" stroke-miterlimit="10"/>
<path d="M1806.46 786.779L1806.46 842.902L1862.9 842.902L1862.9 786.779L1806.46 786.779Z" stroke="#101828" stroke-width="0.5" stroke-miterlimit="10"/>
<path d="M1806.46 730.654L1806.46 786.777L1862.9 786.777L1862.9 730.654L1806.46 730.654Z" stroke="#101828" stroke-width="0.5" stroke-miterlimit="10"/>
<path d="M1806.46 674.56L1806.46 730.684L1862.9 730.684L1862.9 674.56L1806.46 674.56Z" stroke="#101828" stroke-width="0.5" stroke-miterlimit="10"/>
<path d="M1806.46 618.435L1806.46 674.559L1862.9 674.559L1862.9 618.435L1806.46 618.435Z" stroke="#101828" stroke-width="0.5" stroke-miterlimit="10"/>
<path d="M1806.46 562.342L1806.46 618.465L1862.9 618.465L1862.9 562.342L1806.46 562.342Z" stroke="#101828" stroke-width="0.5" stroke-miterlimit="10"/>
<path d="M1806.46 506.217L1806.46 562.34L1862.9 562.34L1862.9 506.217L1806.46 506.217Z" stroke="#101828" stroke-width="0.5" stroke-miterlimit="10"/>
<path d="M1806.46 450.123L1806.46 506.246L1862.9 506.246L1862.9 450.123L1806.46 450.123Z" stroke="#101828" stroke-width="0.5" stroke-miterlimit="10"/>
<path d="M1806.46 393.998L1806.46 450.121L1862.9 450.121L1862.9 393.998L1806.46 393.998Z" stroke="#101828" stroke-width="0.5" stroke-miterlimit="10"/>
<path d="M1806.46 337.877L1806.46 394L1862.9 394L1862.9 337.877L1806.46 337.877Z" stroke="#101828" stroke-width="0.5" stroke-miterlimit="10"/>
<path d="M1806.46 281.779L1806.46 337.902L1862.9 337.902L1862.9 281.779L1806.46 281.779Z" stroke="#101828" stroke-width="0.5" stroke-miterlimit="10"/>
<path d="M1806.46 225.654L1806.46 281.777L1862.9 281.777L1862.9 225.654L1806.46 225.654Z" stroke="#101828" stroke-width="0.5" stroke-miterlimit="10"/>
<path d="M1806.46 169.556L1806.46 225.68L1862.9 225.68L1862.9 169.556L1806.46 169.556Z" stroke="#101828" stroke-width="0.5" stroke-miterlimit="10"/>
<path d="M1806.46 113.435L1806.46 169.559L1862.9 169.559L1862.9 113.435L1806.46 113.435Z" stroke="#101828" stroke-width="0.5" stroke-miterlimit="10"/>
<path d="M1806.46 57.3377L1806.46 113.461L1862.9 113.461L1862.9 57.3377L1806.46 57.3377Z" stroke="#101828" stroke-width="0.5" stroke-miterlimit="10"/>
<path d="M1806.46 1.21649L1806.46 57.3398L1862.9 57.3398L1862.9 1.21649L1806.46 1.21649Z" stroke="#101828" stroke-width="0.5" stroke-miterlimit="10"/>
<path d="M1806.46 -54.8811L1806.46 1.24219L1862.9 1.24219L1862.9 -54.8811L1806.46 -54.8811Z" stroke="#101828" stroke-width="0.5" stroke-miterlimit="10"/>
<path d="M1862.88 898.998L1862.88 955.121L1919.32 955.121L1919.32 898.998L1862.88 898.998Z" stroke="#101828" stroke-width="0.5" stroke-miterlimit="10"/>
<path d="M1862.88 842.873L1862.88 898.996L1919.32 898.996L1919.32 842.873L1862.88 842.873Z" stroke="#101828" stroke-width="0.5" stroke-miterlimit="10"/>
<path d="M1862.88 786.779L1862.88 842.902L1919.32 842.902L1919.32 786.779L1862.88 786.779Z" stroke="#101828" stroke-width="0.5" stroke-miterlimit="10"/>
<path d="M1862.88 730.654L1862.88 786.777L1919.32 786.777L1919.32 730.654L1862.88 730.654Z" stroke="#101828" stroke-width="0.5" stroke-miterlimit="10"/>
<path d="M1862.88 674.56L1862.88 730.684L1919.32 730.684L1919.32 674.56L1862.88 674.56Z" stroke="#101828" stroke-width="0.5" stroke-miterlimit="10"/>
<path d="M1862.88 618.435L1862.88 674.559L1919.32 674.559L1919.32 618.435L1862.88 618.435Z" stroke="#101828" stroke-width="0.5" stroke-miterlimit="10"/>
<path d="M1862.88 562.342L1862.88 618.465L1919.32 618.465L1919.32 562.342L1862.88 562.342Z" stroke="#101828" stroke-width="0.5" stroke-miterlimit="10"/>
<path d="M1862.88 506.217L1862.88 562.34L1919.32 562.34L1919.32 506.217L1862.88 506.217Z" stroke="#101828" stroke-width="0.5" stroke-miterlimit="10"/>
<path d="M1862.88 450.123L1862.88 506.246L1919.32 506.246L1919.32 450.123L1862.88 450.123Z" stroke="#101828" stroke-width="0.5" stroke-miterlimit="10"/>
<path d="M1862.88 393.998L1862.88 450.121L1919.32 450.121L1919.32 393.998L1862.88 393.998Z" stroke="#101828" stroke-width="0.5" stroke-miterlimit="10"/>
<path d="M1862.88 337.877L1862.88 394L1919.32 394L1919.32 337.877L1862.88 337.877Z" stroke="#101828" stroke-width="0.5" stroke-miterlimit="10"/>
<path d="M1862.88 281.779L1862.88 337.902L1919.32 337.902L1919.32 281.779L1862.88 281.779Z" stroke="#101828" stroke-width="0.5" stroke-miterlimit="10"/>
<path d="M1862.88 225.654L1862.88 281.777L1919.32 281.777L1919.32 225.654L1862.88 225.654Z" stroke="#101828" stroke-width="0.5" stroke-miterlimit="10"/>
<path d="M1862.88 169.556L1862.88 225.68L1919.32 225.68L1919.32 169.556L1862.88 169.556Z" stroke="#101828" stroke-width="0.5" stroke-miterlimit="10"/>
<path d="M1862.88 113.435L1862.88 169.559L1919.32 169.559L1919.32 113.435L1862.88 113.435Z" stroke="#101828" stroke-width="0.5" stroke-miterlimit="10"/>
<path d="M1862.88 57.3377L1862.88 113.461L1919.32 113.461L1919.32 57.3377L1862.88 57.3377Z" stroke="#101828" stroke-width="0.5" stroke-miterlimit="10"/>
<path d="M1862.88 1.21649L1862.88 57.3398L1919.32 57.3398L1919.32 1.21649L1862.88 1.21649Z" stroke="#101828" stroke-width="0.5" stroke-miterlimit="10"/>
<path d="M1862.88 -54.8811L1862.88 1.24219L1919.32 1.24219L1919.32 -54.8811L1862.88 -54.8811Z" stroke="#101828" stroke-width="0.5" stroke-miterlimit="10"/>
</g>
</g>
</svg>
