<svg width="211" height="56" viewBox="0 0 211 56" fill="none" xmlns="http://www.w3.org/2000/svg">
<path d="M25.5281 0H60.2507L34.7226 37.8377H0L25.5281 0Z" fill="white"/>
<path d="M27.0468 41.3443L17.1592 55.9998H53.5289L79.057 18.1621H52.2139L36.5734 41.3443H27.0468Z" fill="white"/>
<path d="M101.395 32.2045H105.691L108.235 35.5028L110.05 37.6506L114.41 43.25H109.807L106.842 39.4915L105.576 37.7017L101.395 32.2045ZM115.036 27.9091C115.036 30.7301 114.508 33.1463 113.451 35.1577C112.403 37.1605 110.971 38.6946 109.155 39.7599C107.349 40.8253 105.299 41.358 103.006 41.358C100.714 41.358 98.6597 40.8253 96.8443 39.7599C95.0375 38.6861 93.6057 37.1477 92.5489 35.1449C91.5006 33.1335 90.9765 30.7216 90.9765 27.9091C90.9765 25.0881 91.5006 22.6761 92.5489 20.6733C93.6057 18.6619 95.0375 17.1236 96.8443 16.0582C98.6597 14.9929 100.714 14.4602 103.006 14.4602C105.299 14.4602 107.349 14.9929 109.155 16.0582C110.971 17.1236 112.403 18.6619 113.451 20.6733C114.508 22.6761 115.036 25.0881 115.036 27.9091ZM110.268 27.9091C110.268 25.9233 109.957 24.2486 109.334 22.8849C108.721 21.5128 107.868 20.4773 106.778 19.7784C105.687 19.071 104.43 18.7173 103.006 18.7173C101.583 18.7173 100.326 19.071 99.235 19.7784C98.1441 20.4773 97.2875 21.5128 96.6654 22.8849C96.0517 24.2486 95.7449 25.9233 95.7449 27.9091C95.7449 29.8949 96.0517 31.5739 96.6654 32.946C97.2875 34.3097 98.1441 35.3452 99.235 36.0526C100.326 36.7514 101.583 37.1009 103.006 37.1009C104.43 37.1009 105.687 36.7514 106.778 36.0526C107.868 35.3452 108.721 34.3097 109.334 32.946C109.957 31.5739 110.268 29.8949 110.268 27.9091ZM131.146 32.7415V21.3636H135.774V41H131.287V37.5099H131.082C130.639 38.6094 129.911 39.5085 128.896 40.2074C127.891 40.9062 126.651 41.2557 125.176 41.2557C123.889 41.2557 122.751 40.9702 121.763 40.3991C120.783 39.8196 120.016 38.9801 119.462 37.8807C118.908 36.7727 118.631 35.4347 118.631 33.8665V21.3636H123.259V33.1506C123.259 34.3949 123.599 35.3835 124.281 36.1165C124.963 36.8494 125.858 37.2159 126.966 37.2159C127.648 37.2159 128.308 37.0497 128.948 36.7173C129.587 36.3849 130.111 35.8906 130.52 35.2344C130.938 34.5696 131.146 33.7386 131.146 32.7415ZM144.441 14.8182V41H139.813V14.8182H144.441ZM154.13 41.3963C152.886 41.3963 151.765 41.1747 150.768 40.7315C149.78 40.2798 148.995 39.6151 148.416 38.7372C147.845 37.8594 147.559 36.777 147.559 35.4901C147.559 34.3821 147.764 33.4659 148.173 32.7415C148.582 32.017 149.14 31.4375 149.848 31.0028C150.555 30.5682 151.352 30.2401 152.238 30.0185C153.133 29.7884 154.058 29.6222 155.012 29.5199C156.163 29.4006 157.096 29.294 157.812 29.2003C158.528 29.098 159.048 28.9446 159.372 28.7401C159.704 28.527 159.87 28.1989 159.87 27.7557V27.679C159.87 26.7159 159.585 25.9702 159.014 25.4418C158.443 24.9134 157.62 24.6491 156.547 24.6491C155.413 24.6491 154.514 24.8963 153.849 25.3906C153.193 25.8849 152.75 26.4687 152.52 27.142L148.199 26.5284C148.539 25.3352 149.102 24.3381 149.886 23.5369C150.67 22.7273 151.629 22.1222 152.762 21.7216C153.896 21.3125 155.149 21.108 156.521 21.108C157.467 21.108 158.409 21.2188 159.346 21.4403C160.284 21.6619 161.14 22.0284 161.916 22.5398C162.691 23.0426 163.314 23.7287 163.782 24.598C164.26 25.4673 164.498 26.554 164.498 27.858V41H160.049V38.3026H159.896C159.615 38.848 159.218 39.3594 158.707 39.8366C158.204 40.3054 157.569 40.6847 156.802 40.9744C156.044 41.2557 155.153 41.3963 154.13 41.3963ZM155.332 37.9957C156.261 37.9957 157.066 37.8125 157.748 37.446C158.43 37.071 158.954 36.5767 159.321 35.9631C159.696 35.3494 159.883 34.6804 159.883 33.956V31.642C159.738 31.7614 159.491 31.8722 159.142 31.9744C158.801 32.0767 158.417 32.1662 157.991 32.2429C157.565 32.3196 157.143 32.3878 156.726 32.4474C156.308 32.5071 155.946 32.5582 155.639 32.6009C154.949 32.6946 154.331 32.848 153.785 33.0611C153.24 33.2741 152.809 33.5724 152.494 33.956C152.179 34.331 152.021 34.8168 152.021 35.4134C152.021 36.2656 152.332 36.9091 152.954 37.3438C153.576 37.7784 154.369 37.9957 155.332 37.9957ZM173.06 29.4943V41H168.432V21.3636H172.855V24.7003H173.085C173.537 23.6009 174.257 22.7273 175.246 22.0795C176.243 21.4318 177.474 21.108 178.94 21.108C180.295 21.108 181.476 21.3977 182.481 21.9773C183.496 22.5568 184.28 23.3963 184.834 24.4957C185.396 25.5952 185.673 26.929 185.665 28.4972V41H181.037V29.2131C181.037 27.9006 180.696 26.8736 180.014 26.1321C179.341 25.3906 178.408 25.0199 177.214 25.0199C176.405 25.0199 175.685 25.1989 175.054 25.5568C174.432 25.9062 173.942 26.4134 173.584 27.0781C173.234 27.7429 173.06 28.5483 173.06 29.4943ZM196.936 41.3452C195.393 41.3452 194.013 40.9489 192.794 40.1562C191.575 39.3636 190.612 38.2131 189.905 36.7045C189.197 35.196 188.844 33.3636 188.844 31.2074C188.844 29.0256 189.202 27.1847 189.918 25.6847C190.642 24.1761 191.618 23.0384 192.845 22.2713C194.072 21.4957 195.44 21.108 196.949 21.108C198.099 21.108 199.045 21.304 199.787 21.696C200.528 22.0795 201.117 22.544 201.551 23.0895C201.986 23.6264 202.322 24.1335 202.561 24.6108H202.753V14.8182H207.393V41H202.842V37.9062H202.561C202.322 38.3835 201.977 38.8906 201.526 39.4276C201.074 39.956 200.477 40.4077 199.736 40.7827C198.994 41.1577 198.061 41.3452 196.936 41.3452ZM198.227 37.5483C199.207 37.5483 200.043 37.2841 200.733 36.7557C201.423 36.2187 201.947 35.473 202.305 34.5185C202.663 33.5639 202.842 32.4517 202.842 31.1818C202.842 29.9119 202.663 28.8082 202.305 27.8707C201.956 26.9332 201.436 26.2045 200.746 25.6847C200.064 25.1648 199.224 24.9048 198.227 24.9048C197.196 24.9048 196.335 25.1733 195.645 25.7102C194.955 26.2472 194.435 26.9886 194.085 27.9347C193.736 28.8807 193.561 29.9631 193.561 31.1818C193.561 32.4091 193.736 33.5043 194.085 34.4673C194.443 35.4219 194.967 36.1761 195.658 36.7301C196.357 37.2756 197.213 37.5483 198.227 37.5483Z" fill="white"/>
</svg>
