<svg width="110" height="110" viewBox="0 0 110 110" fill="none" xmlns="http://www.w3.org/2000/svg">
<path fill-rule="evenodd" clip-rule="evenodd" d="M27.5 44C31.1661 29.3339 40.3339 22 55 22C77 22 79.75 38.5 90.75 41.25C98.0839 43.0839 104.5 40.3339 110 33C106.334 47.6661 97.1661 55 82.5 55C60.5 55 57.75 38.5 46.75 35.75C39.4161 33.9161 33 36.6661 27.5 44ZM0 77C3.66609 62.3339 12.8339 55 27.5 55C49.5 55 52.25 71.5 63.25 74.25C70.5839 76.0839 77 73.3339 82.5 66C78.8339 80.6661 69.6661 88 55 88C33 88 30.25 71.5 19.25 68.75C11.9161 66.9161 5.5 69.6661 0 77Z" fill="white"/>
</svg>
