<svg width="10" height="8" viewBox="0 0 10 8" fill="none" xmlns="http://www.w3.org/2000/svg">
<path d="M9.69951 0.208936C9.63384 0.142732 9.55572 0.0901832 9.46965 0.0543229C9.38357 0.0184625 9.29125 0 9.198 0C9.10476 0 9.01243 0.0184625 8.92636 0.0543229C8.84028 0.0901832 8.76216 0.142732 8.6965 0.208936L3.43421 5.47829L1.22334 3.26036C1.15516 3.1945 1.07468 3.14271 0.986488 3.10796C0.898297 3.0732 0.804124 3.05616 0.709346 3.0578C0.614568 3.05944 0.52104 3.07973 0.434104 3.11752C0.347168 3.1553 0.268526 3.20984 0.202667 3.27802C0.136808 3.34619 0.0850229 3.42668 0.0502678 3.51487C0.0155128 3.60306 -0.00153175 3.69723 0.000108014 3.79201C0.00174778 3.88679 0.0220396 3.98032 0.0598246 4.06725C0.0976096 4.15419 0.152148 4.23283 0.220326 4.29869L2.9327 7.01106C2.99836 7.07727 3.07649 7.12982 3.16256 7.16568C3.24864 7.20154 3.34096 7.22 3.43421 7.22C3.52745 7.22 3.61978 7.20154 3.70585 7.16568C3.79193 7.12982 3.87005 7.07727 3.93571 7.01106L9.69951 1.24727C9.77121 1.18112 9.82843 1.10085 9.86756 1.01149C9.9067 0.922141 9.92691 0.82565 9.92691 0.728102C9.92691 0.630554 9.9067 0.534063 9.86756 0.444711C9.82843 0.355358 9.77121 0.27508 9.69951 0.208936Z" fill="white"/>
</svg>
