<svg width="310" height="301" viewBox="0 0 310 301" fill="none" xmlns="http://www.w3.org/2000/svg">
<path d="M303.435 300.11H6.56466C2.94082 300.11 0 297.169 0 293.545V225.565C0 221.941 2.94082 219 6.56466 219H303.435C307.059 219 310 221.941 310 225.565V293.545C310 297.169 307.059 300.11 303.435 300.11Z" fill="white"/>
<path d="M62.5633 248.811L60.0636 253.137C59.7126 253.744 60.1537 254.508 60.8557 254.508H65.8504C66.5524 254.508 66.9935 253.749 66.6425 253.137L64.1428 248.811C63.7918 248.204 62.9143 248.204 62.5633 248.811Z" fill="#2BC6D9"/>
<path d="M192.382 277.02L183.649 272.191L184.446 270.749L192.325 275.099L202.807 268.453L209.258 266.698L220.367 270.388L231.224 263.696H240.284L246.393 256.671L252.009 253.545L264.882 264.749L277.31 260.973L280.132 266.409L288.584 261.509L289.414 262.937L279.468 268.705L276.475 262.951L264.489 266.594L251.8 255.552L247.323 258.042L241.038 265.346H231.694L220.576 272.196L209.206 268.42L203.362 270.009L192.382 277.02Z" fill="#45D5E6"/>
<path d="M20.3623 278.347L21.6714 276.493C22.9142 277.489 24.119 278.077 25.2858 278.248V274.249C23.749 273.851 22.6343 273.329 21.9371 272.689C21.2445 272.048 20.8983 271.157 20.8983 270.023C20.8983 268.932 21.3015 268.031 22.1078 267.319C22.9189 266.613 23.9672 266.205 25.2621 266.105V264.924H26.9222V266.143C28.3642 266.319 29.6638 266.84 30.8259 267.718L29.6733 269.629C28.7863 268.965 27.8614 268.534 26.9032 268.339V272.2C28.4638 272.594 29.5927 273.12 30.2899 273.784C30.9919 274.449 31.3382 275.336 31.3382 276.445C31.3382 277.551 30.935 278.457 30.1192 279.163C29.3081 279.87 28.2408 280.287 26.9222 280.406V282.436H25.2621V280.387C23.4359 280.188 21.7995 279.505 20.3623 278.347ZM23.3221 269.909C23.3221 270.355 23.4596 270.72 23.7395 271.005C24.0194 271.29 24.5316 271.546 25.2811 271.773V268.192C24.6502 268.24 24.1664 268.42 23.8296 268.728C23.4929 269.041 23.3221 269.435 23.3221 269.909ZM26.8985 278.324C27.5341 278.276 28.0274 278.096 28.3784 277.788C28.7294 277.475 28.9049 277.062 28.9049 276.55C28.9049 276.08 28.7626 275.696 28.4733 275.402C28.1839 275.108 27.6574 274.852 26.8985 274.624V278.324Z" fill="#6D6D6D"/>
<path d="M36.0811 267.234L39.9278 266.006H41.6828V280.435H39.2021V268.562L36.617 269.283L36.0811 267.234Z" fill="#6D6D6D"/>
<path d="M48.1201 268.33V266.1H58.1948V268.017L51.7297 280.43H48.9028L55.3299 268.325H48.1201V268.33Z" fill="#6D6D6D"/>
<path d="M58.4268 276.512C58.4268 274.89 59.2948 273.718 61.0261 272.992C59.6268 272.267 58.9295 271.185 58.9295 269.748C58.9295 268.657 59.3991 267.742 60.3478 267.006C61.2917 266.271 62.4822 265.906 63.91 265.906C65.3472 265.906 66.533 266.271 67.4769 267.006C68.4208 267.742 68.8904 268.667 68.8904 269.786C68.8904 271.195 68.1884 272.262 66.7939 272.992C67.6334 273.381 68.2737 273.856 68.7244 274.411C69.1702 274.966 69.3932 275.663 69.3932 276.493C69.3932 277.323 69.156 278.058 68.6769 278.694C68.1979 279.329 67.548 279.813 66.7227 280.141C65.8974 280.468 64.9582 280.634 63.91 280.634C62.321 280.634 61.0118 280.254 59.9778 279.495C58.9438 278.736 58.4268 277.745 58.4268 276.512ZM60.9075 276.379C60.9075 276.986 61.1826 277.499 61.7233 277.916C62.2688 278.333 62.9993 278.542 63.91 278.542C64.8302 278.542 65.5606 278.333 66.1013 277.916C66.6468 277.499 66.9172 276.972 66.9172 276.336C66.9172 275.687 66.6326 275.165 66.0634 274.762C65.4942 274.363 64.778 274.159 63.9147 274.159C63.0514 274.159 62.3352 274.363 61.766 274.771C61.1921 275.189 60.9075 275.72 60.9075 276.379ZM61.3581 270.014C61.3581 270.63 61.6 271.143 62.0791 271.541C62.5629 271.939 63.17 272.139 63.91 272.139C64.6499 272.139 65.257 271.939 65.7409 271.541C66.2247 271.143 66.4618 270.626 66.4618 269.995C66.4618 269.43 66.2247 268.956 65.7503 268.572C65.2713 268.188 64.6594 267.993 63.91 267.993C63.151 267.993 62.5392 268.188 62.0648 268.576C61.5905 268.965 61.3581 269.444 61.3581 270.014Z" fill="#6D6D6D"/>
<path d="M70.0195 270.801C70.0195 269.383 70.5176 268.206 71.5137 267.267C72.5097 266.328 73.7904 265.858 75.3557 265.858C76.2332 265.858 76.9921 265.982 77.623 266.228C78.2538 266.475 78.823 266.854 79.34 267.367C79.9045 267.936 80.3361 268.652 80.6349 269.52C80.929 270.388 81.0808 271.508 81.0808 272.874C81.0808 274.406 80.8389 275.762 80.3551 276.939C79.8713 278.115 79.1598 279.03 78.2206 279.69C77.2815 280.349 76.1858 280.681 74.9241 280.681C73.9896 280.681 73.1596 280.534 72.4339 280.235C71.7081 279.936 71.0109 279.514 70.3468 278.964L71.7129 277.024C72.2678 277.494 72.7991 277.84 73.3066 278.053C73.8189 278.272 74.3738 278.381 74.981 278.381C76.0197 278.381 76.8498 277.968 77.4617 277.138C78.0783 276.313 78.4056 275.222 78.4436 273.875C77.604 274.871 76.4846 275.369 75.0853 275.369C73.5533 275.369 72.3248 274.956 71.3998 274.126C70.4844 273.31 70.0195 272.195 70.0195 270.801ZM72.5382 270.72C72.5382 271.474 72.8086 272.091 73.3446 272.57C73.8805 273.049 74.5873 273.286 75.4695 273.286C76.347 273.286 77.049 273.035 77.5755 272.527C78.102 272.025 78.3629 271.399 78.3629 270.654C78.3629 269.89 78.0878 269.259 77.5376 268.757C76.9874 268.254 76.2664 268.002 75.3747 268.002C74.5067 268.002 73.8189 268.258 73.3019 268.771C72.7991 269.293 72.5382 269.938 72.5382 270.72Z" fill="#6D6D6D"/>
<path d="M86.6924 268.33V266.1H96.767V268.017L90.302 280.43H87.475L93.9021 268.325H86.6924V268.33Z" fill="#6D6D6D"/>
<path d="M96.6816 278.485L98.2422 276.668C99.4896 277.816 100.718 278.385 101.932 278.385C102.791 278.385 103.479 278.158 103.996 277.702C104.513 277.247 104.769 276.635 104.769 275.867C104.769 275.146 104.494 274.572 103.944 274.14C103.393 273.709 102.677 273.495 101.8 273.495C100.927 273.495 100.045 273.704 99.1624 274.126L97.654 273.125L98.0572 266.1H106.623V268.33H100.23L100.002 271.697C100.751 271.436 101.506 271.308 102.269 271.308C103.223 271.308 104.067 271.47 104.807 271.792C105.542 272.115 106.135 272.618 106.581 273.31C107.027 274.003 107.25 274.837 107.25 275.829C107.25 277.29 106.761 278.461 105.793 279.348C104.821 280.24 103.54 280.681 101.956 280.681C99.9497 280.686 98.1947 279.951 96.6816 278.485Z" fill="#6D6D6D"/>
<path d="M108.079 273.656C108.079 272.779 108.16 271.949 108.326 271.166C108.492 270.388 108.738 269.672 109.075 269.022C109.412 268.372 109.825 267.813 110.304 267.343C110.783 266.873 111.357 266.508 112.03 266.247C112.699 265.986 113.434 265.858 114.226 265.858C115.113 265.858 115.896 265.991 116.579 266.262C117.262 266.532 117.936 266.93 118.604 267.466L117.253 269.397C116.707 268.975 116.2 268.662 115.73 268.458C115.26 268.259 114.734 268.154 114.15 268.154C113.121 268.154 112.305 268.572 111.703 269.406C111.105 270.241 110.778 271.337 110.716 272.693C111.167 272.252 111.656 271.906 112.187 271.655C112.713 271.403 113.363 271.275 114.127 271.275C115.066 271.275 115.91 271.446 116.66 271.792C117.409 272.138 118.007 272.655 118.462 273.353C118.913 274.05 119.14 274.861 119.14 275.8C119.14 276.735 118.908 277.574 118.443 278.324C117.978 279.068 117.338 279.652 116.522 280.064C115.711 280.477 114.81 280.686 113.814 280.686C112.163 280.686 110.84 280.188 109.834 279.187C109.241 278.594 108.795 277.873 108.506 277.029C108.221 276.18 108.079 275.056 108.079 273.656ZM110.797 275.924C110.797 276.664 111.072 277.275 111.613 277.764C112.158 278.253 112.875 278.494 113.757 278.494C114.63 278.494 115.322 278.248 115.844 277.759C116.361 277.266 116.622 276.635 116.622 275.862C116.622 275.136 116.351 274.539 115.815 274.074C115.279 273.604 114.573 273.372 113.695 273.372C112.832 273.372 112.13 273.618 111.594 274.107C111.063 274.591 110.797 275.198 110.797 275.924Z" fill="#6D6D6D"/>
<path d="M124.377 280.434V278.461L129.329 274.259C130.339 273.41 131.036 272.708 131.43 272.153C131.819 271.598 132.018 271.005 132.018 270.369C132.018 269.681 131.8 269.136 131.369 268.733C130.937 268.33 130.382 268.13 129.708 268.13C129.082 268.13 128.518 268.301 128.02 268.643C127.517 268.984 126.976 269.534 126.393 270.289L124.614 268.894C125.103 268.211 125.572 267.666 126.028 267.248C126.483 266.836 127.033 266.504 127.678 266.262C128.323 266.02 129.059 265.901 129.889 265.901C131.297 265.901 132.431 266.295 133.299 267.087C134.167 267.879 134.599 268.918 134.599 270.208C134.599 270.659 134.546 271.076 134.447 271.46C134.343 271.849 134.205 272.205 134.034 272.527C133.859 272.85 133.603 273.201 133.271 273.571C132.934 273.946 132.597 274.287 132.251 274.6C131.909 274.913 131.454 275.307 130.889 275.777L127.939 278.243H134.779V280.43H124.377V280.434Z" fill="#6D6D6D"/>
<path d="M135.282 278.148L137.042 276.512C137.568 277.138 138.133 277.607 138.74 277.921C139.347 278.234 140.035 278.39 140.808 278.39C141.529 278.39 142.122 278.186 142.587 277.788C143.052 277.385 143.289 276.849 143.289 276.185C143.289 275.487 142.995 274.942 142.402 274.558C141.814 274.173 141.007 273.979 139.988 273.979H138.816L138.408 272.399L142.279 268.296H136.084V266.11H145.542V267.988L141.553 272.072C142.146 272.158 142.686 272.3 143.175 272.49C143.664 272.684 144.109 272.94 144.503 273.258C144.902 273.576 145.21 273.984 145.433 274.472C145.656 274.961 145.77 275.52 145.77 276.147C145.77 277.479 145.305 278.566 144.38 279.419C143.455 280.268 142.25 280.691 140.77 280.691C138.493 280.686 136.667 279.837 135.282 278.148Z" fill="#6D6D6D"/>
<path d="M146.253 275.416L154.212 266.006H156.38V275.16H158.424V277.19H156.375V280.439H153.946V277.19H146.723L146.253 275.416ZM149.241 275.155H153.946V269.478L149.241 275.155Z" fill="#6D6D6D"/>
<path d="M20.5762 254.508V246.795H21.1501V254.508H20.5762Z" fill="#6D6D6D"/>
<path d="M22.5684 254.508V248.892H23.1091V249.935C23.5597 249.148 24.2332 248.759 25.1392 248.759C25.8365 248.759 26.3819 248.972 26.7851 249.399C27.1835 249.826 27.3875 250.386 27.3875 251.074V254.513H26.8468V251.173C26.8468 250.59 26.6902 250.125 26.3724 249.779C26.0594 249.433 25.6183 249.257 25.0633 249.257C24.5083 249.257 24.0435 249.447 23.6735 249.826C23.2988 250.206 23.1138 250.685 23.1138 251.263V254.513H22.5684V254.508Z" fill="#6D6D6D"/>
<path d="M28.1084 251.7C28.1084 251.169 28.2317 250.68 28.4831 250.229C28.7345 249.779 29.0808 249.423 29.5219 249.157C29.9583 248.892 30.4421 248.759 30.9686 248.759C31.8461 248.759 32.5908 249.11 33.2074 249.807L32.8279 250.187C32.5433 249.893 32.254 249.665 31.9647 249.504C31.6753 249.342 31.3433 249.262 30.9544 249.262C30.5464 249.262 30.167 249.371 29.8207 249.589C29.4745 249.807 29.1993 250.101 28.9906 250.476C28.7867 250.851 28.6871 251.259 28.6871 251.7C28.6871 252.378 28.91 252.952 29.3606 253.426C29.8065 253.896 30.352 254.133 30.997 254.133C31.6706 254.133 32.2919 253.815 32.8659 253.175L33.2596 253.531C32.9513 253.886 32.6097 254.162 32.2445 254.351C31.8793 254.546 31.4571 254.641 30.9638 254.641C30.4373 254.641 29.9488 254.508 29.5077 254.247C29.0665 253.986 28.725 253.626 28.4736 253.175C28.2317 252.724 28.1084 252.236 28.1084 251.7Z" fill="#6D6D6D"/>
<path d="M33.4062 251.7C33.4062 251.311 33.4774 250.936 33.6292 250.576C33.7762 250.22 33.9754 249.902 34.2268 249.637C34.4782 249.371 34.7865 249.158 35.147 248.996C35.5075 248.835 35.8965 248.754 36.2996 248.754C36.8451 248.754 37.3337 248.887 37.7748 249.158C38.2207 249.423 38.5622 249.784 38.8088 250.234C39.0555 250.685 39.1788 251.173 39.1788 251.7C39.1788 252.222 39.0555 252.71 38.8088 253.156C38.5622 253.607 38.2159 253.962 37.77 254.233C37.3242 254.503 36.8261 254.641 36.2807 254.641C35.8775 254.641 35.4933 254.56 35.1328 254.404C34.777 254.247 34.4687 254.034 34.2173 253.768C33.966 253.502 33.7667 253.189 33.6244 252.829C33.4774 252.473 33.4062 252.094 33.4062 251.7ZM33.9897 251.7C33.9897 252.378 34.2126 252.952 34.6585 253.427C35.1043 253.896 35.6498 254.133 36.2996 254.133C36.7076 254.133 37.087 254.024 37.4428 253.806C37.7938 253.588 38.0736 253.294 38.2823 252.919C38.491 252.544 38.5906 252.136 38.5906 251.7C38.5906 251.026 38.3629 250.452 37.9123 249.973C37.4617 249.494 36.9163 249.262 36.2807 249.262C35.8633 249.262 35.479 249.371 35.128 249.589C34.777 249.807 34.5019 250.101 34.2932 250.476C34.0893 250.851 33.9897 251.259 33.9897 251.7Z" fill="#6D6D6D"/>
<path d="M40.0088 254.508V248.892H40.5495V249.893C40.6539 249.727 40.7582 249.584 40.8626 249.461C40.9669 249.338 41.095 249.224 41.242 249.11C41.3891 248.996 41.5646 248.911 41.7638 248.849C41.963 248.787 42.1812 248.759 42.4231 248.759C42.8832 248.759 43.2721 248.873 43.5899 249.096C43.903 249.319 44.1496 249.613 44.3157 249.969C44.7852 249.162 45.4635 248.759 46.3458 248.759C47.0098 248.759 47.5363 248.972 47.9205 249.399C48.3095 249.826 48.4992 250.395 48.4992 251.107V254.513H47.9585V251.173C47.9585 250.571 47.8114 250.101 47.5174 249.765C47.2233 249.428 46.8154 249.257 46.2983 249.257C45.8003 249.257 45.3829 249.437 45.0414 249.798C44.6951 250.158 44.5244 250.637 44.5244 251.244V254.517H43.9836V251.145C43.9836 250.566 43.8366 250.106 43.5378 249.769C43.2437 249.433 42.8405 249.262 42.3425 249.262C41.8397 249.262 41.4175 249.456 41.0713 249.845C40.725 250.234 40.5495 250.713 40.5495 251.278V254.517H40.0088V254.508Z" fill="#6D6D6D"/>
<path d="M49.2725 251.686C49.2725 251.282 49.3389 250.903 49.4764 250.542C49.614 250.182 49.799 249.869 50.0314 249.608C50.2638 249.347 50.5484 249.138 50.8804 248.982C51.2125 248.83 51.5635 248.75 51.9334 248.75C52.4457 248.75 52.9011 248.878 53.2995 249.138C53.6932 249.399 53.9967 249.75 54.2054 250.196C54.4094 250.642 54.5138 251.14 54.5138 251.69C54.5138 251.78 54.509 251.856 54.5043 251.913H49.8369C49.8843 252.587 50.1215 253.123 50.5437 253.526C50.9705 253.924 51.4686 254.124 52.0425 254.124C52.7777 254.124 53.4228 253.83 53.9683 253.246L54.3477 253.573C54.0347 253.915 53.6932 254.176 53.3279 254.356C52.9627 254.541 52.5263 254.631 52.0235 254.631C51.6583 254.631 51.3073 254.56 50.9753 254.418C50.6385 254.275 50.3444 254.076 50.093 253.825C49.8417 253.573 49.6424 253.26 49.4954 252.89C49.3484 252.525 49.2725 252.122 49.2725 251.686ZM49.8417 251.434H53.9303C53.9114 251.145 53.8592 250.87 53.7643 250.614C53.6695 250.357 53.5414 250.125 53.3801 249.921C53.2188 249.717 53.0101 249.551 52.7588 249.433C52.5074 249.314 52.2228 249.252 51.9145 249.252C51.3595 249.252 50.8899 249.461 50.501 249.878C50.112 250.291 49.8938 250.813 49.8417 251.434Z" fill="#6D6D6D"/>
<path d="M303.435 211.11H6.56466C2.94082 211.11 0 208.169 0 204.545V136.565C0 132.941 2.94082 130 6.56466 130H303.435C307.059 130 310 132.941 310 136.565V204.545C310 208.169 307.059 211.11 303.435 211.11Z" fill="white"/>
<path d="M60.7327 165.148L63.2323 160.822C63.5834 160.215 63.1422 159.451 62.4402 159.451H57.4456C56.7436 159.451 56.3025 160.21 56.6535 160.822L59.1532 165.148C59.5042 165.759 60.3817 165.759 60.7327 165.148Z" fill="#FF6666"/>
<path d="M240.416 181.45L231.229 169.084L220.333 175.137L209.068 164.08L203.058 166.94L192.405 162.809L184.432 166.983L183.668 165.522L192.31 160.997L202.997 165.143L209.4 162.088L220.608 173.088L231.689 166.931L240.9 179.325L246.791 176.351H251.577L264.384 164.227L276.403 165.171C278.694 160.741 279.548 160.978 280.013 161.101C280.525 161.244 285.757 162.23 289.148 162.861L288.845 164.483C288.038 164.332 281.445 163.103 279.861 162.757C279.377 163.231 278.362 164.939 277.627 166.404L277.38 166.902L264.982 165.925L252.232 177.997H246.995L240.416 181.45Z" fill="#FF6666"/>
<path d="M20.3623 189.348L21.6714 187.493C22.9142 188.489 24.119 189.077 25.2858 189.248V185.249C23.749 184.851 22.6343 184.329 21.9371 183.689C21.2445 183.049 20.8983 182.157 20.8983 181.023C20.8983 179.932 21.3015 179.031 22.1078 178.324C22.9189 177.618 23.9672 177.21 25.2621 177.11V175.929H26.9222V177.148C28.3642 177.323 29.6638 177.845 30.8259 178.723L29.6733 180.634C28.7863 179.97 27.8614 179.539 26.9032 179.344V183.205C28.4638 183.599 29.5927 184.125 30.2899 184.789C30.9919 185.453 31.3382 186.34 31.3382 187.45C31.3382 188.555 30.935 189.461 30.1192 190.168C29.3081 190.875 28.2408 191.292 26.9222 191.411V193.441H25.2621V191.392C23.4359 191.188 21.7995 190.505 20.3623 189.348ZM23.3221 180.909C23.3221 181.355 23.4596 181.72 23.7395 182.005C24.0194 182.29 24.5316 182.546 25.2811 182.773V179.192C24.6502 179.24 24.1664 179.42 23.8296 179.728C23.4929 180.046 23.3221 180.44 23.3221 180.909ZM26.8985 189.329C27.5341 189.281 28.0274 189.101 28.3784 188.793C28.7294 188.48 28.9049 188.067 28.9049 187.555C28.9049 187.085 28.7626 186.701 28.4733 186.407C28.1839 186.113 27.6574 185.857 26.8985 185.629V189.329Z" fill="#6D6D6D"/>
<path d="M36.0811 178.234L39.9278 177.006H41.6828V191.435H39.2021V179.562L36.617 180.283L36.0811 178.234Z" fill="#6D6D6D"/>
<path d="M47.6885 189.485L49.249 187.669C50.4965 188.816 51.725 189.386 52.9393 189.386C53.7978 189.386 54.4856 189.158 55.0026 188.703C55.5196 188.247 55.7757 187.635 55.7757 186.867C55.7757 186.146 55.5006 185.572 54.9504 185.14C54.4002 184.709 53.6839 184.495 52.8064 184.495C51.9337 184.495 51.0514 184.704 50.1692 185.126L48.6608 184.125L49.064 177.101H57.6303V179.33H51.2269L50.9993 182.698C51.7487 182.437 52.5029 182.309 53.2665 182.309C54.2199 182.309 55.0642 182.47 55.8042 182.792C56.5394 183.115 57.1323 183.618 57.5782 184.31C58.024 185.003 58.247 185.838 58.247 186.829C58.247 188.29 57.7584 189.462 56.7908 190.349C55.8184 191.24 54.5377 191.681 52.9535 191.681C50.9566 191.686 49.2016 190.956 47.6885 189.485Z" fill="#6D6D6D"/>
<path d="M59.0859 184.661C59.0859 183.784 59.1666 182.954 59.3326 182.171C59.4986 181.393 59.7452 180.677 60.082 180.027C60.4188 179.377 60.8315 178.818 61.3105 178.348C61.7896 177.878 62.3635 177.513 63.0371 177.252C63.7059 176.991 64.4411 176.863 65.2332 176.863C66.1202 176.863 66.9028 176.996 67.5858 177.266C68.2689 177.532 68.9424 177.935 69.6112 178.471L68.2594 180.402C67.7139 179.98 67.2064 179.667 66.7368 179.463C66.2672 179.263 65.7407 179.159 65.1573 179.159C64.128 179.159 63.3122 179.576 62.7098 180.411C62.1121 181.246 61.7849 182.342 61.7232 183.698C62.1738 183.257 62.6623 182.911 63.1936 182.66C63.7248 182.408 64.3699 182.28 65.1336 182.28C66.0728 182.28 66.917 182.451 67.6665 182.797C68.4159 183.143 69.0136 183.66 69.4689 184.358C69.9195 185.055 70.1472 185.866 70.1472 186.805C70.1472 187.74 69.9148 188.579 69.4499 189.329C68.9851 190.073 68.3448 190.657 67.5289 191.069C66.7178 191.482 65.8166 191.691 64.8205 191.691C63.1699 191.691 61.8465 191.193 60.8409 190.192C60.248 189.599 59.8022 188.878 59.5128 188.034C59.2282 187.18 59.0859 186.06 59.0859 184.661ZM61.8038 186.924C61.8038 187.664 62.0789 188.276 62.6197 188.764C63.1651 189.253 63.8814 189.495 64.7636 189.495C65.6364 189.495 66.3289 189.248 66.8506 188.759C67.3677 188.266 67.6285 187.635 67.6285 186.862C67.6285 186.136 67.3582 185.539 66.8222 185.074C66.2862 184.604 65.5795 184.372 64.702 184.372C63.8387 184.372 63.1367 184.619 62.6007 185.107C62.0694 185.591 61.8038 186.198 61.8038 186.924Z" fill="#6D6D6D"/>
<path d="M70.8213 179.335V177.105H80.896V179.022L74.4309 191.435H71.6039L78.031 179.33H70.8213V179.335Z" fill="#6D6D6D"/>
<path d="M85.8428 189.148L87.6025 187.512C88.129 188.138 88.6935 188.608 89.3006 188.921C89.9077 189.234 90.5955 189.39 91.3687 189.39C92.0896 189.39 92.6825 189.186 93.1474 188.788C93.6122 188.385 93.8494 187.849 93.8494 187.185C93.8494 186.488 93.5553 185.942 92.9624 185.558C92.3742 185.174 91.5679 184.979 90.5481 184.979H89.3812L88.9733 183.4L92.8438 179.297H86.6444V177.11H96.1024V178.988L92.1134 183.072C92.7063 183.158 93.247 183.3 93.7355 183.49C94.2241 183.684 94.67 183.94 95.0637 184.258C95.4621 184.576 95.7704 184.984 95.9933 185.472C96.2163 185.961 96.3301 186.521 96.3301 187.147C96.3301 188.48 95.8653 189.566 94.9403 190.42C94.0154 191.269 92.8106 191.691 91.3307 191.691C89.0492 191.686 87.2231 190.842 85.8428 189.148Z" fill="#6D6D6D"/>
<path d="M96.8096 186.416L104.769 177.006H106.936V186.16H108.985V188.19H106.936V191.439H104.508V188.19H97.2839L96.8096 186.416ZM99.7931 186.16H104.498V180.482L99.7931 186.16Z" fill="#6D6D6D"/>
<path d="M109.422 189.485L110.982 187.669C112.23 188.816 113.458 189.386 114.673 189.386C115.531 189.386 116.219 189.158 116.736 188.703C117.253 188.247 117.509 187.635 117.509 186.867C117.509 186.146 117.234 185.572 116.684 185.14C116.134 184.709 115.417 184.495 114.54 184.495C113.667 184.495 112.785 184.704 111.903 185.126L110.394 184.125L110.797 177.101H119.364V179.33H112.97L112.742 182.698C113.492 182.437 114.246 182.309 115.009 182.309C115.963 182.309 116.807 182.47 117.547 182.792C118.282 183.115 118.875 183.618 119.321 184.31C119.767 185.003 119.99 185.838 119.99 186.829C119.99 188.29 119.501 189.462 118.534 190.349C117.561 191.24 116.281 191.681 114.696 191.681C112.695 191.686 110.94 190.956 109.422 189.485Z" fill="#6D6D6D"/>
<path d="M125.426 184.661C125.426 183.784 125.506 182.954 125.672 182.171C125.838 181.393 126.085 180.677 126.422 180.027C126.759 179.377 127.171 178.818 127.65 178.348C128.129 177.878 128.703 177.513 129.377 177.252C130.046 176.991 130.781 176.863 131.573 176.863C132.46 176.863 133.243 176.996 133.926 177.266C134.609 177.532 135.282 177.935 135.951 178.471L134.599 180.402C134.054 179.98 133.546 179.667 133.077 179.463C132.607 179.263 132.081 179.159 131.497 179.159C130.468 179.159 129.652 179.576 129.05 180.411C128.452 181.246 128.125 182.342 128.063 183.698C128.514 183.257 129.002 182.911 129.533 182.66C130.06 182.408 130.71 182.28 131.473 182.28C132.413 182.28 133.257 182.451 134.006 182.797C134.756 183.143 135.353 183.66 135.809 184.358C136.259 185.055 136.487 185.866 136.487 186.805C136.487 187.74 136.255 188.579 135.79 189.329C135.325 190.073 134.685 190.657 133.869 191.069C133.058 191.482 132.156 191.691 131.16 191.691C129.51 191.691 128.186 191.193 127.181 190.192C126.588 189.599 126.142 188.878 125.857 188.034C125.568 187.18 125.426 186.06 125.426 184.661ZM128.144 186.924C128.144 187.664 128.419 188.276 128.96 188.764C129.505 189.253 130.221 189.495 131.103 189.495C131.976 189.495 132.669 189.248 133.19 188.759C133.707 188.266 133.968 187.635 133.968 186.862C133.968 186.136 133.698 185.539 133.162 185.074C132.626 184.604 131.919 184.372 131.042 184.372C130.179 184.372 129.477 184.619 128.941 185.107C128.414 185.591 128.144 186.198 128.144 186.924Z" fill="#6D6D6D"/>
<path d="M137.099 189.485L138.659 187.669C139.907 188.816 141.135 189.386 142.349 189.386C143.208 189.386 143.896 189.158 144.413 188.703C144.93 188.247 145.186 187.635 145.186 186.867C145.186 186.146 144.911 185.572 144.361 185.14C143.81 184.709 143.094 184.495 142.217 184.495C141.344 184.495 140.462 184.704 139.579 185.126L138.071 184.125L138.474 177.101H147.04V179.33H140.647L140.419 182.698C141.168 182.437 141.923 182.309 142.686 182.309C143.644 182.309 144.484 182.47 145.224 182.792C145.959 183.115 146.552 183.618 146.998 184.31C147.444 185.003 147.667 185.838 147.667 186.829C147.667 188.29 147.178 189.462 146.21 190.349C145.238 191.24 143.957 191.681 142.373 191.681C140.367 191.686 138.612 190.956 137.099 189.485Z" fill="#6D6D6D"/>
<path d="M148.069 186.416L156.029 177.006H158.196V186.16H160.245V188.19H158.196V191.439H155.768V188.19H148.544L148.069 186.416ZM151.053 186.16H155.758V180.482L151.053 186.16Z" fill="#6D6D6D"/>
<path d="M20.5 165.508V157.795H21.0692V164.981H25.599V165.508H20.5Z" fill="#6D6D6D"/>
<path d="M25.8789 162.7C25.8789 162.311 25.9501 161.931 26.1018 161.576C26.2489 161.22 26.4481 160.902 26.6995 160.637C26.9509 160.371 27.2592 160.157 27.6197 159.996C27.9802 159.835 28.3691 159.759 28.7723 159.759C29.3178 159.759 29.8063 159.892 30.2474 160.162C30.6933 160.428 31.0348 160.788 31.2815 161.239C31.5281 161.69 31.6514 162.178 31.6514 162.705C31.6514 163.226 31.5281 163.715 31.2767 164.161C31.0301 164.611 30.6838 164.967 30.238 165.237C29.7921 165.508 29.294 165.645 28.7486 165.645C28.3454 165.645 27.9612 165.565 27.6007 165.408C27.245 165.252 26.9367 165.038 26.6853 164.773C26.4339 164.507 26.2346 164.194 26.0924 163.833C25.9501 163.468 25.8789 163.094 25.8789 162.7ZM26.4576 162.7C26.4576 163.378 26.6805 163.952 27.1264 164.426C27.5722 164.896 28.1177 165.133 28.7675 165.133C29.1755 165.133 29.5549 165.024 29.9107 164.806C30.2617 164.588 30.5415 164.294 30.7502 163.919C30.9589 163.544 31.0585 163.136 31.0585 162.695C31.0585 162.022 30.8309 161.448 30.3803 160.969C29.9296 160.494 29.3842 160.257 28.7486 160.257C28.3312 160.257 27.947 160.366 27.596 160.584C27.245 160.803 26.9699 161.097 26.7611 161.471C26.5619 161.851 26.4576 162.259 26.4576 162.7Z" fill="#6D6D6D"/>
<path d="M31.9932 164.801L32.3157 164.369C32.956 164.858 33.6296 165.105 34.3316 165.105C34.7205 165.105 35.0431 165.005 35.2992 164.811C35.5553 164.616 35.6834 164.35 35.6834 164.023C35.6834 163.895 35.655 163.777 35.598 163.672C35.5411 163.568 35.47 163.478 35.3941 163.407C35.3134 163.335 35.1996 163.264 35.0573 163.203C34.915 163.136 34.7822 163.084 34.6589 163.046C34.5355 163.008 34.3838 162.961 34.2035 162.904C34.0612 162.861 33.9569 162.823 33.8952 162.804C33.8335 162.785 33.7339 162.752 33.5964 162.709C33.4588 162.667 33.3592 162.629 33.2976 162.6C33.2312 162.567 33.1458 162.529 33.0319 162.472C32.9181 162.42 32.8327 162.368 32.7805 162.32C32.7236 162.273 32.6572 162.211 32.5861 162.135C32.5102 162.064 32.4533 161.988 32.4153 161.908C32.3821 161.832 32.3489 161.742 32.3252 161.647C32.2967 161.547 32.2825 161.443 32.2825 161.334C32.2825 160.883 32.458 160.508 32.7995 160.219C33.1458 159.93 33.5869 159.783 34.1371 159.783C34.4691 159.783 34.8154 159.84 35.1711 159.949C35.5269 160.063 35.8447 160.21 36.1293 160.399L35.8447 160.85C35.2708 160.475 34.6968 160.285 34.1181 160.285C33.7387 160.285 33.4304 160.38 33.1932 160.575C32.956 160.765 32.8375 161.011 32.8375 161.31C32.8375 161.414 32.8564 161.505 32.8896 161.595C32.9228 161.685 32.9798 161.761 33.0651 161.832C33.1458 161.898 33.2264 161.96 33.3023 162.012C33.3782 162.064 33.492 162.112 33.6391 162.159C33.7814 162.207 33.9047 162.244 33.9996 162.278C34.0944 162.311 34.2272 162.349 34.3933 162.406C34.5735 162.463 34.73 162.515 34.8533 162.553C34.9767 162.595 35.119 162.648 35.2755 162.709C35.432 162.776 35.5648 162.847 35.6692 162.923C35.7783 162.999 35.8731 163.089 35.9728 163.188C36.0676 163.288 36.1388 163.407 36.1862 163.539C36.2336 163.672 36.2574 163.819 36.2574 163.98C36.2574 164.474 36.0724 164.867 35.7024 165.171C35.3277 165.47 34.8676 165.622 34.3174 165.622C33.9142 165.622 33.5015 165.546 33.0889 165.399C32.6525 165.242 32.2967 165.043 31.9932 164.801Z" fill="#6D6D6D"/>
<path d="M36.5322 164.801L36.8548 164.369C37.4951 164.858 38.1686 165.105 38.8707 165.105C39.2596 165.105 39.5821 165.005 39.8383 164.811C40.0944 164.616 40.2225 164.35 40.2225 164.023C40.2225 163.895 40.194 163.777 40.1371 163.672C40.0802 163.568 40.009 163.478 39.9331 163.407C39.8525 163.335 39.7387 163.264 39.5964 163.203C39.4541 163.136 39.3213 163.084 39.1979 163.046C39.0746 163.008 38.9228 162.961 38.7426 162.904C38.6003 162.861 38.4959 162.823 38.4343 162.804C38.3726 162.785 38.273 162.752 38.1354 162.709C37.9979 162.667 37.8983 162.629 37.8366 162.6C37.7702 162.567 37.6848 162.529 37.571 162.472C37.4572 162.42 37.3718 162.368 37.3196 162.32C37.2627 162.273 37.1963 162.211 37.1251 162.135C37.0492 162.064 36.9923 161.988 36.9544 161.908C36.9212 161.832 36.888 161.742 36.8643 161.647C36.8358 161.547 36.8216 161.443 36.8216 161.334C36.8216 160.883 36.9971 160.508 37.3386 160.219C37.6848 159.93 38.126 159.783 38.6762 159.783C39.0082 159.783 39.3545 159.84 39.7102 159.949C40.066 160.063 40.3837 160.21 40.6683 160.399L40.3837 160.85C39.8098 160.475 39.2359 160.285 38.6572 160.285C38.2777 160.285 37.9694 160.38 37.7323 160.575C37.4951 160.765 37.3765 161.011 37.3765 161.31C37.3765 161.414 37.3955 161.505 37.4334 161.595C37.4666 161.685 37.5236 161.761 37.6089 161.832C37.6896 161.898 37.7702 161.96 37.8461 162.012C37.922 162.064 38.0358 162.112 38.1829 162.159C38.3252 162.207 38.4485 162.244 38.5434 162.278C38.6382 162.311 38.771 162.349 38.9371 162.406C39.1173 162.463 39.2738 162.515 39.3972 162.553C39.5205 162.595 39.6628 162.648 39.8193 162.709C39.9758 162.776 40.1086 162.847 40.213 162.923C40.3221 162.999 40.417 163.089 40.5166 163.188C40.6114 163.288 40.6826 163.407 40.73 163.539C40.7774 163.672 40.8012 163.819 40.8012 163.98C40.8012 164.474 40.6162 164.867 40.2462 165.171C39.8762 165.47 39.4114 165.622 38.8612 165.622C38.458 165.622 38.0453 165.546 37.6327 165.399C37.1868 165.242 36.8311 165.043 36.5322 164.801Z" fill="#6D6D6D"/>
<path d="M41.2754 162.686C41.2754 162.282 41.3418 161.903 41.4794 161.542C41.6169 161.182 41.8019 160.869 42.0343 160.608C42.2667 160.347 42.5513 160.138 42.8834 159.982C43.2154 159.83 43.5664 159.75 43.9364 159.75C44.4486 159.75 44.904 159.878 45.3024 160.138C45.6961 160.399 45.9997 160.75 46.2084 161.196C46.4123 161.642 46.5167 162.14 46.5167 162.69C46.5167 162.78 46.5119 162.856 46.5072 162.913H41.8398C41.8873 163.587 42.1244 164.123 42.5466 164.526C42.9735 164.924 43.4715 165.124 44.0455 165.124C44.7807 165.124 45.4257 164.83 45.9712 164.246L46.3507 164.573C46.0376 164.915 45.6961 165.176 45.3309 165.356C44.9656 165.541 44.5293 165.631 44.0265 165.631C43.6612 165.631 43.3102 165.56 42.9782 165.418C42.6414 165.275 42.3474 165.076 42.096 164.825C41.8446 164.573 41.6454 164.26 41.4983 163.89C41.3513 163.525 41.2754 163.122 41.2754 162.686ZM41.8446 162.434H45.9333C45.9143 162.145 45.8621 161.87 45.7673 161.614C45.6724 161.357 45.5443 161.125 45.383 160.921C45.2218 160.717 45.0131 160.551 44.7617 160.433C44.5103 160.314 44.2257 160.252 43.9174 160.252C43.3624 160.252 42.8928 160.461 42.5039 160.878C42.1149 161.291 41.8968 161.808 41.8446 162.434Z" fill="#6D6D6D"/>
<path d="M46.7773 164.801L47.0999 164.369C47.7402 164.858 48.4138 165.105 49.1158 165.105C49.5047 165.105 49.8273 165.005 50.0834 164.811C50.3395 164.616 50.4676 164.35 50.4676 164.023C50.4676 163.895 50.4391 163.777 50.3822 163.672C50.3253 163.568 50.2541 163.478 50.1783 163.407C50.0976 163.335 49.9838 163.264 49.8415 163.203C49.6992 163.136 49.5664 163.084 49.443 163.046C49.3197 163.008 49.1679 162.961 48.9877 162.904C48.8454 162.861 48.741 162.823 48.6794 162.804C48.6177 162.785 48.5181 162.752 48.3806 162.709C48.243 162.667 48.1434 162.629 48.0817 162.6C48.0153 162.567 47.93 162.529 47.8161 162.472C47.7023 162.42 47.6169 162.368 47.5647 162.32C47.5078 162.273 47.4414 162.211 47.3703 162.135C47.2944 162.064 47.2374 161.988 47.1995 161.908C47.1663 161.832 47.1331 161.742 47.1094 161.647C47.0809 161.547 47.0667 161.443 47.0667 161.334C47.0667 160.883 47.2422 160.508 47.5837 160.219C47.93 159.93 48.3711 159.783 48.9213 159.783C49.2533 159.783 49.5996 159.84 49.9553 159.949C50.3111 160.063 50.6289 160.21 50.9135 160.399L50.6289 160.85C50.0549 160.475 49.481 160.285 48.9023 160.285C48.5229 160.285 48.2145 160.38 47.9774 160.575C47.7402 160.765 47.6216 161.011 47.6216 161.31C47.6216 161.414 47.6406 161.505 47.6786 161.595C47.7118 161.685 47.7687 161.761 47.8541 161.832C47.9347 161.898 48.0153 161.96 48.0912 162.012C48.1671 162.064 48.281 162.112 48.428 162.159C48.5703 162.207 48.6936 162.244 48.7885 162.278C48.8833 162.311 49.0162 162.349 49.1822 162.406C49.3624 162.463 49.5189 162.515 49.6423 162.553C49.7656 162.595 49.9079 162.648 50.0644 162.709C50.2209 162.776 50.3538 162.847 50.4581 162.923C50.5672 162.999 50.6621 163.089 50.7617 163.188C50.8565 163.288 50.9277 163.407 50.9751 163.539C51.0226 163.672 51.0463 163.819 51.0463 163.98C51.0463 164.474 50.8613 164.867 50.4913 165.171C50.1166 165.47 49.6565 165.622 49.1063 165.622C48.7031 165.622 48.2904 165.546 47.8778 165.399C47.4367 165.242 47.0809 165.043 46.7773 164.801Z" fill="#6D6D6D"/>
<path d="M303.435 121.93H6.56466C2.94082 121.93 0 118.989 0 115.365V6.56466C0 2.94082 2.94082 0 6.56466 0H303.435C307.059 0 310 2.94082 310 6.56466V115.365C310 118.989 307.059 121.93 303.435 121.93Z" fill="white"/>
<path d="M303.436 121.93H241.005V0H303.436C307.059 0 310 2.94082 310 6.56466V115.365C310 118.989 307.059 121.93 303.436 121.93Z" fill="#5D51F2"/>
<path d="M84.2216 51.0516L77.8467 32.2446H82.2484L86.1189 44.8901L90.3072 32.1924H93.8267L98.015 44.8901L101.881 32.2446H106.178L99.8032 51.0516H96.2268L92.0148 38.8329L87.798 51.0516H84.2216Z" fill="#6D6D6D"/>
<path d="M108.977 51.1843C107.573 51.1843 106.401 50.7954 105.467 50.008C104.532 49.2254 104.067 48.1392 104.067 46.7541C104.067 45.241 104.584 44.1027 105.628 43.339C106.667 42.5753 108.066 42.1911 109.83 42.1911C111.021 42.1911 112.188 42.3856 113.321 42.7793V42.5374C113.321 40.7966 112.297 39.9239 110.257 39.9239C109.029 39.9239 107.71 40.18 106.306 40.697L105.291 37.6044C107.032 36.8407 108.882 36.4565 110.841 36.4565C112.994 36.4565 114.602 36.9925 115.669 38.055C116.699 39.089 117.216 40.6069 117.216 42.618V50.914H113.293V49.3677C112.212 50.5819 110.774 51.1843 108.977 51.1843ZM110.205 48.3858C111.149 48.3858 111.913 48.1487 112.501 47.6791C113.089 47.2095 113.383 46.6071 113.383 45.8814V45.1557C112.619 44.7999 111.756 44.6244 110.793 44.6244C109.906 44.6244 109.219 44.7952 108.73 45.1462C108.241 45.4924 107.995 45.9952 107.995 46.6545C107.995 47.1905 108.199 47.6127 108.607 47.921C109.01 48.2293 109.546 48.3858 110.205 48.3858Z" fill="#6D6D6D"/>
<path d="M118.899 50.9188V31.4478H122.955V50.9235H118.899V50.9188Z" fill="#6D6D6D"/>
<path d="M124.957 50.9188V31.4478H129.013V50.9235H124.957V50.9188Z" fill="#6D6D6D"/>
<path d="M137.602 51.2413C135.435 51.2413 133.647 50.5535 132.238 49.1732C130.834 47.7929 130.132 46.0047 130.132 43.7991C130.132 41.7168 130.801 39.9571 132.133 38.5199C133.466 37.0779 135.16 36.3569 137.204 36.3569C139.462 36.3569 141.188 37.1064 142.379 38.5957C143.569 40.0899 144.167 41.9303 144.167 44.1169C144.167 44.3303 144.148 44.6861 144.11 45.1841H134.164C134.358 46.0901 134.761 46.7826 135.364 47.2664C135.971 47.7455 136.734 47.9874 137.659 47.9874C138.921 47.9874 140.078 47.4988 141.127 46.5217L143.446 48.5756C142.004 50.3495 140.059 51.2413 137.602 51.2413ZM134.107 42.6512H140.216C140.093 41.7263 139.765 40.9911 139.244 40.4361C138.717 39.8859 138.039 39.6108 137.204 39.6108C136.383 39.6108 135.705 39.8812 135.164 40.4219C134.619 40.9626 134.268 41.7073 134.107 42.6512Z" fill="#6D6D6D"/>
<path d="M150.006 51.1606C148.673 51.1606 147.644 50.838 146.923 50.1882C146.202 49.5384 145.841 48.4332 145.841 46.8679V40.0898H144.134V36.6225H145.841V32.9702H149.897V36.6225H153.26V40.0898H149.897V46.1991C149.897 47.1241 150.333 47.5889 151.206 47.5889C151.917 47.5889 152.586 47.4182 153.208 47.0814V50.3353C152.283 50.8855 151.215 51.1606 150.006 51.1606Z" fill="#6D6D6D"/>
<path d="M30.2949 89.7043L31.6041 87.8497C32.8468 88.8458 34.0516 89.4339 35.2184 89.6047V85.6061C33.6816 85.2077 32.5669 84.6859 31.8697 84.0456C31.1772 83.4053 30.8309 82.5135 30.8309 81.3799C30.8309 80.289 31.2341 79.3877 32.0404 78.681C32.8515 77.9742 33.8998 77.5663 35.1947 77.4667V76.2856H36.8548V77.5047C38.2968 77.6802 39.5964 78.2019 40.7585 79.0794L39.6059 80.991C38.7189 80.3269 37.794 79.8953 36.8359 79.7008V83.5618C38.3964 83.9555 39.5253 84.482 40.2226 85.146C40.9246 85.8101 41.2708 86.6971 41.2708 87.807C41.2708 88.9122 40.8676 89.8181 40.0518 90.5249C39.2407 91.2316 38.1735 91.649 36.8548 91.7676V93.7977H35.1947V91.7486C33.3685 91.5447 31.7369 90.8617 30.2949 89.7043ZM33.2595 81.2661C33.2595 81.7119 33.397 82.0772 33.6769 82.3617C33.9567 82.6463 34.469 82.9025 35.2184 83.1302V79.549C34.5876 79.5964 34.1038 79.7767 33.767 80.085C33.4255 80.398 33.2595 80.7917 33.2595 81.2661ZM36.8359 89.6806C37.4715 89.6332 37.9648 89.4529 38.3158 89.1446C38.6668 88.8315 38.8423 88.4189 38.8423 87.9066C38.8423 87.437 38.7 87.0528 38.4106 86.7587C38.1213 86.4647 37.5948 86.2085 36.8359 85.9809V89.6806Z" fill="#5D51F2"/>
<path d="M46.4697 91.7914V89.8182L51.4217 85.6157C52.432 84.7666 53.1293 84.0646 53.5229 83.5097C53.9119 82.9547 54.1111 82.3618 54.1111 81.7262C54.1111 81.0384 53.8929 80.493 53.4613 80.0898C53.0296 79.6866 52.4747 79.4874 51.8011 79.4874C51.175 79.4874 50.6106 79.6581 50.1125 79.9997C49.6098 80.3412 49.069 80.8914 48.4856 81.6456L46.7069 80.251C47.1954 79.568 47.665 79.0225 48.1204 78.6051C48.5757 78.1925 49.1259 77.8604 49.771 77.6185C50.4161 77.3766 51.1513 77.2581 51.9814 77.2581C53.3901 77.2581 54.5238 77.6517 55.3918 78.4439C56.2598 79.236 56.6914 80.2748 56.6914 81.5649C56.6914 82.0108 56.644 82.4329 56.5396 82.8171C56.4353 83.2061 56.2977 83.5618 56.127 83.8844C55.9515 84.2069 55.6954 84.5579 55.3633 84.9279C55.0266 85.2979 54.6898 85.6441 54.3435 85.9572C54.002 86.2702 53.5467 86.6639 52.9822 87.1335L50.0319 89.6H56.8717V91.7866H46.4697V91.7914Z" fill="#5D51F2"/>
<path d="M62.2695 85.0131C62.2695 84.1356 62.3502 83.3056 62.5162 82.5277C62.6822 81.7498 62.9288 81.0335 63.2656 80.3837C63.6024 79.7339 64.015 79.1742 64.4941 78.7046C64.9732 78.235 65.5471 77.8698 66.2207 77.6089C66.8895 77.348 67.6247 77.22 68.4168 77.22C69.3038 77.22 70.0864 77.3528 70.7694 77.6231C71.4525 77.8888 72.126 78.2919 72.7948 78.8279L71.443 80.7584C70.8975 80.3363 70.39 80.0232 69.9204 79.8193C69.4508 79.6201 68.9243 79.5157 68.3409 79.5157C67.3116 79.5157 66.4958 79.9331 65.8934 80.7679C65.2957 81.6027 64.9684 82.6984 64.9068 84.055C65.3574 83.6139 65.8459 83.2676 66.3772 83.0162C66.9037 82.7648 67.5535 82.6368 68.3172 82.6368C69.2563 82.6368 70.1006 82.8075 70.8501 83.1538C71.5995 83.5 72.1972 84.0171 72.6525 84.7143C73.1031 85.4116 73.3308 86.2274 73.3308 87.1618C73.3308 88.0962 73.0984 88.9358 72.6335 89.6852C72.1687 90.4299 71.5284 91.0133 70.7125 91.426C69.9014 91.8387 69.0002 92.0474 68.0041 92.0474C66.3535 92.0474 65.0301 91.5493 64.0245 90.5485C63.4316 89.9556 62.9858 89.2346 62.6964 88.3903C62.4166 87.5365 62.2695 86.4124 62.2695 85.0131ZM64.9874 87.2804C64.9874 88.0204 65.2625 88.6322 65.8033 89.1208C66.3487 89.6093 67.065 89.8512 67.9472 89.8512C68.82 89.8512 69.5125 89.6046 70.0342 89.116C70.5512 88.6228 70.8121 87.9919 70.8121 87.2187C70.8121 86.493 70.5418 85.8954 70.0058 85.4305C69.4698 84.961 68.763 84.7285 67.8855 84.7285C67.0223 84.7285 66.3203 84.9752 65.7843 85.4637C65.2578 85.9475 64.9874 86.5547 64.9874 87.2804Z" fill="#5D51F2"/>
<path d="M73.9473 89.8419L75.5078 88.0252C76.7553 89.1731 77.9838 89.7423 79.198 89.7423C80.0566 89.7423 80.7444 89.5146 81.2614 89.0593C81.7784 88.6039 82.0345 87.992 82.0345 87.2236C82.0345 86.5027 81.7594 85.9287 81.2092 85.4971C80.659 85.0655 79.9427 84.852 79.0652 84.852C78.1925 84.852 77.3102 85.0607 76.428 85.4829L74.9196 84.482L75.3228 77.4573H83.8891V79.6866H77.4952L77.2675 83.0543C78.017 82.7934 78.7712 82.6654 79.5348 82.6654C80.4882 82.6654 81.3325 82.8266 82.0725 83.1492C82.8077 83.4717 83.4006 83.9745 83.8464 84.667C84.2923 85.3548 84.5152 86.1943 84.5152 87.1857C84.5152 88.6419 84.0267 89.8182 83.0591 90.7052C82.0867 91.5969 80.806 92.038 79.2218 92.038C77.2154 92.0428 75.4604 91.3076 73.9473 89.8419Z" fill="#5D51F2"/>
<path d="M85.3447 84.6289C85.3447 83.2629 85.6009 82.0201 86.1131 80.9007C86.6254 79.7813 87.3606 78.8849 88.3187 78.2208C89.2769 77.552 90.3631 77.22 91.5868 77.22C92.8059 77.22 93.8873 77.552 94.8407 78.2113C95.7941 78.8706 96.5246 79.7624 97.0321 80.8818C97.5396 82.0012 97.7958 83.2534 97.7958 84.6337C97.7958 85.6535 97.644 86.6116 97.3404 87.5223C97.0368 88.4283 96.6194 89.2109 96.0835 89.8797C95.5475 90.5438 94.8882 91.0703 94.1008 91.464C93.3134 91.8529 92.4596 92.0474 91.5442 92.0474C90.3204 92.0474 89.2342 91.7201 88.2855 91.0608C87.3369 90.4015 86.6064 89.5097 86.0989 88.3903C85.5961 87.2567 85.3447 86.0092 85.3447 84.6289ZM87.9203 84.6289C87.9203 85.5681 88.0674 86.4266 88.3662 87.1998C88.6603 87.9729 89.0919 88.5895 89.6516 89.0496C90.2113 89.5097 90.8564 89.7422 91.5821 89.7422C92.3078 89.7422 92.9482 89.5145 93.5079 89.0544C94.0628 88.5943 94.4897 87.9824 94.7791 87.214C95.0684 86.4456 95.2154 85.5823 95.2154 84.6289C95.2154 83.1917 94.8739 81.9775 94.1909 80.9909C93.5079 80.0043 92.6256 79.5157 91.5442 79.5157C90.8232 79.5157 90.1876 79.7434 89.6326 80.1987C89.0777 80.6541 88.6555 81.266 88.3614 82.0344C88.0674 82.8028 87.9203 83.6708 87.9203 84.6289Z" fill="#5D51F2"/>
<path d="M103.014 89.8419L104.574 88.0252C105.822 89.1731 107.05 89.7423 108.264 89.7423C109.123 89.7423 109.811 89.5146 110.328 89.0593C110.845 88.6039 111.101 87.992 111.101 87.2236C111.101 86.5027 110.826 85.9287 110.276 85.4971C109.725 85.0655 109.009 84.852 108.132 84.852C107.259 84.852 106.377 85.0607 105.494 85.4829L103.986 84.482L104.389 77.4573H112.956V79.6866H106.562L106.334 83.0543C107.083 82.7934 107.838 82.6654 108.601 82.6654C109.555 82.6654 110.399 82.8266 111.139 83.1492C111.874 83.4717 112.467 83.9745 112.913 84.667C113.359 85.3548 113.582 86.1943 113.582 87.1857C113.582 88.6419 113.093 89.8182 112.125 90.7052C111.153 91.5969 109.872 92.038 108.288 92.038C106.282 92.0428 104.527 91.3076 103.014 89.8419Z" fill="#5D51F2"/>
<path d="M114.407 85.0131C114.407 84.1356 114.488 83.3056 114.654 82.5277C114.82 81.7498 115.067 81.0335 115.403 80.3837C115.74 79.7339 116.153 79.1742 116.632 78.7046C117.111 78.235 117.685 77.8698 118.358 77.6089C119.027 77.348 119.762 77.22 120.554 77.22C121.441 77.22 122.224 77.3528 122.907 77.6231C123.59 77.8888 124.264 78.2919 124.933 78.8279L123.581 80.7584C123.035 80.3363 122.528 80.0232 122.058 79.8193C121.589 79.6201 121.062 79.5157 120.479 79.5157C119.449 79.5157 118.633 79.9331 118.031 80.7679C117.433 81.6027 117.106 82.6984 117.044 84.055C117.495 83.6139 117.984 83.2676 118.515 83.0162C119.041 82.7648 119.691 82.6368 120.455 82.6368C121.394 82.6368 122.238 82.8075 122.988 83.1538C123.737 83.5 124.335 84.0171 124.79 84.7143C125.241 85.4116 125.468 86.2274 125.468 87.1618C125.468 88.0962 125.236 88.9358 124.771 89.6852C124.306 90.4299 123.666 91.0133 122.85 91.426C122.039 91.8387 121.138 92.0474 120.142 92.0474C118.491 92.0474 117.168 91.5493 116.162 90.5485C115.569 89.9556 115.123 89.2346 114.839 88.3903C114.554 87.5365 114.407 86.4124 114.407 85.0131ZM117.13 87.2804C117.13 88.0204 117.405 88.6322 117.946 89.1208C118.491 89.6093 119.207 89.8512 120.09 89.8512C120.962 89.8512 121.655 89.6046 122.177 89.116C122.694 88.6228 122.955 87.9919 122.955 87.2187C122.955 86.493 122.684 85.8954 122.148 85.4305C121.612 84.961 120.905 84.7285 120.028 84.7285C119.165 84.7285 118.463 84.9752 117.927 85.4637C117.395 85.9475 117.13 86.5547 117.13 87.2804Z" fill="#5D51F2"/>
<path d="M126.146 79.6866V77.4573H136.221V79.3735L129.756 91.7866H126.929L133.351 79.6866H126.146Z" fill="#5D51F2"/>
<path d="M141.268 91.7914V89.8182L146.22 85.6157C147.23 84.7666 147.927 84.0646 148.321 83.5097C148.71 82.9547 148.904 82.3618 148.904 81.7262C148.904 81.0384 148.686 80.493 148.254 80.0898C147.823 79.6866 147.268 79.4874 146.594 79.4874C145.968 79.4874 145.404 79.6581 144.906 79.9997C144.403 80.3412 143.862 80.8914 143.279 81.6456L141.5 80.251C141.989 79.568 142.458 79.0225 142.913 78.6051C143.369 78.1925 143.919 77.8604 144.564 77.6185C145.209 77.3766 145.944 77.2581 146.775 77.2581C148.183 77.2581 149.317 77.6517 150.185 78.4439C151.053 79.236 151.485 80.2748 151.485 81.5649C151.485 82.0108 151.437 82.4329 151.333 82.8171C151.228 83.2061 151.091 83.5618 150.92 83.8844C150.745 84.2069 150.488 84.5579 150.156 84.9279C149.82 85.2979 149.483 85.6441 149.137 85.9572C148.795 86.2702 148.34 86.6639 147.775 87.1335L144.825 89.6H151.665V91.7866H141.268V91.7914Z" fill="#5D51F2"/>
<path d="M152.173 89.5052L153.933 87.8687C154.459 88.4949 155.024 88.9644 155.631 89.2775C156.238 89.5905 156.926 89.7471 157.699 89.7471C158.42 89.7471 159.013 89.5431 159.477 89.1447C159.942 88.7415 160.179 88.2055 160.179 87.5415C160.179 86.8442 159.885 86.2987 159.292 85.9145C158.704 85.5303 157.898 85.3359 156.878 85.3359H155.707L155.299 83.7563L159.169 79.6534H152.974V77.4668H162.433V79.3451L158.443 83.4291C159.036 83.5144 159.577 83.6567 160.066 83.8465C160.554 84.0409 161 84.2971 161.394 84.6149C161.792 84.9327 162.1 85.3406 162.323 85.8291C162.546 86.3177 162.66 86.8774 162.66 87.5035C162.66 88.8364 162.195 89.9226 161.27 90.7764C160.345 91.6254 159.141 92.0523 157.661 92.0523C155.384 92.0428 153.553 91.1938 152.173 89.5052Z" fill="#5D51F2"/>
<path d="M163.144 86.7729L171.103 77.3623H173.27V86.5168H175.319V88.5469H173.27V91.796H170.842V88.5469H163.618L163.144 86.7729ZM166.132 86.512H170.837V80.8344L166.132 86.512Z" fill="#5D51F2"/>
<path d="M283.481 87.2283V85.203C283.481 84.7381 283.101 84.3587 282.637 84.3587H282.461C282.129 84.3587 281.821 84.1642 281.693 83.8559C281.669 83.7942 281.641 83.7326 281.612 83.6757C281.465 83.3579 281.536 82.9831 281.783 82.7365L281.911 82.6084C282.243 82.2764 282.243 81.7452 281.911 81.4131L280.478 79.9807C280.146 79.6486 279.615 79.6486 279.283 79.9807L279.079 80.1846C278.828 80.436 278.458 80.4882 278.13 80.3554C277.761 80.2083 277.528 79.9048 277.528 79.5443V79.2549C277.528 78.7901 277.149 78.4106 276.684 78.4106H274.658C274.194 78.4106 273.814 78.7901 273.814 79.2549V79.5727C273.814 79.9285 273.586 80.2321 273.254 80.3649C272.913 80.5072 272.538 80.455 272.287 80.2036L272.059 79.9759C271.727 79.6439 271.196 79.6439 270.864 79.9759L269.431 81.4084C269.099 81.7404 269.099 82.2717 269.431 82.6037L269.621 82.7934C269.877 83.0495 269.925 83.4338 269.782 83.7658C269.626 84.1358 269.322 84.3587 268.971 84.3587H268.706C268.241 84.3587 267.861 84.7381 267.861 85.203V87.2283C267.861 87.6932 268.241 88.0726 268.706 88.0726H268.862C269.213 88.0726 269.526 88.2861 269.65 88.6134C269.673 88.6798 269.702 88.7509 269.73 88.8173C269.858 89.1257 269.778 89.4814 269.54 89.7186L269.431 89.8277C269.099 90.1597 269.099 90.6909 269.431 91.023L270.864 92.4554C271.196 92.7874 271.727 92.7874 272.059 92.4554C272.334 92.1803 272.709 92.1044 273.022 92.2515C273.112 92.2941 273.207 92.3368 273.302 92.3748C273.615 92.5028 273.809 92.8112 273.809 93.1479C273.809 93.6507 274.189 94.0302 274.654 94.0302H276.679C277.144 94.0302 277.523 93.6507 277.523 93.1859C277.523 92.8396 277.727 92.5266 278.045 92.4032C278.149 92.3653 278.254 92.3226 278.353 92.2752C278.666 92.1376 279.032 92.2135 279.274 92.4554C279.606 92.7874 280.142 92.7874 280.469 92.4554L281.901 91.023C282.233 90.6909 282.233 90.1597 281.901 89.8277C281.622 89.5478 281.541 89.1921 281.674 88.8837C281.712 88.7936 281.745 88.7035 281.778 88.6134C281.897 88.2861 282.214 88.0726 282.561 88.0726C283.106 88.0726 283.481 87.6979 283.481 87.2283ZM278.221 86.3603C278.221 87.7406 277.101 88.86 275.721 88.86C274.341 88.86 273.221 87.7406 273.221 86.3603C273.221 84.9801 274.341 83.8606 275.721 83.8606C277.101 83.8606 278.221 84.9801 278.221 86.3603Z" fill="#F7FAFF"/>
<path d="M281.165 42.1105H270.18V31.1204H276.261L278.234 29.1472H268.202V44.0885H283.143V33.8336L281.165 35.8067V42.1105Z" fill="#F7FAFF"/>
<path d="M284.448 24.9922L282.409 27.0318L281.711 27.729L274.103 35.3372L272.732 39.4449L276.84 38.0741L284.448 30.4659L285.146 29.7686L287.185 27.729L284.448 24.9922ZM274.293 37.8843L274.8 36.0392L276.143 37.3816L274.293 37.8843ZM276.797 36.727L275.455 35.3847L282.409 28.431L283.751 29.7734L276.797 36.727ZM284.453 29.0666L283.111 27.7243L284.453 26.382L285.795 27.7243L284.453 29.0666Z" fill="#F7FAFF"/>
<path d="M34.5785 35.4322C34.6354 34.8582 35.1619 34.4456 35.7358 34.4456H47.8549V30.3806H35.2283C32.5294 30.3806 30.3428 32.5673 30.3428 35.2662V47.9733C30.3428 49.4959 30.8076 50.9853 31.6756 52.2423C33.0796 54.2724 35.3849 55.4819 37.8513 55.4819H52.5886V36.6465H35.6694C35.0244 36.6465 34.5121 36.0915 34.5785 35.4322Z" fill="#5D51F2"/>
</svg>
