<svg width="154" height="30" viewBox="0 0 154 30" fill="none" xmlns="http://www.w3.org/2000/svg">
<g clip-path="url(#clip0_460_32057)">
<path d="M18.6068 5.63738L9.75933 11.2748L18.6068 16.9121L9.75933 22.5495L0.911865 16.8817L9.75933 11.2443L0.911865 5.63738L9.75933 0L18.6068 5.63738ZM9.71356 24.3626L18.561 18.7252L27.4085 24.3626L18.561 30L9.71356 24.3626ZM18.6068 16.8817L27.4542 11.2443L18.6068 5.63738L27.4085 0L36.2559 5.63738L27.4085 11.2748L36.2559 16.9121L27.4085 22.5495L18.6068 16.8817Z" fill="#6D6D6D"/>
<path d="M43.197 5.63743H50.3513C54.9123 5.63743 58.6801 8.27329 58.6801 14.2916V15.5562C58.6801 21.6202 55.1563 24.3474 50.4885 24.3474H43.197V5.63743ZM47.1936 9.03509V20.9345H50.2597C52.8529 20.9345 54.5919 19.2433 54.5919 15.48V14.4896C54.5919 10.7263 52.7614 9.03509 50.1224 9.03509H47.1936ZM60.8004 9.21793H64.0038L64.5224 12.7375C65.1326 10.3454 66.6885 9.06557 69.5106 9.06557H70.5021V13.1031H68.8546C65.6055 13.1031 64.8123 14.2306 64.8123 17.4302V24.3931H60.8614V9.21793H60.8004ZM71.2953 17.1103V16.6836C71.2953 11.61 74.5445 8.83702 78.9682 8.83702C83.4834 8.83702 86.6411 11.61 86.6411 16.6836V17.1103C86.6411 22.0925 83.575 24.774 78.9682 24.774C74.0716 24.7283 71.2953 22.1077 71.2953 17.1103ZM82.5987 17.0645V16.6836C82.5987 13.865 81.1801 12.1737 78.9224 12.1737C76.7106 12.1737 75.2462 13.7278 75.2462 16.6836V17.0645C75.2462 19.7918 76.6648 21.3459 78.9224 21.3459C81.1801 21.3002 82.5987 19.7918 82.5987 17.0645ZM88.7156 9.21793H92.0106L92.3919 12.0823C93.1851 10.1626 94.8784 8.83702 97.3801 8.83702C101.239 8.83702 103.787 11.61 103.787 16.7446V17.1712C103.787 22.1534 100.965 24.7893 97.3801 24.7893C94.9851 24.7893 93.3377 23.7075 92.5292 21.9706V29.6344H88.6699L88.7156 9.21793ZM99.775 17.0645V16.7294C99.775 13.7126 98.219 12.2194 96.1445 12.2194C93.9326 12.2194 92.4682 13.9107 92.4682 16.7294V17.0188C92.4682 19.7004 93.8868 21.3916 96.0987 21.3916C98.3716 21.3459 99.775 19.8985 99.775 17.0645ZM109.629 21.5897L109.294 24.3627H105.907V4.14429H109.766V11.8995C110.621 9.91879 112.314 8.83702 114.709 8.83702C118.339 8.88273 121.024 11.3815 121.024 16.4094V16.8817C121.024 21.9096 118.477 24.7893 114.617 24.7893C112.07 24.7283 110.422 23.5551 109.629 21.5897ZM116.966 16.8817V16.5008C116.966 13.7278 115.456 12.1737 113.336 12.1737C111.17 12.1737 109.66 13.9107 109.66 16.5465V16.8817C109.66 19.7004 111.124 21.3459 113.29 21.3459C115.609 21.3459 116.966 19.8985 116.966 16.8817ZM122.717 17.1103V16.6836C122.717 11.61 125.966 8.83702 130.39 8.83702C134.905 8.83702 138.063 11.61 138.063 16.6836V17.1103C138.063 22.0925 134.951 24.774 130.39 24.774C125.494 24.7283 122.717 22.1077 122.717 17.1103ZM134.051 17.0645V16.6836C134.051 13.865 132.633 12.1737 130.375 12.1737C128.163 12.1737 126.699 13.7278 126.699 16.6836V17.0645C126.699 19.7918 128.117 21.3459 130.375 21.3459C132.648 21.3002 134.051 19.7918 134.051 17.0645ZM143.234 16.5008L137.911 9.21793H142.472L145.538 13.7735L148.65 9.21793H153.165L147.765 16.4551L153.455 24.3627H148.985L145.507 19.3347L142.121 24.3627H137.453L143.234 16.5008Z" fill="#6D6D6D"/>
</g>
<defs>
<clipPath id="clip0_460_32057">
<rect width="152.542" height="30" fill="white" transform="translate(0.911865)"/>
</clipPath>
</defs>
</svg>
