<svg width="164" height="30" viewBox="0 0 164 30" fill="none" xmlns="http://www.w3.org/2000/svg">
<g clip-path="url(#clip0_460_32081)">
<path d="M29.9066 4.12983L20.1895 4.99646C18.5052 4.0192 16.8394 3.63199 15.0811 3.63199C14.6183 3.63199 14.1371 3.66886 13.6559 3.76106L3.49456 0.0179716C3.08736 -0.129539 2.79122 0.405187 3.14289 0.663331L9.38036 5.47587C8.06623 6.28718 6.82614 7.35663 5.73412 8.5736C3.88324 10.6941 1.55113 16.5576 0.403586 19.6C-0.0776434 20.9092 0.162971 22.3659 1.05139 23.4353C3.12438 25.943 7.41842 29.9995 15.6734 29.9995C23.2435 29.9995 27.0748 26.6068 28.8701 24.136C29.8696 22.7531 30.1657 21.0014 29.666 19.3788C28.8516 16.6314 27.1303 11.8741 24.3355 8.61047C24.2429 8.49984 24.1319 8.38921 24.0393 8.27857L30.0917 4.70144C30.3879 4.55393 30.2398 4.11139 29.9066 4.12983Z" fill="#6D6D6D"/>
<path d="M19.7636 21.795C19.0418 22.0531 17.413 22.4404 15.5991 21.5C15.5066 21.4447 15.4141 21.5737 15.4881 21.6475C16.0619 22.256 17.0798 23.3439 17.7091 23.8601C17.8387 23.9708 18.0423 23.9523 18.1534 23.8233L19.8747 21.9241C19.9487 21.8872 19.8747 21.7766 19.7636 21.795Z" fill="white"/>
<path d="M26.4828 13.9216C25.5574 11.9302 24.1877 10.0679 22.0962 9.8466C21.726 9.80972 21.3374 9.88348 21.0227 10.0863L18.7461 11.4323C18.1724 11.7642 17.469 11.7274 16.9508 11.3217L14.9703 9.79128C14.304 9.27499 13.5451 8.90622 12.7308 8.72183C9.34365 7.92896 7.04856 9.69909 5.30873 13.0181C3.64293 16.1896 4.56838 20.7624 8.65882 21.8318C12.9714 22.9751 15.8217 18.1994 16.9693 16.6137C17.1914 16.3002 17.6356 16.3002 17.8577 16.6137C19.6345 19.0107 22.0037 21.5737 24.5579 21.0574C27.9265 20.3752 27.5193 16.1711 26.4828 13.9216ZM13.9894 16.4477C13.1565 17.0009 12.1015 16.8718 11.4722 15.9314C10.8429 14.991 11.1205 13.9585 11.9534 13.4053C12.7863 12.8521 13.8413 12.9812 14.4706 13.9216C15.0999 14.862 14.8223 15.8945 13.9894 16.4477ZM22.8181 16.6137C21.9852 17.1668 20.9302 17.0377 20.3009 16.0974C19.6716 15.157 19.9492 14.1244 20.7821 13.5712C21.615 13.0181 22.67 13.1472 23.2993 14.0875C23.9286 15.0279 23.651 16.0605 22.8181 16.6137Z" fill="white"/>
<path d="M17.82 17.8306C17.6534 17.6463 17.3388 17.6463 17.1722 17.8491L15.3583 19.988C15.2658 20.0802 15.2843 20.2461 15.3953 20.3199C15.821 20.6149 16.839 21.2787 17.8385 21.2787C18.7639 21.2787 19.5968 20.9284 20.004 20.7255C20.1336 20.6518 20.1706 20.4858 20.0781 20.3752L17.82 17.8306Z" fill="white"/>
<path d="M38.4023 23.8969V9.58838H41.5859V15.8023H52.1544V9.58838H55.3379V23.8969H52.1544V18.4759H41.5859V23.8969H38.4023Z" fill="#6D6D6D"/>
<path d="M64.3703 24.2472C62.2603 24.2472 60.5575 23.694 59.2804 22.6061C57.9848 21.5182 57.3555 20.08 57.3555 18.2914C57.3555 16.5029 58.0033 15.0646 59.2804 13.9768C60.576 12.8889 62.2603 12.3357 64.3703 12.3357C66.4988 12.3357 68.2016 12.8889 69.4972 13.9768C70.7929 15.0646 71.4222 16.5029 71.4222 18.2914C71.4222 20.08 70.7744 21.5182 69.4972 22.6061C68.2016 23.7125 66.4803 24.2472 64.3703 24.2472ZM64.3703 21.7948C65.5919 21.7948 66.5914 21.4814 67.3317 20.836C68.0721 20.1906 68.4608 19.3609 68.4608 18.3099C68.4608 17.2589 68.0906 16.3922 67.3317 15.7653C66.5914 15.12 65.5919 14.8065 64.3703 14.8065C63.1487 14.8065 62.1863 15.1384 61.4274 15.7838C60.6871 16.4291 60.2984 17.2773 60.2984 18.3283C60.2984 19.3793 60.6685 20.2091 61.4274 20.8544C62.1678 21.4814 63.1487 21.7948 64.3703 21.7948Z" fill="#6D6D6D"/>
<path d="M79.8625 24.2474C77.7525 24.2474 76.0497 23.6943 74.7726 22.6064C73.477 21.5185 72.8477 20.0803 72.8477 18.2917C72.8477 16.5031 73.4955 15.0649 74.7726 13.977C76.0682 12.8891 77.7525 12.3359 79.8625 12.3359C81.991 12.3359 83.6938 12.8891 84.9894 13.977C86.285 15.0649 86.9144 16.5031 86.9144 18.2917C86.9144 20.0803 86.2665 21.5185 84.9894 22.6064C83.6938 23.7127 81.991 24.2474 79.8625 24.2474ZM79.8625 21.7951C81.0841 21.7951 82.0836 21.4816 82.8239 20.8362C83.5643 20.1909 83.9529 19.3611 83.9529 18.3101C83.9529 17.2591 83.5828 16.3925 82.8239 15.7656C82.0836 15.1202 81.0841 14.8067 79.8625 14.8067C78.6409 14.8067 77.6785 15.1386 76.9196 15.784C76.1792 16.4294 75.7906 17.2775 75.7906 18.3286C75.7906 19.3796 76.1607 20.2093 76.9196 20.8547C77.6785 21.4816 78.6594 21.7951 79.8625 21.7951Z" fill="#6D6D6D"/>
<path d="M92.7992 24.1182C91.3925 24.1182 90.5966 23.4728 90.1894 22.8828C89.7637 22.2927 89.4306 21.5367 89.4306 19.8773V15.0094H87.8203V12.723H89.8933V9.58838H92.6326V12.723H95.8716V15.0094H92.6326V19.195C92.6141 20.4489 92.8177 20.8914 93.1138 21.2048C93.6506 21.7396 95.2794 21.3708 95.8716 21.002V23.4175C95.1683 23.8969 93.9467 24.1182 92.7992 24.1182Z" fill="#6D6D6D"/>
<path d="M103.98 24.2473C101.981 24.2473 99.982 23.9523 97.9646 23.3807V20.8361C99.6489 21.4815 101.481 21.7949 103.462 21.7949C104.887 21.7949 105.905 21.7027 106.516 21.5184C107.126 21.334 107.441 21.0205 107.441 20.5595C107.441 20.1354 107.108 19.822 106.423 19.656C105.738 19.4901 104.905 19.3794 103.924 19.3241C102.943 19.2873 101.962 19.1951 100.982 19.066C100.001 18.9369 99.1677 18.6235 98.4828 18.144C97.798 17.6462 97.4648 16.964 97.4648 16.0605C97.4648 14.8435 98.0571 13.9215 99.2417 13.2946C100.426 12.6677 102.037 12.3542 104.072 12.3542C105.683 12.3542 107.552 12.5571 109.681 12.9812V15.4335C107.848 15.0463 106.071 14.8435 104.406 14.8435C101.87 14.8435 100.593 15.2307 100.593 16.0051C100.593 16.3924 100.944 16.6689 101.629 16.8164C102.314 16.964 103.147 17.0746 104.128 17.1483C105.109 17.2037 106.071 17.3143 107.052 17.4434C108.033 17.5909 108.866 17.9043 109.551 18.4206C110.236 18.9369 110.588 19.6376 110.588 20.5411C110.588 21.7949 109.995 22.7169 108.829 23.3254C107.663 23.9523 106.053 24.2473 103.98 24.2473Z" fill="#6D6D6D"/>
<path d="M125.82 12.7231V23.9155H122.322L122.766 19.3058H122.581C122.063 22.6248 120.212 24.2659 117.066 24.2659C115.455 24.229 114.271 23.7127 113.512 22.6801C112.772 21.666 112.383 19.9512 112.383 17.5726V12.7231H115.566V17.2038C115.566 18.8817 115.807 20.0802 116.288 20.7994C116.769 21.5185 117.547 21.8688 118.639 21.8688C119.86 21.8688 120.823 21.3156 121.526 20.2093C122.248 19.103 122.6 17.6463 122.6 15.8024V12.7231H125.82Z" fill="#6D6D6D"/>
<path d="M130.151 11.6351C129.541 11.6351 129.059 11.4876 128.708 11.1742C128.356 10.8607 128.189 10.4182 128.189 9.82812C128.189 9.23808 128.356 8.7771 128.708 8.48208C129.059 8.18706 129.522 8.03955 130.151 8.03955C130.781 8.03955 131.262 8.18706 131.614 8.48208C131.965 8.7771 132.15 9.21964 132.15 9.82812C132.15 11.0266 131.484 11.6351 130.151 11.6351ZM128.597 23.897V12.723H131.78V23.9154H128.597V23.897Z" fill="#6D6D6D"/>
<path d="M149.752 24.2474C147.716 24.2474 146.087 23.6943 144.847 22.6064C143.607 21.5185 142.996 20.0803 142.996 18.2917C142.996 16.5031 143.607 15.0649 144.847 13.977C146.087 12.8891 147.716 12.3359 149.752 12.3359C151.751 12.3359 153.38 12.7969 154.62 13.7373C155.86 14.6777 156.489 15.8946 156.526 17.4251V19.2505H146.069C146.254 20.154 146.716 20.8178 147.494 21.2235C148.271 21.6291 149.4 21.8319 150.899 21.8319C152.88 21.8319 153.768 21.5185 154.731 21.1681C154.879 21.1128 155.934 20.6519 156.026 20.615V23.1595C154.897 23.5836 153.916 23.8787 153.083 24.0262C152.232 24.1737 151.121 24.2474 149.752 24.2474ZM145.976 17.7201L153.472 17.5357C153.435 16.5584 153.102 15.8393 152.51 15.4152C151.917 14.9911 150.992 14.7699 149.752 14.7699C148.549 14.7699 147.66 14.9911 147.05 15.4521C146.439 15.9315 146.087 16.6875 145.976 17.7201Z" fill="#6D6D6D"/>
<path d="M162.189 15.5627C162.411 15.3783 162.504 15.1386 162.504 14.8252C162.504 14.5117 162.393 14.272 162.189 14.0876C161.967 13.9032 161.671 13.811 161.301 13.811H160.098V16.7797H160.597V15.8209H161.282C161.319 15.8209 161.356 15.8209 161.412 15.8209L162.041 16.7797H162.559L161.875 15.7287C161.986 15.6918 162.097 15.6365 162.189 15.5627ZM161.264 15.4152H160.597V14.2351H161.264C161.504 14.2351 161.689 14.2904 161.819 14.3826C161.949 14.4933 162.023 14.6223 162.023 14.8252C162.023 15.0096 161.949 15.1571 161.819 15.2677C161.689 15.3599 161.504 15.4152 161.264 15.4152Z" fill="#6D6D6D"/>
<path d="M163.596 14.2535C163.466 13.94 163.281 13.6634 163.041 13.4237C162.8 13.184 162.522 12.9996 162.208 12.8706C161.893 12.7415 161.541 12.6677 161.171 12.6677C160.801 12.6677 160.449 12.7415 160.135 12.8706C159.82 12.9996 159.524 13.184 159.302 13.4237C159.061 13.6634 158.876 13.94 158.747 14.2535C158.617 14.5669 158.543 14.9173 158.543 15.286C158.543 15.6548 158.617 15.9867 158.747 16.3186C158.876 16.6321 159.061 16.9087 159.302 17.1484C159.542 17.3881 159.82 17.5725 160.135 17.7015C160.449 17.8306 160.801 17.9044 161.171 17.9044C161.541 17.9044 161.893 17.8306 162.208 17.7015C162.522 17.5725 162.8 17.3881 163.041 17.1484C163.281 16.9087 163.466 16.6321 163.596 16.3002C163.725 15.9867 163.799 15.6364 163.799 15.2676C163.799 14.9173 163.744 14.5669 163.596 14.2535ZM163.281 16.1895C163.17 16.4661 163.004 16.7058 162.8 16.9271C162.596 17.1299 162.356 17.2959 162.06 17.4249C161.782 17.5356 161.486 17.6093 161.153 17.6093C160.82 17.6093 160.523 17.554 160.246 17.4434C159.968 17.3328 159.728 17.1668 159.524 16.964C159.32 16.7611 159.154 16.5214 159.043 16.2264C158.932 15.9498 158.876 15.6548 158.876 15.3229C158.876 14.991 158.932 14.696 159.043 14.4194C159.154 14.1428 159.32 13.9031 159.524 13.6819C159.728 13.479 159.968 13.3131 160.246 13.184C160.523 13.0734 160.838 13.0181 161.153 13.0181C161.486 13.0181 161.782 13.0734 162.06 13.184C162.337 13.2946 162.578 13.4606 162.781 13.6634C162.985 13.8662 163.152 14.106 163.263 14.3825C163.374 14.6591 163.429 14.9541 163.429 15.286C163.448 15.6179 163.392 15.913 163.281 16.1895Z" fill="#6D6D6D"/>
<path d="M138.905 24.1182C137.498 24.1182 136.702 23.4728 136.295 22.8828C135.869 22.2927 135.536 21.5367 135.536 19.8773V15.0094H133.926V12.723H135.999V9.58838H138.738V12.723H141.977V15.0094H138.738V19.195C138.72 20.4489 138.923 20.8914 139.219 21.2048C139.756 21.7396 141.385 21.3708 141.977 21.002V23.4175C141.274 23.8969 140.034 24.1182 138.905 24.1182Z" fill="#6D6D6D"/>
</g>
<defs>
<clipPath id="clip0_460_32081">
<rect width="163.636" height="30" fill="white" transform="translate(0.164062)"/>
</clipPath>
</defs>
</svg>
