<svg width="113" height="30" viewBox="0 0 113 30" fill="none" xmlns="http://www.w3.org/2000/svg">
<g clip-path="url(#clip0_460_32070)">
<path d="M111.585 5.18678C111.188 4.73946 110.659 4.51553 109.942 4.51553C109.226 4.51553 108.68 4.75426 108.297 5.24587C107.918 5.72122 107.72 6.43464 107.72 7.37255V14.1572C106.838 13.2045 105.923 12.5201 104.997 12.0584C104.416 11.7771 103.733 11.5695 102.972 11.4639C102.529 11.4047 102.074 11.374 101.573 11.374C99.2429 11.374 97.358 12.1778 95.9107 13.7843C94.48 15.3919 93.7656 17.6237 93.7656 20.4933C93.7656 21.8491 93.9483 23.1128 94.3115 24.2742C94.678 25.4345 95.1921 26.4451 95.8955 27.3092C96.5956 28.1721 97.4314 28.8248 98.3907 29.3034C99.349 29.7633 100.384 29.9998 101.511 29.9998C102.029 29.9998 102.514 29.9571 102.972 29.8685C103.276 29.8213 103.565 29.7479 103.855 29.6582C104.569 29.4216 105.239 29.0799 105.848 28.6485C106.471 28.2007 107.097 27.6214 107.72 26.9215V27.3684C107.72 28.217 107.933 28.8554 108.343 29.3165C108.77 29.7633 109.302 29.9998 109.942 29.9998C110.597 29.9998 111.129 29.7786 111.54 29.3471C111.95 28.9004 112.164 28.2466 112.164 27.3684V7.13493C112.164 6.28628 111.965 5.6314 111.585 5.18678ZM106.852 23.9023C106.44 24.7653 105.894 25.4049 105.226 25.821C104.54 26.2383 103.792 26.4451 102.972 26.4451H102.958C102.135 26.4451 101.389 26.2229 100.703 25.7914C100.02 25.3458 99.4704 24.6898 99.0755 23.8274C98.6806 22.9491 98.4826 21.8934 98.4826 20.6434C98.4826 19.4683 98.6642 18.4269 99.0449 17.5492C99.4113 16.6567 99.943 15.9712 100.614 15.4954C101.298 15.0037 102.06 14.7814 102.927 14.7814H102.972C103.778 14.7814 104.523 15.0196 105.209 15.4801C105.894 15.941 106.44 16.6124 106.852 17.4895C107.263 18.3672 107.46 19.4234 107.46 20.6434C107.46 21.952 107.263 23.0394 106.852 23.9023Z" fill="#6D6D6D"/>
<path d="M92.3166 24.0957C92.0301 23.8426 91.633 23.7086 91.145 23.7086C90.7043 23.7086 90.3696 23.8126 90.1256 24.0058C89.5327 24.542 89.0612 24.9712 88.6947 25.2854C88.3304 25.5834 87.9192 25.8812 87.4772 26.1627C87.0527 26.4299 86.5955 26.6402 86.1415 26.7595C85.6679 26.892 85.1647 26.9511 84.6024 26.9511C84.4798 26.9511 84.3574 26.9511 84.2523 26.9357C83.5522 26.892 82.898 26.697 82.3051 26.3401C81.6029 25.9382 81.0559 25.3458 80.6292 24.5715C80.218 23.7677 80.0069 22.8462 79.9915 21.8053H89.1673C90.399 21.8053 91.3573 21.6251 92.0301 21.2971C92.7137 20.9407 93.0485 20.1971 93.0485 19.0517C93.0485 17.8016 92.7137 16.5811 92.0595 15.3777C91.4044 14.1862 90.4307 13.2045 89.1071 12.4461C87.7955 11.6884 86.2291 11.3154 84.3891 11.3154H84.2523C82.898 11.3296 81.6488 11.5541 80.5385 11.9703C79.3823 12.4166 78.4075 13.0561 77.6002 13.8741C76.8257 14.707 76.2164 15.704 75.8062 16.8643C75.396 18.0261 75.1816 19.2899 75.1816 20.6429C75.1816 23.5306 76.0195 25.7914 77.6933 27.4723C79.2739 29.0646 81.4672 29.898 84.2523 29.9857C84.4044 29.9998 84.5707 29.9998 84.7391 29.9998C86.0475 29.9998 87.2201 29.8377 88.2385 29.4961C89.2591 29.1533 90.0949 28.735 90.7677 28.2313C91.4339 27.7101 91.9371 27.1756 92.2696 26.6236C92.6065 26.074 92.7739 25.5834 92.7739 25.1804C92.7739 24.7203 92.623 24.3481 92.3166 24.0957ZM81.3612 15.6892C82.105 14.9008 83.0654 14.5142 84.236 14.5142H84.2523C85.4688 14.5142 86.4587 14.9008 87.2037 15.6739C87.952 16.4481 88.3907 17.6237 88.4989 19.2001H79.9915C80.1425 17.6533 80.5998 16.4766 81.3612 15.6892Z" fill="#6D6D6D"/>
<path d="M72.3663 23.7086C71.9101 23.7086 71.5743 23.8126 71.3325 24.0058C70.7528 24.542 70.2671 24.9722 69.9006 25.2854C69.5363 25.5834 69.1403 25.8812 68.6984 26.1627C68.2586 26.4299 67.8156 26.6402 67.3441 26.7595C66.8869 26.892 66.3695 26.9511 65.8071 26.9511C65.6857 26.9511 65.5643 26.9511 65.4582 26.9357C64.757 26.892 64.1018 26.697 63.5089 26.3401C62.8251 25.9382 62.2607 25.3458 61.8516 24.5715C61.4238 23.7677 61.2105 22.8462 61.1957 21.8053H70.3874C71.606 21.8053 72.5642 21.6251 73.2491 21.2971C73.9196 20.9407 74.2533 20.1971 74.2533 19.0517C74.2533 17.8016 73.9338 16.5811 73.2797 15.3777C72.6245 14.1862 71.6356 13.2045 70.3294 12.4461C69.0156 11.6884 67.436 11.3154 65.6113 11.3154H65.4582C64.1018 11.3296 62.8689 11.5541 61.7444 11.9703C60.5865 12.4166 59.6128 13.0561 58.8214 13.8741C58.03 14.707 57.4207 15.704 57.0116 16.8643C56.5991 18.0261 56.387 19.2899 56.387 20.6434C56.387 23.5306 57.2391 25.7914 58.915 27.4723C60.4951 29.0646 62.6731 29.898 65.4582 29.9857C65.6244 29.9998 65.7765 29.9998 65.945 29.9998C67.2675 29.9998 68.426 29.8377 69.4422 29.4961C70.4629 29.1533 71.3008 28.735 71.9692 28.2313C72.6539 27.7101 73.1408 27.1756 73.4766 26.6236C73.8124 26.074 73.9786 25.5834 73.9786 25.1804C73.9786 24.7203 73.8278 24.3481 73.539 24.0957C73.2348 23.8426 72.8377 23.7086 72.3663 23.7086ZM62.5665 15.6892C63.3103 14.9008 64.268 14.5142 65.4418 14.5142H65.4582C66.6746 14.5142 67.6636 14.9008 68.4106 15.6739C69.1699 16.4481 69.5964 17.6237 69.719 19.2001H61.1957C61.3642 17.6533 61.8209 16.4766 62.5665 15.6892Z" fill="#6D6D6D"/>
<path d="M9.92383 26.9511V16.0024C10.2433 16.0303 10.5479 16.0451 10.8673 16.0451C12.3889 16.0451 13.8214 15.6438 15.0373 14.9298V26.9511C15.0373 27.9772 14.7933 28.7361 14.3224 29.2431C13.8521 29.7479 13.2263 29.9998 12.4655 29.9998C11.7195 29.9998 11.126 29.7479 10.6381 29.2278C10.1678 28.7219 9.92383 27.9619 9.92383 26.9511Z" fill="#6D6D6D"/>
<path d="M54.1329 5.18678C53.7358 4.73946 53.19 4.51553 52.5041 4.51553C51.7892 4.51553 51.2401 4.75426 50.86 5.24587C50.4667 5.72122 50.2818 6.43464 50.2818 7.37255V14.1572C49.3991 13.2045 48.4862 12.5201 47.5574 12.0584C46.9656 11.7771 46.2945 11.5695 45.5347 11.4639C45.094 11.4047 44.6367 11.374 44.1351 11.374C41.8051 11.374 39.9033 12.1778 38.4735 13.7843C37.0427 15.3919 36.3262 17.6237 36.3262 20.4933C36.3262 21.8491 36.5106 23.1128 36.8584 24.2742C37.2249 25.4345 37.7571 26.4451 38.4589 27.3092C39.1573 28.1721 39.9946 28.8248 40.9552 29.3034C41.9133 29.7633 42.9466 29.9998 44.0728 29.9998C44.5749 29.9998 45.0628 29.9571 45.5347 29.8685C45.8383 29.8213 46.1282 29.7479 46.4175 29.6582C47.1324 29.4216 47.802 29.0799 48.4107 28.6485C49.0343 28.2007 49.6441 27.6214 50.2818 26.9215V27.3684C50.2818 28.217 50.4962 28.8554 50.9065 29.3165C51.3177 29.7633 51.8653 29.9998 52.5041 29.9998C53.1266 29.9998 53.6762 29.7786 54.0887 29.3471C54.4989 28.9004 54.6958 28.2466 54.6958 27.3684V7.13493C54.6958 6.28628 54.5147 5.6314 54.1329 5.18678ZM49.4138 23.9023C49.0041 24.7653 48.4556 25.4049 47.7724 25.821C47.1019 26.2383 46.341 26.4451 45.5347 26.4451H45.5184C44.6991 26.4451 43.9514 26.2229 43.2671 25.7914C42.567 25.3458 42.0342 24.6898 41.6377 23.8274C41.2428 22.9491 41.0448 21.8934 41.0448 20.6434C41.0448 19.4683 41.2291 18.4269 41.5929 17.5492C41.9735 16.6567 42.4905 15.9712 43.1752 15.4954C43.8457 15.0037 44.6202 14.7814 45.474 14.7814H45.5347C46.341 14.7814 47.0865 15.0196 47.7555 15.4801C48.4556 15.941 49.0041 16.6124 49.4138 17.4895C49.8087 18.3672 50.0243 19.4234 50.0243 20.6434C50.0243 21.952 49.8087 23.0394 49.4138 23.9023Z" fill="#6D6D6D"/>
<path d="M22.5399 13.8741V14.4403C23.3766 13.3687 24.2753 12.5951 25.2494 12.0886C26.2389 11.5985 27.3645 11.3439 28.6428 11.3439C29.8756 11.3439 30.9865 11.6122 31.9611 12.1334C32.9352 12.6536 33.6501 13.3983 34.1375 14.3659C34.4574 14.9298 34.6555 15.5414 34.7457 16.1952C34.8376 16.8341 34.8824 17.6664 34.8824 18.6793V27.2052C34.8824 28.1272 34.6555 28.8248 34.2277 29.2869C33.8027 29.7633 33.2377 29.9998 32.5529 29.9998C31.8545 29.9998 31.2916 29.7633 30.8492 29.2716C30.4073 28.7952 30.1961 28.0977 30.1961 27.2052V19.5708C30.1961 18.0546 29.9823 16.8938 29.5556 16.0905C29.1296 15.2878 28.2616 14.8854 26.9849 14.8854C26.1476 14.8854 25.3856 15.1395 24.7003 15.6142C24.0171 16.1059 23.4986 16.7739 23.1781 17.6373C22.9505 18.3224 22.8429 19.586 22.8429 21.4773V27.2052C22.8429 28.1414 22.6175 28.8248 22.1756 29.3034C21.7336 29.7633 21.1714 29.9998 20.4701 29.9998C19.7869 29.9998 19.2367 29.7633 18.7959 29.2716C18.355 28.7952 18.1406 28.0977 18.1406 27.2052V13.948C18.1406 13.0715 18.3387 12.4166 18.7352 11.9999C19.1158 11.5695 19.6475 11.3439 20.3339 11.3439C20.7447 11.3439 21.109 11.4326 21.4431 11.6286C21.7801 11.8202 22.0525 12.1039 22.2504 12.4905C22.4479 12.8759 22.5399 13.3386 22.5399 13.8741Z" fill="#6D6D6D"/>
<path d="M9.95292 0.70847C13.1187 -0.408526 16.7259 -0.348757 19.4344 1.94209C19.9382 2.4032 20.5152 2.98362 20.7438 3.66799C21.0183 4.53088 19.7861 3.57772 19.6171 3.46042C18.7349 2.89435 17.8515 2.41856 16.8638 2.09056C11.5375 0.484532 6.49777 3.38608 3.3648 7.89398C2.05648 9.88755 1.2027 11.9841 0.503119 14.2898C0.427639 14.5438 0.36638 14.8718 0.228022 15.0925C0.0912824 15.3476 0.167856 14.4108 0.167856 14.3796C0.273397 13.4285 0.47249 12.5059 0.716433 11.5833C2.16149 6.67292 5.35682 2.58217 9.95292 0.70847Z" fill="#6D6D6D"/>
<path d="M14.0776 12.8918C12.1759 13.844 9.84587 13.1015 8.88707 11.2415C7.91293 9.38094 8.67486 7.10534 10.5766 6.16799C12.4795 5.21583 14.8096 5.95885 15.7672 7.81943C16.7414 9.67933 15.9806 11.9549 14.0776 12.8918Z" fill="#6D6D6D"/>
</g>
<defs>
<clipPath id="clip0_460_32070">
<rect width="112.017" height="30" fill="white" transform="translate(0.146484)"/>
</clipPath>
</defs>
</svg>
