<svg width="125" height="30" viewBox="0 0 125 30" fill="none" xmlns="http://www.w3.org/2000/svg">
<g clip-path="url(#clip0_460_32060)">
<path d="M122.408 28.0634C122.484 28.0642 122.56 28.0494 122.63 28.02C122.7 27.9907 122.763 27.9473 122.815 27.8927C122.868 27.838 122.908 27.7733 122.935 27.7024C122.961 27.6315 122.972 27.556 122.968 27.4807C122.968 27.0674 122.717 26.8699 122.201 26.8699H121.369V29.0338H121.682V28.0905H122.067L122.076 28.102L122.673 29.0338H123.007L122.365 28.0694L122.408 28.0634ZM122.046 27.8467H121.683V27.1151H122.143C122.381 27.1151 122.652 27.1537 122.652 27.4628C122.652 27.8182 122.378 27.8467 122.044 27.8467" fill="#6D6D6D"/>
<path d="M0.455078 4.40259H5.07578V21.1187H13.6301V25.3538H0.455078V4.40259Z" fill="#6D6D6D"/>
<path d="M15.6724 11.1483H20.1114V25.346H15.6724V11.1483ZM17.8919 4.08984C18.4012 4.08993 18.899 4.24001 19.3224 4.52108C19.7459 4.80216 20.0758 5.20161 20.2707 5.66894C20.4655 6.13626 20.5164 6.65048 20.417 7.14655C20.3176 7.64262 20.0723 8.09828 19.7122 8.4559C19.352 8.81353 18.8932 9.05706 18.3937 9.1557C17.8942 9.25434 17.3764 9.20367 16.9059 9.01009C16.4354 8.8165 16.0333 8.4887 15.7504 8.06814C15.4674 7.64757 15.3164 7.15313 15.3164 6.64733C15.3164 6.31143 15.383 5.97883 15.5125 5.66851C15.6419 5.3582 15.8316 5.07624 16.0708 4.83875C16.31 4.60126 16.5939 4.41289 16.9064 4.28439C17.2188 4.15589 17.5537 4.08978 17.8919 4.08984Z" fill="#6D6D6D"/>
<path d="M38.6816 4.39941H43.1206V16.9205L48.1515 11.1419H53.5939L47.7677 17.7149L53.4713 25.352H47.8921L43.1798 18.334H43.1215V25.3511H38.6826L38.6816 4.39941Z" fill="#6D6D6D"/>
<path d="M22.5742 11.1499H26.837V13.0902H26.8976C27.3234 12.3657 27.9393 11.7696 28.6796 11.3657C29.4199 10.9618 30.2567 10.7651 31.1008 10.7967C35.6022 10.7967 36.4308 13.7382 36.4308 17.5595V25.3453H31.9918V18.4426C31.9918 16.7948 31.9613 14.6768 29.6798 14.6768C27.3725 14.6768 27.0164 16.4711 27.0164 18.3227V25.3435H22.5775L22.5742 11.1499Z" fill="#6D6D6D"/>
<path d="M62.9417 16.5958C62.9502 16.2381 62.8855 15.8824 62.7515 15.5503C62.6176 15.2182 62.4171 14.9166 62.1623 14.6637C61.9075 14.4108 61.6036 14.2119 61.2691 14.079C60.9347 13.9462 60.5765 13.8822 60.2164 13.8909C59.4408 13.8429 58.6773 14.0996 58.0905 14.6056C57.5037 15.1116 57.1406 15.8263 57.0795 16.5958H62.9417ZM66.7019 22.8873C65.9643 23.7757 65.0369 24.49 63.9871 24.9786C62.9372 25.4671 61.791 25.7177 60.6316 25.712C56.1926 25.712 52.6387 22.7693 52.6387 18.2123C52.6387 13.6553 56.1922 10.7139 60.6316 10.7139C64.7807 10.7139 67.3826 13.653 67.3826 18.2123V19.5946H57.0795C57.2078 20.3785 57.617 21.09 58.2318 21.5979C58.8465 22.1059 59.6254 22.3761 60.4249 22.3587C61.0567 22.3548 61.6776 22.194 62.2308 21.891C62.7841 21.588 63.2523 21.1523 63.5928 20.6237L66.7019 22.8873Z" fill="#6D6D6D"/>
<path d="M76.6345 14.5804C74.415 14.5804 73.0833 16.0522 73.0833 18.1968C73.0833 20.3415 74.4145 21.8147 76.6345 21.8147C78.8544 21.8147 80.1889 20.3451 80.1889 18.1968C80.1889 16.0485 78.8567 14.5804 76.6345 14.5804ZM84.2756 25.3435H80.1889V23.4606H80.1283C79.6157 24.1455 78.9507 24.7035 78.1852 25.0913C77.4197 25.479 76.5745 25.686 75.7153 25.6961C71.4501 25.6961 68.6406 22.639 68.6406 18.3158C68.6406 14.3452 71.1269 10.6994 75.214 10.6994C77.0511 10.6994 78.767 11.1985 79.7737 12.5822H79.8319V4.39819H84.2751L84.2756 25.3435Z" fill="#6D6D6D"/>
<path d="M114.243 25.3516H109.804V18.4474C109.804 16.8011 109.775 14.6817 107.496 14.6817C105.184 14.6817 104.83 16.4755 104.83 18.3276V25.3511H100.391V11.1534H104.652V13.0937H104.712C105.138 12.3695 105.755 11.7737 106.495 11.3698C107.235 10.966 108.072 10.7691 108.916 10.8002C113.416 10.8002 114.245 13.7393 114.245 17.5629L114.243 25.3516ZM95.3822 9.21266C94.8727 9.21275 94.3746 9.0628 93.951 8.78175C93.5273 8.50071 93.1971 8.1012 93.002 7.63374C92.807 7.16629 92.7558 6.65189 92.8551 6.1556C92.9545 5.6593 93.1997 5.20339 93.5599 4.84553C93.9201 4.48767 94.3791 4.24392 94.8787 4.14511C95.3784 4.04631 95.8964 4.09688 96.3671 4.29044C96.8378 4.48399 97.2402 4.81183 97.5233 5.23251C97.8065 5.65319 97.9576 6.1478 97.9577 6.65381C97.9578 6.98978 97.8912 7.32247 97.7618 7.6329C97.6324 7.94332 97.4427 8.22539 97.2036 8.463C96.9644 8.70061 96.6805 8.88911 96.3679 9.01774C96.0554 9.14637 95.7205 9.2126 95.3822 9.21266ZM97.6017 25.3516H93.1581V11.1534H97.6017V25.3516ZM116.456 0.001783H90.9275C90.3481 -0.00471121 89.7897 0.217529 89.3752 0.619669C88.9607 1.02181 88.7239 1.57094 88.7168 2.14641V27.606C88.7236 28.1817 88.9603 28.7312 89.3748 29.1338C89.7893 29.5363 90.3478 29.759 90.9275 29.7529H116.456C117.037 29.7601 117.597 29.5381 118.013 29.1355C118.429 28.733 118.668 28.1828 118.676 27.606V2.14457C118.667 1.56797 118.429 1.01821 118.013 0.616076C117.597 0.213946 117.037 -0.00765944 116.456 -5.46843e-05" fill="#6D6D6D"/>
<path d="M122.084 25.9058C121.544 25.9109 121.028 26.1283 120.648 26.5103C120.269 26.8923 120.058 27.4079 120.061 27.9443C120.063 28.4807 120.28 28.9943 120.662 29.3727C121.045 29.751 121.563 29.9635 122.103 29.9635C122.644 29.9635 123.162 29.751 123.544 29.3727C123.927 28.9943 124.144 28.4807 124.146 27.9443C124.149 27.4079 123.937 26.8923 123.558 26.5103C123.179 26.1283 122.663 25.9109 122.123 25.9058H122.084ZM122.084 29.7312C121.73 29.737 121.381 29.6384 121.084 29.4478C120.786 29.2573 120.552 28.9832 120.411 28.6604C120.27 28.3376 120.228 27.9806 120.291 27.6344C120.355 27.2882 120.52 26.9684 120.766 26.7155C121.013 26.4626 121.329 26.2879 121.675 26.2135C122.022 26.1391 122.382 26.1684 122.712 26.2976C123.041 26.4268 123.325 26.6502 123.527 26.9395C123.728 27.2287 123.839 27.5709 123.845 27.9227C123.845 27.9328 123.845 27.9425 123.845 27.9526C123.855 28.4141 123.68 28.8606 123.358 29.194C123.037 29.5274 122.595 29.7203 122.13 29.7303H122.084" fill="#6D6D6D"/>
</g>
<defs>
<clipPath id="clip0_460_32060">
<rect width="123.692" height="30" fill="white" transform="translate(0.455078)"/>
</clipPath>
</defs>
</svg>
