<svg width="113" height="30" viewBox="0 0 113 30" fill="none" xmlns="http://www.w3.org/2000/svg">
<g clip-path="url(#clip0_460_32109)">
<path d="M22.0533 14.1762C22.2723 14.1498 22.4822 14.1492 22.6747 14.1762C22.7863 13.92 22.8054 13.479 22.7053 12.999C22.5559 12.285 22.3544 11.853 21.9376 11.9202C21.5207 11.9874 21.5052 12.5046 21.6545 13.2186C21.7385 13.62 21.8872 13.9638 22.0533 14.1762Z" fill="#6D6D6D"/>
<path d="M18.4734 14.7412C18.7721 14.872 18.955 14.959 19.027 14.8834C19.0731 14.836 19.0593 14.746 18.988 14.6296C18.841 14.389 18.5376 14.1455 18.2167 14.0081C17.5593 13.7249 16.7754 13.8191 16.1709 14.2541C15.9712 14.4004 15.7822 14.6032 15.8092 14.7262C15.8182 14.7658 15.8476 14.7958 15.9178 14.806C16.0821 14.8246 16.6573 14.5342 17.32 14.4934C17.7878 14.4646 18.1753 14.6104 18.4734 14.7412Z" fill="#6D6D6D"/>
<path d="M17.8716 15.0838C17.483 15.145 17.2689 15.2734 17.1309 15.3928C17.0134 15.4954 16.9408 15.6088 16.9414 15.6886L16.9714 15.7594L17.0356 15.784C17.1231 15.784 17.3199 15.7054 17.3199 15.7054C17.8608 15.5116 18.2177 15.535 18.571 15.5752C18.7665 15.5974 18.8589 15.6094 18.9014 15.5422C18.914 15.523 18.9296 15.4816 18.8906 15.418C18.7995 15.2704 18.4072 15.0208 17.8722 15.0844L17.8716 15.0838Z" fill="#6D6D6D"/>
<path d="M20.8443 16.3416C21.1082 16.4712 21.3985 16.4202 21.4932 16.2276C21.588 16.035 21.4506 15.774 21.1867 15.6444C20.9228 15.5148 20.6326 15.5658 20.5378 15.7584C20.443 15.951 20.5804 16.212 20.8443 16.3416Z" fill="#6D6D6D"/>
<path d="M22.5397 14.8589C22.3256 14.8553 22.1475 15.0905 22.1427 15.3851C22.1379 15.6791 22.3076 15.9203 22.5217 15.9239C22.7358 15.9275 22.914 15.6923 22.9188 15.3983C22.9236 15.1043 22.7538 14.8631 22.5397 14.8589Z" fill="#6D6D6D"/>
<path d="M8.14073 20.1617C8.08735 20.0951 7.99978 20.1155 7.91522 20.1347C7.85584 20.1485 7.78867 20.1641 7.7155 20.1629C7.55776 20.1599 7.42401 20.0927 7.34904 19.9775C7.25128 19.8275 7.25728 19.6037 7.36463 19.3475L7.41501 19.2329C7.58715 18.8471 7.87443 18.2009 7.55176 17.5859C7.30886 17.1227 6.91181 16.8341 6.435 16.7735C5.97738 16.7153 5.50597 16.8851 5.20548 17.2169C4.73107 17.7401 4.6573 18.4523 4.74906 18.7043C4.78265 18.7967 4.83543 18.8219 4.87322 18.8273C4.95418 18.8381 5.07294 18.7793 5.14791 18.5783L5.1695 18.5129C5.20309 18.4067 5.26486 18.2087 5.36622 18.0497C5.48857 17.8583 5.6793 17.7263 5.90361 17.6783C6.13152 17.6297 6.36483 17.6729 6.55975 17.8007C6.89202 18.0185 7.01977 18.4253 6.87823 18.8141C6.80505 19.0151 6.6857 19.3991 6.71209 19.7147C6.76547 20.3537 7.15832 20.6105 7.51098 20.6375C7.85404 20.6507 8.09395 20.4575 8.15452 20.3165C8.19051 20.2331 8.15992 20.1827 8.14073 20.1605V20.1617Z" fill="#6D6D6D"/>
<path d="M27.9494 18.9929C27.9362 18.9467 27.851 18.6353 27.7341 18.2603L27.496 17.6213C27.965 16.9187 27.9734 16.2905 27.911 15.9347C27.8445 15.4937 27.6609 15.1175 27.2909 14.7293C26.9208 14.3405 26.1645 13.9427 25.1011 13.6445L24.5434 13.4897C24.5404 13.4669 24.514 12.174 24.49 11.619C24.4726 11.2176 24.4378 10.5918 24.2435 9.97436C24.012 9.13917 23.6089 8.40897 23.1051 7.94157C24.4948 6.50098 25.362 4.91338 25.3596 3.55199C25.3554 0.933595 22.1413 0.140998 18.1799 1.78199L17.3408 2.13839C17.3372 2.13479 15.8234 0.649196 15.8006 0.629396C11.2844 -3.31139 -2.83707 12.3906 1.67795 16.2041L2.66456 17.0405C2.40846 17.7035 2.3083 18.4637 2.39047 19.2809C2.49603 20.3303 3.03701 21.3365 3.91447 22.1141C4.74694 22.8521 5.84211 23.3195 6.90429 23.3183C8.661 27.3689 12.6752 29.8535 17.3822 29.9933C22.431 30.1433 26.6695 27.7733 28.4454 23.5157C28.5618 23.2169 29.0548 21.8705 29.0548 20.6819C29.0548 19.4873 28.38 18.9923 27.95 18.9923L27.9494 18.9929ZM7.29234 22.1807C7.1388 22.2071 6.98226 22.2173 6.82452 22.2137C5.29932 22.1729 3.65237 20.7995 3.48864 19.1705C3.30751 17.3705 4.22695 15.9845 5.8553 15.6563C6.04963 15.6173 6.28534 15.5945 6.53904 15.6077C7.45128 15.6575 8.79535 16.3583 9.10243 18.3461C9.37412 20.1065 8.94229 21.8993 7.29234 22.1807ZM5.58961 14.5793C4.57601 14.7767 3.68296 15.3509 3.13658 16.1447C2.8103 15.8723 2.20154 15.3449 2.09419 15.1397C1.22213 13.4831 3.04601 10.2624 4.31991 8.44377C7.46867 3.94858 12.3999 0.546597 14.6832 1.16339C15.0545 1.26839 16.2834 2.69399 16.2834 2.69399C16.2834 2.69399 14.0013 3.96058 11.8853 5.72638C9.03405 7.92297 6.8797 11.115 5.58961 14.5793ZM21.5961 21.5075C21.6291 21.4937 21.6519 21.4553 21.6483 21.4181C21.6435 21.3719 21.6021 21.3383 21.5559 21.3431C21.5559 21.3431 19.1671 21.6971 16.9102 20.8703C17.1561 20.0711 17.8098 20.3597 18.7976 20.4395C20.5783 20.5457 22.1743 20.2853 23.3534 19.9469C24.3754 19.6535 25.7177 19.0751 26.7607 18.2519C27.1121 19.0247 27.2363 19.8749 27.2363 19.8749C27.2363 19.8749 27.5086 19.8263 27.7359 19.9661C27.9506 20.0987 28.1083 20.3735 28.001 21.0851C27.7815 22.4141 27.2171 23.4923 26.2683 24.4847C25.6907 25.1069 24.9896 25.6475 24.1871 26.0405C23.7613 26.2643 23.3072 26.4581 22.828 26.6147C19.251 27.7835 15.5889 26.4983 14.4085 23.7389C14.3144 23.5313 14.2346 23.3141 14.1716 23.0873C13.6684 21.2687 14.0955 19.0871 15.4305 17.7137C15.5127 17.6261 15.5967 17.5229 15.5967 17.3933C15.5967 17.2847 15.5277 17.1707 15.4683 17.0897C15.0011 16.4123 13.3835 15.2573 13.7086 13.0224C13.9419 11.4168 15.3454 10.2864 16.6541 10.3536L16.9857 10.3728C17.5525 10.4064 18.0473 10.479 18.5145 10.4988C19.296 10.5324 19.9983 10.419 20.8302 9.72536C21.1109 9.49136 21.3358 9.28856 21.7167 9.22376C21.7568 9.21716 21.8564 9.18117 22.0549 9.19077C22.2583 9.20157 22.4514 9.25737 22.6253 9.37316C23.2922 9.81716 23.387 10.893 23.4218 11.6796C23.4416 12.129 23.4956 13.2156 23.5142 13.5269C23.5567 14.2403 23.7439 14.3405 24.1229 14.4659C24.3364 14.5361 24.5344 14.5883 24.8258 14.6705C25.7087 14.9183 26.2323 15.1703 26.5628 15.4931C26.7595 15.6953 26.8512 15.9095 26.8794 16.1147C26.9838 16.8749 26.2899 17.8133 24.4528 18.6665C22.4448 19.5989 20.0091 19.8347 18.3262 19.6475L17.7366 19.5809C16.3902 19.3997 15.6225 21.1403 16.4303 22.3325C16.9509 23.1011 18.3694 23.6009 19.7884 23.6015C23.0421 23.6021 25.5432 22.2119 26.4734 21.0113L26.5478 20.9051C26.5933 20.8361 26.5556 20.7983 26.4986 20.8373C25.7387 21.3575 22.3626 23.4233 18.7514 22.8017C18.7514 22.8017 18.3124 22.7297 17.9124 22.5737C17.5939 22.4501 16.9281 22.1435 16.8472 21.4595C19.7614 22.3613 21.5961 21.5087 21.5961 21.5087V21.5075ZM16.9797 20.9621L16.9803 20.9627L16.9809 20.9639L16.9797 20.9621ZM11.4049 8.42457C12.5241 7.13037 13.9023 6.00538 15.1367 5.37358C15.1792 5.35198 15.2248 5.39818 15.2014 5.44018C15.1037 5.61778 14.9147 5.99818 14.8548 6.28618C14.8452 6.33118 14.8943 6.36478 14.9321 6.33898C15.6998 5.81518 17.0361 5.25418 18.208 5.18218C18.2584 5.17918 18.2824 5.24338 18.2428 5.27458C18.0647 5.41138 17.8698 5.60038 17.7276 5.79178C17.7036 5.82418 17.7264 5.87098 17.7666 5.87158C18.5895 5.87758 19.7494 6.16558 20.5051 6.58977C20.5561 6.61857 20.5201 6.71757 20.4626 6.70437C19.3188 6.44218 17.4463 6.24298 15.5013 6.71757C13.765 7.14117 12.4395 7.79517 11.4727 8.49897C11.4241 8.53437 11.3653 8.47077 11.4049 8.42457Z" fill="#6D6D6D"/>
<path d="M108.746 11.467C107.073 11.467 106.306 12.7222 105.973 13.4368C105.753 13.909 105.763 14.0476 105.603 14.0476C105.37 14.0476 105.563 13.6684 105.668 13.222C105.874 12.3436 105.717 11.6728 105.717 11.6728H103.332V23.1202H106.587V19.4908C106.972 20.1442 107.686 20.8426 108.786 20.8426C111.139 20.8426 112.324 18.85 112.324 16.1584C112.324 13.1074 110.906 11.4658 108.746 11.4658L108.746 11.467ZM107.852 18.718C107.106 18.718 106.557 17.7712 106.557 16.4512C106.557 15.1696 107.121 14.185 107.827 14.185C108.732 14.185 109.119 15.016 109.119 16.4512C109.119 17.944 108.763 18.718 107.852 18.718Z" fill="#6D6D6D"/>
<path d="M44.048 11.4672C42.6164 11.4672 41.908 12.5946 41.583 13.3212C41.4012 13.7274 41.3509 14.0484 41.2033 14.0484C40.9958 14.0484 41.1445 13.7694 40.9748 13.1508C40.7511 12.3366 40.0782 11.4672 38.6471 11.4672C37.1429 11.4672 36.4988 12.7386 36.1935 13.437C35.9848 13.9146 35.9842 14.0478 35.8234 14.0478C35.5907 14.0478 35.7839 13.6686 35.8882 13.2222C36.0945 12.3438 35.9374 11.673 35.9374 11.673H33.5527V20.643H36.8077V16.1802C36.8077 15.3 37.1759 14.1828 37.8069 14.1828C38.5356 14.1828 38.6819 14.7432 38.6819 15.78V20.6454H41.95V16.1802C41.95 15.3966 42.2697 14.1828 42.954 14.1828C43.6929 14.1828 43.8243 14.9694 43.8243 15.78V20.643H47.0336V15.3678C47.0336 13.0266 46.209 11.466 44.0486 11.466L44.048 11.4672ZM99.2946 11.4672C97.863 11.4672 97.1547 12.5946 96.8296 13.3212C96.6479 13.7274 96.5975 14.0484 96.45 14.0484C96.2424 14.0484 96.381 13.6938 96.2215 13.1508C95.9827 12.3408 95.3896 11.4672 93.8938 11.4672C92.3896 11.4672 91.7454 12.7386 91.4401 13.437C91.2314 13.9146 91.2308 14.0478 91.0701 14.0478C90.8374 14.0478 91.0305 13.6686 91.1349 13.2222C91.3412 12.3438 91.184 11.673 91.184 11.673H88.7994V20.643H92.0543V16.1802C92.0543 15.3 92.4226 14.1828 93.0535 14.1828C93.7822 14.1828 93.9286 14.7432 93.9286 15.78V20.6454H97.1967V16.1802C97.1967 15.3966 97.5163 14.1828 98.2007 14.1828C98.9396 14.1828 99.0709 14.9694 99.0709 15.78V20.643H102.28V15.3678C102.28 13.0266 101.456 11.466 99.2952 11.466L99.2946 11.4672ZM52.5904 11.469C50.0972 11.469 48.3081 12.3858 48.3081 12.3858V15.0816C48.3081 15.0816 50.2837 13.9452 51.8863 13.9452C53.1656 13.9452 53.3227 14.6352 53.2646 15.2082C53.2646 15.2082 52.8957 15.1104 51.77 15.1104C49.1172 15.1104 47.7779 16.3164 47.7779 18.2508C47.7779 20.0856 49.2827 20.8524 50.5512 20.8524C52.4015 20.8524 53.2148 19.6086 53.4649 19.0182C53.6382 18.609 53.67 18.333 53.826 18.333C54.0035 18.333 53.9435 18.531 53.9351 18.9384C53.9201 19.6518 53.9537 20.1918 54.0671 20.646H56.5201V16.2312C56.5201 13.4748 55.5449 11.469 52.5904 11.469ZM51.7981 18.5472C51.0197 18.7272 50.6166 18.4872 50.6166 17.9712C50.6166 17.2644 51.3477 16.9812 52.3907 16.9812C52.8507 16.9812 53.2832 17.0208 53.2832 17.0208C53.2832 17.3238 52.6264 18.3564 51.7981 18.5472ZM61.8814 8.95801H65.1363V20.646H61.8814V8.95801ZM68.7187 16.1604C68.7187 15.354 69.4678 14.6202 70.8424 14.6202C72.3407 14.6202 73.5456 15.342 73.8161 15.5058V12.3858C73.8161 12.3858 72.8643 11.469 70.524 11.469C68.0571 11.469 66.003 12.9132 66.003 16.0212C66.003 19.1292 67.867 20.8524 70.5174 20.8524C72.5872 20.8524 73.8215 19.7148 73.8215 19.7148V16.7514C73.431 16.9698 72.3431 17.7252 70.8574 17.7252C69.2843 17.7252 68.7181 17.001 68.7181 16.161L68.7187 16.1604ZM80.4099 11.469C78.5254 11.469 77.8087 13.2552 77.6642 13.5654C77.5196 13.8756 77.4476 14.0538 77.3295 14.0502C77.1238 14.0436 77.2671 13.6692 77.3475 13.4274C77.4992 12.9696 77.8201 11.7696 77.8201 10.2936C77.8201 9.29281 77.6846 8.95801 77.6846 8.95801H74.8747V20.646H78.1296V16.1832C78.1296 15.456 78.4193 14.1858 79.2397 14.1858C79.9187 14.1858 80.1316 14.6892 80.1316 15.7032V20.6466H83.3865V15.8988C83.3865 13.596 83.0051 11.4702 80.4099 11.4702V11.469ZM84.4445 11.6856V20.6454H87.6994V11.6856C87.6994 11.6856 87.1524 12.006 86.0753 12.006C84.9981 12.006 84.4445 11.6856 84.4445 11.6856Z" fill="#6D6D6D"/>
<path d="M88.0532 10.168C88.0532 10.8864 87.1613 11.4688 86.0608 11.4688C84.9602 11.4688 84.0684 10.8864 84.0684 10.168C84.0684 9.44955 84.9602 8.86719 86.0608 8.86719C87.1613 8.86719 88.0532 9.44955 88.0532 10.168Z" fill="#6D6D6D"/>
<path d="M57.5723 11.6855V20.6453H60.8272V11.6855C60.8272 11.6855 60.2802 12.0059 59.203 12.0059L57.5723 11.6855Z" fill="#6D6D6D"/>
<path d="M61.1823 10.1682C61.1823 10.8867 60.2903 11.469 59.1899 11.469C58.0895 11.469 57.1975 10.8867 57.1975 10.1682C57.1975 9.44979 58.0895 8.86743 59.1899 8.86743C60.2903 8.86743 61.1823 9.44979 61.1823 10.1682Z" fill="#6D6D6D"/>
</g>
<defs>
<clipPath id="clip0_460_32109">
<rect width="111.524" height="30" fill="white" transform="translate(0.798828)"/>
</clipPath>
</defs>
</svg>
