<svg width="133" height="30" viewBox="0 0 133 30" fill="none" xmlns="http://www.w3.org/2000/svg">
<g clip-path="url(#clip0_460_32104)">
<path d="M28.5319 14.6176C28.5298 18.0959 27.1463 21.4309 24.6857 23.8893C22.225 26.3478 18.8887 27.7282 15.4104 27.7272C11.9321 27.7261 8.59667 26.3437 6.13751 23.8838C3.67835 21.4239 2.29688 18.088 2.29688 14.6097C2.29687 11.1314 3.67835 7.7955 6.13751 5.33561C8.59667 2.87571 11.9321 1.49323 15.4104 1.49219C18.8887 1.49114 22.225 2.87162 24.6857 5.33004C27.1463 7.78846 28.5298 11.1235 28.5319 14.6018" fill="#6D6D6D"/>
<path d="M13.7055 24.7029L16.263 22.1454L11.3378 17.2201C11.1308 17.0131 10.9058 16.7536 10.785 16.4596C10.5083 15.8724 10.3875 14.9566 11.0618 14.2824C11.8913 13.4529 12.9968 13.7986 14.0685 14.8704L18.8033 19.6051L21.3608 17.0476L16.4183 12.1051C16.2113 11.8981 15.969 11.5869 15.8483 11.3274C15.5198 10.6539 15.537 9.80712 16.1423 9.20187C16.989 8.35512 18.0945 8.66637 19.3223 9.89337L23.9183 14.4901L26.4758 11.9326L21.4988 6.95562C18.9758 4.43262 16.6088 4.51887 14.9843 6.14337C14.3618 6.76587 13.9815 7.42212 13.7918 8.16537C13.6202 8.85512 13.5967 9.57338 13.7228 10.2729L13.6883 10.3081C12.4433 9.78987 11.0265 10.1004 9.9383 11.1894C8.4863 12.6406 8.5388 14.1789 8.7113 15.0774L8.6588 15.1299L7.39805 14.1099L5.18555 16.3216C5.9633 17.0304 6.89705 17.8944 7.9508 18.9481L13.7055 24.7029Z" fill="#F2F2F2"/>
<path d="M15.7853 6.09348e-06C12.8192 0.00267562 9.92042 0.884679 7.45546 2.53452C4.9905 4.18437 3.07002 6.52798 1.93677 9.2691C0.803526 12.0102 0.508402 15.0258 1.0887 17.9346C1.66901 20.8435 3.09868 23.5149 5.19701 25.6114C7.29533 27.7078 9.9681 29.1351 12.8774 29.7128C15.7868 30.2905 18.8021 29.9926 21.5422 28.8569C24.2823 27.7212 26.6242 25.7986 28.2718 23.3322C29.9194 20.8657 30.7988 17.9662 30.7988 15V14.982C30.7941 11.0045 29.2098 7.19181 26.3943 4.38227C23.5789 1.57272 19.7628 -0.00357649 15.7853 6.09348e-06ZM15.7171 3.20551C18.8325 3.20272 21.8215 4.43745 24.0267 6.63815C26.2319 8.83885 27.4728 11.8253 27.4763 14.9408V14.9543C27.4763 17.2775 26.7876 19.5485 25.4971 21.4803C24.2066 23.4122 22.3724 24.918 20.2262 25.8076C18.0801 26.6972 15.7184 26.9305 13.4397 26.4781C11.1609 26.0257 9.06748 24.9078 7.42394 23.2658C5.7804 21.6239 4.66056 19.5315 4.20596 17.2532C3.75136 14.9749 3.98242 12.613 4.86993 10.466C5.75744 8.319 7.26156 6.48332 9.19215 5.19099C11.1227 3.89867 13.3931 3.20773 15.7163 3.20551H15.7171Z" fill="#6D6D6D"/>
<path d="M35.7082 20.9565H39.1507V14.3265C39.1507 14.0468 39.1747 13.7213 39.291 13.4415C39.501 12.8603 40.0357 12.162 40.9432 12.162C42.06 12.162 42.5715 13.1393 42.5715 14.5815V20.9565H46.0147V14.3025C46.0147 14.0235 46.0612 13.6515 46.1542 13.395C46.3867 12.72 46.9687 12.162 47.7832 12.162C48.9232 12.162 49.4587 13.116 49.4587 14.7683V20.9565H52.9012V14.256C52.9012 10.8585 51.2497 9.32403 49.0627 9.32403C48.2257 9.32403 47.5275 9.51003 46.899 9.88203C46.319 10.2309 45.8196 10.6987 45.4335 11.2545H45.387C44.898 10.068 43.7347 9.32328 42.2692 9.32328C40.3147 9.32328 39.3142 10.3943 38.826 11.1158H38.7562L38.5927 9.57978H35.6152C35.6617 10.5803 35.7082 11.79 35.7082 13.2098V20.9565ZM65.154 16.3965C65.2005 16.1408 65.2702 15.6053 65.2702 15.0008C65.2702 12.1853 63.8745 9.32328 60.198 9.32328C56.2425 9.32328 54.4515 12.5108 54.4515 15.396C54.4515 18.9563 56.6617 21.213 60.5235 21.213C62.0595 21.213 63.4785 20.9565 64.6417 20.4915L64.1767 18.0953C63.2227 18.3975 62.2455 18.5603 61.0357 18.5603C59.3835 18.5603 57.9412 17.8628 57.825 16.3965H65.154ZM57.8017 13.977C57.8947 13.023 58.4992 11.6738 59.9887 11.6738C61.617 11.6738 61.9897 13.116 61.9897 13.9763L57.8017 13.977ZM67.2607 7.11303V9.57978H65.748V12.1853H67.2607V16.839C67.2607 18.444 67.5862 19.5375 68.238 20.2125C68.796 20.7938 69.75 21.213 70.89 21.213C71.8905 21.213 72.7282 21.0735 73.194 20.8868L73.17 18.2115C72.8248 18.2743 72.4746 18.3054 72.1237 18.3045C71.0535 18.3045 70.7272 17.676 70.7272 16.3035V12.186H73.2637V9.57978H70.7272V6.32253L67.2607 7.11303ZM84.2077 14.2328C84.2077 11.5575 82.998 9.32328 79.206 9.32328C77.1352 9.32328 75.576 9.88203 74.7847 10.3238L75.4365 12.6038C76.1812 12.1388 77.4142 11.7435 78.5775 11.7435C80.3227 11.7435 80.6482 12.6045 80.6482 13.209V13.3718C76.623 13.3493 73.971 14.7683 73.971 17.7225C73.971 19.5375 75.3435 21.213 77.6467 21.213C78.996 21.213 80.1592 20.724 80.904 19.8165H80.9737L81.183 20.9565H84.3705C84.2542 20.3288 84.2077 19.2818 84.2077 18.1883V14.2328ZM80.7645 16.8158C80.7645 17.025 80.7412 17.2343 80.6947 17.4203C80.4622 18.1418 79.7407 18.723 78.8565 18.723C78.0652 18.723 77.4607 18.2805 77.4607 17.3738C77.4607 16.0013 78.903 15.5588 80.7645 15.582V16.8158ZM94.5503 18.0488C94.0148 18.2813 93.3637 18.4208 92.526 18.4208C90.804 18.4208 89.4082 17.3273 89.4082 15.2333C89.385 13.3718 90.5947 12.0458 92.4562 12.0458C93.387 12.0458 94.0148 12.2085 94.434 12.3945L94.992 9.76578C94.248 9.48678 93.2242 9.32328 92.2935 9.32328C88.059 9.32328 85.779 12.0458 85.779 15.3728C85.779 18.9563 88.1287 21.213 91.8045 21.213C93.1545 21.213 94.341 20.9565 94.9688 20.6775L94.5503 18.0488ZM96.327 20.9565H99.864V15.1875C99.864 14.9085 99.8872 14.6295 99.9337 14.3963C100.166 13.3028 101.05 12.6053 102.353 12.6053C102.749 12.6053 103.051 12.6518 103.307 12.7215V9.37128C103.051 9.32403 102.889 9.32403 102.562 9.32403C101.469 9.32403 100.073 10.0223 99.4912 11.6745H99.3982L99.282 9.58053H96.234C96.2805 10.5578 96.327 11.6505 96.327 13.326V20.9565ZM108.08 20.9565V9.57903H104.543V20.9565H108.08ZM106.312 4.62378C105.172 4.62378 104.427 5.39178 104.45 6.41553C104.427 7.39278 105.172 8.18328 106.289 8.18328C107.452 8.18328 108.196 7.39278 108.196 6.41553C108.173 5.39178 107.452 4.62378 106.312 4.62378ZM110.794 7.11303V9.57978H109.282V12.1853H110.794V16.839C110.794 18.444 111.119 19.5375 111.771 20.2125C112.329 20.7938 113.283 21.213 114.423 21.213C115.424 21.213 116.261 21.0735 116.727 20.8868L116.704 18.2115C116.358 18.2743 116.008 18.3054 115.657 18.3045C114.587 18.3045 114.26 17.676 114.26 16.3035V12.186H116.797V9.57978H114.26V6.32253L110.794 7.11303ZM121.785 20.9565V9.57903H118.248V20.9565H121.785ZM120.016 4.62378C118.876 4.62378 118.132 5.39178 118.155 6.41553C118.132 7.39278 118.877 8.18328 119.993 8.18328C121.157 8.18328 121.901 7.39278 121.901 6.41553C121.878 5.39178 121.156 4.62378 120.016 4.62378ZM132.131 18.0488C131.595 18.2813 130.944 18.4208 130.106 18.4208C128.384 18.4208 126.989 17.3273 126.989 15.2333C126.965 13.3718 128.175 12.0458 130.036 12.0458C130.967 12.0458 131.595 12.2085 132.014 12.3945L132.572 9.76578C131.828 9.48678 130.804 9.32328 129.874 9.32328C125.639 9.32328 123.359 12.0458 123.359 15.3728C123.359 18.9563 125.709 21.213 129.385 21.213C130.734 21.213 131.921 20.9565 132.549 20.6775L132.131 18.0488Z" fill="#6D6D6D"/>
</g>
<defs>
<clipPath id="clip0_460_32104">
<rect width="132" height="30" fill="white" transform="translate(0.798828)"/>
</clipPath>
</defs>
</svg>
