<svg width="100" height="30" viewBox="0 0 100 30" fill="none" xmlns="http://www.w3.org/2000/svg">
<g clip-path="url(#clip0_460_32045)">
<path d="M24.2383 13.3233C19.4811 10.495 11.6341 10.235 7.09275 11.6148C6.36344 11.8362 5.59228 11.4241 5.3713 10.694C5.15032 9.96361 5.56158 9.19208 6.29136 8.97013C11.5046 7.3858 20.1707 7.69191 25.6473 10.9465C26.3034 11.3362 26.5186 12.1843 26.1296 12.8401C25.7405 13.4967 24.8927 13.7131 24.2383 13.3233ZM24.0825 17.5124C23.7489 18.0547 23.0408 18.2245 22.4999 17.8918C18.5338 15.4512 12.486 14.7441 7.79375 16.17C7.18527 16.3541 6.54257 16.0106 6.3578 15.4026C6.1744 14.7934 6.51765 14.1512 7.12503 13.966C12.4853 12.3376 19.1487 13.1263 23.704 15.9288C24.2448 16.2623 24.4151 16.9716 24.0825 17.5124ZM22.2766 21.5356C22.0116 21.9708 21.4452 22.1074 21.012 21.842C17.5463 19.7216 13.1841 19.2425 8.04695 20.4174C7.55184 20.531 7.05852 20.2203 6.94556 19.7249C6.83219 19.2293 7.14121 18.7355 7.63741 18.6224C13.2592 17.3358 18.0816 17.8895 21.9716 20.2692C22.4053 20.5343 22.5419 21.1016 22.2766 21.5356ZM15.5084 0.22525C7.35772 0.22525 0.75 6.83993 0.75 14.9997C0.75 23.1601 7.35772 29.7747 15.5084 29.7747C23.6594 29.7747 30.2667 23.1601 30.2667 14.9997C30.2667 6.83993 23.6594 0.22525 15.5084 0.22525Z" fill="#6D6D6D"/>
<path d="M40.9015 13.865C38.3534 13.2566 37.8996 12.8296 37.8996 11.9327C37.8996 11.085 38.6969 10.5148 39.8822 10.5148C41.0312 10.5148 42.1704 10.9479 43.3651 11.8396C43.4012 11.8666 43.4465 11.8773 43.4911 11.8703C43.5357 11.8636 43.575 11.8392 43.6013 11.8022L44.8455 10.0463C44.8966 9.97418 44.8826 9.87432 44.8137 9.8191C43.3921 8.67707 41.7912 8.12185 39.9199 8.12185C37.1686 8.12185 35.2467 9.77464 35.2467 12.1398C35.2467 14.6761 36.9046 15.574 39.7694 16.2672C42.2078 16.8295 42.6193 17.3005 42.6193 18.1427C42.6193 19.0758 41.7871 19.6559 40.4479 19.6559C38.9607 19.6559 37.7473 19.1544 36.3901 17.9777C36.3565 17.9488 36.3103 17.9354 36.2677 17.9378C36.2229 17.9415 36.1818 17.9623 36.1533 17.9967L34.7582 19.6589C34.6997 19.7279 34.7071 19.8309 34.7746 19.8905C36.3538 21.3018 38.2958 22.0474 40.3915 22.0474C43.3563 22.0474 45.2721 20.4255 45.2721 17.9154C45.2721 15.7941 44.0061 14.6209 40.9015 13.865Z" fill="#6D6D6D"/>
<path d="M54.1319 16.7079C54.1319 18.4992 53.0297 19.7492 51.4515 19.7492C49.8913 19.7492 48.7144 18.4424 48.7144 16.7079C48.7144 14.9737 49.8913 13.6667 51.4515 13.6667C53.0043 13.6667 54.1319 14.9454 54.1319 16.7079ZM51.9797 11.3489C50.6946 11.3489 49.6406 11.8556 48.7714 12.8939V11.7252C48.7714 11.633 48.6967 11.5578 48.6045 11.5578H46.323C46.2308 11.5578 46.1562 11.633 46.1562 11.7252V24.7108C46.1562 24.8031 46.2308 24.8782 46.323 24.8782H48.6045C48.6967 24.8782 48.7714 24.8031 48.7714 24.7108V20.612C49.6407 21.5887 50.695 22.0657 51.9797 22.0657C54.3675 22.0657 56.7847 20.2255 56.7847 16.7079C56.7847 13.1895 54.3675 11.3489 51.9797 11.3489Z" fill="#6D6D6D"/>
<path d="M62.9822 19.7679C61.3466 19.7679 60.1135 18.4523 60.1135 16.7079C60.1135 14.9562 61.304 13.685 62.9445 13.685C64.5907 13.685 65.8321 15.0006 65.8321 16.7462C65.8321 18.4976 64.6336 19.7679 62.9822 19.7679ZM62.9822 11.3489C59.9072 11.3489 57.498 13.7194 57.498 16.7462C57.498 19.74 59.8906 22.0857 62.9445 22.0857C66.0306 22.0857 68.4471 19.7231 68.4471 16.7079C68.4471 13.7028 66.0471 11.3489 62.9822 11.3489Z" fill="#6D6D6D"/>
<path d="M75.0124 11.5578H72.5016V8.9879C72.5016 8.89563 72.4272 8.82064 72.335 8.82064H70.0537C69.9614 8.82064 69.8863 8.89563 69.8863 8.9879V11.5578H68.7892C68.6972 11.5578 68.623 11.6329 68.623 11.7252V13.6883C68.623 13.7805 68.6972 13.8556 68.7892 13.8556H69.8863V18.9353C69.8863 20.9881 70.9069 22.0288 72.9196 22.0288C73.738 22.0288 74.4171 21.8596 75.057 21.4964C75.109 21.4673 75.1414 21.4112 75.1414 21.3515V19.4821C75.1414 19.4243 75.1112 19.37 75.0621 19.3397C75.0124 19.3085 74.9505 19.3069 74.8996 19.3321C74.4601 19.5535 74.0352 19.6557 73.5602 19.6557C72.8283 19.6557 72.5016 19.3231 72.5016 18.5773V13.8556H75.0124C75.1046 13.8556 75.1787 13.7805 75.1787 13.6883V11.7252C75.1787 11.6329 75.1046 11.5578 75.0124 11.5578Z" fill="#6D6D6D"/>
<path d="M83.7609 11.568V11.2523C83.7609 10.3238 84.1166 9.90972 84.9142 9.90972C85.3899 9.90972 85.7719 10.0043 86.1998 10.1472C86.2525 10.1638 86.3075 10.1555 86.3503 10.1239C86.3944 10.0923 86.4192 10.0417 86.4192 9.98806V8.06322C86.4192 7.98965 86.372 7.92455 86.3013 7.90302C85.8493 7.76841 85.2709 7.63008 84.4049 7.63008C82.2973 7.63008 81.1835 8.81816 81.1835 11.0646V11.548H80.0873C79.9953 11.548 79.9199 11.623 79.9199 11.7153V13.6884C79.9199 13.7806 79.9953 13.8558 80.0873 13.8558H81.1835V21.6909C81.1835 21.7832 81.2579 21.8582 81.3499 21.8582H83.6314C83.7236 21.8582 83.7986 21.7832 83.7986 21.6909V13.8558H85.9289L89.1923 21.6889C88.8218 22.5119 88.4575 22.6756 87.9602 22.6756C87.5582 22.6756 87.1349 22.5554 86.7021 22.3184C86.6614 22.2959 86.6133 22.2922 86.5692 22.3058C86.5257 22.3213 86.489 22.3537 86.4705 22.3962L85.6972 24.0946C85.6604 24.1749 85.6917 24.2691 85.7689 24.3108C86.5763 24.7485 87.3052 24.9353 88.2057 24.9353C89.8905 24.9353 90.8217 24.1495 91.6428 22.0359L95.6012 11.7959C95.6209 11.7444 95.6151 11.6864 95.5835 11.6405C95.5522 11.5953 95.5016 11.568 95.4462 11.568H93.071C92.9999 11.568 92.9362 11.6131 92.9129 11.68L90.4796 18.638L87.8145 11.6754C87.7901 11.6107 87.7279 11.568 87.6587 11.568H83.7609Z" fill="#6D6D6D"/>
<path d="M78.689 11.5579H76.4073C76.3151 11.5579 76.2402 11.633 76.2402 11.7253V21.6909C76.2402 21.7832 76.3151 21.8582 76.4073 21.8582H78.689C78.781 21.8582 78.8561 21.7832 78.8561 21.6909V11.7253C78.8561 11.633 78.781 11.5579 78.689 11.5579Z" fill="#6D6D6D"/>
<path d="M77.5612 7.0201C76.6575 7.0201 75.9238 7.75281 75.9238 8.65754C75.9238 9.56297 76.6575 10.2964 77.5612 10.2964C78.4648 10.2964 79.1975 9.56297 79.1975 8.65754C79.1975 7.75281 78.4648 7.0201 77.5612 7.0201Z" fill="#6D6D6D"/>
<path d="M97.6424 12.5492H97.2244V13.0829H97.6424C97.8511 13.0829 97.9757 12.9806 97.9757 12.8159C97.9757 12.6423 97.8511 12.5492 97.6424 12.5492ZM97.9135 13.3105L98.3676 13.9471H97.9847L97.5758 13.3632H97.2244V13.9471H96.9038V12.2597H97.6555C98.0469 12.2597 98.3045 12.4603 98.3045 12.7979C98.3045 13.0745 98.1449 13.2436 97.9135 13.3105ZM97.5575 11.6983C96.735 11.6983 96.1125 12.3527 96.1125 13.1543C96.1125 13.9554 96.7306 14.6012 97.549 14.6012C98.3713 14.6012 98.9943 13.9471 98.9943 13.1451C98.9943 12.344 98.3759 11.6983 97.5575 11.6983ZM97.549 14.762C96.646 14.762 95.9434 14.0359 95.9434 13.1543C95.9434 12.2726 96.6552 11.5383 97.5575 11.5383C98.4603 11.5383 99.1631 12.2643 99.1631 13.1451C99.1631 14.0269 98.4519 14.762 97.549 14.762Z" fill="#6D6D6D"/>
</g>
<defs>
<clipPath id="clip0_460_32045">
<rect width="99.9119" height="30" fill="white"/>
</clipPath>
</defs>
</svg>
