<svg width="152" height="36" viewBox="0 0 152 36" fill="none" xmlns="http://www.w3.org/2000/svg">
<path d="M14.808 2.74365H33.7274L19.8178 23.3604H0.898438L14.808 2.74365Z" fill="white"/>
<path d="M15.6355 25.271L10.248 33.2564H30.0649L43.9744 12.6396H29.3484L20.8263 25.271H15.6355Z" fill="#00DF8E"/>
<path d="M61.2559 21.6705H64.8354L66.9555 24.419L68.4682 26.2088L72.1011 30.875H68.2658L65.7942 27.7429L64.7395 26.2514L61.2559 21.6705ZM72.6231 18.0909C72.6231 20.4418 72.1827 22.4553 71.302 24.1314C70.4285 25.8004 69.2353 27.0788 67.7225 27.9666C66.2168 28.8544 64.5087 29.2983 62.5982 29.2983C60.6877 29.2983 58.9761 28.8544 57.4633 27.9666C55.9576 27.0717 54.7644 25.7898 53.8837 24.1207C53.0101 22.4446 52.5734 20.4347 52.5734 18.0909C52.5734 15.7401 53.0101 13.7301 53.8837 12.0611C54.7644 10.3849 55.9576 9.10298 57.4633 8.2152C58.9761 7.32741 60.6877 6.88352 62.5982 6.88352C64.5087 6.88352 66.2168 7.32741 67.7225 8.2152C69.2353 9.10298 70.4285 10.3849 71.302 12.0611C72.1827 13.7301 72.6231 15.7401 72.6231 18.0909ZM68.6493 18.0909C68.6493 16.4361 68.3901 15.0405 67.8716 13.9041C67.3603 12.7607 66.6501 11.8977 65.741 11.3153C64.8319 10.7259 63.7843 10.4311 62.5982 10.4311C61.4121 10.4311 60.3645 10.7259 59.4555 11.3153C58.5464 11.8977 57.8326 12.7607 57.3141 13.9041C56.8028 15.0405 56.5471 16.4361 56.5471 18.0909C56.5471 19.7457 56.8028 21.1449 57.3141 22.2884C57.8326 23.4247 58.5464 24.2876 59.4555 24.8771C60.3645 25.4595 61.4121 25.7507 62.5982 25.7507C63.7843 25.7507 64.8319 25.4595 65.741 24.8771C66.6501 24.2876 67.3603 23.4247 67.8716 22.2884C68.3901 21.1449 68.6493 19.7457 68.6493 18.0909ZM86.0483 22.1179V12.6364H89.9048V29H86.1655V26.0916H85.995C85.6257 27.0078 85.0185 27.7571 84.1733 28.3395C83.3352 28.9219 82.3018 29.2131 81.0731 29.2131C80.0007 29.2131 79.0525 28.9751 78.2287 28.4993C77.4119 28.0163 76.7727 27.3168 76.3111 26.4006C75.8494 25.4773 75.6186 24.3622 75.6186 23.0554V12.6364H79.4751V22.4588C79.4751 23.4957 79.7592 24.3196 80.3274 24.9304C80.8956 25.5412 81.6413 25.8466 82.5646 25.8466C83.1328 25.8466 83.6832 25.7081 84.2159 25.4311C84.7486 25.1541 85.1854 24.7422 85.5263 24.1953C85.8743 23.6413 86.0483 22.9489 86.0483 22.1179ZM97.1271 7.18182V29H93.2705V7.18182H97.1271ZM105.202 29.3303C104.165 29.3303 103.231 29.1456 102.4 28.7763C101.576 28.3999 100.923 27.8459 100.44 27.1143C99.9637 26.3828 99.7258 25.4808 99.7258 24.4084C99.7258 23.4851 99.8962 22.7216 100.237 22.1179C100.578 21.5142 101.043 21.0312 101.633 20.669C102.222 20.3068 102.886 20.0334 103.625 19.8487C104.371 19.657 105.141 19.5185 105.937 19.4332C106.896 19.3338 107.673 19.245 108.27 19.1669C108.866 19.0817 109.3 18.9538 109.57 18.7834C109.847 18.6058 109.985 18.3324 109.985 17.9631V17.8991C109.985 17.0966 109.747 16.4751 109.271 16.0348C108.795 15.5945 108.11 15.3743 107.215 15.3743C106.271 15.3743 105.521 15.5803 104.967 15.9922C104.42 16.4041 104.051 16.8906 103.859 17.4517L100.258 16.9403C100.543 15.946 101.011 15.1151 101.665 14.4474C102.318 13.7727 103.117 13.2685 104.062 12.9347C105.006 12.5938 106.05 12.4233 107.194 12.4233C107.982 12.4233 108.767 12.5156 109.548 12.7003C110.329 12.8849 111.043 13.1903 111.69 13.6165C112.336 14.0355 112.854 14.6072 113.245 15.3317C113.643 16.0561 113.842 16.9616 113.842 18.0483V29H110.134V26.7521H110.006C109.772 27.2067 109.442 27.6328 109.016 28.0305C108.597 28.4212 108.067 28.7372 107.428 28.9787C106.796 29.2131 106.054 29.3303 105.202 29.3303ZM106.203 26.4964C106.977 26.4964 107.648 26.3437 108.217 26.0384C108.785 25.7259 109.222 25.3139 109.527 24.8026C109.839 24.2912 109.996 23.7337 109.996 23.13V21.2017C109.875 21.3011 109.669 21.3935 109.378 21.4787C109.094 21.5639 108.774 21.6385 108.419 21.7024C108.064 21.7663 107.712 21.8232 107.364 21.8729C107.016 21.9226 106.714 21.9652 106.459 22.0007C105.883 22.0788 105.369 22.2067 104.914 22.3842C104.459 22.5618 104.101 22.8104 103.838 23.13C103.575 23.4425 103.444 23.8473 103.444 24.3445C103.444 25.0547 103.703 25.5909 104.222 25.9531C104.74 26.3153 105.4 26.4964 106.203 26.4964ZM120.976 19.4119V29H117.119V12.6364H120.805V15.4169H120.997C121.374 14.5007 121.974 13.7727 122.798 13.233C123.629 12.6932 124.655 12.4233 125.876 12.4233C127.006 12.4233 127.989 12.6648 128.827 13.1477C129.673 13.6307 130.326 14.3303 130.788 15.2464C131.256 16.1626 131.487 17.2741 131.48 18.581V29H127.624V19.1776C127.624 18.0838 127.34 17.228 126.771 16.6101C126.21 15.9922 125.433 15.6832 124.438 15.6832C123.764 15.6832 123.163 15.8324 122.638 16.1307C122.119 16.4219 121.711 16.8445 121.413 17.3984C121.122 17.9524 120.976 18.6236 120.976 19.4119ZM140.873 29.2876C139.588 29.2876 138.437 28.9574 137.421 28.2969C136.406 27.6364 135.603 26.6776 135.014 25.4205C134.424 24.1634 134.129 22.6364 134.129 20.8395C134.129 19.0213 134.428 17.4872 135.024 16.2372C135.628 14.9801 136.441 14.032 137.464 13.3928C138.487 12.7464 139.627 12.4233 140.884 12.4233C141.843 12.4233 142.631 12.5866 143.249 12.9134C143.867 13.233 144.357 13.62 144.719 14.0746C145.081 14.522 145.362 14.9446 145.561 15.3423H145.72V7.18182H149.588V29H145.795V26.4219H145.561C145.362 26.8196 145.074 27.2422 144.698 27.6896C144.321 28.13 143.824 28.5064 143.206 28.8189C142.588 29.1314 141.811 29.2876 140.873 29.2876ZM141.949 26.1236C142.766 26.1236 143.462 25.9034 144.037 25.4631C144.612 25.0156 145.049 24.3942 145.348 23.5987C145.646 22.8033 145.795 21.8764 145.795 20.8182C145.795 19.7599 145.646 18.8402 145.348 18.0589C145.056 17.2777 144.623 16.6705 144.048 16.2372C143.48 15.804 142.78 15.5874 141.949 15.5874C141.09 15.5874 140.372 15.8111 139.797 16.2585C139.222 16.706 138.789 17.3239 138.497 18.1122C138.206 18.9006 138.061 19.8026 138.061 20.8182C138.061 21.8409 138.206 22.7536 138.497 23.5561C138.796 24.3516 139.232 24.9801 139.808 25.4418C140.39 25.8963 141.104 26.1236 141.949 26.1236Z" fill="white"/>
</svg>
