<svg width="154" height="30" viewBox="0 0 154 30" fill="none" xmlns="http://www.w3.org/2000/svg">
<g clip-path="url(#clip0_460_26142)">
<path d="M18.607 5.63738L9.75957 11.2748L18.607 16.9121L9.75957 22.5495L0.912109 16.8817L9.75957 11.2443L0.912109 5.63738L9.75957 0L18.607 5.63738ZM9.71381 24.3626L18.5613 18.7252L27.4087 24.3626L18.5613 30L9.71381 24.3626ZM18.607 16.8817L27.4545 11.2443L18.607 5.63738L27.4087 0L36.2562 5.63738L27.4087 11.2748L36.2562 16.9121L27.4087 22.5495L18.607 16.8817Z" fill="#6D6D6D"/>
<path d="M43.1973 5.63719H50.3515C54.9125 5.63719 58.6803 8.27304 58.6803 14.2913V15.5559C58.6803 21.6199 55.1566 24.3472 50.4888 24.3472H43.1973V5.63719ZM47.1939 9.03485V20.9343H50.26C52.8532 20.9343 54.5922 19.2431 54.5922 15.4797V14.4894C54.5922 10.7261 52.7617 9.03485 50.1227 9.03485H47.1939ZM60.8006 9.21768H64.004L64.5227 12.7372C65.1329 10.3452 66.6888 9.06532 69.5108 9.06532H70.5023V13.1029H68.8549C65.6057 13.1029 64.8125 14.2304 64.8125 17.43V24.3929H60.8617V9.21768H60.8006ZM71.2956 17.11V16.6834C71.2956 11.6098 74.5447 8.83678 78.9684 8.83678C83.4837 8.83678 86.6413 11.6098 86.6413 16.6834V17.11C86.6413 22.0922 83.5752 24.7738 78.9684 24.7738C74.0718 24.7281 71.2956 22.1075 71.2956 17.11ZM82.5989 17.0643V16.6834C82.5989 13.8647 81.1803 12.1735 78.9227 12.1735C76.7108 12.1735 75.2464 13.7276 75.2464 16.6834V17.0643C75.2464 19.7916 76.665 21.3457 78.9227 21.3457C81.1803 21.3 82.5989 19.7916 82.5989 17.0643ZM88.7159 9.21768H92.0108L92.3922 12.0821C93.1854 10.1623 94.8786 8.83678 97.3803 8.83678C101.24 8.83678 103.787 11.6098 103.787 16.7443V17.171C103.787 22.1532 100.965 24.789 97.3803 24.789C94.9854 24.789 93.3379 23.7073 92.5294 21.9703V29.6341H88.6701L88.7159 9.21768ZM99.7752 17.0643V16.7291C99.7752 13.7123 98.2193 12.2192 96.1447 12.2192C93.9328 12.2192 92.4684 13.9104 92.4684 16.7291V17.0186C92.4684 19.7002 93.8871 21.3914 96.0989 21.3914C98.3718 21.3457 99.7752 19.8982 99.7752 17.0643ZM109.629 21.5894L109.294 24.3624H105.907V4.14404H109.767V11.8992C110.621 9.91855 112.314 8.83678 114.709 8.83678C118.34 8.88249 121.024 11.3812 121.024 16.4091V16.8815C121.024 21.9094 118.477 24.789 114.618 24.789C112.07 24.7281 110.423 23.5549 109.629 21.5894ZM116.967 16.8815V16.5006C116.967 13.7276 115.457 12.1735 113.336 12.1735C111.17 12.1735 109.66 13.9104 109.66 16.5463V16.8815C109.66 19.7002 111.124 21.3457 113.29 21.3457C115.609 21.3457 116.967 19.8982 116.967 16.8815ZM122.718 17.11V16.6834C122.718 11.6098 125.967 8.83678 130.39 8.83678C134.906 8.83678 138.063 11.6098 138.063 16.6834V17.11C138.063 22.0922 134.951 24.7738 130.39 24.7738C125.494 24.7281 122.718 22.1075 122.718 17.11ZM134.051 17.0643V16.6834C134.051 13.8647 132.633 12.1735 130.375 12.1735C128.163 12.1735 126.699 13.7276 126.699 16.6834V17.0643C126.699 19.7916 128.118 21.3457 130.375 21.3457C132.648 21.3 134.051 19.7916 134.051 17.0643ZM143.235 16.5006L137.911 9.21768H142.472L145.538 13.7733L148.65 9.21768H153.165L147.765 16.4549L153.455 24.3624H148.985L145.507 19.3345L142.121 24.3624H137.453L143.235 16.5006Z" fill="#6D6D6D"/>
</g>
<defs>
<clipPath id="clip0_460_26142">
<rect width="152.542" height="30" fill="white" transform="translate(0.912109)"/>
</clipPath>
</defs>
</svg>
