<svg width="132" height="30" viewBox="0 0 132 30" fill="none" xmlns="http://www.w3.org/2000/svg">
<g clip-path="url(#clip0_460_26166)">
<path d="M27.7331 14.6176C27.731 18.0959 26.3475 21.4309 23.8869 23.8893C21.4262 26.3478 18.0899 27.7282 14.6116 27.7272C11.1333 27.7261 7.79784 26.3437 5.33868 23.8838C2.87953 21.4239 1.49805 18.088 1.49805 14.6097C1.49805 11.1314 2.87953 7.7955 5.33868 5.33561C7.79784 2.87571 11.1333 1.49323 14.6116 1.49219C18.0899 1.49114 21.4262 2.87162 23.8869 5.33004C26.3475 7.78846 27.731 11.1235 27.7331 14.6018" fill="#6D6D6D"/>
<path d="M12.9067 24.7029L15.4642 22.1454L10.539 17.2201C10.332 17.0131 10.107 16.7536 9.98622 16.4596C9.70947 15.8724 9.58872 14.9566 10.263 14.2824C11.0925 13.4529 12.198 13.7986 13.2697 14.8704L18.0045 19.6051L20.562 17.0476L15.6195 12.1051C15.4125 11.8981 15.1702 11.5869 15.0495 11.3274C14.721 10.6539 14.7382 9.80712 15.3435 9.20187C16.1902 8.35512 17.2957 8.66637 18.5235 9.89337L23.1195 14.4901L25.677 11.9326L20.7 6.95562C18.177 4.43262 15.81 4.51887 14.1855 6.14337C13.563 6.76587 13.1827 7.42212 12.993 8.16537C12.8214 8.85512 12.7979 9.57338 12.924 10.2729L12.8895 10.3081C11.6445 9.78987 10.2277 10.1004 9.13947 11.1894C7.68747 12.6406 7.73997 14.1789 7.91247 15.0774L7.85997 15.1299L6.59922 14.1099L4.38672 16.3216C5.16447 17.0304 6.09822 17.8944 7.15197 18.9481L12.9067 24.7029Z" fill="#F2F2F2"/>
<path d="M14.9865 6.09348e-06C12.0204 0.00267562 9.1216 0.884679 6.65664 2.53452C4.19167 4.18437 2.27119 6.52798 1.13794 9.2691C0.00469816 12.0102 -0.290427 15.0258 0.289875 17.9346C0.870178 20.8435 2.29985 23.5149 4.39818 25.6114C6.4965 27.7078 9.16927 29.1351 12.0786 29.7128C14.988 30.2905 18.0033 29.9926 20.7434 28.8569C23.4835 27.7212 25.8254 25.7986 27.473 23.3322C29.1206 20.8657 30 17.9662 30 15V14.982C29.9952 11.0045 28.4109 7.19181 25.5955 4.38227C22.78 1.57272 18.964 -0.00357649 14.9865 6.09348e-06ZM14.9183 3.20551C18.0337 3.20272 21.0227 4.43745 23.2279 6.63815C25.4331 8.83885 26.6739 11.8253 26.6775 14.9408V14.9543C26.6775 17.2775 25.9887 19.5485 24.6983 21.4803C23.4078 23.4122 21.5736 24.918 19.4274 25.8076C17.2813 26.6972 14.9196 26.9305 12.6408 26.4781C10.3621 26.0257 8.26865 24.9078 6.62511 23.2658C4.98157 21.6239 3.86173 19.5315 3.40713 17.2532C2.95253 14.9749 3.18359 12.613 4.0711 10.466C4.95861 8.319 6.46273 6.48332 8.39332 5.19099C10.3239 3.89867 12.5943 3.20773 14.9175 3.20551H14.9183Z" fill="#6D6D6D"/>
<path d="M34.9104 20.9565H38.3529V14.3265C38.3529 14.0468 38.3769 13.7213 38.4931 13.4415C38.7031 12.8603 39.2379 12.162 40.1454 12.162C41.2621 12.162 41.7736 13.1393 41.7736 14.5815V20.9565H45.2169V14.3025C45.2169 14.0235 45.2634 13.6515 45.3564 13.395C45.5889 12.72 46.1709 12.162 46.9854 12.162C48.1254 12.162 48.6609 13.116 48.6609 14.7683V20.9565H52.1034V14.256C52.1034 10.8585 50.4519 9.32403 48.2649 9.32403C47.4279 9.32403 46.7296 9.51003 46.1011 9.88203C45.5212 10.2309 45.0217 10.6987 44.6356 11.2545H44.5891C44.1001 10.068 42.9369 9.32328 41.4714 9.32328C39.5169 9.32328 38.5164 10.3943 38.0281 11.1158H37.9584L37.7949 9.57978H34.8174C34.8639 10.5803 34.9104 11.79 34.9104 13.2098V20.9565ZM64.3561 16.3965C64.4026 16.1408 64.4724 15.6053 64.4724 15.0008C64.4724 12.1853 63.0766 9.32328 59.4001 9.32328C55.4446 9.32328 53.6536 12.5108 53.6536 15.396C53.6536 18.9563 55.8639 21.213 59.7256 21.213C61.2616 21.213 62.6806 20.9565 63.8439 20.4915L63.3789 18.0953C62.4249 18.3975 61.4476 18.5603 60.2379 18.5603C58.5856 18.5603 57.1434 17.8628 57.0271 16.3965H64.3561ZM57.0039 13.977C57.0969 13.023 57.7014 11.6738 59.1909 11.6738C60.8191 11.6738 61.1919 13.116 61.1919 13.9763L57.0039 13.977ZM66.4629 7.11303V9.57978H64.9501V12.1853H66.4629V16.839C66.4629 18.444 66.7884 19.5375 67.4401 20.2125C67.9981 20.7938 68.9521 21.213 70.0921 21.213C71.0926 21.213 71.9304 21.0735 72.3961 20.8868L72.3721 18.2115C72.0269 18.2743 71.6767 18.3054 71.3259 18.3045C70.2556 18.3045 69.9294 17.676 69.9294 16.3035V12.186H72.4659V9.57978H69.9294V6.32253L66.4629 7.11303ZM83.4099 14.2328C83.4099 11.5575 82.2001 9.32328 78.4081 9.32328C76.3374 9.32328 74.7781 9.88203 73.9869 10.3238L74.6386 12.6038C75.3834 12.1388 76.6164 11.7435 77.7796 11.7435C79.5249 11.7435 79.8504 12.6045 79.8504 13.209V13.3718C75.8251 13.3493 73.1731 14.7683 73.1731 17.7225C73.1731 19.5375 74.5456 21.213 76.8489 21.213C78.1981 21.213 79.3614 20.724 80.1061 19.8165H80.1759L80.3851 20.9565H83.5726C83.4564 20.3288 83.4099 19.2818 83.4099 18.1883V14.2328ZM79.9666 16.8158C79.9666 17.025 79.9434 17.2343 79.8969 17.4203C79.6644 18.1418 78.9429 18.723 78.0586 18.723C77.2674 18.723 76.6629 18.2805 76.6629 17.3738C76.6629 16.0013 78.1051 15.5588 79.9666 15.582V16.8158ZM93.7524 18.0488C93.2169 18.2813 92.5659 18.4208 91.7281 18.4208C90.0061 18.4208 88.6104 17.3273 88.6104 15.2333C88.5871 13.3718 89.7969 12.0458 91.6584 12.0458C92.5891 12.0458 93.2169 12.2085 93.6362 12.3945L94.1942 9.76578C93.4502 9.48678 92.4264 9.32328 91.4956 9.32328C87.2611 9.32328 84.9811 12.0458 84.9811 15.3728C84.9811 18.9563 87.3309 21.213 91.0067 21.213C92.3567 21.213 93.5431 20.9565 94.1709 20.6775L93.7524 18.0488ZM95.5292 20.9565H99.0661V15.1875C99.0661 14.9085 99.0894 14.6295 99.1359 14.3963C99.3684 13.3028 100.253 12.6053 101.555 12.6053C101.951 12.6053 102.254 12.6518 102.509 12.7215V9.37128C102.254 9.32403 102.091 9.32403 101.765 9.32403C100.671 9.32403 99.2754 10.0223 98.6934 11.6745H98.6004L98.4841 9.58053H95.4361C95.4826 10.5578 95.5292 11.6505 95.5292 13.326V20.9565ZM107.282 20.9565V9.57903H103.745V20.9565H107.282ZM105.514 4.62378C104.374 4.62378 103.629 5.39178 103.652 6.41553C103.629 7.39278 104.374 8.18328 105.491 8.18328C106.654 8.18328 107.398 7.39278 107.398 6.41553C107.375 5.39178 106.654 4.62378 105.514 4.62378ZM109.996 7.11303V9.57978H108.484V12.1853H109.996V16.839C109.996 18.444 110.321 19.5375 110.973 20.2125C111.531 20.7938 112.485 21.213 113.625 21.213C114.626 21.213 115.463 21.0735 115.929 20.8868L115.906 18.2115C115.56 18.2743 115.21 18.3054 114.859 18.3045C113.789 18.3045 113.462 17.676 113.462 16.3035V12.186H115.999V9.57978H113.462V6.32253L109.996 7.11303ZM120.987 20.9565V9.57903H117.45V20.9565H120.987ZM119.219 4.62378C118.079 4.62378 117.334 5.39178 117.357 6.41553C117.334 7.39278 118.079 8.18328 119.195 8.18328C120.359 8.18328 121.103 7.39278 121.103 6.41553C121.08 5.39178 120.359 4.62378 119.219 4.62378ZM131.333 18.0488C130.797 18.2813 130.146 18.4208 129.308 18.4208C127.586 18.4208 126.191 17.3273 126.191 15.2333C126.167 13.3718 127.377 12.0458 129.239 12.0458C130.169 12.0458 130.797 12.2085 131.216 12.3945L131.774 9.76578C131.03 9.48678 130.006 9.32328 129.076 9.32328C124.841 9.32328 122.561 12.0458 122.561 15.3728C122.561 18.9563 124.911 21.213 128.587 21.213C129.936 21.213 131.123 20.9565 131.751 20.6775L131.333 18.0488Z" fill="#6D6D6D"/>
</g>
<defs>
<clipPath id="clip0_460_26166">
<rect width="132" height="30" fill="white"/>
</clipPath>
</defs>
</svg>
