<svg width="112" height="30" viewBox="0 0 112 30" fill="none" xmlns="http://www.w3.org/2000/svg">
<g clip-path="url(#clip0_460_26171)">
<path d="M21.2535 14.1762C21.4724 14.1498 21.6824 14.1492 21.8749 14.1762C21.9864 13.92 22.0056 13.479 21.9055 12.999C21.7561 12.285 21.5546 11.853 21.1378 11.9202C20.7209 11.9874 20.7054 12.5046 20.8547 13.2186C20.9387 13.62 21.0874 13.9638 21.2535 14.1762Z" fill="#6D6D6D"/>
<path d="M17.6736 14.7412C17.9723 14.872 18.1552 14.959 18.2272 14.8834C18.2733 14.836 18.2595 14.746 18.1882 14.6296C18.0412 14.389 17.7377 14.1455 17.4169 14.0081C16.7595 13.7249 15.9756 13.8191 15.3711 14.2541C15.1714 14.4004 14.9824 14.6032 15.0094 14.7262C15.0184 14.7658 15.0478 14.7958 15.118 14.806C15.2823 14.8246 15.8575 14.5342 16.5202 14.4934C16.988 14.4646 17.3755 14.6104 17.6736 14.7412Z" fill="#6D6D6D"/>
<path d="M17.0738 15.0838C16.6851 15.145 16.471 15.2734 16.3331 15.3928C16.2155 15.4954 16.143 15.6088 16.1436 15.6886L16.1735 15.7594L16.2377 15.784C16.3253 15.784 16.522 15.7054 16.522 15.7054C17.063 15.5116 17.4199 15.535 17.7731 15.5752C17.9686 15.5974 18.061 15.6094 18.1036 15.5422C18.1162 15.523 18.1318 15.4816 18.0928 15.418C18.0016 15.2704 17.6094 15.0208 17.0744 15.0844L17.0738 15.0838Z" fill="#6D6D6D"/>
<path d="M20.0454 16.3416C20.3093 16.4712 20.5996 16.4202 20.6944 16.2276C20.7892 16.035 20.6518 15.774 20.3879 15.6444C20.124 15.5148 19.8337 15.5658 19.739 15.7584C19.6442 15.951 19.7816 16.212 20.0454 16.3416Z" fill="#6D6D6D"/>
<path d="M21.7409 14.8589C21.5268 14.8553 21.3486 15.0905 21.3438 15.3851C21.3391 15.6791 21.5088 15.9203 21.7229 15.9239C21.937 15.9275 22.1151 15.6923 22.1199 15.3983C22.1247 15.1043 21.955 14.8631 21.7409 14.8589Z" fill="#6D6D6D"/>
<path d="M7.34288 20.1617C7.2895 20.0951 7.20193 20.1155 7.11737 20.1347C7.05799 20.1485 6.99082 20.1641 6.91765 20.1629C6.75991 20.1599 6.62616 20.0927 6.55119 19.9775C6.45343 19.8275 6.45943 19.6037 6.56678 19.3475L6.61716 19.2329C6.7893 18.8471 7.07658 18.2009 6.75391 17.5859C6.511 17.1227 6.11396 16.8341 5.63715 16.7735C5.17953 16.7153 4.70811 16.8851 4.40763 17.2169C3.93322 17.7401 3.85945 18.4523 3.95121 18.7043C3.9848 18.7967 4.03758 18.8219 4.07536 18.8273C4.15633 18.8381 4.27509 18.7793 4.35006 18.5783L4.37165 18.5129C4.40523 18.4067 4.46701 18.2087 4.56837 18.0497C4.69072 17.8583 4.88145 17.7263 5.10576 17.6783C5.33367 17.6297 5.56698 17.6729 5.7619 17.8007C6.09417 18.0185 6.22192 18.4253 6.08037 18.8141C6.0072 19.0151 5.88785 19.3991 5.91424 19.7147C5.96762 20.3537 6.36046 20.6105 6.71313 20.6375C7.05619 20.6507 7.2961 20.4575 7.35667 20.3165C7.39266 20.2331 7.36207 20.1827 7.34288 20.1605V20.1617Z" fill="#6D6D6D"/>
<path d="M27.1506 18.9929C27.1374 18.9467 27.0522 18.6353 26.9353 18.2603L26.6972 17.6213C27.1662 16.9187 27.1746 16.2905 27.1122 15.9347C27.0456 15.4937 26.8621 15.1175 26.492 14.7293C26.122 14.3405 25.3657 13.9427 24.3023 13.6445L23.7445 13.4897C23.7415 13.4669 23.7151 12.174 23.6911 11.619C23.6738 11.2176 23.639 10.5918 23.4446 9.97436C23.2131 9.13917 22.8101 8.40897 22.3063 7.94157C23.6959 6.50098 24.5632 4.91338 24.5608 3.55199C24.5566 0.933595 21.3425 0.140998 17.381 1.78199L16.542 2.13839C16.5384 2.13479 15.0246 0.649196 15.0018 0.629396C10.4855 -3.31139 -3.6359 12.3906 0.879121 16.2041L1.86573 17.0405C1.60963 17.7035 1.50947 18.4637 1.59164 19.2809C1.6972 20.3303 2.23819 21.3365 3.11564 22.1141C3.94811 22.8521 5.04328 23.3195 6.10546 23.3183C7.86217 27.3689 11.8764 29.8535 16.5833 29.9933C21.6322 30.1433 25.8707 27.7733 27.6466 23.5157C27.7629 23.2169 28.2559 21.8705 28.2559 20.6819C28.2559 19.4873 27.5812 18.9923 27.1512 18.9923L27.1506 18.9929ZM6.49351 22.1807C6.33997 22.2071 6.18343 22.2173 6.0257 22.2137C4.5005 22.1729 2.85354 20.7995 2.68981 19.1705C2.50868 17.3705 3.42812 15.9845 5.05648 15.6563C5.2508 15.6173 5.48651 15.5945 5.74021 15.6077C6.65245 15.6575 7.99652 16.3583 8.3036 18.3461C8.57529 20.1065 8.14346 21.8993 6.49351 22.1807ZM4.79078 14.5793C3.77718 14.7767 2.88413 15.3509 2.33775 16.1447C2.01148 15.8723 1.40272 15.3449 1.29536 15.1397C0.4233 13.4831 2.24718 10.2624 3.52108 8.44377C6.66984 3.94858 11.6011 0.546597 13.8844 1.16339C14.2557 1.26839 15.4846 2.69399 15.4846 2.69399C15.4846 2.69399 13.2025 3.96058 11.0865 5.72638C8.23523 7.92297 6.08087 11.115 4.79078 14.5793ZM20.7973 21.5075C20.8303 21.4937 20.8531 21.4553 20.8495 21.4181C20.8447 21.3719 20.8033 21.3383 20.7571 21.3431C20.7571 21.3431 18.3682 21.6971 16.1113 20.8703C16.3572 20.0711 17.011 20.3597 17.9988 20.4395C19.7795 20.5457 21.3755 20.2853 22.5546 19.9469C23.5766 19.6535 24.9189 19.0751 25.9619 18.2519C26.3133 19.0247 26.4375 19.8749 26.4375 19.8749C26.4375 19.8749 26.7098 19.8263 26.9371 19.9661C27.1518 20.0987 27.3095 20.3735 27.2022 21.0851C26.9826 22.4141 26.4183 23.4923 25.4694 24.4847C24.8919 25.1069 24.1907 25.6475 23.3883 26.0405C22.9624 26.2643 22.5084 26.4581 22.0292 26.6147C18.4522 27.7835 14.79 26.4983 13.6097 23.7389C13.5155 23.5313 13.4358 23.3141 13.3728 23.0873C12.8696 21.2687 13.2966 19.0871 14.6317 17.7137C14.7139 17.6261 14.7978 17.5229 14.7978 17.3933C14.7978 17.2847 14.7289 17.1707 14.6695 17.0897C14.2023 16.4123 12.5847 15.2573 12.9098 13.0224C13.1431 11.4168 14.5465 10.2864 15.8552 10.3536L16.1869 10.3728C16.7537 10.4064 17.2485 10.479 17.7157 10.4988C18.4972 10.5324 19.1995 10.419 20.0314 9.72536C20.3121 9.49136 20.537 9.28856 20.9178 9.22376C20.958 9.21716 21.0576 9.18117 21.2561 9.19077C21.4594 9.20157 21.6525 9.25737 21.8265 9.37316C22.4934 9.81716 22.5882 10.893 22.623 11.6796C22.6428 12.129 22.6967 13.2156 22.7153 13.5269C22.7579 14.2403 22.945 14.3405 23.3241 14.4659C23.5376 14.5361 23.7355 14.5883 24.027 14.6705C24.9099 14.9183 25.4335 15.1703 25.7639 15.4931C25.9607 15.6953 26.0524 15.9095 26.0806 16.1147C26.185 16.8749 25.491 17.8133 23.654 18.6665C21.6459 19.5989 19.2103 19.8347 17.5274 19.6475L16.9378 19.5809C15.5913 19.3997 14.8236 21.1403 15.6315 22.3325C16.1521 23.1011 17.5706 23.6009 18.9896 23.6015C22.2433 23.6021 24.7443 22.2119 25.6746 21.0113L25.7489 20.9051C25.7945 20.8361 25.7567 20.7983 25.6998 20.8373C24.9399 21.3575 21.5638 23.4233 17.9526 22.8017C17.9526 22.8017 17.5136 22.7297 17.1135 22.5737C16.7951 22.4501 16.1293 22.1435 16.0484 21.4595C18.9626 22.3613 20.7973 21.5087 20.7973 21.5087V21.5075ZM16.1809 20.9621L16.1815 20.9627L16.1821 20.9639L16.1809 20.9621ZM10.6061 8.42457C11.7253 7.13037 13.1035 6.00538 14.3378 5.37358C14.3804 5.35198 14.426 5.39818 14.4026 5.44018C14.3048 5.61778 14.1159 5.99818 14.0559 6.28618C14.0463 6.33118 14.0955 6.36478 14.1333 6.33898C14.901 5.81518 16.2373 5.25418 17.4092 5.18218C17.4596 5.17918 17.4836 5.24338 17.444 5.27458C17.2659 5.41138 17.0709 5.60038 16.9288 5.79178C16.9048 5.82418 16.9276 5.87098 16.9678 5.87158C17.7907 5.87758 18.9506 6.16558 19.7063 6.58977C19.7573 6.61857 19.7213 6.71757 19.6637 6.70437C18.52 6.44218 16.6475 6.24298 14.7025 6.71757C12.9662 7.14117 11.6407 7.79517 10.6739 8.49897C10.6253 8.53437 10.5665 8.47077 10.6061 8.42457Z" fill="#6D6D6D"/>
<path d="M107.946 11.467C106.273 11.467 105.506 12.7222 105.173 13.4368C104.953 13.909 104.964 14.0476 104.803 14.0476C104.57 14.0476 104.763 13.6684 104.868 13.222C105.074 12.3436 104.917 11.6728 104.917 11.6728H102.532V23.1202H105.787V19.4908C106.172 20.1442 106.886 20.8426 107.986 20.8426C110.339 20.8426 111.524 18.85 111.524 16.1584C111.524 13.1074 110.106 11.4658 107.946 11.4658L107.946 11.467ZM107.053 18.718C106.306 18.718 105.757 17.7712 105.757 16.4512C105.757 15.1696 106.322 14.185 107.027 14.185C107.933 14.185 108.319 15.016 108.319 16.4512C108.319 17.944 107.963 18.718 107.053 18.718Z" fill="#6D6D6D"/>
<path d="M43.2482 11.4672C41.8166 11.4672 41.1082 12.5946 40.7832 13.3212C40.6014 13.7274 40.5511 14.0484 40.4035 14.0484C40.196 14.0484 40.3447 13.7694 40.175 13.1508C39.9513 12.3366 39.2784 11.4672 37.8473 11.4672C36.3431 11.4672 35.699 12.7386 35.3937 13.437C35.185 13.9146 35.1844 14.0478 35.0236 14.0478C34.7909 14.0478 34.9841 13.6686 35.0884 13.2222C35.2947 12.3438 35.1376 11.673 35.1376 11.673H32.7529V20.643H36.0078V16.1802C36.0078 15.3 36.3761 14.1828 37.0071 14.1828C37.7358 14.1828 37.8821 14.7432 37.8821 15.78V20.6454H41.1502V16.1802C41.1502 15.3966 41.4699 14.1828 42.1542 14.1828C42.8931 14.1828 43.0245 14.9694 43.0245 15.78V20.643H46.2338V15.3678C46.2338 13.0266 45.4091 11.466 43.2488 11.466L43.2482 11.4672ZM98.4948 11.4672C97.0632 11.4672 96.3549 12.5946 96.0298 13.3212C95.8481 13.7274 95.7977 14.0484 95.6502 14.0484C95.4426 14.0484 95.5812 13.6938 95.4216 13.1508C95.1829 12.3408 94.5898 11.4672 93.094 11.4672C91.5898 11.4672 90.9456 12.7386 90.6403 13.437C90.4316 13.9146 90.431 14.0478 90.2703 14.0478C90.0376 14.0478 90.2307 13.6686 90.3351 13.2222C90.5414 12.3438 90.3842 11.673 90.3842 11.673H87.9996V20.643H91.2545V16.1802C91.2545 15.3 91.6227 14.1828 92.2537 14.1828C92.9824 14.1828 93.1288 14.7432 93.1288 15.78V20.6454H96.3969V16.1802C96.3969 15.3966 96.7165 14.1828 97.4009 14.1828C98.1398 14.1828 98.2711 14.9694 98.2711 15.78V20.643H101.48V15.3678C101.48 13.0266 100.656 11.466 98.4954 11.466L98.4948 11.4672ZM51.7906 11.469C49.2974 11.469 47.5083 12.3858 47.5083 12.3858V15.0816C47.5083 15.0816 49.4839 13.9452 51.0865 13.9452C52.3658 13.9452 52.5229 14.6352 52.4648 15.2082C52.4648 15.2082 52.0959 15.1104 50.9702 15.1104C48.3174 15.1104 46.9781 16.3164 46.9781 18.2508C46.9781 20.0856 48.4829 20.8524 49.7514 20.8524C51.6017 20.8524 52.415 19.6086 52.6651 19.0182C52.8384 18.609 52.8702 18.333 53.0261 18.333C53.2037 18.333 53.1437 18.531 53.1353 18.9384C53.1203 19.6518 53.1539 20.1918 53.2673 20.646H55.7203V16.2312C55.7203 13.4748 54.7451 11.469 51.7906 11.469ZM50.9983 18.5472C50.2199 18.7272 49.8168 18.4872 49.8168 17.9712C49.8168 17.2644 50.5479 16.9812 51.5909 16.9812C52.0509 16.9812 52.4834 17.0208 52.4834 17.0208C52.4834 17.3238 51.8266 18.3564 50.9983 18.5472ZM61.0816 8.95801H64.3365V20.646H61.0816V8.95801ZM67.9189 16.1604C67.9189 15.354 68.668 14.6202 70.0426 14.6202C71.5409 14.6202 72.7458 15.342 73.0163 15.5058V12.3858C73.0163 12.3858 72.0644 11.469 69.7242 11.469C67.2573 11.469 65.2031 12.9132 65.2031 16.0212C65.2031 19.1292 67.0672 20.8524 69.7176 20.8524C71.7874 20.8524 73.0217 19.7148 73.0217 19.7148V16.7514C72.6312 16.9698 71.5433 17.7252 70.0576 17.7252C68.4845 17.7252 67.9183 17.001 67.9183 16.161L67.9189 16.1604ZM79.6101 11.469C77.7256 11.469 77.0089 13.2552 76.8644 13.5654C76.7198 13.8756 76.6478 14.0538 76.5297 14.0502C76.324 14.0436 76.4673 13.6692 76.5477 13.4274C76.6994 12.9696 77.0203 11.7696 77.0203 10.2936C77.0203 9.29281 76.8848 8.95801 76.8848 8.95801H74.0749V20.646H77.3298V16.1832C77.3298 15.456 77.6195 14.1858 78.4399 14.1858C79.1189 14.1858 79.3318 14.6892 79.3318 15.7032V20.6466H82.5867V15.8988C82.5867 13.596 82.2052 11.4702 79.6101 11.4702V11.469ZM83.6447 11.6856V20.6454H86.8996V11.6856C86.8996 11.6856 86.3526 12.006 85.2755 12.006C84.1983 12.006 83.6447 11.6856 83.6447 11.6856Z" fill="#6D6D6D"/>
<path d="M87.2553 10.1682C87.2553 10.8867 86.3635 11.469 85.2629 11.469C84.1624 11.469 83.2705 10.8867 83.2705 10.1682C83.2705 9.44979 84.1624 8.86743 85.2629 8.86743C86.3635 8.86743 87.2553 9.44979 87.2553 10.1682Z" fill="#6D6D6D"/>
<path d="M56.7725 11.6855V20.6453H60.0274V11.6855C60.0274 11.6855 59.4804 12.0059 58.4032 12.0059L56.7725 11.6855Z" fill="#6D6D6D"/>
<path d="M60.3833 10.1682C60.3833 10.8867 59.4912 11.469 58.3909 11.469C57.2905 11.469 56.3984 10.8867 56.3984 10.1682C56.3984 9.44979 57.2905 8.86743 58.3909 8.86743C59.4912 8.86743 60.3833 9.44979 60.3833 10.1682Z" fill="#6D6D6D"/>
</g>
<defs>
<clipPath id="clip0_460_26171">
<rect width="111.524" height="30" fill="white"/>
</clipPath>
</defs>
</svg>
