<svg width="395" height="340" viewBox="0 0 395 340" fill="none" xmlns="http://www.w3.org/2000/svg">
<path d="M0 33.6722C0 15.7371 15.6327 1.8092 33.4489 3.8711L299.449 34.6557C314.582 36.4071 326 49.2226 326 64.4568V197C326 213.569 312.569 227 296 227H30C13.4315 227 0 213.569 0 197V33.6722Z" fill="url(#paint0_linear_70_697)"/>
<path d="M69 146.672C69 128.737 84.6327 114.809 102.449 116.871L368.449 147.656C383.582 149.407 395 162.223 395 177.457V310C395 326.569 381.569 340 365 340H99C82.4315 340 69 326.569 69 310V146.672Z" fill="url(#paint1_linear_70_697)"/>
<defs>
<linearGradient id="paint0_linear_70_697" x1="163" y1="0" x2="163" y2="227" gradientUnits="userSpaceOnUse">
<stop stop-color="white" stop-opacity="0.15"/>
<stop offset="1" stop-color="white" stop-opacity="0"/>
</linearGradient>
<linearGradient id="paint1_linear_70_697" x1="232" y1="113" x2="232" y2="340" gradientUnits="userSpaceOnUse">
<stop stop-color="white" stop-opacity="0.15"/>
<stop offset="1" stop-color="white" stop-opacity="0"/>
</linearGradient>
</defs>
</svg>
